<?xml version="1.0" encoding="UTF-8"?>
<svg width="11px" height="7px" viewBox="0 0 11 7" version="1.1" xmlns="http://www.w3.org/2000/svg" xmlns:xlink="http://www.w3.org/1999/xlink">
    <!-- Generator: Sketch 57.1 (83088) - https://sketch.com -->
    <title>chevron-left-regular</title>
    <desc>Created with Sketch.</desc>
    <g id="#---Navigation" stroke="none" stroke-width="1" fill="none" fill-rule="evenodd">
        <g id="Homepage_mobile-Copy-2" transform="translate(-323.000000, -93.000000)" fill="#7AB642" fill-rule="nonzero">
            <g id="chevron-left-regular" transform="translate(328.500000, 96.500000) rotate(-90.000000) translate(-328.500000, -96.500000) translate(325.000000, 91.000000)">
                <path d="M5.94757576,10.4206155 L6.41672229,9.97351276 C6.52775924,9.86769311 6.52775924,9.69611441 6.41672229,9.59027217 L2.1349753,5.5 L6.41672229,1.40970807 C6.52775924,1.30388841 6.52775924,1.13230972 6.41672229,1.02646748 L5.94757576,0.579364743 C5.8365388,0.473545086 5.65650065,0.473545086 5.54544001,0.579364743 L0.583277715,5.30839241 C0.472240762,5.41421206 0.472240762,5.58579076 0.583277715,5.691633 L5.54544001,10.4206381 C5.65650065,10.5264577 5.8365388,10.5264577 5.94757576,10.4206155 Z" id="Path" transform="translate(3.500000, 5.500000) scale(-1, 1) translate(-3.500000, -5.500000) "></path>
            </g>
        </g>
    </g>
</svg>