<?xml version="1.0" encoding="utf-8"?>
<!-- Generator: Adobe Illustrator 21.0.2, SVG Export Plug-In . SVG Version: 6.00 Build 0)  -->
<svg version="1.1" id="Layer_1" xmlns="http://www.w3.org/2000/svg" xmlns:xlink="http://www.w3.org/1999/xlink" x="0px" y="0px"
	 width="29px" height="29px" viewBox="0 0 29 29" style="enable-background:new 0 0 29 29;" xml:space="preserve">
<style type="text/css">
	.st0{fill:#D7D7D7;}
</style>
<path class="st0" d="M29,2v25c0,1.1-0.9,2-2,2h-7V17.4h4.3c0.1-1.1,0.1-1.6,0.2-2.6v-0.8H20c0-1.2-0.1-2.3,0-3.4
	c0-0.8,0.6-1.1,1.3-1.2c0.8-0.1,1.7-0.1,2.5-0.1h0.5c0.1-1,0.1-2,0.1-3v-1h-3.6c-0.5,0.1-1,0.2-1.5,0.3c-2,0.6-3.3,2.2-3.4,4.4
	c-0.1,1.2,0,2.4,0,3.8h-3v3.5c1,0,1.9,0,3,0.1v11c0,0.2,0,0.3,0,0.5L2,29c-1.1,0-2-0.9-2-2V2c0-1.1,0.9-2,2-2h25C28.1,0,29,0.9,29,2
	z"/>
</svg>
