<?xml version="1.0" encoding="UTF-8"?>
<svg width="88px" height="88px" viewBox="0 0 88 88" version="1.1" xmlns="http://www.w3.org/2000/svg" xmlns:xlink="http://www.w3.org/1999/xlink">
    <!-- Generator: Sketch 57.1 (83088) - https://sketch.com -->
    <title>noun_tickets_148919</title>
    <desc>Created with Sketch.</desc>
    <g id="0.2---Membership" stroke="none" stroke-width="1" fill="none" fill-rule="evenodd">
        <g id="Membership" transform="translate(-227.000000, -856.000000)" fill="#FFFFFF" fill-rule="nonzero">
            <g id="admission" transform="translate(177.000000, 832.000000)">
                <g id="noun_tickets_148919" transform="translate(50.000000, 24.000000)">
                    <g id="Group">
                        <path d="M32.632,67.233 C33.281,66.989 33.857,66.576 34.297,66.039 L62.096,32.159 C62.767,31.342 63.079,30.312 62.975,29.259 C62.871,28.207 62.364,27.257 61.546,26.587 L44.59,12.674 C43.5,11.78 42.003,11.533 40.683,12.03 C40.034,12.274 39.458,12.687 39.018,13.224 L11.219,47.104 C10.548,47.921 10.236,48.951 10.34,50.004 C10.444,51.056 10.951,52.006 11.769,52.676 L28.725,66.589 C29.814,67.483 31.312,67.73 32.632,67.233 Z M13.526,48.997 L41.325,15.117 C41.437,14.98 41.579,14.882 41.734,14.823 C42.049,14.704 42.417,14.753 42.696,14.981 L59.652,28.894 C60.068,29.235 60.128,29.849 59.787,30.265 L31.988,64.145 C31.876,64.282 31.734,64.38 31.579,64.439 C31.264,64.558 30.896,64.509 30.617,64.281 L13.662,50.368 C13.246,50.027 13.185,49.413 13.526,48.997 Z" id="Shape"></path>
                        <path d="M29.726,45.871 L35.292,44.677 C35.512,44.653 35.729,44.738 35.874,44.905 L39.055,49.522 C39.285,49.787 39.626,49.844 39.909,49.737 C40.033,49.69 40.145,49.612 40.232,49.507 C40.307,49.416 40.363,49.304 40.389,49.173 L40.97,43.574 C40.992,43.466 41.04,43.367 41.109,43.284 C41.177,43.201 41.265,43.134 41.367,43.091 L46.744,41.428 C46.867,41.376 46.966,41.3 47.041,41.208 C47.325,40.862 47.264,40.3 46.825,40.051 L41.676,37.833 C41.484,37.724 41.358,37.527 41.339,37.307 L41.423,31.615 C41.378,31.084 40.839,30.789 40.388,30.959 C40.3,30.992 40.216,31.043 40.139,31.113 L36.434,35.389 C36.37,35.447 36.297,35.492 36.218,35.521 C36.095,35.567 35.96,35.577 35.829,35.547 L30.445,33.644 C30.287,33.607 30.135,33.621 30.001,33.671 C29.873,33.719 29.761,33.801 29.676,33.905 C29.502,34.117 29.439,34.42 29.57,34.71 L32.488,39.619 C32.579,39.82 32.565,40.054 32.451,40.243 L28.981,44.711 C28.654,45.256 29.093,45.942 29.726,45.871 Z" id="Path"></path>
                        <path d="M87.457,43.124 L76.947,23.797 C76.351,22.701 75.207,22.002 73.959,21.97 C73.347,21.954 72.739,22.101 72.2,22.394 C71.515,22.766 70.76,22.978 69.991,23.037 C70.127,22.049 70.517,21.112 71.166,20.321 C72.383,18.836 72.167,16.637 70.682,15.42 L53.758,1.533 C52.799,0.746 51.482,0.529 50.32,0.967 C49.75,1.181 49.245,1.544 48.857,2.016 C48.247,2.759 47.453,3.329 46.561,3.666 C44.734,4.354 42.663,4.013 41.155,2.776 C40.196,1.989 38.879,1.772 37.717,2.21 C37.147,2.425 36.641,2.786 36.253,3.259 L0.906,46.338 C-0.311,47.823 -0.094,50.022 1.39,51.24 C2.52,52.168 3.221,53.479 3.365,54.933 C3.509,56.388 3.077,57.812 2.149,58.942 C0.932,60.427 1.148,62.626 2.633,63.843 L9.658,69.607 L16.3,81.821 C16.896,82.917 18.04,83.616 19.288,83.648 C19.9,83.664 20.508,83.517 21.047,83.224 C21.895,82.763 22.85,82.531 23.809,82.556 C25.771,82.606 27.57,83.706 28.506,85.428 C29.101,86.523 30.246,87.223 31.494,87.255 C32.106,87.271 32.714,87.124 33.253,86.831 L82.449,60.077 C84.143,59.154 84.773,57.025 83.851,55.33 C83.149,54.039 82.992,52.553 83.408,51.144 C83.824,49.735 84.764,48.572 86.055,47.871 C87.75,46.948 88.38,44.819 87.457,43.124 Z M4.456,60.835 C5.889,59.089 6.556,56.889 6.335,54.64 C6.113,52.392 5.029,50.365 3.283,48.932 C3.071,48.759 3.04,48.443 3.214,48.231 L38.56,5.153 C38.735,4.941 39.055,4.915 39.261,5.083 C41.59,6.994 44.79,7.521 47.612,6.459 C48.994,5.939 50.223,5.057 51.164,3.91 C51.337,3.697 51.659,3.673 51.865,3.84 L68.789,17.726 C69.001,17.901 69.032,18.215 68.858,18.427 C67.425,20.173 66.758,22.373 66.979,24.622 C67.201,26.87 68.285,28.897 70.031,30.33 C70.243,30.503 70.274,30.819 70.1,31.031 L34.754,74.109 C34.581,74.322 34.26,74.348 34.053,74.179 C31.724,72.268 28.524,71.741 25.702,72.803 C24.32,73.323 23.091,74.205 22.15,75.352 C21.978,75.565 21.656,75.59 21.449,75.422 L4.525,61.536 C4.313,61.361 4.282,61.047 4.456,60.835 Z M72.094,51.503 C72.352,51.978 72.177,52.572 71.702,52.831 L43.485,68.176 L66.143,40.56 L72.094,51.503 Z M84.622,45.236 C82.627,46.32 81.175,48.117 80.531,50.294 C79.888,52.471 80.131,54.769 81.215,56.763 C81.347,57.005 81.257,57.31 81.015,57.442 L31.82,84.195 C31.578,84.328 31.27,84.231 31.141,83.995 C29.695,81.335 26.914,79.635 23.885,79.558 C22.401,79.52 20.924,79.877 19.614,80.589 C19.374,80.723 19.064,80.624 18.935,80.389 L15.824,74.668 L19.557,77.731 C20.516,78.518 21.833,78.735 22.995,78.297 C23.565,78.082 24.07,77.72 24.458,77.248 C25.068,76.506 25.862,75.935 26.754,75.599 C28.581,74.911 30.652,75.252 32.16,76.489 C33.119,77.276 34.436,77.493 35.599,77.055 C36.169,76.84 36.674,76.478 37.063,76.006 L38.426,74.344 L73.136,55.468 C74.07,54.96 74.75,54.119 75.051,53.1 C75.352,52.081 75.238,51.005 74.731,50.072 L68.199,38.06 L72.41,32.927 C73.627,31.442 73.41,29.243 71.926,28.025 C71.256,27.475 70.759,26.781 70.418,26.011 C71.54,25.9 72.636,25.574 73.635,25.031 C73.877,24.898 74.185,24.997 74.314,25.231 L84.824,44.558 C84.954,44.8 84.864,45.104 84.622,45.236 Z" id="Shape"></path>
                    </g>
                </g>
            </g>
        </g>
    </g>
</svg>