<?xml version="1.0" encoding="UTF-8"?>
<svg width="75px" height="71px" viewBox="0 0 75 71" version="1.1" xmlns="http://www.w3.org/2000/svg" xmlns:xlink="http://www.w3.org/1999/xlink">
    <!-- Generator: Sketch 57.1 (83088) - https://sketch.com -->
    <title>noun_Birthday_2870586</title>
    <desc>Created with Sketch.</desc>
    <g id="0.2---Membership" stroke="none" stroke-width="1" fill="none" fill-rule="evenodd">
        <g id="Membership" transform="translate(-541.000000, -1182.000000)" fill="#FFFFFF" fill-rule="nonzero">
            <g id="early-entry-copy" transform="translate(440.000000, 1154.000000)">
                <g id="noun_Birthday_2870586" transform="translate(101.000000, 28.000000)">
                    <g id="Group">
                        <path d="M8.86990847,70.972823 C6.79033181,70.972823 4.83518307,70.1714402 3.36487414,68.7166196 C1.18524027,66.5596124 0.497196796,63.3279234 1.61189931,60.4840167 L16.7735698,21.795811 C16.9963387,21.2274713 17.6176201,20.9181627 18.2114416,21.0791866 C18.8056064,21.2405502 19.1800915,21.8204402 19.0784897,22.4217321 C18.7939359,24.1070478 22.8993707,31.8395933 31.7624142,40.6113206 C40.0453661,48.808933 47.6709954,53.1749234 49.9910183,53.1749234 C50.0643021,53.1749234 50.1132151,53.169488 50.1413616,53.1647321 C50.7485698,53.0640072 51.3350114,53.4349737 51.4978833,54.0230167 C51.6607551,54.61089 51.3480549,55.2256005 50.773627,55.4460742 L11.6826659,70.4515335 C10.7814645,70.7975311 9.83512586,70.972823 8.86990847,70.972823 Z M17.6651602,26.0965766 L3.85194508,61.3438301 C3.08135011,63.3099187 3.55709382,65.5438708 5.06378719,67.0348708 C6.08014874,68.0407608 7.43203661,68.5948325 8.86990847,68.5948325 C9.53684211,68.5948325 10.1909039,68.473555 10.8142449,68.2343971 L46.426373,54.5645191 C42.0868421,52.6186435 35.8124142,47.9824115 30.0636728,42.2930694 C26.1641876,38.4335909 22.6357551,34.2145263 20.1283181,30.412799 C19.2665904,29.1062632 18.3418764,27.5705909 17.6651602,26.0965766 Z" id="Shape"></path>
                        <path d="M49.9922197,55.5537632 C46.2696796,55.5537632 37.7020023,49.8528708 30.0633295,42.2927297 C25.7812929,38.054811 22.0290618,33.4873708 19.4979405,29.4317081 C18.3127002,27.5325431 17.4858124,25.8873134 17.0402746,24.5413708 C16.8262586,23.8948971 16.1749428,21.9274498 17.3207094,20.7936579 C17.7564645,20.3623923 18.3600686,20.1437871 19.1147025,20.1437871 C22.8374142,20.1437871 31.4049199,25.8448493 39.0437643,33.4049904 C43.3256293,37.6429091 47.0778604,42.2101794 49.6089817,46.2658421 C50.794222,48.1650072 51.6211098,49.8102368 52.0666476,51.1561794 C52.2806636,51.8026531 52.9318078,53.7701005 51.7862128,54.9038923 C51.3504577,55.3351579 50.7470252,55.5537632 49.9922197,55.5537632 Z M19.0633867,22.5227967 C19.0371281,23.1023469 19.4850686,25.0159498 21.9276316,28.7879522 C24.3581808,32.5412703 27.8509153,36.740122 31.7624142,40.6113206 C40.0457094,48.8096124 47.6720252,53.1759426 49.9922197,53.1759426 C50.0109268,53.1759426 50.0282609,53.1756029 50.0438787,53.1750933 C50.0701373,52.5955431 49.6223684,50.6817703 47.1798055,46.9099378 C44.7490847,43.1564498 41.2563501,38.9577679 37.3450229,35.0865694 C29.0615561,26.8882775 21.4354119,22.5217775 19.1150458,22.5217775 C19.096167,22.5217775 19.0790046,22.5221172 19.0633867,22.5227967 Z" id="Shape"></path>
                        <path d="M39.4687071,59.3960861 C39.3099542,59.3960861 39.148627,59.3646627 38.9933066,59.2984187 C34.7804348,57.499299 29.0335812,53.284311 23.9955378,48.2985144 C18.9576659,43.3122081 14.6987986,37.6245646 12.8809497,33.4552679 C12.6180206,32.8522775 12.8987986,32.1526388 13.5080664,31.8924187 C14.1173341,31.6323684 14.8242563,31.9100837 15.0871854,32.5130742 C16.4237986,35.5788134 19.9122426,40.8939617 25.6946224,46.6171053 C31.4770023,52.3393995 36.8474828,55.7922416 39.9453089,57.1152536 C40.5545767,57.3753038 40.8353547,58.0749426 40.572254,58.677933 C40.3764302,59.1272033 39.9338101,59.3960861 39.4687071,59.3960861 Z" id="Path"></path>
                        <path d="M26.6653318,31.2309976 C26.3618993,31.2309976 26.0584668,31.1180431 25.824714,30.8912847 C25.3506865,30.431823 25.3427918,29.6790191 25.8072082,29.2098756 C31.5866705,23.3707201 33.8284325,16.1339856 34.6913616,11.0912871 C35.6358124,5.57180144 35.1847826,1.39010526 35.1801487,1.34849043 C35.1070366,0.696241627 35.5815789,0.108028708 36.2406178,0.0351602871 C36.8996568,-0.0373684211 37.4936499,0.431095694 37.5679634,1.08317464 C37.5885584,1.26390191 38.0608696,5.57944498 37.0735126,11.4116364 C36.1590961,16.8123923 33.7602975,24.573134 27.523627,30.8741292 C27.2883295,31.1117584 26.9768307,31.2309976 26.6653318,31.2309976 Z" id="Path"></path>
                        <path d="M32.7338101,34.8341627 C32.393135,34.8341627 32.0546911,34.6916531 31.8169908,34.4142775 C31.3877574,33.9133708 31.4500572,33.1631148 31.9561785,32.7384737 C41.1216247,25.0451651 43.6901602,16.5842751 43.7152174,16.4996866 C43.9002288,15.8698589 44.5657895,15.5061962 45.2028604,15.6889617 C45.8395881,15.8712177 46.2070366,16.5285622 46.0237414,17.1588995 C45.9154462,17.5308852 43.2622998,26.3663086 33.5104119,34.5518612 C33.2845538,34.7415909 33.0084096,34.8341627 32.7338101,34.8341627 Z" id="Path"></path>
                        <path d="M42.441762,46.8448828 C42.1302632,46.8448828 41.8187643,46.7256435 41.5834668,46.4878445 C41.119222,46.018701 41.1271167,45.266067 41.6011442,44.8064354 C47.9677346,38.6341914 55.8090961,36.2601077 61.2660755,35.3551124 C67.1588101,34.3779282 71.5192792,34.8455431 71.7022311,34.865756 C72.3614416,34.9393038 72.8356407,35.5278565 72.7614989,36.180445 C72.6870137,36.8328636 72.0904462,37.3028565 71.4332952,37.228799 C71.3519451,37.2199665 67.1406178,36.7824163 61.5899314,37.7127201 C56.4947368,38.5665885 49.1826659,40.7852536 43.2827231,46.5053397 C43.048627,46.7319282 42.7451945,46.8448828 42.441762,46.8448828 Z" id="Path"></path>
                        <path d="M38.8004005,40.8396077 C38.5258009,40.8396077 38.2498284,40.746866 38.0239703,40.5574761 C37.5180206,40.1326651 37.4555492,39.3824091 37.8847826,38.8816722 C46.1555492,29.2299187 55.0829519,26.6044474 55.4588101,26.4974378 C56.097254,26.3153517 56.7622998,26.6803732 56.945595,27.31139 C57.1287185,27.9418971 56.7614416,28.5999211 56.1248856,28.782177 L56.1248856,28.782177 C56.0395881,28.8068062 47.4904462,31.3485383 39.7172197,40.4197225 C39.4796911,40.6969282 39.1412471,40.8396077 38.8004005,40.8396077 Z" id="Path"></path>
                        <path d="M71.5675057,4.61347129 L71.5675057,4.61347129 C72.5152174,4.61347129 73.2837529,5.37391866 73.2837529,6.31203589 L73.2837529,6.31203589 C73.2837529,7.25015311 72.5152174,8.01060048 71.5675057,8.01060048 L71.5675057,8.01060048 C70.6197941,8.01060048 69.8512586,7.25015311 69.8512586,6.31203589 L69.8512586,6.31203589 C69.8512586,5.37391866 70.6197941,4.61347129 71.5675057,4.61347129 Z" id="Path"></path>
                        <path d="M45.8237986,1.21634211 L45.8237986,1.21634211 C46.7715103,1.21634211 47.5400458,1.97678947 47.5400458,2.9149067 L47.5400458,2.9149067 C47.5400458,3.85302392 46.7715103,4.61347129 45.8237986,4.61347129 L45.8237986,4.61347129 C44.876087,4.61347129 44.1075515,3.85302392 44.1075515,2.9149067 L44.1075515,2.9149067 C44.1075515,1.97678947 44.876087,1.21634211 45.8237986,1.21634211 Z" id="Path"></path>
                        <path d="M57.8375286,52.1732799 L57.8375286,52.1732799 C58.7852403,52.1732799 59.5537757,52.9338971 59.5537757,53.8718445 L59.5537757,53.8718445 C59.5537757,54.8097919 58.7852403,55.5704091 57.8375286,55.5704091 L57.8375286,55.5704091 C56.8898169,55.5704091 56.1212815,54.8097919 56.1212815,53.8718445 L56.1212815,53.8718445 C56.1212815,52.9338971 56.8898169,52.1732799 57.8375286,52.1732799 Z" id="Path"></path>
                        <path d="M45.8237986,64.0632321 L45.8237986,64.0632321 C46.7715103,64.0632321 47.5400458,64.8238493 47.5400458,65.7617967 L47.5400458,65.7617967 C47.5400458,66.6995742 46.7715103,67.4603612 45.8237986,67.4603612 L45.8237986,67.4603612 C44.876087,67.4603612 44.1075515,66.6995742 44.1075515,65.7617967 L44.1075515,65.7617967 C44.1075515,64.8238493 44.876087,64.0632321 45.8237986,64.0632321 Z" id="Path"></path>
                        <path d="M13.215103,1.21634211 L13.215103,1.21634211 C14.1629863,1.21634211 14.9313501,1.97678947 14.9313501,2.9149067 L14.9313501,2.9149067 C14.9313501,3.85302392 14.1629863,4.61347129 13.215103,4.61347129 L13.215103,4.61347129 C12.2672197,4.61347129 11.4988558,3.85302392 11.4988558,2.9149067 L11.4988558,2.9149067 C11.4988558,1.97678947 12.2672197,1.21634211 13.215103,1.21634211 Z" id="Path"></path>
                        <polygon id="Rectangle" transform="translate(5.344765, 25.991286) rotate(-45.000000) translate(-5.344765, -25.991286) " points="3.62853438 24.2750552 7.04331336 24.2927376 7.06099574 27.7075165 3.64621675 27.6898342"></polygon>
                        <polygon id="Rectangle" transform="translate(51.684373, 10.706055) rotate(-45.000000) translate(-51.684373, -10.706055) " points="49.9681424 8.98982407 53.3829214 9.00750645 53.4006038 12.4222854 49.9858248 12.4046031"></polygon>
                        <polygon id="Rectangle" transform="translate(72.571693, 22.591413) rotate(-45.000000) translate(-72.571693, -22.591413) " points="70.855462 20.875182 74.270241 20.8928644 74.2879234 24.3076434 70.8731444 24.289961"></polygon>
                        <polygon id="Rectangle" transform="translate(65.707956, 46.373870) rotate(-45.000000) translate(-65.707956, -46.373870) " points="63.9918108 44.6577248 67.4064191 44.6754063 67.4241005 48.0900146 64.0094923 48.0723331"></polygon>
                        <polygon id="Rectangle" transform="translate(24.517990, 10.412752) rotate(-45.000000) translate(-24.517990, -10.412752) " points="22.8017597 8.69652151 26.2165387 8.71420389 26.2342211 12.1289829 22.8194421 12.1113005"></polygon>
                        <path d="M67.2768879,66.9507919 C65.1949085,66.9507919 63.5011442,65.2744785 63.5011442,63.2139498 C63.5011442,61.1534211 65.1949085,59.4771077 67.2768879,59.4771077 C69.3588673,59.4771077 71.0526316,61.1534211 71.0526316,63.2139498 C71.0526316,65.2744785 69.3588673,66.9507919 67.2768879,66.9507919 Z M67.2768879,61.8550981 C66.5198513,61.8550981 65.9038902,62.4647129 65.9038902,63.2139498 C65.9038902,63.9631866 66.5198513,64.5728014 67.2768879,64.5728014 C68.0339245,64.5728014 68.6498856,63.9631866 68.6498856,63.2139498 C68.6498856,62.4647129 68.0339245,61.8550981 67.2768879,61.8550981 Z" id="Shape"></path>
                        <path d="M4.63386728,17.6924187 C2.07871854,17.6924187 0,15.6351172 0,13.1062943 C0,10.5774713 2.07871854,8.52016986 4.63386728,8.52016986 C7.18901602,8.52016986 9.26773455,10.5774713 9.26773455,13.1062943 C9.26773455,15.6351172 7.18901602,17.6924187 4.63386728,17.6924187 Z M4.63386728,10.8981603 C3.40366133,10.8981603 2.402746,11.8887632 2.402746,13.1062943 C2.402746,14.3238254 3.40366133,15.3144282 4.63386728,15.3144282 C5.86407323,15.3144282 6.86498856,14.3238254 6.86498856,13.1062943 C6.86498856,11.8887632 5.86407323,10.8981603 4.63386728,10.8981603 Z" id="Shape"></path>
                        <path d="M64.7013158,22.1088565 C64.4909039,22.1088565 64.2779176,22.0541627 64.0843249,21.9391699 L59.3771739,19.1436722 C58.7450801,18.7686292 58.3524027,18.0820694 58.3524027,17.3525359 C58.3524027,16.6230024 58.7450801,15.9367823 59.3771739,15.5613995 L63.3149314,13.2229856 L60.2262014,10.930433 C59.6975973,10.5377249 59.3819794,9.91299282 59.3819794,9.25921531 C59.3819794,8.44967943 59.8292334,7.73373445 60.5491991,7.37771531 L63.0430778,6.14336842 C63.3255721,6.00357656 63.5009725,5.72263397 63.5009725,5.4104378 L63.5009725,4.61347129 C63.5009725,3.95680622 64.0388444,3.42447608 64.7023455,3.42447608 C65.3658467,3.42447608 65.9037673,3.95680622 65.9037673,4.61347129 L65.9037673,5.4104378 C65.9037673,6.62932775 65.2194508,7.72507177 64.1177918,8.270311 L62.0354691,9.30083014 L65.0594966,11.5451435 C65.5882723,11.9380215 65.9037673,12.5627536 65.9037673,13.2163612 L65.9037673,13.2759809 C65.9037673,14.0056842 65.5110412,14.6920742 64.8787757,15.0672871 L61.030778,17.352366 L65.3203661,19.9000431 C65.8893021,20.2378876 66.0737986,20.9682703 65.7322654,21.5313445 C65.5072654,21.9029904 65.1094394,22.1088565 64.7013158,22.1088565 Z" id="Path"></path>
                    </g>
                </g>
            </g>
        </g>
    </g>
</svg>