<?xml version="1.0" encoding="UTF-8"?>
<svg width="78px" height="75px" viewBox="0 0 78 75" version="1.1" xmlns="http://www.w3.org/2000/svg" xmlns:xlink="http://www.w3.org/1999/xlink">
    <!-- Generator: Sketch 57.1 (83088) - https://sketch.com -->
    <title>noun_event_2080340</title>
    <desc>Created with Sketch.</desc>
    <g id="0.2---Membership" stroke="none" stroke-width="1" fill="none" fill-rule="evenodd">
        <g id="Membership" transform="translate(-1137.000000, -1182.000000)" fill="#FFFFFF" fill-rule="nonzero" stroke="#0092C6" stroke-width="2">
            <g id="events/exhibits" transform="translate(1058.000000, 1154.000000)">
                <g id="noun_event_2080340" transform="translate(80.000000, 29.000000)">
                    <g id="Group">
                        <path d="M66.7375,5.7923913 L55.7333333,5.7923913 L55.7333333,2.61847826 C55.7333333,1.19021739 54.5458333,1.42108547e-14 53.1208333,1.42108547e-14 C51.6958333,1.42108547e-14 50.5083333,1.19021739 50.5083333,2.61847826 L50.5083333,5.7923913 L24.7791667,5.7923913 L24.7791667,2.61847826 C24.7791667,1.19021739 23.5916667,1.42108547e-14 22.1666667,1.42108547e-14 C20.7416667,1.42108547e-14 19.5541667,1.19021739 19.5541667,2.61847826 L19.5541667,5.7923913 L8.47083333,5.7923913 C3.8,5.7923913 -1.20792265e-12,9.60108696 -1.20792265e-12,14.2826087 L-1.20792265e-12,63.9543478 C-1.20792265e-12,68.6358696 3.8,72.4445652 8.47083333,72.4445652 L66.7375,72.4445652 C71.4083333,72.4445652 75.2083333,68.6358696 75.2083333,63.9543478 L75.2083333,14.2032609 C75.2083333,9.60108696 71.4083333,5.7923913 66.7375,5.7923913 Z M69.9833333,63.875 C69.9833333,65.6206522 68.5583333,67.048913 66.7375,67.048913 L8.47083333,67.048913 C6.72916667,67.048913 5.225,65.6206522 5.225,63.875 L5.225,30.2315217 L69.9041667,30.2315217 L69.9041667,63.875 L69.9833333,63.875 Z M69.9833333,24.9152174 L5.225,24.9152174 L5.225,14.2032609 C5.225,12.4576087 6.65,11.0293478 8.47083333,11.0293478 L19.475,11.0293478 L19.475,14.2032609 C19.475,15.6315217 20.6625,16.8217391 22.0875,16.8217391 C23.5125,16.8217391 24.7,15.6315217 24.7,14.2032609 L24.7,11.0293478 L50.4291667,11.0293478 L50.4291667,14.2032609 C50.4291667,15.6315217 51.6166667,16.8217391 53.0416667,16.8217391 C54.4666667,16.8217391 55.6541667,15.6315217 55.6541667,14.2032609 L55.6541667,11.0293478 L66.6583333,11.0293478 C68.4,11.0293478 69.9041667,12.4576087 69.9041667,14.2032609 L69.9041667,24.9152174 L69.9833333,24.9152174 Z" id="Shape"></path>
                        <path d="M33.0916667,58.5586957 C33.5666667,59.1141304 34.2791667,59.4315217 34.9916667,59.4315217 C35.7041667,59.4315217 36.4166667,59.1141304 36.8916667,58.5586957 L51.1416667,43.323913 C52.1708333,42.2923913 52.0916667,40.626087 50.9833333,39.5945652 C49.9541667,38.6423913 48.2916667,38.6423913 47.2625,39.7532609 L34.9916667,52.925 L28.4208333,45.8630435 C27.3916667,44.8315217 25.8083333,44.7521739 24.7,45.7043478 C23.6708333,46.7358696 23.5916667,48.4021739 24.5416667,49.4336957 L33.0916667,58.5586957 Z" id="Path"></path>
                    </g>
                </g>
            </g>
        </g>
    </g>
</svg>