<?xml version="1.0" encoding="UTF-8"?>
<svg width="18px" height="16px" viewBox="0 0 18 16" version="1.1" xmlns="http://www.w3.org/2000/svg" xmlns:xlink="http://www.w3.org/1999/xlink">
    <!-- Generator: Sketch 57.1 (83088) - https://sketch.com -->
    <title>home_icon_breadcrumb</title>
    <desc>Created with Sketch.</desc>
    <g id="0.2---Membership" stroke="none" stroke-width="1" fill="none" fill-rule="evenodd">
        <g id="Membership" transform="translate(-120.000000, -522.000000)" fill="#4A4A4A" fill-rule="nonzero">
            <g id="breadcrumb" transform="translate(0.000000, 514.000000)">
                <g id="home_icon_breadcrumb" transform="translate(120.000000, 8.000000)">
                    <path d="M15.0780269,6.78367786 C15.0780269,7.06791576 15.0780269,7.35215367 15.0780269,7.63639157 C15.0780269,8.31495952 15.0780269,8.99552915 15.0780269,9.67409711 C15.0780269,10.4987874 15.0780269,11.3254793 15.0780269,12.1501695 C15.0780269,12.8607643 15.0780269,13.5713591 15.0780269,14.2819538 C15.0780269,14.6282437 15.0679372,14.9765352 15.0780269,15.3248267 C15.0780269,15.3288301 15.0780269,15.3348351 15.0780269,15.3388384 C15.2798206,15.1386709 15.4816143,14.9385034 15.6834081,14.7383358 C15.1365471,14.7383358 14.591704,14.7383358 14.044843,14.7383358 C13.1710762,14.7383358 12.2952915,14.7383358 11.4215247,14.7383358 C11.2217489,14.7383358 11.0219731,14.7383358 10.8201794,14.7383358 C11.0219731,14.9385034 11.2237668,15.1386709 11.4255605,15.3388384 C11.4255605,14.5381683 11.4255605,13.7374981 11.4255605,12.936828 C11.4255605,12.4163924 11.4255605,11.8979585 11.4255605,11.3775229 C11.4255605,11.019223 11.4396861,10.6649264 11.3710762,10.3106299 C11.1894619,9.37584747 10.3641256,8.59119073 9.41569507,8.45107345 C8.88295964,8.37100643 8.36636771,8.44506842 7.88206278,8.68526947 C7.46636771,8.89344371 7.10313901,9.24974193 6.88318386,9.65408035 C6.68744395,10.0143819 6.58452915,10.4127153 6.58251121,10.8230588 C6.58251121,10.9191392 6.58251121,11.0132179 6.58251121,11.1092984 C6.58251121,11.5796921 6.58251121,12.0520875 6.58251121,12.5224812 C6.58251121,13.4432518 6.58251121,14.3640225 6.58251121,15.2847932 C6.58251121,15.3028083 6.58251121,15.3208233 6.58251121,15.3388384 C6.78430493,15.1386709 6.98609865,14.9385034 7.18789238,14.7383358 C6.64103139,14.7383358 6.09618834,14.7383358 5.54932735,14.7383358 C4.67556054,14.7383358 3.79977578,14.7383358 2.92600897,14.7383358 C2.72623318,14.7383358 2.5264574,14.7383358 2.32466368,14.7383358 C2.5264574,14.9385034 2.72825112,15.1386709 2.93004484,15.3388384 C2.93004484,15.0546005 2.93004484,14.7703626 2.93004484,14.4861247 C2.93004484,13.8075568 2.93004484,13.1269871 2.93004484,12.4484192 C2.93004484,11.6237289 2.93004484,10.797037 2.93004484,9.97234674 C2.93004484,9.26175198 2.93004484,8.55115722 2.93004484,7.84056246 C2.93004484,7.49427262 2.93811659,7.1459811 2.93004484,6.79768959 C2.93004484,6.79368624 2.93004484,6.78768121 2.93004484,6.78367786 C2.93004484,6.46941482 2.65156951,6.16916352 2.32466368,6.18317525 C1.99573991,6.19718697 1.71928251,6.4473964 1.71928251,6.78367786 C1.71928251,7.06791576 1.71928251,7.35215367 1.71928251,7.63639157 C1.71928251,8.31495952 1.71928251,8.99552915 1.71928251,9.67409711 C1.71928251,10.4987874 1.71928251,11.3254793 1.71928251,12.1501695 C1.71928251,12.8607643 1.71928251,13.5713591 1.71928251,14.2819538 C1.71928251,14.6282437 1.71121076,14.9765352 1.71928251,15.3248267 C1.71928251,15.3288301 1.71928251,15.3348351 1.71928251,15.3388384 C1.71928251,15.6631098 1.99573991,15.939341 2.32466368,15.939341 C2.87152466,15.939341 3.41636771,15.939341 3.9632287,15.939341 C4.83699552,15.939341 5.71278027,15.939341 6.58654709,15.939341 C6.78632287,15.939341 6.98609865,15.939341 7.18789238,15.939341 C7.51479821,15.939341 7.79327354,15.6651115 7.79327354,15.3388384 C7.79327354,14.8083945 7.79327354,14.2779505 7.79327354,13.7455048 C7.79327354,12.9248179 7.79327354,12.104131 7.79327354,11.2834441 C7.79327354,11.0452447 7.77914798,10.8010403 7.81143498,10.5648426 C7.80336323,10.6188879 7.79730942,10.6709314 7.78923767,10.7249767 C7.81143498,10.5728494 7.85179372,10.426727 7.9103139,10.2846081 C7.89013453,10.3326483 7.86995516,10.3806885 7.84977578,10.4287287 C7.8941704,10.3226399 7.94865471,10.2225562 8.01121076,10.1264757 C8.02533632,10.1044573 8.04147982,10.0844406 8.05560538,10.0624221 C8.11412556,9.97635009 7.94865471,10.186526 8.03340807,10.0904456 C8.07174888,10.0484104 8.10807175,10.0043735 8.14843049,9.96434004 C8.18475336,9.92830988 8.22511211,9.89227972 8.26547085,9.85825124 C8.36838565,9.7721792 8.19686099,9.90428977 8.23520179,9.88026967 C8.26143498,9.86425627 8.28565022,9.84423951 8.31188341,9.82822611 C8.40874439,9.76617417 8.50964126,9.71212894 8.61659193,9.66809208 C8.56816143,9.68810883 8.51973094,9.70812559 8.47130045,9.72814234 C8.61457399,9.67009376 8.76188341,9.63006025 8.91524664,9.60804182 C8.86076233,9.61604852 8.80829596,9.62205355 8.75381166,9.63006025 C8.92130045,9.60804182 9.08878924,9.60804182 9.25627803,9.63006025 C9.20179372,9.62205355 9.14932735,9.61604852 9.09484305,9.60804182 C9.24820628,9.63006025 9.3955157,9.67009376 9.53878924,9.72814234 C9.49035874,9.70812559 9.44192825,9.68810883 9.39349776,9.66809208 C9.50044843,9.71212894 9.60134529,9.76617417 9.69820628,9.82822611 C9.72040359,9.84223784 9.74058296,9.85825124 9.76278027,9.87226297 C9.84955157,9.93031155 9.63766816,9.76617417 9.73452915,9.85024454 C9.77690583,9.88827637 9.82130045,9.92430653 9.86165919,9.96434004 C9.89798206,10.0003702 9.93430493,10.0404037 9.96860987,10.0804372 C10.0553812,10.1825227 9.92219731,10.0123802 9.94641256,10.0504121 C9.96255605,10.0764339 9.98273543,10.100454 9.99887892,10.1264757 C10.061435,10.2225562 10.1159193,10.3226399 10.1603139,10.4287287 C10.1401345,10.3806885 10.1199552,10.3326483 10.0997758,10.2846081 C10.158296,10.426727 10.1986547,10.5728494 10.220852,10.7249767 C10.2127803,10.6709314 10.2067265,10.6188879 10.1986547,10.5648426 C10.2248879,10.7670119 10.2168161,10.9731844 10.2168161,11.1753536 C10.2168161,11.5296502 10.2168161,11.881945 10.2168161,12.2362416 C10.2168161,13.0729419 10.2168161,13.9096422 10.2168161,14.7463425 C10.2168161,14.9425067 10.2168161,15.1406726 10.2168161,15.3368368 C10.2168161,15.6611082 10.4932735,15.9373394 10.8221973,15.9373394 C11.3690583,15.9373394 11.9139013,15.9373394 12.4607623,15.9373394 C13.3345291,15.9373394 14.2103139,15.9373394 15.0840807,15.9373394 C15.2838565,15.9373394 15.4836323,15.9373394 15.685426,15.9373394 C16.0123318,15.9373394 16.2908072,15.6631098 16.2908072,15.3368368 C16.2908072,15.0525988 16.2908072,14.7683609 16.2908072,14.484123 C16.2908072,13.8055551 16.2908072,13.1249855 16.2908072,12.4464175 C16.2908072,11.6217272 16.2908072,10.7950353 16.2908072,9.97034506 C16.2908072,9.2597503 16.2908072,8.54915554 16.2908072,7.83856078 C16.2908072,7.49227094 16.2988789,7.14397943 16.2908072,6.79568791 C16.2908072,6.79168456 16.2908072,6.78567953 16.2908072,6.78167618 C16.2908072,6.46741315 16.0123318,6.16716184 15.685426,6.18117357 C15.3565022,6.19918865 15.0780269,6.4473964 15.0780269,6.78367786 L15.0780269,6.78367786 Z" id="Path"></path>
                    <path d="M1.03318386,8.64123261 C1.30762332,8.38902151 1.58206278,8.13480874 1.85852018,7.88259764 C2.51838565,7.27609 3.17825112,6.66958236 3.83811659,6.06307472 C4.63318386,5.33246321 5.42825112,4.59985002 6.22331839,3.86923851 C6.91143498,3.23670909 7.59753363,2.60417967 8.28565022,1.97165025 C8.6206278,1.66339224 8.96367713,1.36314093 9.29058296,1.04687622 C9.29461883,1.04287287 9.30067265,1.03886952 9.30470852,1.03486617 C9.02017937,1.03486617 8.73363229,1.03486617 8.44910314,1.03486617 C8.73161435,1.28707727 9.01412556,1.53928837 9.29865471,1.79350114 C9.97869955,2.40000878 10.6567265,3.00651642 11.3367713,3.61302406 C12.1560538,4.34363557 12.9753363,5.07624876 13.7926009,5.80686027 C14.5008969,6.43938969 15.2091928,7.07191911 15.9174888,7.70444853 C16.2625561,8.01270654 16.6056054,8.3249679 16.9547085,8.62922256 C16.9587444,8.63322591 16.9647982,8.63722926 16.9688341,8.64123261 C17.2049327,8.85140853 17.5964126,8.88944036 17.8244395,8.64123261 C18.0363229,8.41103994 18.0766816,8.01670989 17.8244395,7.79252225 C17.5419283,7.54031115 17.259417,7.28810005 16.9748879,7.03388728 C16.294843,6.42737964 15.6168161,5.820872 14.9367713,5.21436436 C14.1174888,4.48375285 13.2982063,3.75113966 12.4809417,3.02052815 C11.7726457,2.38799873 11.0643498,1.75546931 10.3560538,1.12293989 C10.0109865,0.814681879 9.66793722,0.50242052 9.31883408,0.198165863 C9.31479821,0.194162512 9.30874439,0.190159161 9.30470852,0.18615581 C9.0544843,-0.0380318322 8.69932735,-0.0440368583 8.44910314,0.18615581 C8.17466368,0.438366908 7.90022422,0.692579681 7.62376682,0.944790779 C6.96390135,1.55129842 6.30403587,2.15780606 5.6441704,2.7643137 C4.84910314,3.49492521 4.05403587,4.2275384 3.25896861,4.95814991 C2.57085202,5.59067933 1.88475336,6.22320875 1.19663677,6.85573817 C0.861659193,7.16399618 0.518609865,7.46424749 0.191704036,7.7805122 C0.187668161,7.78451555 0.18161435,7.7885189 0.177578475,7.79252225 C-0.0544843049,8.00670152 -0.0565022422,8.42705335 0.177578475,8.64123261 C0.425784753,8.86742193 0.784977578,8.8694236 1.03318386,8.64123261 L1.03318386,8.64123261 Z" id="Path"></path>
                </g>
            </g>
        </g>
    </g>
</svg>