<?xml version="1.0" encoding="UTF-8"?>
<svg width="43px" height="43px" viewBox="0 0 43 43" version="1.1" xmlns="http://www.w3.org/2000/svg" xmlns:xlink="http://www.w3.org/1999/xlink">
    <!-- Generator: Sketch 57.1 (83088) - https://sketch.com -->
    <title>noun_Phone_1697328</title>
    <desc>Created with Sketch.</desc>
    <g id="1.0---Visit" stroke="none" stroke-width="1" fill="none" fill-rule="evenodd">
        <g id="Visit" transform="translate(-760.000000, -1581.000000)">
            <g id="hours-&amp;-directions" transform="translate(736.000000, 729.000000)">
                <g id="Group-9" transform="translate(25.000000, 853.000000)">
                    <g id="noun_Phone_1697328">
                        <path d="M30.2410502,25.7999151 C28.8761814,24.6996111 27.8130811,24.1872943 26.8952144,24.1872943 C25.7777349,24.1872943 25.0405695,24.9356094 24.2601121,25.7277781 C24.1722549,25.8170035 24.0829287,25.9077474 23.9913088,25.9992118 C23.8818288,26.1085368 23.7436644,26.1594419 23.5574092,26.1594419 C22.8954779,26.1594419 21.4732429,25.5266026 18.4550997,22.5120845 C17.1206653,21.1804454 16.1401131,20.0391729 15.5408595,19.1199731 C15.1578135,18.5321197 14.5804611,17.4805616 15.019644,17.0418976 L15.2572372,16.8062621 C16.6772042,15.4041331 17.9039061,14.1933744 15.1651019,10.8020093 C14.2016675,9.58947477 13.2666753,9 12.3060191,9 C11.0332625,9 10.0569936,10.0300689 9.19599317,10.9388457 C9.04094804,11.1025758 8.88943369,11.2621625 8.74145012,11.4101939 C8.25445996,11.8956452 7.9980015,12.6861925 8,13.6963677 C8.00477957,16.2997333 9.80279796,21.1127092 14.8525117,26.1087942 C19.9465535,31.195237 24.7601945,33 27.3343921,33 C28.3194545,33 29.0931338,32.7471474 29.5713357,32.2691336 C29.7122577,32.1285141 29.863772,31.9846519 30.0188172,31.8368521 C30.9253776,30.9746826 32.0533979,29.9017896 31.9980394,28.5502826 C31.9597678,27.6214063 31.3852039,26.7217913 30.2410502,25.7999151 Z" id="Path" fill="#E5722A" fill-rule="nonzero" transform="translate(20.000000, 21.000000) scale(-1, 1) translate(-20.000000, -21.000000) "></path>
                        <circle id="Oval" stroke="#E5722A" cx="20.5" cy="20.5" r="20.5"></circle>
                    </g>
                </g>
            </g>
        </g>
    </g>
</svg>