<?xml version="1.0" encoding="UTF-8"?>
<svg width="33px" height="33px" viewBox="0 0 33 33" version="1.1" xmlns="http://www.w3.org/2000/svg" xmlns:xlink="http://www.w3.org/1999/xlink">
    <!-- Generator: Sketch 57.1 (83088) - https://sketch.com -->
    <title>Group</title>
    <desc>Created with Sketch.</desc>
    <g id="1.0---Visit" stroke="none" stroke-width="1" fill="none" fill-rule="evenodd">
        <g id="Visit" transform="translate(-799.000000, -619.000000)" fill="#000000" fill-rule="nonzero">
            <g id="helper-links" transform="translate(263.000000, 613.000000)">
                <g id="accessibility" transform="translate(536.000000, 5.000000)">
                    <g id="noun_Handicap_716837" transform="translate(0.000000, 1.000000)">
                        <g id="Group">
                            <path d="M14.7729052,32.1934914 C15.2186897,32.6395603 15.8118362,32.885069 16.44225,32.885069 C17.0729483,32.885069 17.6658103,32.6395603 18.1118793,32.1934914 L32.192069,18.1118793 C32.6387069,17.6660948 32.8842155,17.0735172 32.8842155,16.44225 C32.8842155,15.8115517 32.6389914,15.2184052 32.1926379,14.7726207 L18.1118793,0.691577586 C17.6658103,0.245224138 17.0729483,0 16.44225,0 C15.8112672,0 15.2181207,0.245224138 14.7723362,0.691577586 L0.691293103,14.7726207 C0.245224138,15.2184052 0,15.8115517 0,16.44225 C0,17.0735172 0.245224138,17.6660948 0.691293103,18.1118793 L14.7729052,32.1934914 Z M1.15414655,15.2354741 L15.2349052,1.15443103 C15.9017328,0.487603448 16.9824828,0.487887931 17.6490259,1.15443103 L31.7297845,15.2354741 C32.3966121,15.9020172 32.3966121,16.9830517 31.7297845,17.6493103 L17.6490259,31.7306379 C16.9821983,32.397181 15.9014483,32.397181 15.2349052,31.7306379 L1.15414655,17.6493103 C0.487318966,16.9827672 0.487318966,15.9020172 1.15414655,15.2354741 Z" id="Shape"></path>
                            <path d="M15.345,23.9830345 C17.4567155,23.9830345 19.2896379,22.7745517 20.1931552,21.0130345 L19.5010086,19.1917759 C19.1866552,21.2042069 17.4453362,22.7438276 15.3447155,22.7438276 C13.0210603,22.7438276 11.1375,20.8602672 11.1375,18.5366121 C11.1375,16.8291466 12.1545259,15.3612155 13.6153448,14.7012155 L13.6153448,13.37325 C11.4575431,14.0978276 9.89857759,16.1381379 9.89857759,18.5366121 C9.89857759,21.5398966 12.342,23.9830345 15.345,23.9830345 Z" id="Path"></path>
                            <path d="M14.5965259,17.2715172 L19.8443793,17.2715172 L21.4565431,21.5177069 L24.4925431,20.6218707 L24.0618362,19.1343103 L22.3976121,19.6332931 L20.9126121,15.7227931 L16.144681,15.7227931 L16.144681,14.2258448 L20.1775086,14.2258448 L20.1775086,12.9869224 L16.1449655,12.9869224 L16.1449655,11.0217155 C16.7597328,10.8160345 17.2032414,10.2371121 17.2032414,9.55378448 C17.2032414,8.69806034 16.5096724,8.00477586 15.6548017,8.00477586 C14.7993621,8.00477586 14.1057931,8.69834483 14.1057931,9.55378448 C14.1057931,9.99928448 14.2952586,10.4001207 14.5968103,10.6823276 L14.5968103,17.2715172 L14.5965259,17.2715172 Z" id="Path"></path>
                        </g>
                    </g>
                </g>
            </g>
        </g>
    </g>
</svg>