<?xml version="1.0" encoding="UTF-8"?>
<svg width="33px" height="33px" viewBox="0 0 33 33" version="1.1" xmlns="http://www.w3.org/2000/svg" xmlns:xlink="http://www.w3.org/1999/xlink">
    <!-- Generator: Sketch 57.1 (83088) - https://sketch.com -->
    <title>Group 2</title>
    <desc>Created with Sketch.</desc>
    <g id="1.0---Visit" stroke="none" stroke-width="1" fill="none" fill-rule="evenodd">
        <g id="Visit" transform="translate(-1071.000000, -613.000000)">
            <g id="helper-links" transform="translate(263.000000, 613.000000)">
                <g id="map" transform="translate(809.000000, 1.000000)">
                    <g id="Group-2">
                        <rect id="Rectangle" stroke="#322E2D" x="0" y="0" width="31" height="31" rx="2"></rect>
                        <path d="M26.8657443,8.97183034 L19.7347493,4.05289619 C19.7305149,4.04982952 19.7255333,4.04855174 19.7255333,4.04855174 C19.7163172,4.04292952 19.7130791,4.03884063 19.7080975,4.03628507 C19.7080975,4.03628507 19.691658,4.03066285 19.6834383,4.02708507 C19.670735,4.02146285 19.6582809,4.01635174 19.6450795,4.01277396 C19.6321272,4.00894062 19.6189258,4.00689618 19.6054753,4.00510729 C19.5920248,4.0033184 19.5790725,4.00178507 19.5653729,4.00178507 C19.5514243,4.00178507 19.5387211,4.0033184 19.5250215,4.00510729 C19.511571,4.00689618 19.4983696,4.00894062 19.4854173,4.01277396 C19.4722159,4.01635174 19.4600109,4.0217184 19.4470586,4.02708507 C19.4388388,4.03066285 19.4301209,4.03219618 19.4223993,4.03628507 C19.4176668,4.03884063 19.4139305,4.04292952 19.4139305,4.04292952 C19.4047145,4.04855174 19.3999819,4.04982952 19.3957475,4.05264063 L12.4338798,8.85478587 L5.4725103,4.05289619 C5.37935329,3.98875173 5.2595444,3.9826184 5.16065848,4.03628507 C5.06177256,4.09046286 5,4.19600732 5,4.3112629 L5,21.7697991 C5,21.8735547 5.05031475,21.9704103 5.13400661,22.0281658 L12.2650016,26.9471 C12.2689869,26.9499111 12.2737195,26.9509333 12.2779539,26.9532333 C12.2779539,26.9532333 12.2866718,26.9606444 12.2916535,26.9634555 C12.3036094,26.9698444 12.3165617,26.9734222 12.3287668,26.9780222 C12.3372356,26.9810889 12.3449572,26.9851778 12.353426,26.9877333 C12.3800779,26.9951444 12.4072279,27 12.434378,27 C12.461528,27 12.488678,26.9951444 12.5153299,26.9877333 C12.5237987,26.9854333 12.5317694,26.9813444 12.5399891,26.9780222 C12.5524433,26.9731667 12.5651465,26.9698444 12.5773516,26.9634555 C12.5773516,26.9634555 12.5860695,26.9563 12.5910511,26.9532333 L12.6037544,26.9471 L19.5658711,22.1449547 L26.5277388,26.9471 C26.5783026,26.9821111 26.6373353,27 26.696617,27 C26.7454373,27 26.7945066,26.9877333 26.8393415,26.9634555 C26.9382274,26.9095333 27,26.8037333 27,26.6887333 L27,9.23019705 C27,9.12644147 26.9496852,9.0295859 26.8657443,8.97183034 Z M12.0967742,26.28125 L5.70967742,21.7057566 L5.70967742,4.71875 L12.0965303,9.29398362 L12.0965303,26.28125 L12.0967742,26.28125 Z M19.1935484,21.7057566 L12.8064516,26.28125 L12.8064516,9.29424344 L19.1935484,4.71875 L19.1935484,21.7057566 Z M26.2903226,26.28125 L19.9032258,21.7057566 L19.9032258,4.71875 L26.2903226,9.29398362 L26.2903226,26.28125 Z" id="Shape" fill="#000000" fill-rule="nonzero"></path>
                    </g>
                </g>
            </g>
        </g>
    </g>
</svg>