<?xml version="1.0" encoding="UTF-8"?>
<svg width="53px" height="69px" viewBox="0 0 53 69" version="1.1" xmlns="http://www.w3.org/2000/svg" xmlns:xlink="http://www.w3.org/1999/xlink">
    <!-- Generator: Sketch 57.1 (83088) - https://sketch.com -->
    <title>noun_Location_2830356</title>
    <desc>Created with Sketch.</desc>
    <g id="0.0---Homepage" stroke="none" stroke-width="1" fill="none" fill-rule="evenodd">
        <g id="PhoenixZoo-Homepage_V3.0" transform="translate(-410.000000, -769.000000)" fill="#000000" fill-rule="nonzero">
            <g id="Helper-Bar" transform="translate(0.000000, 730.000000)">
                <g id="helper-bar-content" transform="translate(132.000000, 34.000000)">
                    <g id="Locations" transform="translate(278.000000, 5.000000)">
                        <g id="noun_Location_2830356">
                            <g id="Group">
                                <path d="M27.0507216,58.4505825 C27.0922268,58.400105 27.1711087,58.3034627 27.2848796,58.1629884 C27.4735266,57.9300636 27.6920794,57.6579795 27.9380511,57.3490665 C28.639796,56.4677525 29.4213107,55.46716 30.2627117,54.3659082 C32.6666025,51.2196195 35.0705632,47.8950599 37.315895,44.5402413 C38.9513112,42.096716 40.4415896,39.725999 41.7538871,37.4581717 C45.5629425,30.8756099 47.7,25.4944234 47.7,21.6081859 C47.7,9.67367757 38.0891629,0 26.235,0 C14.3808369,0 4.77,9.67367757 4.77,21.6081859 C4.77,25.4944234 6.90705747,30.8756099 10.716113,37.4581717 C12.0284104,39.725999 13.5186886,42.096716 15.1541049,44.5402413 C17.399437,47.8950599 19.8033973,51.2196195 22.2072883,54.3659082 C23.0486891,55.46716 23.8302039,56.4677525 24.5319489,57.3490665 C24.7779206,57.6579795 24.9964734,57.9300636 25.1851204,58.1629884 C25.2988913,58.3034627 25.3777732,58.400105 25.4192784,58.4505825 L26.235,59.442649 L27.0507216,58.4505825 Z M26.1844964,56.0088661 C25.4913683,55.1383744 24.718596,54.1489754 23.8861492,53.0594424 C21.5076183,49.9463459 19.1291567,46.6570501 16.9108951,43.3426779 C15.3000176,40.9358172 13.8341624,38.6039515 12.5468004,36.3792166 C8.91691907,30.1062917 6.89,25.0024375 6.89,21.6081859 C6.89,10.8565836 15.5504224,2.13953488 26.235,2.13953488 C36.9195774,2.13953488 45.58,10.8565836 45.58,21.6081859 C45.58,25.0024375 43.5530807,30.1062917 39.9231998,36.3792166 C38.6358377,38.6039515 37.1699823,40.9358172 35.559105,43.3426779 C33.340843,46.6570501 30.9623816,49.9463459 28.5838508,53.0594424 C27.751404,54.1489754 26.9786317,55.1383744 26.2855036,56.0088661 C26.2685344,56.0301775 26.2516996,56.0513086 26.235,56.072259 C26.2183004,56.0513086 26.2014656,56.0301775 26.1844964,56.0088661 Z" id="Shape"></path>
                                <path d="M26.5,28.8837209 C32.0684938,28.8837209 36.57,24.2071183 36.57,18.4534884 C36.57,12.6998584 32.0684938,8.02325581 26.5,8.02325581 C20.931506,8.02325581 16.43,12.6998584 16.43,18.4534884 C16.43,24.2071183 20.931506,28.8837209 26.5,28.8837209 Z M26.5,26.744186 C22.1163228,26.744186 18.55,23.0391427 18.55,18.4534884 C18.55,13.867834 22.1163228,10.1627907 26.5,10.1627907 C30.8836772,10.1627907 34.45,13.867834 34.45,18.4534884 C34.45,23.0391427 30.8836772,26.744186 26.5,26.744186 Z" id="Shape"></path>
                                <path d="M9.35162761,48.4133306 C3.51610687,50.5179692 0,53.6375635 0,57.2595559 C0,63.8765318 11.9156197,68.7638847 26.5,68.7638847 C41.0843805,68.7638847 53,63.8765318 53,57.2595559 C53,53.357707 48.9174545,50.0392049 42.2786406,47.9518388 C41.7197158,47.7761028 41.1254565,48.0909134 40.9513245,48.6549884 C40.777193,49.2190634 41.0891293,49.8187991 41.648054,49.9945352 C47.4951937,51.8329845 50.88,54.584328 50.88,57.2595559 C50.88,62.1682784 40.0158676,66.6243498 26.5,66.6243498 C12.9841322,66.6243498 2.12,62.1682784 2.12,57.2595559 C2.12,54.8002226 4.98131466,52.2615799 10.0650576,50.4280771 C10.6163348,50.2292534 10.9035264,49.6170586 10.7065181,49.060702 C10.5095099,48.5043448 9.90290473,48.2145069 9.35162761,48.4133306 Z" id="Path"></path>
                            </g>
                        </g>
                    </g>
                </g>
            </g>
        </g>
    </g>
</svg>