<?xml version="1.0" encoding="UTF-8"?>
<svg width="70px" height="77px" viewBox="0 0 70 77" version="1.1" xmlns="http://www.w3.org/2000/svg" xmlns:xlink="http://www.w3.org/1999/xlink">
    <!-- Generator: Sketch 57.1 (83088) - https://sketch.com -->
    <title>noun_tax_2779763</title>
    <desc>Created with Sketch.</desc>
    <g id="0.2---Membership" stroke="none" stroke-width="1" fill="none" fill-rule="evenodd">
        <g id="Membership" transform="translate(-1135.000000, -858.000000)" fill="#FFFFFF" fill-rule="nonzero">
            <g id="tax-deduction" transform="translate(1085.000000, 832.000000)">
                <g id="noun_tax_2779763" transform="translate(50.000000, 26.000000)">
                    <path d="M28,31.5 C28,33.4329966 29.5670034,35 31.5,35 L38.5,35 C42.3659932,35 45.5,38.1340068 45.5,42 C45.5,45.8659932 42.3659932,49 38.5,49 L36.75,49 L36.75,52.5 C36.75,53.4664983 35.9664983,54.25 35,54.25 C34.0335017,54.25 33.25,53.4664983 33.25,52.5 L33.25,49 L26.25,49 C25.2835017,49 24.5,48.2164983 24.5,47.25 C24.5,46.2835017 25.2835017,45.5 26.25,45.5 L38.5,45.5 C40.4329966,45.5 42,43.9329966 42,42 C42,40.0670034 40.4329966,38.5 38.5,38.5 L31.5,38.5 C27.6340068,38.5 24.5,35.3659932 24.5,31.5 C24.5,27.6340068 27.6340068,24.5 31.5,24.5 L33.25,24.5 L33.25,21 C33.25,20.0335017 34.0335017,19.25 35,19.25 C35.9664983,19.25 36.75,20.0335017 36.75,21 L36.75,24.5 L43.75,24.5 C44.7164983,24.5 45.5,25.2835017 45.5,26.25 C45.5,27.2164983 44.7164983,28 43.75,28 L31.5,28 C29.5670034,28 28,29.5670034 28,31.5 Z M70,63 L70,70 C70,73.8659932 66.8659932,77 63,77 L17.5,77 C13.6340068,77 10.5,73.8659932 10.5,70 L10.5,15.75 L1.75,15.75 C0.783501688,15.75 0,14.9664983 0,14 L0,7 C0,3.13400675 3.13400675,0 7,0 L52.5,0 C56.3659932,0 59.5,3.13400675 59.5,7 L59.5,61.25 L68.25,61.25 C69.2164983,61.25 70,62.0335017 70,63 Z M10.5,12.25 L10.5,7 C10.5,5.06700338 8.93299662,3.5 7,3.5 C5.06700338,3.5 3.5,5.06700338 3.5,7 L3.5,12.25 L10.5,12.25 Z M22.75,61.25 L56,61.25 L56,7 C56,5.06700338 54.4329966,3.5 52.5,3.5 L13.055,3.5 C13.6718873,4.56343875 13.9978183,5.77059074 14,7 L14,70 C13.9988591,70.9587375 14.3910557,71.8759713 15.085,72.5375 C15.7654736,73.1757816 16.6726224,73.5159624 17.605,73.4825 C19.490099,73.4259411 20.9914185,71.8859278 21,70 L21,63 C21,62.0335017 21.7835017,61.25 22.75,61.25 Z M66.5,64.75 L24.5,64.75 L24.5,70 C24.4978183,71.2294093 24.1718873,72.4365612 23.555,73.5 L63,73.5 C64.9329966,73.5 66.5,71.9329966 66.5,70 L66.5,64.75 Z M36.75,7 L17.5,7 L17.5,10.5 L36.75,10.5 L36.75,7 Z M45.5,7 L40.25,7 L40.25,10.5 L45.5,10.5 L45.5,7 Z" id="Shape"></path>
                </g>
            </g>
        </g>
    </g>
</svg>