<?xml version="1.0" encoding="UTF-8"?>
<svg width="52px" height="52px" viewBox="0 0 52 52" version="1.1" xmlns="http://www.w3.org/2000/svg" xmlns:xlink="http://www.w3.org/1999/xlink">
    <!-- Generator: Sketch 57.1 (83088) - https://sketch.com -->
    <title>noun_Calendar_2844279</title>
    <desc>Created with Sketch.</desc>
    <g id="0.0---Homepage" stroke="none" stroke-width="1" fill="none" fill-rule="evenodd">
        <g id="PhoenixZoo-Homepage_V3.0" transform="translate(-1080.000000, -774.000000)" fill="#000000" fill-rule="nonzero">
            <g id="Helper-Bar" transform="translate(0.000000, 730.000000)">
                <g id="helper-bar-content" transform="translate(132.000000, 34.000000)">
                    <g id="weather" transform="translate(948.000000, 6.000000)">
                        <g id="noun_Calendar_2844279" transform="translate(0.000000, 4.000000)">
                            <path d="M7.30572982,0 C6.7636972,0 6.33542451,0.429945629 6.33542451,0.973651192 L6.33542451,3.11668758 L5.12588875,3.11668758 C2.29527394,3.11668758 0,5.41196152 0,8.24257633 L0,46.8741113 C0,49.7047261 2.29527394,52 5.12588875,52 L46.8741113,52 C49.7047261,52 52,49.7047261 52,46.8741113 L52,8.24257633 C52,5.41196152 49.7047261,3.11668758 46.8741113,3.11668758 L45.6645755,3.11668758 L45.6645755,0.973651192 C45.6645755,0.429945629 45.2363028,0 44.6942702,0 C44.1522376,0 43.720619,0.43161857 43.720619,0.973651192 L43.720619,3.11668758 L36.3195316,3.11668758 L36.3195316,0.973651192 C36.3195316,0.43161857 35.887913,0 35.3458804,0 C34.8038478,0 34.3722292,0.43161857 34.3722292,0.973651192 L34.3722292,3.11668758 L26.9711418,3.11668758 L26.9711418,0.973651192 C26.9711418,0.429945629 26.5428691,0 26.0008365,0 C25.4588038,0 25.0271853,0.43161857 25.0271853,0.973651192 L25.0271853,3.11668758 L17.6260979,3.11668758 L17.6260979,0.973651192 C17.6260979,0.43161857 17.1944793,0 16.6524467,0 C16.1104141,0 15.6787955,0.43161857 15.6787955,0.973651192 L15.6787955,3.11668758 L8.27770807,3.11668758 L8.27770807,0.973651192 C8.27770807,0.43161857 7.8460895,0 7.30405688,0 L7.30572982,0 Z M5.1681736,5 L6.37501739,5 L6.37501739,7.39322336 C6.37501739,7.97102095 6.80567534,8.43111904 7.3465016,8.43111904 C7.88732786,8.43111904 8.31798581,7.97102095 8.31798581,7.39322336 L8.31798581,5 L15.7026012,5 L15.7026012,7.39322336 C15.7026012,7.97102095 16.1332591,8.43111904 16.6740854,8.43111904 C17.2149117,8.43111904 17.6422312,7.97280428 17.6422312,7.39322336 L17.6422312,5 L25.0268466,5 L25.0268466,7.39322336 C25.0268466,7.97102095 25.4575045,8.43111904 25.9983308,8.43111904 C26.539157,8.43111904 26.969815,7.97102095 26.969815,7.39322336 L26.969815,5 L34.3544304,5 L34.3544304,7.39322336 C34.3544304,7.97102095 34.7850883,8.43111904 35.3259146,8.43111904 C35.8667409,8.43111904 36.2940604,7.97280428 36.2940604,7.39322336 L36.2940604,5 L43.6786758,5 L43.6786758,7.39322336 C43.6786758,7.97102095 44.1093337,8.43111904 44.65016,8.43111904 C45.1909862,8.43111904 45.6216442,7.97102095 45.6216442,7.39322336 L45.6216442,5 L46.828488,5 C48.5728196,5 50,6.5283103 50,8.39188587 L50,13 L2,13 L2,8.39188587 C2,6.53009362 3.42384198,5.00178333 5.1681736,5 Z M2,14 L50,14 L50,46.7805705 C50,48.5512567 48.5728196,50 46.828488,50 L5.17318125,50 C3.42884963,50 2.00166922,48.5512567 2.00166922,46.7805705 L2.00166922,14.5930528 L2,14 Z" id="Shape"></path>
                        </g>
                    </g>
                </g>
            </g>
        </g>
    </g>
</svg>