<?xml version="1.0" encoding="UTF-8"?>
<svg width="99px" height="64px" viewBox="0 0 99 64" version="1.1" xmlns="http://www.w3.org/2000/svg" xmlns:xlink="http://www.w3.org/1999/xlink">
    <!-- Generator: Sketch 57.1 (83088) - https://sketch.com -->
    <title>noun_deforestation_2280808</title>
    <desc>Created with Sketch.</desc>
    <g id="3.1---Conservation-Detail" stroke="none" stroke-width="1" fill="none" fill-rule="evenodd">
        <g id="Conservation-Detail" transform="translate(-1122.000000, -1342.000000)" fill="#FFFFFF" fill-rule="nonzero">
            <g id="noun_deforestation_2280808" transform="translate(1122.000000, 1342.000000)">
                <path d="M97.7967262,9.88502989 L89.1636915,9.88502989 C88.8062831,8.36545259 88.6311272,6.80998132 88.6418001,5.25037602 C88.6562872,4.92387551 88.5344333,4.60572766 88.3044712,4.36964547 C88.0745091,4.13356327 87.7563966,4 87.4238384,4 L67.3367168,4 C66.6664859,4 66.1219559,4.53172852 66.1174649,5.19036135 C66.0529542,14.8241948 58.0536295,18.5579947 57.7149484,18.7109898 C57.1923943,18.9443507 56.9062264,19.5042777 57.0277717,20.0555454 C57.149317,20.6068131 57.6456576,21 58.219637,21 L69.8689762,21 C69.9457237,20.9995298 70.0222557,20.9919593 70.097559,20.9773888 C70.1244385,20.9723171 70.1495976,20.9636531 70.175832,20.9562569 C70.2230474,20.9449907 70.2695114,20.930876 70.31496,20.913993 C70.34485,20.9023705 70.3730196,20.8880008 70.4009743,20.874265 C70.4399923,20.855896 70.4780313,20.835583 70.5149431,20.8134051 C70.5446181,20.7950203 70.5723577,20.7745223 70.6009574,20.753813 C70.6209557,20.7388094 70.6426743,20.7273981 70.6618125,20.7115492 C73.9768014,17.9193879 74.2744107,12.420227 74.2858076,12.1873532 C74.3176949,11.5263168 73.7982446,10.965038 73.125583,10.9337018 C72.4529213,10.9023656 71.8817716,11.4128384 71.8498842,12.0738747 C71.8477339,12.1186744 71.6056038,16.3847875 69.3855761,18.6036396 L62.2345669,18.6036396 C65.9560115,15.5636452 68.2288684,11.1438527 68.5121015,6.39636033 L80.1620858,6.39636033 L80.1620858,11.8088804 C80.1620858,12.470617 80.7079634,13.0070605 81.3813377,13.0070605 C82.0547119,13.0070605 82.6005896,12.470617 82.6005896,11.8088804 L82.6005896,6.39636033 L86.2157683,6.39636033 C86.3265116,8.95480253 87.0554824,14.8180665 91.2364197,18.6036396 L76.8720409,18.6036396 C76.1986667,18.6036396 75.652789,19.1400832 75.652789,19.8018198 C75.652789,20.4635564 76.1986667,21 76.8720409,21 L95.3812312,21 C95.9617808,20.9993993 96.4613818,20.5966156 96.5754379,20.0372175 C96.689494,19.4778194 96.3863678,18.9169753 95.8508689,18.6966201 C92.6758681,17.3940482 90.8988138,14.8273646 89.9021238,12.2822355 L97.7967262,12.2822355 C98.463845,12.2735293 99,11.7395968 99,11.0839497 C99,10.4283025 98.463845,9.89437009 97.7967262,9.88566384 L97.7967262,9.88502989 Z" id="Path"></path>
                <path d="M47.2519667,9 C46.5578515,9.01089837 46,9.67926866 46,10.5 C46,11.3207313 46.5578515,11.9891016 47.2519667,12 L60.7480333,12 C61.4421485,11.9891016 62,11.3207313 62,10.5 C62,9.67926866 61.4421485,9.01089837 60.7480333,9 L47.2519667,9 Z" id="Path"></path>
                <path d="M27.4952696,45 C27.9278427,45 28.3275568,44.7710606 28.5438433,44.399421 C28.7601299,44.0277814 28.7601299,43.5699024 28.5438433,43.1982628 C28.3275568,42.8266232 27.9278427,42.5976838 27.4952696,42.5976838 L24.1439266,42.5976838 L24.1439266,33.7773279 C24.1439266,33.1139466 23.6018381,32.5761698 22.9331381,32.5761698 C22.264438,32.5761698 21.7223496,33.1139466 21.7223496,33.7773279 L21.7223496,42.5976838 L5.12408323,42.5976838 C9.26681643,38.5692496 9.70671491,32.1518454 9.68941793,29.4023162 L13.9026203,29.4023162 L13.9026203,33.7773279 C13.9114182,34.4345467 14.4509691,34.962745 15.1135156,34.962745 C15.7760621,34.962745 16.315613,34.4345467 16.3244109,33.7773279 L16.3244109,29.4023162 L34.1383772,29.4023162 L34.5840414,33.8951134 C34.6495551,34.5553358 35.2421716,35.0378647 35.9076873,34.9728721 C36.5732031,34.9078795 37.0596008,34.3199766 36.9940871,33.6597543 L36.4410109,28.0835844 C36.3800472,27.4686875 35.8588058,27 35.235988,27 L8.43250413,27 C8.09367589,27.0002419 7.77042912,27.1412187 7.54117882,27.3887316 C7.31192851,27.6362445 7.19762131,27.9676782 7.22598647,28.3026316 C7.2355959,28.4140618 8.08015827,39.45942 0.719973447,42.7008521 C0.197067283,42.9309506 -0.09216751,43.4927049 0.0264268168,44.0478644 C0.145021144,44.6030238 0.639083285,45 1.21112223,45 L27.4952696,45 Z" id="Path"></path>
                <path d="M92.1693365,31.9596771 C91.8641188,31.8566943 84.627979,29.4696378 78.4951526,32.6348584 C75.1330126,34.3701193 72.7870425,37.4132624 71.5210902,41.6786831 C70.8580236,42.311813 70.2723939,42.9357174 69.772182,43.519716 C67.6706706,45.9756942 67.013975,49.346184 68.0409614,52.4052045 C69.4031167,56.3992225 71.8323475,59.494286 75.1899578,61.5676739 L52.0812039,61.5676739 L52.0812039,45.769462 C52.0812039,45.097616 51.5336357,44.5529772 50.8581761,44.5529772 C50.1827166,44.5529772 49.6351484,45.097616 49.6351484,45.769462 L49.6351484,61.5676739 L25.8273058,61.5676739 C26.3997032,61.1487882 26.9428649,60.6917533 27.4530483,60.1997185 C30.3956488,57.3642575 33.8304803,51.8059731 33.8457951,41.3145958 L54.1840783,41.3145958 C54.6249334,41.320419 55.0348289,41.0898199 55.2569638,40.7110115 C55.4790988,40.3322031 55.4790988,39.8638043 55.2569638,39.4849959 C55.0348289,39.1061874 54.6249334,38.8755883 54.1840783,38.8814116 L32.6091781,38.8814116 C32.2799869,38.8815 31.9647258,39.0135561 31.7346469,39.2477336 C31.5045681,39.4819111 31.3790935,39.7984422 31.3865818,40.1257876 C31.8479674,59.703899 20.541108,61.5106043 20.0659174,61.577114 C19.4263532,61.6595354 18.9610327,62.2217526 19.0025772,62.8618801 C19.0441218,63.5020076 19.5782539,64 20.2231639,64 L81.4931884,64 C82.1155128,63.999226 82.6380609,63.5338343 82.7073064,62.9186825 C82.7765518,62.3035307 82.3704207,61.7347164 81.7636781,61.597067 C76.0098394,60.3001268 72.1722931,56.9443879 70.3573803,51.6231785 C69.6046907,49.3755879 70.0889949,46.900124 71.6341178,45.0972844 C73.6921262,42.6943514 77.2533588,39.5516582 82.5307128,38.2238232 C82.9543267,38.1172024 83.2885747,37.7938944 83.4075487,37.3756862 C83.5265226,36.9574781 83.4121477,36.5079055 83.1075078,36.1963181 C82.8028679,35.8847307 82.354245,35.7584661 81.9306311,35.865087 C79.683165,36.432112 77.5367282,37.3395253 75.5665727,38.5555138 C76.5527782,36.9671371 77.9489015,35.6706448 79.6096825,34.8009309 C83.5052524,32.7828963 88.14262,33.4765286 90.2457101,33.9592607 C88.4510732,39.4145623 85.1767237,42.2852091 80.49902,42.4963239 C79.8334851,42.5240841 79.3126755,43.0764948 79.3275398,43.738886 C79.3424041,44.4012773 79.8874751,44.9300246 80.5535925,44.9282209 C80.5723585,44.9282209 80.5911245,44.9282209 80.6101063,44.9282209 C84.8594268,44.7351281 90.4527836,42.5853612 92.9568628,33.4314736 C93.1265424,32.8109715 92.7815706,32.1662587 92.1693365,31.9596771 Z" id="Path"></path>
                <path d="M61.5466152,51.7641608 L61.5466152,41.4727686 L67.7433789,41.4727686 C68.4400745,41.4637856 69,40.9128772 69,40.2363843 C69,39.5598914 68.4400745,39.0089831 67.7433789,39 L60.2733076,39 C59.5700429,39 59,39.5536821 59,40.2364933 L59,51.7637247 C59,52.4465007 59.5700792,53 60.2733076,53 C60.976536,53 61.5466152,52.4465007 61.5466152,51.7637247 L61.5466152,51.7641608 Z" id="Path"></path>
                <path d="M42.0375516,51.0545497 C41.6934611,50.9569994 41.3219979,50.9912224 41.0049104,51.1496873 C40.6878229,51.3081522 40.451096,51.577873 40.3468264,51.8994919 C39.6474386,54.0535245 38.655623,55.7143577 37.3981596,56.8359564 C36.876355,57.3225477 36.8661391,58.1096271 37.3751607,58.6079053 C37.8841823,59.1061834 38.7259049,59.1330611 39.2701278,58.6684149 C40.8699924,57.241332 42.1049798,55.211102 42.9413758,52.63471 C43.1584654,51.9651172 42.7538846,51.2577866 42.0375516,51.0545497 L42.0375516,51.0545497 Z" id="Path"></path>
                <path d="M42.9659763,46.9238389 C43.0002617,46.4403695 43,46.1474369 43,46.1353903 C42.9982675,45.5077069 42.3342581,44.9996665 41.5160438,45 L41.5142118,45 C40.695012,45.0008866 40.0316535,45.5107638 40.0320877,46.139205 C40.0320877,46.1416143 40.0320877,46.3871638 40.0022515,46.7993576 C39.9575219,47.4271351 40.5846459,47.9638689 41.4029805,47.998193 C41.4307229,47.9993977 41.4579418,48 41.4854225,48 C42.2729035,47.999317 42.9226598,47.5270326 42.9659763,46.9238389 L42.9659763,46.9238389 Z" id="Path"></path>
                <path d="M0.0175487932,10.9442945 C0.0209729479,10.9674362 0.0220429963,10.9914596 0.0267512091,11.014381 C0.0267512091,11.0179073 0.0267512091,11.0214337 0.0280352671,11.0249601 C0.0436399135,11.0959978 0.0651192541,11.1655299 0.092238169,11.2327952 C0.0982304398,11.2473415 0.107004836,11.2601245 0.113639136,11.2744504 C0.137792828,11.329785 0.165905486,11.3831948 0.197744938,11.4342388 C0.211441557,11.4562786 0.227920302,11.4752328 0.242900979,11.4957298 C0.271339588,11.5359194 0.302068287,11.5743361 0.334925138,11.6107775 C0.354186009,11.6314948 0.374944947,11.6502287 0.395703885,11.6698441 C0.428829742,11.701199 0.463624454,11.7306309 0.499926596,11.7580032 C0.52368167,11.7760758 0.547864763,11.7926057 0.572903894,11.8086947 C0.61083754,11.8329775 0.650062813,11.8550519 0.690395205,11.874814 C0.716932404,11.8878175 0.742827575,11.9010414 0.770434822,11.9120613 C0.815982955,11.9295931 0.862505605,11.9443124 0.909755119,11.9561408 C0.934580241,11.9627528 0.958763334,11.9711279 0.984230486,11.976197 C1.05923654,11.9914903 1.13547661,11.99946 1.21193678,12 L34.802467,12 C35.466403,11.9909197 36,11.4340488 36,10.7502342 C36,10.0664195 35.466403,9.50954862 34.802467,9.50046835 L27.7692531,9.50046835 C21.6937325,7.25770015 21.4899953,1.47424101 21.4855011,1.23180341 C21.4760244,0.54870523 20.9356468,0 20.2722803,0 L7.38889797,0 C6.75387086,0 6.22626231,0.504267271 6.17888728,1.15642735 C5.75086793,7.04479586 0.896700529,9.52052455 0.693819359,9.62146675 C0.658935783,9.63843738 0.62811839,9.66069756 0.59558892,9.68053336 C0.572047856,9.69507962 0.547222734,9.7072015 0.524751718,9.72329054 C0.464183756,9.76576867 0.407519969,9.81386929 0.355470067,9.86698992 L0.353971999,9.8689735 C0.30346307,9.92159036 0.257625058,9.9787542 0.217005808,10.0397818 C0.20266716,10.0618216 0.191538657,10.0838614 0.178484067,10.1059012 C0.153424018,10.1475034 0.130701675,10.1905516 0.110428991,10.2348339 C0.0982304398,10.262604 0.0890280239,10.2912557 0.0783275403,10.3199074 C0.062551096,10.3631654 0.049189352,10.407317 0.0383077314,10.4521461 C0.0312454122,10.481459 0.0252531414,10.5105515 0.0203309189,10.5403053 C0.0123119518,10.5910021 0.00730906681,10.6421563 0.00535024182,10.6934817 C0.00535024182,10.7119952 0,10.7298474 0,10.7488016 C0,10.7576175 0.0023541064,10.7659926 0.00256811607,10.7750289 C0.00378567033,10.8317379 0.00879105263,10.8882933 0.0175487932,10.9442945 Z M8.46386855,2.49931126 L14.4199718,2.49931126 L14.4199718,5.11741694 C14.4199718,5.80758268 14.963245,6.36707257 15.6334066,6.36707257 C16.3035682,6.36707257 16.8468414,5.80758268 16.8468414,5.11741694 L16.8468414,2.49931126 L19.1707725,2.49931126 C19.6273049,5.21493476 20.9756662,7.68668644 22.9902031,9.50090914 L4.89119107,9.50090914 C6.78047017,7.62209246 8.03301461,5.16740334 8.46386855,2.49931126 L8.46386855,2.49931126 Z" id="Shape"></path>
                <path d="M42.7485251,9.66886545 C42.6944411,9.58626994 42.6316844,9.50969052 42.561324,9.44043171 C42.4926983,9.37084948 42.4174235,9.30815407 42.3365768,9.25324295 C42.2536633,9.19874431 42.1657471,9.15226604 42.0740193,9.11443773 C41.9846617,9.07648983 41.8917491,9.04752851 41.7966549,9.02798191 C41.6023268,8.9906727 41.4026744,8.9906727 41.2083463,9.02798191 C41.1119631,9.04751407 41.0177333,9.07647189 40.9270158,9.11443773 C40.8369349,9.1530758 40.7504078,9.19952133 40.6684244,9.25324295 C40.5863496,9.30803701 40.5098353,9.37073213 40.4399755,9.44043171 C40.3703223,9.50976954 40.3082751,9.5863485 40.2548897,9.66886545 C40.1992046,9.7497566 40.1526494,9.83656522 40.1160753,9.92770414 C40.0784965,10.0170772 40.0496303,10.1098678 40.0298781,10.2047858 C40.0107794,10.302355 40.0007772,10.401486 40,10.5009036 C40.0007655,10.599097 40.010769,10.6970006 40.0298781,10.7933199 C40.050252,10.8893644 40.0790972,10.9834148 40.1160753,11.0743675 C40.1535554,11.1650805 40.2000607,11.251796 40.2548897,11.3332062 C40.3092649,11.4138563 40.3712434,11.4891109 40.4399755,11.5579384 C40.5090079,11.6285468 40.5856211,11.6913229 40.6684244,11.7451272 C40.7496243,11.8001549 40.8362792,11.8466689 40.9270158,11.8839324 C41.1086606,11.9600516 41.3035671,11.9994975 41.5005176,12 C41.5987194,11.9995147 41.6966477,11.9895986 41.7929532,11.9703882 C41.8892909,11.9510145 41.9834485,11.9220517 42.0740193,11.8839324 C42.1651521,11.8475129 42.2518953,11.8009514 42.3326107,11.7451272 C42.4161872,11.6922768 42.4929939,11.6294149 42.561324,11.5579384 C42.6316324,11.4899841 42.6943966,11.4146365 42.7485251,11.3332062 C42.8020521,11.2510181 42.8484909,11.1644265 42.8873395,11.0743675 C42.922885,10.9829113 42.9516943,10.8889783 42.9735366,10.7933199 C42.9916545,10.6969138 43.0005084,10.5989958 43,10.5009036 C43.0004973,10.4015858 42.9916445,10.3024405 42.9735366,10.2047858 C42.9523174,10.1102537 42.9234912,10.0175915 42.8873395,9.92770414 C42.849394,9.83721207 42.8029126,9.75054089 42.7485251,9.66886545 L42.7485251,9.66886545 Z" id="Path"></path>
            </g>
        </g>
    </g>
</svg>