<?xml version="1.0" encoding="UTF-8"?>
<svg width="71px" height="71px" viewBox="0 0 71 71" version="1.1" xmlns="http://www.w3.org/2000/svg" xmlns:xlink="http://www.w3.org/1999/xlink">
    <!-- Generator: Sketch 57.1 (83088) - https://sketch.com -->
    <title>noun_Pollution_2229387</title>
    <desc>Created with Sketch.</desc>
    <g id="3.1---Conservation-Detail" stroke="none" stroke-width="1" fill="none" fill-rule="evenodd">
        <g id="Conservation-Detail" transform="translate(-832.000000, -1331.000000)" fill="#FFFFFF" fill-rule="nonzero">
            <g id="pollution" transform="translate(735.000000, 1304.000000)">
                <g id="noun_Pollution_2229387" transform="translate(97.000000, 27.000000)">
                    <g id="Group">
                        <path d="M5.91666667,71 C2.65060377,70.9961038 0.00391223766,68.3602594 0,65.107582 C0,62.2792213 4.11681667,56.1994244 4.94278333,55.0103344 L5.91666667,53.605582 L6.89055,55.0103344 C7.71651667,56.1994244 11.8333333,62.2792213 11.8333333,65.107582 C11.8294211,68.3602594 9.18272956,70.9961038 5.91666667,71 Z M5.91666667,57.8104115 C4.21385,60.4608211 2.36666667,63.8206779 2.36666667,65.107582 C2.36666667,67.0601575 3.95605583,68.6430327 5.91666667,68.6430327 C7.87727751,68.6430327 9.46666667,67.0601575 9.46666667,65.107582 C9.46666667,63.8194994 7.61948333,60.4608211 5.91666667,57.8104115 Z" id="Shape"></path>
                        <path d="M20.1166667,61.5721311 C16.8506038,61.5682349 14.2039122,58.9323905 14.2,55.6797131 C14.2,52.8513525 18.3168167,46.7715555 19.1427833,45.5824656 L20.1166667,44.1777131 L21.09055,45.5824656 C21.9165167,46.7715555 26.0333333,52.8513525 26.0333333,55.6797131 C26.0294211,58.9323905 23.3827296,61.5682349 20.1166667,61.5721311 Z M20.1166667,48.3825426 C18.41385,51.0329523 16.5666667,54.392809 16.5666667,55.6797131 C16.5666667,57.6322887 18.1560558,59.2151639 20.1166667,59.2151639 C22.0772775,59.2151639 23.6666667,57.6322887 23.6666667,55.6797131 C23.6666667,54.3916305 21.8194833,51.0329523 20.1166667,48.3825426 Z" id="Shape"></path>
                        <path d="M65.0833333,71 C61.8172704,70.9961038 59.1705789,68.3602594 59.1666667,65.107582 C59.1666667,62.2792213 63.2834833,56.1994244 64.10945,55.0103344 L65.0833333,53.605582 L66.0572167,55.0103344 C66.8831833,56.1994244 71,62.2792213 71,65.107582 C70.9960878,68.3602594 68.3493962,70.9961038 65.0833333,71 Z M65.0833333,57.8104115 C63.3805167,60.4608211 61.5333333,63.8206779 61.5333333,65.107582 C61.5333333,67.0601575 63.1227225,68.6430328 65.0833333,68.6430328 C67.0439442,68.6430328 68.6333333,67.0601575 68.6333333,65.107582 C68.6333333,63.8194994 66.78615,60.4608211 65.0833333,57.8104115 Z" id="Shape"></path>
                        <path d="M50.8833333,61.5721311 C47.6172704,61.5682349 44.9705789,58.9323905 44.9666667,55.6797131 C44.9666667,52.8513525 49.0834833,46.7715555 49.90945,45.5824656 L50.8833333,44.1777131 L51.8572167,45.5824656 C52.6831833,46.7715555 56.8,52.8513525 56.8,55.6797131 C56.7960878,58.9323905 54.1493962,61.5682349 50.8833333,61.5721311 Z M50.8833333,48.3825426 C49.1805167,51.0329523 47.3333333,54.392809 47.3333333,55.6797131 C47.3333333,57.6322887 48.9227225,59.2151639 50.8833333,59.2151639 C52.8439442,59.2151639 54.4333333,57.6322887 54.4333333,55.6797131 C54.4333333,54.3916305 52.58615,51.0329523 50.8833333,48.3825426 Z" id="Shape"></path>
                        <path d="M35.5,71 C32.2339371,70.9961038 29.5872456,68.3602594 29.5833333,65.107582 C29.5833333,62.2792213 33.70015,56.1994244 34.5261167,55.0103344 L35.5,53.605582 L36.4738833,55.0103344 C37.29985,56.1994244 41.4166667,62.2792213 41.4166667,65.107582 C41.4127544,68.3602594 38.7660629,70.9961038 35.5,71 Z M35.5,57.8104115 C33.7971833,60.4608211 31.95,63.8206779 31.95,65.107582 C31.95,67.0601575 33.5393891,68.6430328 35.5,68.6430328 C37.4606109,68.6430328 39.05,67.0601575 39.05,65.107582 C39.05,63.8194994 37.2028167,60.4608211 35.5,57.8104115 Z" id="Shape"></path>
                        <path d="M35.5,40.3594262 C32.2631859,40.3580056 29.1239948,39.2553303 26.6025167,37.2340877 L25.68425,36.494 L31.6151167,29.163832 L32.5369333,29.9003842 C34.2774966,31.2569286 36.7225034,31.2569286 38.4630667,29.9003842 L39.3848833,29.163832 L45.3216667,36.494 L44.4034,37.2340877 C41.8803404,39.2565974 38.7388441,40.3594262 35.5,40.3594262 Z M29.0472833,36.0933156 C32.9902002,38.5682023 38.0097998,38.5682023 41.9527167,36.0933156 L38.9600667,32.3916986 C36.8020788,33.5583269 34.1979212,33.5583269 32.0399333,32.3916986 L29.0472833,36.0933156 Z" id="Shape"></path>
                        <path d="M49.345,29.5456607 L39.9966667,28.1031967 L40.1765333,26.9400334 C40.5156312,24.7560076 39.2856895,22.6305593 37.2182,21.8277715 L36.1177,21.4011605 L39.5316167,12.6191006 L40.6333,13.0409977 C46.8551011,15.4351529 50.5592008,21.8252556 49.5296,28.3883898 L49.345,29.5456607 Z M42.6,26.1150949 L47.3155833,26.8457547 C47.5675426,22.1900287 45.0371968,17.8247823 40.8628667,15.7137986 L39.1399333,20.1460754 C41.254821,21.40336 42.5643261,23.6624095 42.6,26.1150949 Z" id="Shape"></path>
                        <path d="M21.655,29.5456607 L21.4715833,28.3836758 C20.4419825,21.8205417 24.1460823,15.4304389 30.3678833,13.0362838 L31.4695667,12.6143867 L34.8834833,21.3964465 L33.7829833,21.8230576 C31.7154939,22.6258453 30.4855521,24.7512936 30.82465,26.9353195 L31.0045167,28.0984828 L21.655,29.5456607 Z M30.1371333,15.7137986 C25.9628032,17.8247823 23.4324574,22.1900287 23.6844167,26.8457547 L28.4,26.1150949 C28.4356739,23.6624095 29.745179,21.40336 31.8600667,20.1460754 L30.1371333,15.7137986 Z" id="Shape"></path>
                        <path d="M35.5,29.7530738 C33.5393891,29.7530738 31.95,28.1701985 31.95,26.217623 C31.95,24.2650474 33.5393891,22.6821721 35.5,22.6821721 C37.4606109,22.6821721 39.05,24.2650474 39.05,26.217623 C39.05,28.1701985 37.4606109,29.7530738 35.5,29.7530738 Z M35.5,25.0391393 C34.846463,25.0391393 34.3166667,25.5667644 34.3166667,26.217623 C34.3166667,26.8684815 34.846463,27.3961066 35.5,27.3961066 C36.153537,27.3961066 36.6833333,26.8684815 36.6833333,26.217623 C36.6833333,25.5667644 36.153537,25.0391393 35.5,25.0391393 Z" id="Shape"></path>
                        <path d="M35.5,48.6088477 C30.1645218,48.6146832 25.2090144,45.8599154 22.4135167,41.3340322 C21.6557073,41.4713288 20.8869121,41.5395701 20.1166667,41.5379098 C15.2233281,41.5409867 10.7423017,38.8087449 8.52,34.4670082 C3.94524132,34.4670082 0.236666667,30.7736326 0.236666667,26.217623 C0.236666667,21.6616133 3.94524132,17.9682377 8.52,17.9682377 C11.1703547,12.8048419 16.9372869,10.0176041 22.6501833,11.1389252 C23.6758058,4.8662831 29.1162195,0.259073561 35.4976333,0.259073561 C41.8790472,0.259073561 47.3194609,4.8662831 48.3450833,11.1389252 C53.5836197,10.1105505 58.9222718,12.3673536 61.8185167,16.8345365 C64.1598605,16.5741684 66.5014898,17.3213227 68.2549819,18.8882489 C70.008474,20.4551751 71.00713,22.6929103 71.0000379,25.0391393 C70.9706598,28.9927469 68.1508298,32.3794259 64.255,33.1400357 C61.9019331,39.3677715 55.1964511,42.809898 48.73795,41.1054064 C45.9721556,45.7660168 40.9359832,48.6205707 35.5,48.6088477 L35.5,48.6088477 Z M23.004,38.8156127 C23.4398311,38.8156398 23.8403685,39.0542529 24.0465167,39.4366736 C26.3439359,43.6825558 30.818321,46.3071525 35.6609421,46.249494 C40.5035632,46.1918355 44.9136636,43.461456 47.1085,39.1620869 C47.3779907,38.6382427 47.9942596,38.3927454 48.5521667,38.5869869 C51.2801702,39.5386009 54.279392,39.3450348 56.861251,38.0507287 C59.4431101,36.7564226 61.3858102,34.4725648 62.2433333,31.7234984 C62.384885,31.2681366 62.7879466,30.9425436 63.26455,30.8985598 C66.3799771,30.5710945 68.6991296,27.8819332 68.5538334,24.7653986 C68.4085372,21.6488641 65.8491584,19.1852847 62.7166667,19.1467213 C62.2878395,19.1495524 61.8602745,19.1933571 61.43985,19.277533 C60.9359135,19.3740395 60.4269521,19.1360698 60.1796,18.6882912 C57.7162164,14.2975047 52.4969978,12.2309693 47.6788667,13.73866 C47.3298993,13.8485289 46.949522,13.7914019 46.6486076,13.5839303 C46.3476931,13.3764587 46.1601094,13.0419935 46.1405333,12.6780248 C45.8363672,7.04668239 41.1626916,2.63580673 35.5,2.63580673 C29.8373084,2.63580673 25.1636328,7.04668239 24.8594667,12.6780248 C24.8398906,13.0419935 24.6523069,13.3764587 24.3513924,13.5839303 C24.050478,13.7914019 23.6701007,13.8485289 23.3211333,13.73866 C18.1014574,12.1058935 12.4879701,14.672759 10.3293167,19.6793959 C10.1161256,20.1727382 9.59496259,20.4601174 9.06196667,20.3782367 C8.80408715,20.3414927 8.5438348,20.3237672 8.28333333,20.3252049 C5.01564856,20.3252049 2.36666667,22.9633303 2.36666667,26.217623 C2.36666667,29.4719156 5.01564856,32.110041 8.28333333,32.110041 C8.54629393,32.1095272 8.80887884,32.0902291 9.06906667,32.0522953 C9.59993657,31.9740433 10.1172188,32.2613732 10.3293167,32.7523145 C12.0072107,36.6517117 15.8568509,39.180272 20.1166667,39.1809426 C20.9871519,39.1855654 21.8544706,39.0762081 22.6963333,38.8556811 C22.7967179,38.829133 22.9001362,38.8156644 23.004,38.8156127 L23.004,38.8156127 Z" id="Shape"></path>
                    </g>
                </g>
            </g>
        </g>
    </g>
</svg>