<?xml version="1.0" encoding="UTF-8"?>
<svg width="61px" height="61px" viewBox="0 0 61 61" version="1.1" xmlns="http://www.w3.org/2000/svg" xmlns:xlink="http://www.w3.org/1999/xlink">
    <!-- Generator: Sketch 57.1 (83088) - https://sketch.com -->
    <title>noun_Map_2077154</title>
    <desc>Created with Sketch.</desc>
    <g id="0.0---Homepage" stroke="none" stroke-width="1" fill="none" fill-rule="evenodd">
        <g id="PhoenixZoo-Homepage_V3.0" transform="translate(-745.000000, -773.000000)" fill="#000000" fill-rule="nonzero">
            <g id="Helper-Bar" transform="translate(0.000000, 730.000000)">
                <g id="helper-bar-content" transform="translate(132.000000, 34.000000)">
                    <g id="map" transform="translate(601.000000, 0.000000)">
                        <g id="noun_Map_2077154" transform="translate(12.000000, 9.000000)">
                            <g id="Group">
                                <path d="M60.0667,13.1861667 L40.6626,0.1403 C40.6510778,0.132166667 40.6375222,0.128777778 40.6375222,0.128777778 C40.6124444,0.113866667 40.6036333,0.103022222 40.5900778,0.0962444444 C40.5900778,0.0962444444 40.5453444,0.0813333333 40.5229778,0.0718444444 C40.4884111,0.0569333333 40.4545222,0.0433777778 40.4186,0.0338888889 C40.3833556,0.0237222222 40.3474333,0.0183 40.3108333,0.0135555556 C40.2742333,0.00881111111 40.2389889,0.00474444444 40.2017111,0.00474444444 C40.1637556,0.00474444444 40.1291889,0.00881111111 40.0919111,0.0135555556 C40.0553111,0.0183 40.0193889,0.0237222222 39.9841444,0.0338888889 C39.9482222,0.0433777778 39.9150111,0.0576111111 39.8797667,0.0718444444 C39.8574,0.0813333333 39.8336778,0.0854 39.8126667,0.0962444444 C39.7997889,0.103022222 39.7896222,0.113866667 39.7896222,0.113866667 C39.7645444,0.128777778 39.7516667,0.132166667 39.7401444,0.139622222 L20.7962556,12.8757444 L1.85372222,0.1403 C1.60023333,-0.0298222222 1.27422222,-0.0460888889 1.00514444,0.0962444444 C0.736066667,0.239933333 0.567977778,0.519855556 0.567977778,0.825533333 L0.567977778,47.1286 C0.567977778,47.4037778 0.704888889,47.6606556 0.932622222,47.8138333 L20.3367222,60.8597 C20.3475667,60.8671556 20.3604444,60.8698667 20.3719667,60.8759667 C20.3719667,60.8759667 20.3956889,60.8956222 20.4092444,60.9030778 C20.4417778,60.9200222 20.4770222,60.9295111 20.5102333,60.9417111 C20.5332778,60.9498444 20.5542889,60.9606889 20.5773333,60.9674667 C20.6498556,60.9871222 20.7237333,61 20.7976111,61 C20.8714889,61 20.9453667,60.9871222 21.0178889,60.9674667 C21.0409333,60.9613667 21.0626222,60.9505222 21.0849889,60.9417111 C21.1188778,60.9288333 21.1534444,60.9200222 21.1866556,60.9030778 C21.1866556,60.9030778 21.2103778,60.8841 21.2239333,60.8759667 L21.2585,60.8597 L40.2030667,48.1235778 L59.1469556,60.8597 C59.2845444,60.9525556 59.4451778,61 59.6064889,61 C59.7393333,61 59.8728556,60.9674667 59.9948556,60.9030778 C60.2639333,60.7600667 60.4320222,60.4794667 60.4320222,60.1744667 L60.4320222,13.8714 C60.4320222,13.5962222 60.2951111,13.3393444 60.0667,13.1861667 Z M19.9720778,58.6237111 L2.21904444,46.6880444 L2.21904444,2.37561111 L19.9714,14.3106 L19.9714,58.6237111 L19.9720778,58.6237111 Z M39.3761778,46.6880444 L21.6231444,58.6237111 L21.6231444,14.3112778 L39.3761778,2.37561111 L39.3761778,46.6880444 Z M58.7809556,58.6237111 L41.0279222,46.6880444 L41.0279222,2.37561111 L58.7809556,14.3106 L58.7809556,58.6237111 Z" id="Shape"></path>
                            </g>
                        </g>
                    </g>
                </g>
            </g>
        </g>
    </g>
</svg>