<?xml version="1.0" encoding="UTF-8"?>
<svg width="60px" height="60px" viewBox="0 0 60 60" version="1.1" xmlns="http://www.w3.org/2000/svg" xmlns:xlink="http://www.w3.org/1999/xlink">
    <!-- Generator: Sketch 57.1 (83088) - https://sketch.com -->
    <title>noun_hour_2050073</title>
    <desc>Created with Sketch.</desc>
    <g id="0.0---Homepage" stroke="none" stroke-width="1" fill="none" fill-rule="evenodd">
        <g id="PhoenixZoo-Homepage_V3.0" transform="translate(-132.000000, -766.000000)" fill="#000000">
            <g id="Helper-Bar" transform="translate(0.000000, 730.000000)">
                <g id="helper-bar-content" transform="translate(132.000000, 34.000000)">
                    <g id="hours" transform="translate(0.000000, 2.000000)">
                        <g id="noun_hour_2050073">
                            <g id="Group">
                                <path d="M30,0 C13.3928571,0 0,13.3928571 0,30 C0,46.6071429 13.3928571,60 30,60 C46.6071429,60 60,46.6071429 60,30 C60,13.3928571 46.6071429,0 30,0 Z M30,2.14285714 C45.5357143,2.14285714 58.125,14.7321429 58.125,30 C58.125,45.5357143 45.5357143,58.125 30,58.125 C14.7321429,58.125 2.14285714,45.5357143 2.14285714,30 C2.14285714,14.7321429 14.7321429,2.14285714 30,2.14285714 Z" id="Shape" fill-rule="nonzero"></path>
                                <path d="M31.0714286,26.25 L31.0714286,4.28571429 C31.0714286,2.94642857 28.9285714,2.94642857 28.9285714,4.28571429 L28.9285714,26.25 C28.125,26.5178571 27.5892857,27.0535714 27.3214286,27.8571429 L10.9821429,27.8571429 C8.83928571,27.8571429 8.83928571,31.0714286 10.9821429,31.0714286 L27.8571429,31.0714286 C28.3928571,31.875 29.1964286,32.1428571 30,32.1428571 C31.6071429,32.1428571 33.2142857,30.8035714 33.2142857,29.1964286 C33.2142857,27.8571429 32.4107143,26.7857143 31.0714286,26.25 Z" id="Path"></path>
                            </g>
                        </g>
                    </g>
                </g>
            </g>
        </g>
    </g>
</svg>