<?xml version="1.0" encoding="UTF-8"?>
<svg width="84px" height="77px" viewBox="0 0 84 77" version="1.1" xmlns="http://www.w3.org/2000/svg" xmlns:xlink="http://www.w3.org/1999/xlink">
    <!-- Generator: Sketch 57.1 (83088) - https://sketch.com -->
    <title>noun_Stroller_693217</title>
    <desc>Created with Sketch.</desc>
    <g id="0.2---Membership" stroke="none" stroke-width="1" fill="none" fill-rule="evenodd">
        <g id="Membership" transform="translate(-826.000000, -1185.000000)" fill="#FFFFFF" fill-rule="nonzero">
            <g id="discounts-copy" transform="translate(736.000000, 1154.000000)">
                <g id="noun_Stroller_693217" transform="translate(90.000000, 31.000000)">
                    <path d="M77.301,10.5 C75.509,10.5 73.8255,11.2000026 72.562,12.4635026 L66.199,18.8265026 C66.1605,17.0590026 66.2445,15.2215026 66.339,13.3385026 C66.4195,11.7775026 66.5,10.2375026 66.5,8.75000258 C66.5,7.78400258 65.716,7 64.75,7 C55.3175,7 50.89,6.41550258 44.989,0.511002581 C44.4885,0.0105025809 43.7395,-0.136497419 43.0815,0.133002581 C42.427,0.402502581 42,1.04300258 42,1.75000258 L42,35.6685026 L36.7535,38.2935026 L30.534,35.1855026 C29.673,34.7585026 28.6195,35.1050026 28.1855,35.9695026 C27.755,36.8340026 28.105,37.8840026 28.9695,38.3180026 L32.8405,40.2500026 L14.966,49.1855026 C14.3745,49.4830026 14,50.0885026 14,50.7500026 L14,56.8155026 L4.7215,63 L1.75,63 C0.784,63 0,63.7840026 0,64.7500026 C0,65.7160026 0.784,66.5 1.75,66.5 L5.25,66.5 C5.5965,66.5 5.9325,66.3985026 6.2195,66.2060026 L16.2785,59.5 L25.5255,59.5 L24.066,60.9595026 C22.6835,60.0425026 21.0315,59.5 19.25,59.5 C14.427,59.5 10.5,63.4270026 10.5,68.2500026 C10.5,73.0730026 14.427,77 19.25,77 C24.073,77 28,73.0730026 28,68.2500026 C28,66.4720026 27.461,64.8165026 26.544,63.4340026 L30.478,59.5 L33.25,59.5 C36.953,59.5 47.11,57.4455026 55.0305,52.7800026 L59.675,58.5865026 C57.4455,60.5115026 56,63.3290026 56,66.5 C56,72.2890026 60.711,77 66.5,77 C72.289,77 77,72.2890026 77,66.5 C77,60.7110026 72.289,56 66.5,56 C65.142,56 63.854,56.2800026 62.664,56.7490026 C62.643,56.7175026 62.6395,56.6825026 62.615,56.6545026 L57.9635,50.8410026 C58.954,50.1025026 59.8955,49.3255026 60.7355,48.4855026 C64.722,44.4955026 67.704,40.7610026 69.3525,37.6845026 C72.037,32.6760026 70.9065,29.9320026 69.4855,28.5110026 C67.998,27.0235026 67.165,25.2455026 66.6995,23.2785026 L75.04,14.9380026 C75.6315,14.3430026 76.4575,14 77.301,14 C79.065,14 80.5,15.4350026 80.5,17.5 C80.5,18.4660026 81.284,19.0995026 82.25,19.0995026 C83.216,19.0995026 84,18.1650026 84,17.1990026 C84,13.5030026 80.997,10.5 77.301,10.5 Z M19.25,73.5000026 C16.3555,73.5000026 14,71.1445026 14,68.2500026 C14,65.3555026 16.3555,63.0000026 19.25,63.0000026 C22.1445,63.0000026 24.5,65.3555026 24.5,68.2500026 C24.5,71.1445026 22.1445,73.5000026 19.25,73.5000026 Z M66.5,59.5000026 C70.3605,59.5000026 73.5,62.6395026 73.5,66.5000026 C73.5,70.3605026 70.3605,73.5000026 66.5,73.5000026 C62.6395,73.5000026 59.5,70.3605026 59.5,66.5000026 C59.5,62.6395026 62.6395,59.5000026 66.5,59.5000026 Z M29.0255,56.0000026 L17.493,56.0000026 L17.493,51.8280026 L44.5165,38.3180026 C44.562,38.2970026 44.604,38.2725026 44.646,38.2480026 C44.884,38.1045026 45.0765,37.9120026 45.22,37.6915026 L59.2025,16.7160026 C59.738,15.9110026 59.521,14.8260026 58.716,14.2905026 C57.9075,13.7550026 56.8225,13.9720026 56.2905,14.7770026 L45.4965,30.9680026 L45.4965,5.65250258 C50.631,9.65650258 55.4925,10.4055026 62.965,10.4895026 C62.9335,11.3680026 62.888,12.2605026 62.8425,13.1565026 C62.692,16.0510026 62.5485,19.1275026 62.9405,22.0850026 L29.0255,56.0000026 Z M34.0095,55.9685026 L47.1065,42.8715026 L52.829,50.0255026 C46.1475,53.8440026 37.7405,55.7305026 34.0095,55.9685026 Z M67.011,30.9855026 C68.124,32.0950026 67.025,34.6220026 66.269,36.0290026 C64.778,38.8115026 62.0095,42.2625026 58.261,46.0110026 C57.512,46.7600026 56.672,47.4530026 55.7795,48.1110026 L49.595,40.3795026 L63.9205,26.0540026 C64.582,27.8285026 65.534,29.5085026 67.011,30.9855026 Z" id="Shape"></path>
                </g>
            </g>
        </g>
    </g>
</svg>