<?xml version="1.0" encoding="UTF-8"?>
<svg width="14px" height="16px" viewBox="0 0 14 16" version="1.1" xmlns="http://www.w3.org/2000/svg" xmlns:xlink="http://www.w3.org/1999/xlink">
    <!-- Generator: Sketch 57.1 (83088) - https://sketch.com -->
    <title>noun_wheelchair_768128</title>
    <desc>Created with Sketch.</desc>
    <g id="2.1.1---Trail-Detail" stroke="none" stroke-width="1" fill="none" fill-rule="evenodd">
        <g id="Trail-Detail" transform="translate(-964.000000, -922.000000)" fill="#000000" fill-rule="nonzero">
            <g id="trail-info" transform="translate(112.000000, 634.000000)">
                <g id="quick-info" transform="translate(823.000000, 72.000000)">
                    <g id="noun_wheelchair_768128" transform="translate(29.000000, 216.000000)">
                        <g id="Group">
                            <path d="M13.292,11.73 C13.176,11.587 12.965,11.565 12.822,11.682 L12.074,12.29 L9.592,10.092 C9.531,10.038 9.451,10.008 9.369,10.008 L5.306,10.008 L5.306,5.5 L10.228,5.5 C10.413,5.5 10.563,5.351 10.563,5.166 C10.563,4.982 10.413,4.832 10.228,4.832 L10.228,4.831 L4.973,4.831 C4.884,4.831 4.798,4.867 4.736,4.93 C4.674,4.991 4.638,5.078 4.638,5.165 L4.638,10.343 C4.638,10.43 4.674,10.517 4.736,10.579 C4.799,10.642 4.884,10.677 4.973,10.677 L9.243,10.677 L11.844,12.98 C11.907,13.036 11.986,13.064 12.066,13.064 C12.14,13.064 12.215,13.039 12.277,12.989 L13.246,12.201 C13.388,12.083 13.409,11.874 13.292,11.73 Z" id="Path"></path>
                            <path d="M4.956,4.35 C5.948,4.35 6.753,3.545 6.753,2.552 C6.753,1.558 5.948,0.753 4.956,0.753 C3.962,0.753 3.157,1.558 3.156,2.552 C3.157,3.545 3.962,4.35 4.956,4.35 Z M4.956,1.421 C5.579,1.423 6.083,1.927 6.085,2.552 C6.083,3.176 5.579,3.681 4.956,3.682 C4.331,3.681 3.826,3.176 3.825,2.552 C3.826,1.928 4.331,1.423 4.956,1.421 Z" id="Shape"></path>
                            <path d="M8.303,12.535 L8.303,12.535 C7.695,13.748 6.445,14.579 4.996,14.578 C2.956,14.575 1.304,12.924 1.3,10.884 C1.3,9.398 2.179,8.117 3.443,7.53 C3.611,7.452 3.683,7.254 3.605,7.086 C3.529,6.919 3.33,6.846 3.162,6.924 C1.67,7.616 0.633,9.129 0.633,10.884 C0.633,13.294 2.587,15.247 4.997,15.247 C6.705,15.247 8.185,14.266 8.9,12.835 C8.983,12.67 8.916,12.469 8.752,12.387 C8.586,12.303 8.385,12.37 8.303,12.535 Z" id="Path"></path>
                        </g>
                    </g>
                </g>
            </g>
        </g>
    </g>
</svg>