<?xml version="1.0" encoding="UTF-8"?>
<svg width="17px" height="15px" viewBox="0 0 17 15" version="1.1" xmlns="http://www.w3.org/2000/svg" xmlns:xlink="http://www.w3.org/1999/xlink">
    <!-- Generator: Sketch 57.1 (83088) - https://sketch.com -->
    <title>Shape</title>
    <desc>Created with Sketch.</desc>
    <g id="2.1.1---Trail-Detail" stroke="none" stroke-width="1" fill="none" fill-rule="evenodd">
        <g id="Trail-Detail" transform="translate(-960.000000, -882.000000)" fill="#000000" fill-rule="nonzero">
            <g id="trail-info" transform="translate(112.000000, 634.000000)">
                <g id="quick-info" transform="translate(823.000000, 72.000000)">
                    <g id="noun_hills_1102816" transform="translate(17.000000, 170.000000)">
                        <g transform="translate(8.000000, 6.000000)" id="Shape">
                            <path d="M9.46811842,6.04854628 C10.8919358,6.17545852 12.0455593,6.57833101 13.010601,7.26247631 C13.7211263,7.76599314 14.2209373,8.3559874 14.7308925,8.94480106 C15.0854636,9.35416674 15.4552501,9.90756314 15.9827263,10.2304512 C16.0984575,10.3015811 16.2307877,10.3685791 16.3843276,10.4016353 C16.5351009,10.4343964 16.7596475,10.4273128 16.905349,10.5450755 C17.1142181,10.7138985 16.9597561,10.9538509 16.6148681,10.9925149 C16.1533262,11.0441653 15.6023352,10.8186748 15.297561,10.6185667 C14.6986171,10.2260242 14.0835353,9.39105966 13.6501196,8.88577212 C12.804498,7.89998885 11.7463179,7.00835684 9.97530746,6.69402774 C9.28230314,6.57124753 8.78848594,6.57862615 8.08487703,6.5836436 C7.82067764,6.5857097 7.55970596,6.62112699 7.30103994,6.65447835 C5.20035679,6.92512602 3.99094214,8.06910675 3.07108635,9.21043142 C2.70683266,9.66229769 2.19411099,10.3269638 1.62190997,10.6687411 C1.31759677,10.8502551 0.865276721,11.0193731 0.43093876,10.9960569 C0.079595327,10.9774627 -0.108525506,10.7507914 0.0662240008,10.5713436 C0.206392502,10.4270177 0.45168742,10.4367576 0.615370983,10.4019304 C0.782743269,10.3659228 0.93582202,10.2894803 1.05662515,10.2089059 C1.59608947,9.84941971 1.91607943,9.34531248 2.29462659,8.91528661 C3.31545906,7.75684367 4.21594947,6.74095574 6.28666243,6.24186607 C6.71223966,6.13945084 7.30887841,6.05562976 7.76212022,6.0278862 C7.76212022,6.0278862 8.26930926,6.00575038 8.26930926,6.00575038 C8.53212502,5.98538536 9.18962572,6.02375418 9.46811842,6.04854628 Z M9.46811842,3.04854628 C10.8919358,3.17545852 12.0455593,3.57833101 13.010601,4.26247631 C13.7211263,4.76599314 14.2209373,5.3559874 14.7308925,5.94480106 C15.0854636,6.35416674 15.4552501,6.90756314 15.9827263,7.23045119 C16.0984575,7.30158108 16.2307877,7.36857914 16.3843276,7.40163533 C16.5351009,7.43439641 16.7596475,7.42731279 16.905349,7.54507555 C17.1142181,7.71389848 16.9597561,7.95385095 16.6148681,7.99251487 C16.1533262,8.04416525 15.6023352,7.81867478 15.297561,7.61856665 C14.6986171,7.22602424 14.0835353,6.39105966 13.6501196,5.88577212 C12.804498,4.89998885 11.7463179,4.00835684 9.97530746,3.69402774 C9.28230314,3.57124753 8.78848594,3.57862615 8.08487703,3.5836436 C7.82067764,3.5857097 7.55970596,3.62112699 7.30103994,3.65447835 C5.20035679,3.92512602 3.99094214,5.06910675 3.07108635,6.21043142 C2.70683266,6.66229769 2.19411099,7.3269638 1.62190997,7.66874114 C1.31759677,7.85025507 0.865276721,8.01937311 0.43093876,7.99605686 C0.079595327,7.97746267 -0.108525506,7.7507914 0.0662240008,7.57134358 C0.206392502,7.42701768 0.45168742,7.43675762 0.615370983,7.40193043 C0.782743269,7.36592283 0.93582202,7.2894803 1.05662515,7.20890593 C1.59608947,6.84941971 1.91607943,6.34531248 2.29462659,5.91528661 C3.31545906,4.75684367 4.21594947,3.74095574 6.28666243,3.24186607 C6.71223966,3.13945084 7.30887841,3.05562976 7.76212022,3.0278862 C7.76212022,3.0278862 8.26930926,3.00575038 8.26930926,3.00575038 C8.53212502,2.98538536 9.18962572,3.02375418 9.46811842,3.04854628 Z M9.46811842,0.0485462832 C10.8919358,0.175458516 12.0455593,0.578331005 13.010601,1.26247631 C13.7211263,1.76599314 14.2209373,2.3559874 14.7308925,2.94480106 C15.0854636,3.35416674 15.4552501,3.90756314 15.9827263,4.23045119 C16.0984575,4.30158108 16.2307877,4.36857914 16.3843276,4.40163533 C16.5351009,4.43439641 16.7596475,4.42731279 16.905349,4.54507555 C17.1142181,4.71389848 16.9597561,4.95385095 16.6148681,4.99251487 C16.1533262,5.04416525 15.6023352,4.81867478 15.297561,4.61856665 C14.6986171,4.22602424 14.0835353,3.39105966 13.6501196,2.88577212 C12.804498,1.89998885 11.7463179,1.00835684 9.97530746,0.694027736 C9.28230314,0.571247526 8.78848594,0.578626147 8.08487703,0.583643597 C7.82067764,0.585709699 7.55970596,0.621126986 7.30103994,0.654478352 C5.20035679,0.925126018 3.99094214,2.06910675 3.07108635,3.21043142 C2.70683266,3.66229769 2.19411099,4.3269638 1.62190997,4.66874114 C1.31759677,4.85025507 0.865276721,5.01937311 0.43093876,4.99605686 C0.079595327,4.97746267 -0.108525506,4.7507914 0.0662240008,4.57134358 C0.206392502,4.42701768 0.45168742,4.43675762 0.615370983,4.40193043 C0.782743269,4.36592283 0.93582202,4.2894803 1.05662515,4.20890593 C1.59608947,3.84941971 1.91607943,3.34531248 2.29462659,2.91528661 C3.31545906,1.75684367 4.21594947,0.74095574 6.28666243,0.24186607 C6.71223966,0.139450836 7.30887841,0.0556297624 7.76212022,0.0278862022 C7.76212022,0.0278862022 8.26930926,0.00575037507 8.26930926,0.00575037507 C8.53212502,-0.0146146367 9.18962572,0.0237541787 9.46811842,0.0485462832 Z M9.46811842,10.0485464 C10.8919358,10.1754585 12.0455593,10.5783311 13.010601,11.2624763 C13.7211263,11.7659933 14.2209373,12.3559875 14.7308925,12.9448012 C15.0854636,13.3541668 15.4552501,13.9075632 15.9827263,14.2304512 C16.0984575,14.3015811 16.2307877,14.3685792 16.3843276,14.4016354 C16.5351009,14.4343964 16.7596475,14.4273128 16.905349,14.5450756 C17.1142181,14.7138981 16.9597561,14.9538509 16.6148681,14.9925149 C16.1533262,15.0441652 15.6023352,14.8186748 15.297561,14.6185667 C14.6986171,14.2260243 14.0835353,13.3910598 13.6501196,12.8857721 C12.804498,11.899989 11.7463179,11.008357 9.97530746,10.6940277 C9.28230314,10.5712474 8.78848594,10.5786262 8.08487703,10.5836437 C7.82067764,10.585708 7.55970596,10.6211272 7.30103994,10.6544785 C5.20035679,10.9251259 3.99094214,12.0691067 3.07108635,13.2104312 C2.70683266,13.6622978 2.19411099,14.3269635 1.62190997,14.6687412 C1.31759677,14.8502551 0.865276721,15.0193731 0.43093876,14.9960565 C0.079595327,14.9774627 -0.108525506,14.7507914 0.0662240008,14.5713432 C0.206392502,14.4270177 0.45168742,14.4367573 0.615370983,14.4019305 C0.782743269,14.3659229 0.93582202,14.2894803 1.05662515,14.2089056 C1.59608947,13.8494194 1.91607943,13.3453126 2.29462659,12.9152867 C3.31545906,11.7568439 4.21594947,10.7409557 6.28666243,10.241866 C6.71223966,10.1394509 7.30887841,10.0556297 7.76212022,10.0278861 C7.76212022,10.0278861 8.26930926,10.0057503 8.26930926,10.0057503 C8.53212502,9.98538546 9.18962572,10.0237543 9.46811842,10.0485464 Z"></path>
                        </g>
                    </g>
                </g>
            </g>
        </g>
    </g>
</svg>