<?xml version="1.0" encoding="UTF-8"?>
<svg width="86px" height="83px" viewBox="0 0 86 83" version="1.1" xmlns="http://www.w3.org/2000/svg" xmlns:xlink="http://www.w3.org/1999/xlink">
    <!-- Generator: Sketch 57.1 (83088) - https://sketch.com -->
    <title>noun_Money_1886177</title>
    <desc>Created with Sketch.</desc>
    <g id="0.2---Membership" stroke="none" stroke-width="1" fill="none" fill-rule="evenodd">
        <g id="Membership" transform="translate(-823.000000, -853.000000)" fill="#FFFFFF" fill-rule="nonzero">
            <g id="discounts" transform="translate(736.000000, 832.000000)">
                <g id="noun_Money_1886177" transform="translate(87.000000, 21.000000)">
                    <path d="M47.33,47.49 C34.3126484,47.49 23.76,36.9373516 23.76,23.92 C23.76,10.9026484 34.3126484,0.35 47.33,0.35 C60.3473516,0.35 70.9,10.9026484 70.9,23.92 C70.8889722,36.932781 60.342781,47.4789722 47.33,47.49 Z M47.33,3.76 C39.1710867,3.76 31.815741,8.67534644 28.694395,16.2135866 C25.5730491,23.7518269 27.3005423,32.4280875 33.0711956,38.1958797 C38.8418488,43.963672 47.5189651,45.6868623 55.0556564,42.5617785 C62.5923478,39.4366947 67.5040451,32.0789123 67.5000025,23.92 C67.4834659,12.7888918 58.461115,3.77101409 47.33,3.76 L47.33,3.76 Z" id="Shape"></path>
                    <path d="M84.51,53.69 C82.5334153,51.315678 79.1555577,50.666895 76.44,52.14 L74.58,49.88 C72.8961431,47.9065169 70.0137079,47.4794894 67.83,48.88 L66,50.09 L64.9,48.78 C63.2195674,46.8080067 60.3406007,46.3808603 58.16,47.78 L45.74,55.87 L31.94,50.19 C27.5889907,48.4148284 22.6186617,49.1259678 18.94,52.05 L1.34,66.05 C0.823174795,66.4140282 0.551024239,67.0347703 0.633460019,67.6615311 C0.715895799,68.288292 1.13930203,68.8175498 1.73268037,69.0355566 C2.32605871,69.2535634 2.9914011,69.1243111 3.46,68.7 L21.06,54.7 C23.7861711,52.526745 27.4762893,52.0023195 30.7,53.33 L55.1,63.33 C56.6428743,64.0228454 57.3632485,65.8104462 56.7318742,67.3794785 C56.1004998,68.9485108 54.3427423,69.7389182 52.75,69.17 L36.24,62.73 C35.6672121,62.4670346 34.9959459,62.5425477 34.4958982,62.9262 C33.9958506,63.3098524 33.7490986,63.938672 33.8547807,64.5600157 C33.9604627,65.1813595 34.4012324,65.6932411 35,65.89 L51.46,72.38 C52.2222947,72.6754187 53.0324664,72.8279614 53.85,72.83 C57.351235,72.8237636 60.2344114,70.0768348 60.41,66.58 L60.6,66.48 L77.8,55.25 C79.2223558,54.3659725 81.0889429,54.7625448 82.0290234,56.1484919 C82.9691038,57.5344391 82.6473308,59.4153641 81.3,60.41 L58,76.93 C55.0058135,79.0621555 51.2032173,79.7137136 47.67,78.7 L28,73.16 C24.3806755,72.1392618 20.490965,72.949307 17.58,75.33 L12.28,79.68 C11.7360849,80.1382711 11.5349448,80.8866999 11.7758541,81.5558925 C12.0167635,82.2250851 12.6487935,82.6735726 13.36,82.6800828 C13.750391,82.68391 14.1295218,82.5492654 14.43,82.3 L19.78,78 C21.8291466,76.3201587 24.5703559,75.7487622 27.12,76.47 L46.74,82 C51.2546826,83.2739696 56.103652,82.4277913 59.92,79.7 L83.27,63.18 C84.7546614,62.1310488 85.7331159,60.5091143 85.968639,58.706603 C86.2041621,56.9040917 85.6752985,55.0852052 84.51,53.69 L84.51,53.69 Z M59.94,50.62 C60.6895439,50.1443012 61.6750143,50.2936148 62.25,50.97 L63.09,51.97 L52.78,58.76 L49.55,57.43 L59.94,50.62 Z M59.56,63.09 C58.8812603,61.8725574 57.8296863,60.9051094 56.56,60.33 L69.65,51.72 C70.3981159,51.2464228 71.3800628,51.3909518 71.96,52.06 L73.54,54 L59.56,63.09 Z" id="Shape"></path>
                    <path d="M47.54,16.62 C49.1972236,16.6744158 50.8435943,16.9091326 52.45,17.32 C53.355747,17.5685281 54.2914719,17.035747 54.54,16.13 C54.7885281,15.224253 54.255747,14.2885281 53.35,14.04 C52.0000328,13.694923 50.6262297,13.4509142 49.24,13.31 L49.24,11 C49.24,10.0611159 48.4788841,9.3 47.54,9.3 C46.6011159,9.3 45.84,10.0611159 45.84,11 L45.84,13.33 C41.28,13.95 40.73,17.06 40.73,18.48 C40.73,22.01 44.37,23.48 46.55,24.4 L46.97,24.57 L47.61,24.83 C49.81,25.7 50.77,26.25 50.77,27.83 C50.77,29.41 49.71,30.18 47.64,30.27 L47.54,30.27 L47.28,30.27 C45.3303237,30.0907386 43.4170194,29.629255 41.6,28.9 C41.0269193,28.6497533 40.3627183,28.7343349 39.8706451,29.120222 C39.3785719,29.5061091 39.1380801,30.1309936 39.2444857,30.7472101 C39.3508913,31.3634265 39.7870133,31.8714763 40.38,32.07 C42.145136,32.7425582 43.9747612,33.2317987 45.84,33.53 L45.84,35.82 C45.84,36.7588841 46.6011159,37.52 47.54,37.52 C48.4788841,37.52 49.24,36.7588841 49.24,35.82 L49.24,33.45 C52.33,32.85 54.17,30.8 54.17,27.78 C54.17,23.78 50.85,22.46 48.87,21.67 L47.87,21.25 C46.31,20.61 44.16,19.73 44.16,18.48 C44.13,17.88 44.13,16.62 47.54,16.62 Z" id="Path"></path>
                </g>
            </g>
        </g>
    </g>
</svg>