<?xml version="1.0" encoding="UTF-8"?>
<svg width="32px" height="32px" viewBox="0 0 32 32" version="1.1" xmlns="http://www.w3.org/2000/svg" xmlns:xlink="http://www.w3.org/1999/xlink">
    <!-- Generator: Sketch 57.1 (83088) - https://sketch.com -->
    <title>question icon</title>
    <desc>Created with Sketch.</desc>
    <g id="1.0---Visit" stroke="none" stroke-width="1" fill="none" fill-rule="evenodd">
        <g id="Visit" transform="translate(-582.000000, -623.000000)">
            <g id="helper-links" transform="translate(263.000000, 613.000000)">
                <g id="faqs" transform="translate(320.000000, 5.000000)">
                    <g id="question-icon" transform="translate(0.000000, 6.000000)">
                        <g id="question-square-light" transform="translate(9.000000, 7.000000)" fill="#322E2D" fill-rule="nonzero">
                            <path d="M5.90484536,13.6 C4.93424016,13.6 4.14741225,14.3611143 4.14741225,15.3 C4.14741225,16.2388857 4.93424016,17 5.90484536,17 C6.87545057,17 7.66227848,16.2388857 7.66227848,15.3 C7.66227848,14.3611143 6.87545057,13.6 5.90484536,13.6 Z M6.38625651,12.1428571 L5.38200901,12.1428571 C4.96606225,12.1428571 4.62882339,11.8166393 4.62882339,11.4142857 L4.62882339,11.3911536 C4.62882339,7.12032857 9.48938126,7.52857143 9.48938126,4.86995357 C9.48938126,3.65469643 8.37460378,2.42857143 5.88413276,2.42857143 C4.05489595,2.42857143 3.1058193,3.01440357 2.16772661,4.17058571 C1.92243916,4.47294286 1.47391712,4.53456786 1.14791328,4.31484286 L0.323551616,3.75930714 C-0.0295041437,3.52136786 -0.107019497,3.04463929 0.157536952,2.71641786 C1.48979678,1.06335 3.07048234,0 5.88413276,0 C9.16802207,0 12,1.80631071 12,4.86995357 C12,8.96294643 7.13944213,8.7465 7.13944213,11.3911536 L7.13944213,11.4142857 C7.13944213,11.8166393 6.80220326,12.1428571 6.38625651,12.1428571 L6.38625651,12.1428571 Z" id="Shape"></path>
                        </g>
                        <circle id="Oval" stroke="#322E2D" cx="15" cy="15" r="15"></circle>
                    </g>
                </g>
            </g>
        </g>
    </g>
</svg>