<?xml version="1.0" encoding="UTF-8"?>
<svg width="73px" height="76px" viewBox="0 0 73 76" version="1.1" xmlns="http://www.w3.org/2000/svg" xmlns:xlink="http://www.w3.org/1999/xlink">
    <!-- Generator: Sketch 57.1 (83088) - https://sketch.com -->
    <title>Shape</title>
    <desc>Created with Sketch.</desc>
    <g id="3.1---Conservation-Detail" stroke="none" stroke-width="1" fill="none" fill-rule="evenodd">
        <g id="Conservation-Detail" transform="translate(-231.000000, -1334.000000)" fill="#FFFFFF" fill-rule="nonzero">
            <g id="fire" transform="translate(203.000000, 1304.000000)">
                <g id="noun_Fire_2729324" transform="translate(28.000000, 30.000000)">
                    <path d="M62.4285714,29.359106 C52.5714286,17.6143881 52.5714286,1.89843472 52.5714286,1.72944597 C52.5714286,1.05349099 52.2285714,0.546524746 51.6285714,0.208547253 C51.0285714,-0.129430239 50.3428571,-0.0449358661 49.8285714,0.377536 C32.5142857,12.6292201 27.2,28.5141623 25.6571429,35.020229 C22.3142857,31.386971 21.6285714,24.9653986 21.6285714,24.8809042 C21.5428571,24.2894436 21.2,23.697983 20.6,23.4444999 C20,23.1910168 19.3142857,23.2755111 18.8857143,23.697983 C11.9428571,29.359106 8,37.6395546 8,46.5114638 C8,58.5941591 15.3714286,69.3249445 26.6857143,73.8876407 C28.0571429,74.4791013 29.5142857,74.9015731 31.0571429,75.2395506 L31.0571429,75.2395506 C31.0571429,75.2395506 31.1428571,75.2395506 31.2285714,75.2395506 C33.4571429,75.7465169 35.7714286,76 38.0857143,76 C40.4,76 42.6285714,75.7465169 44.9428571,75.2395506 C44.9428571,75.2395506 44.9428571,75.2395506 44.9428571,75.2395506 C46.4857143,74.9015731 47.9428571,74.3946069 49.4,73.8031463 C49.4,73.8031463 49.4,73.8031463 49.4,73.8031463 C60.6285714,69.3249445 68,58.5941591 68,46.5114638 C68,39.8364083 66.2857143,34.4287684 62.6,29.6125891 C62.6,29.5280947 62.5142857,29.4436004 62.4285714,29.359106 Z M42.2997884,71.1011463 L40.3103127,71.6864464 C38.4938349,72.1045179 36.5908582,72.1045179 34.6878815,71.6864464 L32.7849048,71.1011463 C28.027463,69.2616318 25,64.8300742 25,59.8968307 C25,57.2211733 25.8649894,54.7127444 27.5084693,52.6223871 C28.1139619,54.294673 29.1519492,56.1341875 31.0549259,57.137559 C31.5739196,57.3884019 32.1794122,57.3884019 32.6984058,57.137559 C33.2173995,56.8867161 33.5633952,56.3850303 33.6498942,55.8833446 C33.6498942,55.7997303 34.7743804,47.6891436 42.5592852,41 C43.0782789,44.0937289 44.289264,48.8597438 47.7492217,52.9568442 C47.7492217,52.9568442 47.7492217,52.9568442 47.7492217,53.0404585 C49.3062027,55.0472016 49.9981942,57.137559 49.9981942,59.980445 C50.0846932,64.8300742 47.0572302,69.1780175 42.2997884,71.1011463 Z M50.0032206,70 C52.0515298,67.2810458 53.2463768,63.9673203 53.2463768,60.3986928 C53.2463768,56.8300654 52.3075684,53.9411765 50.4299517,51.3921569 C50.4299517,51.3071895 50.3446055,51.3071895 50.3446055,51.2222222 C45.5652174,45.6143791 45.5652174,37.9673203 45.5652174,37.8823529 C45.5652174,37.2026144 45.2238325,36.6928105 44.626409,36.3529412 C44.0289855,36.0980392 43.3462158,36.0980392 42.8341385,36.5228758 C35.4090177,41.875817 32.2512077,48.5882353 31.0563607,52.496732 C30.5442834,51.3071895 30.2882448,50.0326797 30.2028986,49.4379085 C30.1175523,48.8431373 29.7761675,48.248366 29.178744,47.9934641 C28.5813205,47.7385621 27.8985507,47.8235294 27.4718196,48.248366 C23.8019324,51.3071895 21.668277,55.7254902 21.668277,60.3986928 C21.668277,63.9673203 22.863124,67.2810458 24.9114332,70 C16.3768116,65.4117647 11,56.6601307 11,46.8039216 C11,39.9215686 13.6457327,33.4640523 18.4251208,28.5359477 C19.1932367,32.0196078 21.1561997,37.2875817 25.5942029,39.751634 C26.1062802,40.0065359 26.7037037,40.0915033 27.215781,39.751634 C27.7278583,39.496732 28.0692432,38.9869281 28.1545894,38.4771242 C28.1545894,38.3071895 30.7149758,19.4444444 48.8083736,5 C49.3204509,10.5228758 51.2834138,22.0784314 59.1352657,31.5098039 C59.1352657,31.5098039 59.2206119,31.5947712 59.2206119,31.5947712 C62.5491143,35.9281046 64,40.6013072 64,46.7189542 C63.9146538,56.6601307 58.5378422,65.4117647 50.0032206,70 Z M25.45,2.55 C25.15,2.25 25,1.875 25,1.5 C25,1.425 25,1.275 25,1.2 C25,1.125 25.075,0.975 25.075,0.9 C25.075,0.825 25.15,0.75 25.225,0.675 C25.3,0.6 25.3,0.525 25.375,0.45 C25.9,-0.15 26.95,-0.15 27.475,0.45 C27.85,0.75 28,1.125 28,1.5 C28,1.575 28,1.725 28,1.8 C28,1.875 27.925,1.95 27.925,2.1 C27.925,2.175 27.85,2.25 27.775,2.4 C27.7,2.475 27.7,2.55 27.625,2.625 C27.25,2.85 26.875,3 26.5,3 C26.125,3 25.75,2.85 25.45,2.55 Z M25.45,11.55 C25.15,11.25 25,10.875 25,10.5 C25,10.125 25.15,9.75 25.45,9.45 C25.975,8.85 27.025,8.85 27.55,9.45 C27.85,9.75 28,10.125 28,10.5 C28,10.875 27.85,11.25 27.55,11.55 C27.25,11.85 26.875,12 26.5,12 C26.125,12 25.75,11.85 25.45,11.55 Z M29.45,6.61306705 C29.15,6.3035207 29,5.91658775 29,5.52965481 C29,5.14272186 29.15,4.75578891 29.45,4.44624256 C29.825,4.05930961 30.275,3.90453643 30.8,4.05930961 C30.875,4.05930961 30.95,4.1366962 31.1,4.1366962 C31.175,4.1366962 31.25,4.21408279 31.325,4.29146938 C31.4,4.36885597 31.475,4.36885597 31.55,4.44624256 C31.85,4.75578891 32,5.14272186 32,5.52965481 C32,5.91658775 31.85,6.3035207 31.55,6.61306705 C31.475,6.69045364 31.4,6.76784023 31.325,6.76784023 C31.25,6.84522682 31.175,6.84522682 31.1,6.92261341 C31.025,7 30.95,7 30.8,7 C30.725,7 30.575,7 30.5,7 C30.425,7 30.275,7 30.2,7 C30.125,7 30.05,6.92261341 29.9,6.92261341 C29.825,6.92261341 29.75,6.84522682 29.675,6.76784023 C29.6,6.76784023 29.525,6.69045364 29.45,6.61306705 Z M21.4736842,6.55279503 C21.1578947,6.25465839 21,5.88198758 21,5.50931677 C21,5.43478261 21,5.28571429 21,5.21118012 C21,5.13664596 21.0789474,5.0621118 21.0789474,4.91304348 C21.0789474,4.83850932 21.1578947,4.76397516 21.2368421,4.61490683 C21.3157895,4.54037267 21.3157895,4.46583851 21.3947368,4.39130435 C21.9473684,3.86956522 23.0526316,3.86956522 23.6052632,4.39130435 C23.6842105,4.46583851 23.7631579,4.54037267 23.7631579,4.61490683 C23.8421053,4.68944099 23.8421053,4.76397516 23.9210526,4.91304348 C24,4.98757764 24,5.0621118 24,5.21118012 C24,5.28571429 24,5.43478261 24,5.50931677 C24,5.88198758 23.8421053,6.25465839 23.5263158,6.55279503 C23.3684211,6.85093168 22.9736842,7 22.5789474,7 C22.1842105,7 21.7894737,6.85093168 21.4736842,6.55279503 Z M6.53846154,15.4969325 C6.84615385,15.791411 7,16.1595092 7,16.5276074 C7,16.601227 7,16.7484663 7,16.8220859 C7,16.8957055 6.92307692,16.9693252 6.92307692,17.1165644 C6.92307692,17.190184 6.84615385,17.2638037 6.76923077,17.3374233 C6.69230769,17.4110429 6.69230769,17.4846626 6.61538462,17.5582822 C6.23076923,17.8527607 5.84615385,18 5.46153846,18 C5.07692308,18 4.69230769,17.8527607 4.38461538,17.5582822 C4.30769231,17.4846626 4.23076923,17.4110429 4.23076923,17.3374233 C4.23076923,17.2638037 4.15384615,17.190184 4.07692308,17.1165644 C4,17.0429448 4,16.9693252 4,16.8220859 C4,16.7484663 4,16.601227 4,16.5276074 C4,16.4539877 4,16.3067485 4,16.2331288 C4,16.1595092 4.07692308,16.0858896 4.07692308,15.9386503 C4.07692308,15.8650307 4.15384615,15.791411 4.23076923,15.6441718 C4.30769231,15.5705521 4.30769231,15.4969325 4.38461538,15.4233129 C4.46153846,15.3496933 4.53846154,15.2760736 4.61538462,15.2760736 C4.69230769,15.202454 4.76923077,15.202454 4.92307692,15.1288344 C5,15.0552147 5.07692308,15.0552147 5.23076923,15.0552147 C5.46153846,14.9815951 5.61538462,14.9815951 5.84615385,15.0552147 C5.92307692,15.0552147 6,15.1288344 6.15384615,15.1288344 C6.23076923,15.1288344 6.30769231,15.202454 6.38461538,15.2760736 C6.46153846,15.3496933 6.46153846,15.4233129 6.53846154,15.4969325 Z M6.55,24.45 C6.85,24.75 7,25.125 7,25.5 C7,25.875 6.85,26.25 6.55,26.55 C6.25,26.85 5.875,27 5.5,27 C5.125,27 4.75,26.85 4.45,26.55 C4.15,26.25 4,25.875 4,25.5 C4,25.125 4.15,24.75 4.45,24.45 C4.975,23.85 6.025,23.85 6.55,24.45 Z M8.45,22.55 C8.15,22.25 8,21.875 8,21.5 C8,21.125 8.15,20.75 8.45,20.45 C8.975,19.85 10.025,19.85 10.55,20.45 C10.85,20.75 11,21.125 11,21.5 C11,21.875 10.85,22.25 10.55,22.55 C10.25,22.85 9.875,23 9.5,23 C9.125,23 8.75,22.85 8.45,22.55 Z M2.55,20.45 C2.85,20.75 3,21.125 3,21.5 C3,21.875 2.85,22.25 2.55,22.55 C2.25,22.85 1.875,23 1.5,23 C1.125,23 0.75,22.85 0.45,22.55 C0.15,22.25 0,21.875 0,21.5 C0,21.125 0.15,20.75 0.45,20.45 C0.975,19.85 2.025,19.85 2.55,20.45 Z M69,11.165831 C69,11.2422547 69,11.3951021 69,11.4715258 C69,11.8536444 68.85,12.2357629 68.55,12.5414577 C68.25,12.8471526 67.875,13 67.5,13 C67.125,13 66.75,12.8471526 66.45,12.5414577 C66.15,12.2357629 66,11.8536444 66,11.4715258 C66,11.3951021 66,11.2422547 66,11.165831 C66,11.0894073 66.075,11.0129836 66.075,10.8601362 C66.15,10.7837124 66.15,10.7072887 66.225,10.630865 C66.3,10.5544413 66.375,10.4780176 66.375,10.4015939 C66.45,10.3251702 66.525,10.2487465 66.6,10.2487465 C66.675,10.1723228 66.75,10.1723228 66.825,10.0958991 C66.9,10.0194754 66.975,10.0194754 67.125,10.0194754 C67.65,9.94305165 68.1,10.0958991 68.475,10.4015939 C68.55,10.4780176 68.625,10.5544413 68.625,10.630865 C68.7,10.7072887 68.7,10.7837124 68.775,10.8601362 C68.925,11.0129836 68.925,11.0894073 69,11.165831 Z M69,20.165831 C69,20.2422547 69,20.3951021 69,20.4715258 C69,20.5479495 69,20.700797 69,20.7772207 C69,20.8536444 68.925,20.9300681 68.925,21.0829155 C68.925,21.1593392 68.85,21.2357629 68.775,21.3121866 C68.7,21.3886103 68.625,21.465034 68.625,21.5414577 C68.25,21.8471526 67.875,22 67.5,22 C67.125,22 66.75,21.8471526 66.45,21.5414577 C66.15,21.2357629 66,20.8536444 66,20.4715258 C66,20.3951021 66,20.2422547 66,20.165831 C66,20.0894073 66.075,20.0129836 66.075,19.8601362 C66.15,19.7837124 66.15,19.7072887 66.225,19.630865 C66.3,19.5544413 66.375,19.4780176 66.375,19.4015939 C66.45,19.3251702 66.525,19.2487465 66.6,19.2487465 C66.675,19.1723228 66.75,19.1723228 66.825,19.0958991 C66.9,19.0194754 66.975,19.0194754 67.125,19.0194754 C67.65,18.9430517 68.1,19.0958991 68.475,19.4015939 C68.55,19.4780176 68.625,19.5544413 68.625,19.630865 C68.7,19.7072887 68.7,19.7837124 68.775,19.8601362 C68.925,20.0129836 68.925,20.0894073 69,20.165831 Z M73,15.5666294 C73,15.6420699 73,15.792951 73,15.8683916 C73,15.9438322 72.9210526,16.0192727 72.9210526,16.1701538 C72.9210526,16.2455944 72.8421053,16.321035 72.7631579,16.3964755 C72.6842105,16.4719161 72.6052632,16.5473566 72.6052632,16.6227972 C72.5263158,16.6982378 72.4473684,16.7736783 72.3684211,16.7736783 C72.2894737,16.8491189 72.2105263,16.8491189 72.1315789,16.9245594 C72.0526316,17 71.9736842,17 71.8157895,17 C71.7368421,17 71.5789474,17 71.5,17 C71.1052632,17 70.7105263,16.8491189 70.3947368,16.5473566 C70.3157895,16.4719161 70.2368421,16.3964755 70.2368421,16.321035 C70.1578947,16.2455944 70.1578947,16.1701538 70.0789474,16.0947133 C70.0789474,16.0192727 70,15.9438322 70,15.792951 C70,15.7175105 70,15.5666294 70,15.4911888 C70,15.113986 70.1578947,14.7367832 70.4736842,14.435021 C70.8684211,14.0578182 71.4210526,13.906937 71.8947368,14.0578182 C71.9736842,14.0578182 72.0526316,14.1332587 72.2105263,14.1332587 C72.2894737,14.1332587 72.3684211,14.2086993 72.4473684,14.2841398 C72.5263158,14.3595804 72.6052632,14.3595804 72.6842105,14.435021 C72.8421053,14.8122238 73,15.1894266 73,15.5666294 Z M62.45,16.55 C62.15,16.25 62,15.875 62,15.5 C62,15.125 62.15,14.75 62.45,14.45 C62.975,13.85 64.025,13.85 64.55,14.45 C64.85,14.75 65,15.125 65,15.5 C65,15.875 64.85,16.25 64.55,16.55 C64.25,16.85 63.875,17 63.5,17 C63.125,17 62.75,16.85 62.45,16.55 Z" id="Shape"></path>
                </g>
            </g>
        </g>
    </g>
</svg>