<?xml version="1.0" encoding="UTF-8"?>
<svg width="72px" height="72px" viewBox="0 0 72 72" version="1.1" xmlns="http://www.w3.org/2000/svg" xmlns:xlink="http://www.w3.org/1999/xlink">
    <!-- Generator: Sketch 57.1 (83088) - https://sketch.com -->
    <title>Group</title>
    <desc>Created with Sketch.</desc>
    <g id="0.2---Membership" stroke="none" stroke-width="1" fill="none" fill-rule="evenodd">
        <g id="Membership" transform="translate(-526.000000, -864.000000)" fill="#FFFFFF">
            <g id="early-entry" transform="translate(440.000000, 832.000000)">
                <g id="Group" transform="translate(86.000000, 32.000000)">
                    <path d="M36,0 C16.0714286,0 0,16.0714286 0,36 C0,55.9285714 16.0714286,72 36,72 C55.9285714,72 72,55.9285714 72,36 C72,16.0714286 55.9285714,0 36,0 Z M36,2.57142857 C54.6428571,2.57142857 69.75,17.6785714 69.75,36 C69.75,54.6428571 54.6428571,69.75 36,69.75 C17.6785714,69.75 2.57142857,54.6428571 2.57142857,36 C2.57142857,17.6785714 17.6785714,2.57142857 36,2.57142857 Z" id="Shape" fill-rule="nonzero"></path>
                    <path d="M37.3932584,31.8538283 L37.3932584,5.21809745 C37.3932584,3.59396752 34.7865169,3.59396752 34.7865169,5.21809745 L34.7865169,31.8538283 C33.8089888,32.1786543 33.1573034,32.8283063 32.8314607,33.8027842 L12.9550562,33.8027842 C10.3483146,33.8027842 10.3483146,37.7006961 12.9550562,37.7006961 L33.4831461,37.7006961 C34.1348315,38.675174 35.1123596,39 36.0898876,39 C38.0449438,39 40,37.3758701 40,35.4269142 C40,33.8027842 39.0224719,32.5034803 37.3932584,31.8538283 Z" id="Path"></path>
                </g>
            </g>
        </g>
    </g>
</svg>