<?xml version="1.0" encoding="UTF-8"?>
<svg width="17px" height="17px" viewBox="0 0 17 17" version="1.1" xmlns="http://www.w3.org/2000/svg" xmlns:xlink="http://www.w3.org/1999/xlink">
    <!-- Generator: Sketch 57.1 (83088) - https://sketch.com -->
    <title>Shape</title>
    <desc>Created with Sketch.</desc>
    <g id="Symbols" stroke="none" stroke-width="1" fill="none" fill-rule="evenodd">
        <g id="Header-Copy" transform="translate(-1295.000000, -80.000000)" fill="#FFFFFF" fill-rule="nonzero">
            <g id="nav-bar">
                <g id="search-regular" transform="translate(1295.000000, 80.000000)">
                    <path d="M16.8829647,15.5681851 L12.8523021,11.5375226 C12.7759387,11.4611591 12.6763342,11.4213173 12.5700894,11.4213173 L12.1318295,11.4213173 C13.1776769,10.2094624 13.8118256,8.632391 13.8118256,6.9059128 C13.8118256,3.09106001 10.7207656,0 6.9059128,0 C3.09106001,0 0,3.09106001 0,6.9059128 C0,10.7207656 3.09106001,13.8118256 6.9059128,13.8118256 C8.632391,13.8118256 10.2094624,13.1776769 11.4213173,12.1318295 L11.4213173,12.5700894 C11.4213173,12.6763342 11.4644793,12.7759387 11.5375226,12.8523021 L15.5681851,16.8829647 C15.7242322,17.0390118 15.9765636,17.0390118 16.1326107,16.8829647 L16.8829647,16.1326107 C17.0390118,15.9765636 17.0390118,15.7242322 16.8829647,15.5681851 Z M7,12 C4.2375,12 2,9.7625 2,7 C2,4.2375 4.2375,2 7,2 C9.7625,2 12,4.2375 12,7 C12,9.7625 9.7625,12 7,12 Z" id="Shape"></path>
                </g>
            </g>
        </g>
    </g>
</svg>