<?xml version="1.0" encoding="UTF-8"?>
<svg width="91px" height="55px" viewBox="0 0 91 55" version="1.1" xmlns="http://www.w3.org/2000/svg" xmlns:xlink="http://www.w3.org/1999/xlink">
    <!-- Generator: Sketch 57.1 (83088) - https://sketch.com -->
    <title>Group</title>
    <desc>Created with Sketch.</desc>
    <g id="3.1---Conservation-Detail" stroke="none" stroke-width="1" fill="none" fill-rule="evenodd">
        <g id="Conservation-Detail" transform="translate(-536.000000, -1345.000000)" fill="#FFFFFF" fill-rule="nonzero">
            <g id="development" transform="translate(440.000000, 1304.000000)">
                <g id="noun_Bulldozer_1261320" transform="translate(96.000000, 41.000000)">
                    <g id="Group">
                        <path d="M88.3716416,43.7755804 C88.3527254,39.5702083 88.3527254,37.5974107 88.3527254,34.3746726 L88.3565087,30.5156696 C88.3565087,29.683631 87.675526,29.0097173 86.8432139,29.0097173 C85.9806358,29.0097173 85.4093671,28.987128 84.928896,28.9645387 C83.956604,28.9268899 83.3096705,28.893006 81.6790954,29.0586607 C77.5364509,29.4765625 74.1315376,32.6465923 73.3900231,36.765372 C73.2008613,37.7969494 73.1516792,39.4045536 73.147896,40.7599107 C72.5766272,40.7599107 71.903211,40.7599107 71.2146618,40.7561458 C71.6459509,39.8864583 71.903211,38.915119 71.8956445,37.8120089 L71.9107775,36.9498512 C71.9372601,36.1931101 71.9561763,35.4401339 71.8351127,34.7059821 C71.6837832,33.7534673 71.2373613,32.7633036 70.4807139,31.7543155 C70.4807139,31.7505506 70.4807139,31.7505506 70.4807139,31.7467857 L70.4882803,24.401503 C70.4882803,22.1613988 69.860263,20.3994345 68.615578,19.1607887 C67.3822428,17.9334375 65.630604,17.3084673 63.4174104,17.3084673 C63.4136272,17.3084673 63.4098439,17.3084673 63.4060607,17.3084673 L45.0384451,17.3084673 L45.0308786,6.42796131 C45.0308786,5.9761756 45.0308786,5.13284226 44.4293439,4.49657738 C43.4797514,3.49888393 42.4998931,2.5350744 41.5124682,1.55997024 L40.6877225,0.746755952 C40.0975376,0.159434524 39.1403786,0.163199405 38.5501936,0.750520833 C37.9600087,1.33784226 37.9637919,2.29035714 38.5539769,2.87767857 L39.3787225,3.69465774 C40.264,4.571875 41.1492775,5.4415625 42.0005058,6.32630952 C42.0005058,6.34889881 42.0005058,6.38278274 42.0005058,6.42796131 L42.0080723,17.3047024 L39.0533642,17.3047024 C38.4896618,15.3319048 37.294159,11.0926488 36.7228902,8.78854167 C35.826263,5.1855506 33.4693064,3.35581845 29.7239017,3.35581845 L13.4105838,3.35958333 C12.5744884,3.35958333 11.897289,4.0372619 11.897289,4.86553571 L11.897289,12.4555357 L7.93245665,12.4555357 C5.36742197,12.5007143 3.55525145,14.3078571 3.51363584,16.8604464 L3.51363584,18.3061607 C3.51363584,18.8859524 3.51741908,19.465744 3.50606936,20.0342411 C2.10248844,20.9265179 1.37610694,22.3270536 1.39123988,24.1191369 C1.41015607,25.3991964 1.40637283,26.679256 1.40637283,27.9555506 C1.4025896,29.1829018 1.4025896,30.410253 1.32692486,31.9387946 C0.751872832,32.4583482 0.123855491,33.3656845 0.0935895954,34.3407887 C0.0368410405,35.9182738 -0.0236907514,37.7065923 0.214653179,39.4610268 C0.437864162,41.0723958 1.45555491,42.36375 3.15044509,43.342619 C3.03316474,43.9412351 2.97263295,44.5549107 2.97263295,45.179881 C2.98019942,50.5335417 7.0585289,54.569494 12.4647746,54.5770238 L51.5834451,54.5807887 L59.4071792,54.5807887 C62.9066734,54.5732589 65.6911358,53.086131 67.465474,50.2662351 C67.7946156,49.7429167 67.9951272,49.2083036 68.2221214,48.6736905 C68.9598526,48.6661607 70.004026,48.6661607 71.0519827,48.6736905 C72.1983035,48.6736905 73.3143584,48.6774554 73.9650751,48.6661607 C75.5729509,52.3745685 79.0648786,54.6711458 83.1696908,54.6899702 L86.3778757,54.6899702 L89.287185,54.6899702 C90.1232803,54.6899702 90.8269624,53.7751042 90.8269624,52.9430655 C90.9896416,51.2262798 91.523078,46.0156845 88.3716416,43.7755804 Z M48.0612514,20.3241369 C48.0688179,20.3241369 48.0801676,20.3241369 48.0877341,20.3241369 L57.1069711,20.320372 L63.4022775,20.3241369 C63.4060607,20.3241369 63.4098439,20.3241369 63.4136272,20.3241369 C64.7945087,20.3241369 65.8273324,20.6479167 66.4742659,21.2917113 C67.1287659,21.9468006 67.4616908,22.9896726 67.4579394,24.3977381 L67.4541243,30.5721429 L52.3930578,30.5721429 L39.4279046,30.5721429 L39.4279046,25.6401488 L39.4279046,24.5069196 C39.4279046,24.4843304 39.4279046,24.4617411 39.4279046,24.4391518 L39.4279046,21.649375 L39.4279046,20.320372 L48.0612514,20.320372 L48.0612514,20.3241369 Z M36.3937486,19.0327827 L36.3937486,21.6531399 L36.3937486,22.5077679 L34.0632746,21.8752679 C32.5915954,21.4724256 31.1312659,21.0695833 29.6179711,20.670506 L29.1942486,20.5575595 C28.7553931,20.4408482 28.3165376,20.3241369 27.8776821,20.196131 C27.4728757,20.0794196 27.4728757,19.9250595 27.4728757,19.7970536 C27.4426098,16.9093899 27.4463931,14.9817708 27.4501763,12.5910714 L27.4501763,11.0135863 L28.2976214,11.0135863 C30.2800376,11.0098214 32.2170549,11.0060565 34.165422,11.024881 C34.9372023,13.931369 36.0948728,18.0087351 36.3937486,19.0327827 Z M14.9238786,6.3714881 L29.7163353,6.37525298 C31.4793237,6.37525298 32.5386301,6.83833333 33.2044798,8.00544643 C31.5776879,8.00168155 29.9546792,8.00168155 28.2900549,8.00168155 L25.9368815,8.00168155 C25.1007861,8.00168155 24.4235867,8.67936012 24.4235867,9.50763393 L24.4198035,12.5835417 C24.4160202,14.9893006 24.412237,16.9282143 24.4425029,19.8234077 C24.4576358,21.3745387 25.4450607,22.6244792 27.0226705,23.0875595 C27.4842254,23.2230952 27.9533468,23.3435714 28.4224682,23.4715774 L28.8386243,23.5807589 C30.3405694,23.9760714 31.7971156,24.3789137 33.2612283,24.7779911 L36.3937486,25.6288542 L36.3937486,25.6439137 L36.3937486,30.5759077 L4.4405289,30.5759077 C4.43674566,29.7024554 4.42917919,28.8327679 4.43296243,27.9593155 C4.43674566,26.6679613 4.43674566,25.3728423 4.42161272,24.0890179 C4.41026301,23.2381548 4.65239017,22.8127232 5.34472254,22.4512946 C5.43552023,22.4023512 5.46956936,22.3006994 5.55280058,22.2366964 L13.4105838,22.2366964 C14.2466792,22.2366964 14.9238786,21.5590179 14.9238786,20.730744 L14.9238786,13.9614881 L14.9238786,13.3704018 L14.9238786,6.3714881 Z M6.54022543,16.8980952 C6.55157514,15.9644048 7.03961272,15.4825 7.97407225,15.4674405 L11.8935058,15.4674405 L11.8935058,19.2172619 L6.52887572,19.2172619 C6.52887572,18.9085417 6.54022543,18.5998214 6.5364422,18.2911012 L6.54022543,16.8980952 Z M3.21476012,39.0468899 C3.01046532,37.5484673 3.06343064,35.9672173 3.10882948,34.5139732 C3.12774566,34.4424405 3.23745954,34.2767857 3.35473988,34.1676042 C3.56660116,33.9793601 3.71793064,33.7835863 3.8579104,33.5878125 L37.9108266,33.5878125 L52.3892746,33.5878125 L68.0253931,33.5878125 C68.104841,33.7007589 68.184289,33.8061756 68.263737,33.9002976 C68.5550462,34.2579613 68.7782572,34.7473958 68.8463555,35.184122 C68.9295867,35.7300298 68.9068873,36.290997 68.8879711,36.8519643 C68.8766214,37.1795089 68.8652717,37.5070536 68.8652717,37.8345982 C68.8728382,39.0205357 68.4680318,39.8450446 67.6130202,40.4737798 C65.8765145,37.4844643 63.0882688,35.880625 59.4979769,35.8768601 L12.4534249,35.8655655 C9.88460694,35.8693304 7.49360116,36.8256101 5.72682948,38.5612202 C5.13286127,39.1410119 4.66373988,39.8111607 4.25515029,40.5114286 C3.45310405,39.9504613 3.2639422,39.423378 3.21476012,39.0468899 Z M59.3996127,51.5613542 L51.5796618,51.565119 L35.9321936,51.5613542 L30.0643931,51.565119 L12.4609913,51.5575893 C8.77990173,51.5575893 5.99920633,48.8129911 5.99920633,45.1761161 C5.99543931,43.4630952 6.65372254,41.8780804 7.84922543,40.7072024 C9.04851156,39.5287946 10.6866532,38.8812351 12.4534249,38.8812351 L24.2268584,38.8774702 L59.4904104,38.8887649 C62.0667948,38.8887649 63.8978815,39.9466964 65.0933844,42.1190327 C66.3115867,44.3214881 66.2472717,46.5201786 64.8928728,48.658631 C63.6708873,50.6088393 61.8700665,51.5613542 59.3996127,51.5613542 Z M71.0519827,45.6580208 C70.3331676,45.6580208 69.6143526,45.6580208 68.9712023,45.6580208 C69.0014682,45.0255208 68.9106705,44.3967857 68.8009566,43.7642857 C70.1704884,43.7605208 71.9713092,43.7642857 73.2386936,43.7718155 C73.276526,44.3403125 73.3294913,44.9841071 73.3975896,45.6580208 C72.7771387,45.6617857 71.9410434,45.6617857 71.0519827,45.6580208 Z M87.8798208,51.6780655 L83.1696908,51.6743006 C80.1922832,51.663006 77.778578,50.0215179 76.6738728,47.3032738 C76.2993324,45.1911756 76.1858353,42.299747 76.1669191,41.8780804 C76.1631358,40.8879167 76.1517861,38.4670982 76.3636474,37.2999851 C76.8706012,34.4989137 79.1783757,32.3416369 81.9779711,32.0592708 C83.396685,31.9162054 83.956604,31.9387946 84.7964827,31.9764435 C84.9591618,31.9839732 85.136974,31.991503 85.3261358,31.9952679 L85.3261358,34.3746726 C85.3261358,37.6049405 85.3261358,39.581503 85.3412688,43.8019345 C85.345052,44.1934821 85.4245,45.1874107 86.079,45.936622 C86.1622312,46.0345089 86.2643786,46.1248661 86.3740925,46.1963988 C87.546896,46.979494 88.0500665,48.8205208 87.8798208,51.6780655 Z" id="Shape"></path>
                        <path d="M9.05607803,41.7538393 C8.12540173,42.6875298 7.61466474,43.9299405 7.62214833,45.2589435 C7.63358092,47.9207143 9.81650867,50.111875 12.4912572,50.1457589 C12.4988237,50.1457589 12.5442225,50.1457589 12.551789,50.1457589 C15.2681532,50.1457589 17.4926965,47.9508333 17.5116956,45.2514137 C17.5191792,43.9337054 17.0084422,42.6950595 16.0739827,41.761369 C14.1974971,39.8864583 10.9136474,39.8902232 9.05607803,41.7538393 Z M12.551789,47.1300893 L12.551789,48.6360417 L12.5290896,47.1300893 C11.5000491,47.1187946 10.6563873,46.2716964 10.652604,45.2438839 C10.6488208,44.7205655 10.8455491,44.2348958 11.2049566,43.880997 C11.5643642,43.5195685 12.0486185,43.3237946 12.566922,43.3237946 C13.0814422,43.3237946 13.5619133,43.5233333 13.925104,43.8847619 C14.2882948,44.2499554 14.4812399,44.7280952 14.4774566,45.2363542 C14.4774566,46.2604018 13.5921792,47.1300893 12.551789,47.1300893 Z" id="Shape"></path>
                        <path d="M55.8887688,41.7538393 C54.9580925,42.6875298 54.4473555,43.9299405 54.4548391,45.2589435 C54.4662717,47.9207143 56.6491994,50.111875 59.323948,50.1457589 C59.3315145,50.1457589 59.3769133,50.1457589 59.3844798,50.1457589 C62.1008439,50.1457589 64.3253873,47.9508333 64.3443863,45.2514137 C64.3518699,43.9337054 63.8411329,42.6950595 62.9066734,41.761369 C61.0301879,39.8864583 57.7501214,39.8902232 55.8887688,41.7538393 Z M59.3844798,47.1300893 L59.3844798,48.6360417 L59.3617803,47.1300893 C58.3327399,47.1187946 57.489078,46.2716964 57.4852948,45.2438839 C57.4815116,44.7205655 57.6782399,44.2348958 58.0376474,43.880997 C58.3970549,43.5195685 58.8813092,43.3237946 59.3996127,43.3237946 C59.9141329,43.3237946 60.394604,43.5233333 60.7577948,43.8847619 C61.1209855,44.2499554 61.3139306,44.7280952 61.3101474,45.2363542 C61.3101474,46.2604018 60.4248699,47.1300893 59.3844798,47.1300893 Z" id="Shape"></path>
                        <path d="M30.798341,42.6235268 C31.4793237,42.6310565 32.0846416,42.0249107 32.0808584,41.3472321 C32.0732919,40.6582589 31.467974,40.0784673 30.7794249,40.0972917 C30.1211416,40.1123512 29.5536561,40.6770833 29.5385231,41.3284077 C29.5233902,42.017381 30.1060087,42.615997 30.798341,42.6235268 Z" id="Path"></path>
                        <path d="M35.9397601,47.8228274 C35.2814769,47.8491815 34.725341,48.4176786 34.7177746,49.0727679 C34.7102081,49.7617411 35.3003931,50.3528274 35.9927254,50.3528274 C36.6774913,50.3490625 37.2752428,49.7391518 37.2601098,49.0614732 C37.2374104,48.3725 36.624526,47.7964732 35.9397601,47.8228274 Z" id="Path"></path>
                        <path d="M25.656922,40.0935268 C24.9759393,40.0747024 24.3630549,40.6733185 24.3592717,41.350997 C24.3554884,42.0324405 24.9608064,42.6272917 25.6455723,42.6235268 C26.3000723,42.6197619 26.8789075,42.0587946 26.9016069,41.4074702 C26.9280896,40.7297917 26.3416879,40.1085863 25.656922,40.0935268 Z" id="Path"></path>
                        <path d="M35.9813757,40.0935268 C35.2890434,40.0897619 34.6988584,40.688378 34.7139913,41.3735863 C34.7291243,42.0286756 35.2890434,42.5971726 35.9435434,42.6235268 C36.6169595,42.649881 37.2449769,42.0512649 37.2563266,41.3773512 C37.2676763,40.7034375 36.6699249,40.0972917 35.9813757,40.0935268 Z" id="Path"></path>
                        <path d="M41.126578,42.6235268 C41.8075607,42.6423512 42.4242283,42.0512649 42.4317948,41.3698214 C42.4393613,40.7222619 41.8870087,40.1349405 41.2325087,40.0972917 C40.5477428,40.055878 39.9235087,40.6206101 39.8894595,41.3058185 C39.8591936,41.983497 40.4380289,42.6009375 41.126578,42.6235268 Z" id="Path"></path>
                        <path d="M46.3323121,42.6235268 C47.017078,42.6235268 47.6148295,42.0211458 47.6034798,41.3397024 C47.5921301,40.654494 46.9792457,40.0747024 46.2944798,40.0972917 C45.6059306,40.119881 45.0270954,40.7410863 45.0649277,41.4187649 C45.0989769,42.0700893 45.6815954,42.6235268 46.3323121,42.6235268 Z" id="Path"></path>
                        <path d="M25.577474,47.8228274 C24.9191908,47.8529464 24.3668382,48.4289732 24.3630549,49.0802976 C24.3630549,49.765506 24.9645896,50.3603571 25.6455723,50.3490625 C26.3303382,50.3377679 26.9205231,49.7278571 26.9016069,49.0501786 C26.8826908,48.3687351 26.2584566,47.7889435 25.577474,47.8228274 Z" id="Path"></path>
                        <path d="M30.798341,47.8190625 C30.1135751,47.8228274 29.5158237,48.436503 29.5385231,49.1141815 C29.5574393,49.795625 30.1816734,50.3754167 30.8626561,50.3490625 C31.5171561,50.3227083 32.0770751,49.7466815 32.0808584,49.0953571 C32.0808584,48.4139137 31.4793237,47.8152976 30.798341,47.8190625 Z" id="Path"></path>
                        <path d="M41.1038786,47.8190625 C40.4418121,47.8454167 39.8894595,48.4176786 39.8894595,49.0727679 C39.8894595,49.7579762 40.4909942,50.3565923 41.1719769,50.3490625 C41.8491763,50.3415327 42.4544942,49.7203274 42.4317948,49.0464137 C42.4090954,48.3725 41.7848613,47.7927083 41.1038786,47.8190625 Z" id="Path"></path>
                        <path d="M46.3436618,47.8228274 C45.6551127,47.8190625 45.0611445,48.4139137 45.068711,49.099122 C45.0762775,49.7504464 45.6324133,50.3227083 46.2906965,50.3490625 C46.967896,50.3791815 47.5921301,49.7918601 47.6110462,49.1104167 C47.622396,48.4289732 47.0284277,47.8228274 46.3436618,47.8228274 Z" id="Path"></path>
                        <path d="M53.9101358,29.5782143 C54.7462312,29.5782143 55.4234306,28.9005357 55.4234306,28.0722619 L55.4234306,23.8141815 C55.4234306,22.9821429 54.742448,22.3082292 53.9101358,22.3082292 C53.0778237,22.3082292 52.396841,22.9859077 52.396841,23.8141815 L52.396841,28.0722619 C52.396841,28.9043006 53.0740405,29.5782143 53.9101358,29.5782143 Z" id="Path"></path>
                        <path d="M57.7236387,29.5782143 C58.5597341,29.5782143 59.2369335,28.9005357 59.2369335,28.0722619 L59.2369335,23.8179464 C59.2369335,22.9859077 58.5559509,22.311994 57.7236387,22.311994 C56.8913266,22.311994 56.2103439,22.9896726 56.2103439,23.8179464 L56.2103439,28.0722619 C56.2065607,28.9005357 56.8875434,29.5782143 57.7236387,29.5782143 Z" id="Path"></path>
                        <path d="M61.5522746,29.5782143 C62.3883699,29.5782143 63.0655694,28.9005357 63.0655694,28.0722619 L63.0655694,23.8141815 C63.0655694,22.9821429 62.3845867,22.3082292 61.5522746,22.3082292 C60.7199624,22.3082292 60.0389798,22.9859077 60.0389798,23.8141815 L60.0389798,28.0722619 C60.0389798,28.9043006 60.7199624,29.5782143 61.5522746,29.5782143 Z" id="Path"></path>
                    </g>
                </g>
            </g>
        </g>
    </g>
</svg>