<?xml version="1.0" encoding="UTF-8"?>
<svg width="33px" height="29px" viewBox="0 0 33 29" version="1.1" xmlns="http://www.w3.org/2000/svg" xmlns:xlink="http://www.w3.org/1999/xlink">
    <!-- Generator: Sketch 57.1 (83088) - https://sketch.com -->
    <title>b4 you go</title>
    <desc>Created with Sketch.</desc>
    <g id="1.0---Visit" stroke="none" stroke-width="1" fill="none" fill-rule="evenodd">
        <g id="Visit" transform="translate(-269.000000, -616.000000)">
            <g id="helper-links" transform="translate(263.000000, 613.000000)">
                <g id="b4-you-go">
                    <path d="M27.1395474,5.63574283 L35.5008427,33.295515 C35.6606513,33.8241734 35.3616394,34.3822861 34.8329811,34.5420947 C34.6660942,34.5925431 34.4889176,34.5984833 34.3190264,34.5593261 L5.71788672,27.9672209 C5.1797117,27.8431802 4.84398954,27.3063483 4.96803027,26.7681733 C5.00861585,26.5920848 5.09615761,26.4302844 5.22134958,26.299972 L25.461194,5.23230493 C25.8438151,4.83403431 26.476853,4.82134793 26.8751236,5.20396909 C26.9988439,5.32282798 27.0899038,5.47151839 27.1395474,5.63574283 Z" id="Rectangle" stroke="#322E2D" transform="translate(20.000000, 19.473382) rotate(-13.000000) translate(-20.000000, -19.473382) "></path>
                    <g id="noun_Alert_954513" transform="translate(21.000000, 12.000000)" fill="#322E2D" fill-rule="nonzero">
                        <g id="Group">
                            <path d="M1.890625,0.834758095 C1.37542889,0.892271805 0.988852848,1.34010148 1,1.86650413 L1,11.0093613 C0.99489971,11.3757216 1.1843753,11.7164915 1.49587285,11.9011837 C1.8073704,12.0858759 2.1926296,12.0858759 2.50412715,11.9011837 C2.8156247,11.7164915 3.00510029,11.3757216 3,11.0093613 L3,1.86650413 C3.00620379,1.57393658 2.88792455,1.29285929 2.67545355,1.09525604 C2.46298255,0.897652786 2.17695593,0.802715687 1.890625,0.834758095 Z M2,13.5490438 C1.171573,13.5490438 0.5,14.2312767 0.5,15.0728533 C0.5,15.91443 1.171573,16.5966629 2,16.5966629 C2.828427,16.5966629 3.5,15.91443 3.5,15.0728533 C3.5,14.2312767 2.828427,13.5490438 2,13.5490438 Z" id="Shape"></path>
                        </g>
                    </g>
                </g>
            </g>
        </g>
    </g>
</svg>