<?xml version="1.0" encoding="utf-8"?>
<!-- Generator: Adobe Illustrator 21.0.2, SVG Export Plug-In . SVG Version: 6.00 Build 0)  -->
<svg version="1.1" id="Layer_1" xmlns="http://www.w3.org/2000/svg" xmlns:xlink="http://www.w3.org/1999/xlink" x="0px" y="0px"
	 width="21px" height="16px" viewBox="0 0 21 16" style="enable-background:new 0 0 21 16;" xml:space="preserve">
<title>sensory</title>
<desc>Created with Sketch.</desc>
<g id="_x32_.1.1---Trail-Detail">
	<g id="Trail-Detail" transform="translate(-959.000000, -1040.000000)">
		<g id="trail-info" transform="translate(112.000000, 634.000000)">
			<g id="quick-info" transform="translate(823.000000, 72.000000)">
				<g>
					<path d="M40.9,345.1c-1.1,3.2-3.3,5-6.7,4.9c-3.2-0.1-5-1.9-6.2-4.7c0,0.4,0,0.7-0.1,1.1c-0.8,0-1.6,0-2.4,0
						c-0.1,0-0.2-0.2-0.2-0.3c0-0.3,0-0.7,0-1s-0.1-0.4-0.3-0.5c-0.6-0.2-0.9-0.7-0.9-1.3c0-0.5,0.3-1.1,0.9-1.2
						c0.3-0.1,0.4-0.2,0.3-0.5c0-0.3,0-0.6,0-0.9s0.1-0.4,0.4-0.4s0.7,0,1,0c0.2,0,0.4-0.1,0.4-0.3c0.3-3,2.1-4.6,4.8-5.5
						c2.7-0.9,6-0.4,8.4,1.6c1.2,1,1.9,2.2,2.1,3.8c0,0.3,0.1,0.5,0.5,0.4c0.2,0,0.4,0,0.6,0c0.3,0,0.4,0.1,0.4,0.4
						c0,0.1,0,0.3,0,0.4c0,0.5,0,0.9,0.6,1.1c0.5,0.2,0.7,0.7,0.6,1.2c0,0.5-0.3,1-0.8,1.1c-0.3,0.1-0.4,0.3-0.4,0.6
						c0,0.3,0,0.6,0,0.9c0,0.3-0.1,0.4-0.4,0.4c-0.7,0-1.3,0-2,0c-0.3,0-0.4-0.1-0.4-0.4C41,345.7,41,345.4,40.9,345.1
						C41,345.1,40.9,345.1,40.9,345.1z M29.1,346.7c0.5-0.5,0.9-1,1.4-1.4c0.3-0.3,0.3-0.5,0-0.7c-0.6-0.5-0.9-1.2-0.8-2
						c0.1-2,1.9-2.8,3.3-2.5c0.6,0.1,1.1,0.5,1.5,0.9c1.5-1.3,3-1.3,4.1-0.2c1.1,1.1,0.9,2.6-0.4,4.1c0.5,0.6,1.1,1.1,1.6,1.7
						c1.5-2.3,1.2-5.8-1-7.8c-2.4-2.2-5.9-2.3-8.3-0.2C27.9,340.6,27.4,344.2,29.1,346.7z M27.8,341.4
						C27.9,341.4,27.9,341.4,27.8,341.4c1.2-2.9,3.2-4.7,6.5-4.7c3.4,0,5.4,1.9,6.6,4.9c0-0.2,0-0.5,0-0.7c0-0.2,0-0.4,0-0.7
						c0.1,0,0.2,0,0.3,0c0.6,0,0.6,0,0.5-0.7c-0.3-1.5-1.1-2.7-2.3-3.6c-2-1.4-4.2-1.8-6.6-1.4c-1.7,0.4-3.2,1.2-4.4,2.6
						c-0.5,0.9-0.9,1.6-1.1,2.6c0,0.1-0.1,0.4-0.1,0.4c0.5,0,0.5,0.3,0.5,0.7C27.8,341.1,27.8,341.2,27.8,341.4z M34.4,349.7
						c2,0,3.6-0.9,4.9-2.4c0.1-0.2,0.2-0.3,0-0.5c-0.4-0.4-0.8-0.8-1.1-1.2c-0.2-0.3-0.4-0.3-0.7,0c-0.8,0.9-1.7,1.7-2.5,2.6
						c-0.4,0.4-0.5,0.4-0.9,0c-0.9-0.9-1.7-1.8-2.6-2.6c-0.2-0.2-0.4-0.2-0.6,0c-0.4,0.4-0.8,0.9-1.2,1.3c-0.2,0.2-0.2,0.4,0,0.6
						C30.8,348.9,32.4,349.6,34.4,349.7z M37.5,345c0-0.1,0-0.1-0.1-0.1c-0.9-1-1.9-2-2.8-3c-0.2-0.2-0.3-0.1-0.5,0
						c-0.8,0.9-1.7,1.8-2.5,2.7c-0.2,0.2-0.2,0.4,0,0.6c0.9,0.8,1.7,1.7,2.5,2.5c0.2,0.2,0.4,0.2,0.6,0c0.7-0.7,1.3-1.3,2-1.9
						C37,345.6,37.3,345.3,37.5,345z M25.5,343.4c0,0.8,0,1.6,0,2.4c0,0.2,0.1,0.3,0.3,0.3c0.4,0,0.9,0,1.3,0c0.2,0,0.3-0.1,0.3-0.3
						c0-1.6,0-3.2,0-4.7c0-0.2-0.1-0.3-0.3-0.3c-0.4,0-0.8,0-1.2,0c-0.3,0-0.4,0.1-0.4,0.4C25.5,341.9,25.5,342.6,25.5,343.4z
						 M41.3,343.4L41.3,343.4c0,0.8,0,1.5,0,2.3c0,0.3,0.1,0.4,0.4,0.4c0.4,0,0.8,0,1.2,0c0.3,0,0.4-0.1,0.4-0.3c0-1.6,0-3.2,0-4.7
						c0-0.3-0.1-0.3-0.4-0.3c-0.4,0-0.8,0-1.2,0c-0.3,0-0.4,0.1-0.4,0.4C41.3,341.9,41.3,342.6,41.3,343.4z M30,342.6
						c0,0.8,0.3,1.4,0.8,1.8c0.2,0.2,0.4,0.2,0.6,0c0.9-0.9,1.7-1.8,2.6-2.8c0.2-0.2,0.2-0.3,0-0.5c-0.5-0.5-1.2-0.7-1.9-0.6
						C30.9,340.5,29.9,341.5,30,342.6z M36.6,340.4c-0.6,0-1.1,0.2-1.6,0.5c-0.2,0.2-0.3,0.4-0.1,0.6c0.9,0.9,1.7,1.8,2.6,2.7
						c0.2,0.2,0.3,0.2,0.5,0c0.7-0.6,1-1.7,0.6-2.6C38.4,341,37.6,340.4,36.6,340.4z M25.1,342.5c-0.6,0.1-0.8,0.4-0.8,0.9
						c0,0.5,0.3,0.8,0.8,0.9C25.1,343.7,25.1,343.1,25.1,342.5z M43.6,344.3c0.5-0.1,0.8-0.5,0.8-1s-0.3-0.8-0.8-0.8
						C43.6,343.1,43.6,343.7,43.6,344.3z"/>
				</g>
			</g>
		</g>
	</g>
</g>
</svg>
