<?xml version="1.0" encoding="UTF-8"?>
<svg width="80px" height="80px" viewBox="0 0 80 80" version="1.1" xmlns="http://www.w3.org/2000/svg" xmlns:xlink="http://www.w3.org/1999/xlink">
    <!-- Generator: Sketch 57.1 (83088) - https://sketch.com -->
    <title>noun_Zoo_1247062</title>
    <desc>Created with Sketch.</desc>
    <g id="0.2---Membership" stroke="none" stroke-width="1" fill="none" fill-rule="evenodd">
        <g id="Membership" transform="translate(-235.000000, -1182.000000)" fill="#FFFFFF" fill-rule="nonzero">
            <g id="admission-copy" transform="translate(158.000000, 1154.000000)">
                <g id="noun_Zoo_1247062" transform="translate(77.000000, 28.000000)">
                    <path d="M69.121,80 L70.517,80 C71.955,80 73.124,78.83 73.124,77.393 L73.124,31.412 C73.469,31.595 73.814,31.758 74.159,31.949 C74.437,32.103 74.768,32.115 75.056,31.984 C75.344,31.853 75.553,31.593 75.619,31.284 L79.975,11.044 C80.068,10.612 79.867,10.171 79.481,9.958 C39.577,-12.057 0.887,9.746 0.5,9.967 C0.124,10.184 -0.069,10.619 0.022,11.044 L4.378,31.284 C4.445,31.596 4.657,31.858 4.95,31.988 C5.079,32.046 5.218,32.074 5.355,32.074 C5.528,32.074 5.701,32.029 5.855,31.94 C5.887,31.921 6.243,31.722 6.874,31.401 L6.874,77.393 C6.874,78.831 8.044,80 9.481,80 L10.877,80 C12.315,80 13.484,78.83 13.484,77.393 L13.484,28.533 C24.128,24.539 44.607,19.533 66.511,28.336 L66.511,77.393 C66.514,78.831 67.684,80 69.121,80 Z M71.125,77.393 C71.125,77.728 70.853,78 70.518,78 L69.122,78 C68.787,78 68.515,77.728 68.515,77.393 L68.515,29.174 C69.384,29.556 70.254,29.947 71.126,30.374 L71.126,77.393 L71.125,77.393 Z M11.486,77.393 C11.486,77.728 11.214,78 10.879,78 L9.483,78 C9.148,78 8.876,77.728 8.876,77.393 L8.876,30.442 C9.622,30.101 10.492,29.722 11.487,29.316 L11.487,77.393 L11.486,77.393 Z M12.214,26.889 C12.149,26.908 12.088,26.928 12.03,26.958 C10.263,27.639 8.793,28.279 7.648,28.81 C7.51,28.843 7.386,28.9 7.277,28.984 C6.81,29.204 6.393,29.407 6.058,29.576 L2.137,11.357 C7.224,8.689 41.938,-8.04 77.866,11.355 L73.947,29.562 C73.476,29.313 73.006,29.093 72.535,28.857 C72.524,28.852 72.514,28.846 72.503,28.841 C47.703,16.453 23.841,22.437 12.214,26.889 Z" id="Shape"></path>
                </g>
            </g>
        </g>
    </g>
</svg>