<?xml version="1.0" encoding="utf-8"?>
<!-- Generator: Adobe Illustrator 21.0.2, SVG Export Plug-In . SVG Version: 6.00 Build 0)  -->
<svg version="1.1" id="Laag_1" xmlns="http://www.w3.org/2000/svg" xmlns:xlink="http://www.w3.org/1999/xlink" x="0px" y="0px"
	 width="29px" height="29px" viewBox="0 0 29 29" style="enable-background:new 0 0 29 29;" xml:space="preserve">
<style type="text/css">
	.st0{fill:#D7D7D7;}
</style>
<path class="st0" d="M17.8,14.4c-0.1,1.9-1.6,3.3-3.3,3.3c-1.9,0-3.3-1.5-3.3-3.3s1.4-3.3,3.3-3.3C16.4,11.1,17.8,12.5,17.8,14.4z"
	/>
<path class="st0" d="M19,6.2H9.7C7.7,6.2,6,7.9,6,10v9.1c0,2,1.7,3.8,3.8,3.8H19c2,0,3.8-1.7,3.8-3.8V10C22.7,7.9,21,6.2,19,6.2z
	 M14.5,19.6c-2.7,0-5.1-2.3-5.1-5.2c0-2.9,2.2-5.2,5.1-5.2c2.8,0,5.1,2.3,5.1,5.2C19.6,17.3,17.3,19.6,14.5,19.6z M19.9,10.1
	c-0.6,0-1.2-0.5-1.2-1.2s0.5-1.2,1.2-1.2S21,8.3,21,8.9S20.5,10.1,19.9,10.1z"/>
<path class="st0" d="M27,0H2C0.9,0,0,0.9,0,2v25c0,1.1,0.9,2,2,2h25c1.1,0,2-0.9,2-2V2C29,0.9,28.1,0,27,0z M24.6,19.2
	c0,3-2.5,5.5-5.4,5.5H9.7c-2.9,0-5.3-2.5-5.3-5.5V9.8c0-3,2.5-5.5,5.3-5.5h9.5c2.9,0,5.4,2.5,5.4,5.5V19.2z"/>
<path class="st0" d="M-141.6-130.5h-13c-4.4,0-8-3.6-8-8v-13c0-4.4,3.6-8,8-8h13c4.4,0,8,3.6,8,8v13
	C-133.6-134.1-137.2-130.5-141.6-130.5z"/>
<path class="st0" d="M-141.6-130.5h-13c-4.4,0-8-3.6-8-8v-13c0-4.4,3.6-8,8-8h13c4.4,0,8,3.6,8,8v13
	C-133.6-134.1-137.2-130.5-141.6-130.5z"/>
</svg>
