<?xml version="1.0" encoding="utf-8"?>
<!-- Generator: Adobe Illustrator 21.0.2, SVG Export Plug-In . SVG Version: 6.00 Build 0)  -->
<svg version="1.1" id="Layer_1" xmlns="http://www.w3.org/2000/svg" xmlns:xlink="http://www.w3.org/1999/xlink" x="0px" y="0px"
	 width="270px" height="1243.9px" viewBox="0 0 270 1243.9" style="enable-background:new 0 0 270 1243.9;" xml:space="preserve">
<style type="text/css">
	.st0{fill:#EBEAEB;}
</style>
<title>Group 261</title>
<desc>Created with Sketch.</desc>
<title>Group 261</title>
<desc>Created with Sketch.</desc>
<g>
	<g>
		<g id="_x30_.0---Homepage_4_">
			<g id="PhoenixZoo-Homepage_V3.0_4_" transform="translate(-77.000000, -1459.000000)">
				<g id="Critters_4_" transform="translate(73.000000, 1459.000000)">
					<g id="stone-pattern_4_">
						
							<g id="Group-261_4_" transform="translate(479.500000, 221.500000) rotate(-90.000000) translate(-479.500000, -221.500000) translate(258.000000, -258.000000)">
							<g id="Group-3_4_" transform="translate(0.000000, 175.000000)">
								<g id="Clip-2_4_">
								</g>
							</g>
							<path id="Fill-4_2_" class="st0" d="M47.7,27.8c0,0-8-28.3-33.2-23.2s-42,42.6-41.2,52.5S-19.2,93.6-2,92.3
								c17.2-1.4,36.8,3.1,45.9-23.9S47.7,27.8,47.7,27.8L47.7,27.8z"/>
							<path id="Fill-12_2_" class="st0" d="M21.8,124.6c-3.2,11.9-8.1,37.8-27.7,41.2c-19.7,3.4-28,3.1-34.4-7.8
								c-6.4-10.9-5.5-40.9,8.1-47.7c13.6-6.8,29.2-12.5,42.9-10.9C24.7,101,21.8,124.6,21.8,124.6L21.8,124.6z"/>
							<path id="Fill-20_2_" class="st0" d="M-191.4,172.4c-12-5.1-38.1-13.3-40.6-41.4s-1.9-40,9.6-48.6
								c11.4-8.5,41.8-5.9,48.1,13.7s11.4,42.1,9.1,61.7C-167.6,177.6-191.4,172.4-191.4,172.4L-191.4,172.4z"/>
							<path id="Fill-28_2_" class="st0" d="M67.6,129.6c-4.4,4.6-20.7,13.3-31.5,5S22.8,109,27,100.2c4.2-8.8,13.6-16,22.1-18
								s25,5.3,26.7,16.7C77.5,110.2,75.5,121.2,67.6,129.6L67.6,129.6z"/>
							<path id="Fill-36_2_" class="st0" d="M68.9,164.9c-6.8,1.1-7.4,7.9-17.3,3.6c-9.9-4.3-17.4-4.6-12.1-15.2
								c5.4-10.6,19-11,22.6-10.4c3.5,0.6,11.1,7.9,10.9,13.4C72.6,161.8,68.9,164.9,68.9,164.9L68.9,164.9z"/>
							<path class="st0" d="M72.9,74.2c3.5-6.9,10.4-9.5,15.8-10.3v26.7c-1.1-0.2-2.3-0.6-3.8-1.2C75,85.1,67.5,84.8,72.9,74.2z"/>
							<path id="Fill-60_2_" class="st0" d="M-255,63.6c0,0-20.5-17.5-38.4,4c-18,21.5-13.2,63.7-7.6,71.2
								c5.6,7.5,24.1,24.6,37.4,11.7c13.3-12.9,31.5-22.9,25.6-51.1C-244,71-255,63.6-255,63.6L-255,63.6z"/>
							<path id="Fill-68_2_" class="st0" d="M-228.1,171.1c-6.8,1.1-7.4,7.9-17.3,3.6c-9.9-4.3-17.4-4.6-12.1-15.2
								c5.4-10.6,19-11,22.6-10.4c3.5,0.6,11.1,7.9,10.9,13.4C-224.3,168-228.1,171.1-228.1,171.1L-228.1,171.1z"/>
							<g id="Group-84_4_" transform="translate(276.500000, 53.500000)">
								<g id="Clip-83_4_">
								</g>
							</g>
							<path class="st0" d="M42,185.7c2.9-14.6,15.2-11.5,36.1-11.5c3.6,0,7.2,0.3,10.6,0.7v79.2c-14.6,20.6-33.6,8.1-37.9-0.2
								c-4.4-8.3-2-22.3-7-33.1C38.8,210.1,39.1,200.3,42,185.7z"/>
							<path id="Fill-93_2_" class="st0" d="M-63.2,137.6c-1-1.2-11-8.9-23.5-12.2c-12.5-3.3-19.5-6.9-22.7-0.1
								c-3.2,6.7-4.2,11.6-2.3,17.7c2,6.1-0.7,12.7,1.1,17.5c1.9,4.8,12,14.1,22.7,6.1s9.2-7.7,14.6-11.3
								C-67.8,151.6-58.6,143.5-63.2,137.6L-63.2,137.6z"/>
							<path id="Fill-103_2_" class="st0" d="M-348.7,257.8c0.8,1.1,9.1,8.2,19.8,11.8c10.7,3.6,16.7,7,19.7,1.4s4.1-9.6,2.7-14.9
								c-1.4-5.3,1.2-10.7-0.2-14.9s-9.8-12.7-19.5-6.5c-9.6,6.2-8.3,6-13.2,8.7C-344.2,246.2-352.5,252.5-348.7,257.8L-348.7,257.8
								z"/>
							<path id="Fill-109_2_" class="st0" d="M-295.4,54.2c-1-1.2-11-8.9-23.5-12.2s-19.5-6.9-22.7-0.1c-3.2,6.7-4.2,11.6-2.3,17.7
								c2,6.1-0.7,12.7,1.1,17.5c1.9,4.8,12,14.1,22.7,6.1c10.7-8,9.2-7.7,14.6-11.3C-299.9,68.1-290.7,60.1-295.4,54.2L-295.4,54.2
								z"/>
							<path id="Fill-119_2_" class="st0" d="M34.7,197.3c1-11,3.6-17.7,0-24.7s-16.1-7.5-21.4-2.6c-5.4,4.9-10.5,8.4-7.1,21.8
								c3.4,13.3,7.3,22.4,5.9,28.2s11.2,14.5,15.4,6.7C31.6,218.8,33.4,212.1,34.7,197.3L34.7,197.3z"/>
							<path id="Fill-125_2_" class="st0" d="M-358.8,167.6c2.3,24.2-0.7,40.2,9.9,53.1c10.6,13,37.7,7.2,47.3-6.5
								c9.6-13.7,19.3-24.1,6.6-50.9c-12.7-26.8-24.7-44-24-57.3c0.8-13.3-30.2-24.9-36-5.6C-360.7,119.6-362,135.2-358.8,167.6
								L-358.8,167.6z"/>
							<path id="Fill-133_2_" class="st0" d="M-70.3,124.4c8.6,0.3,11.5-0.3,20.9-10.5c9.5-10.2,14-3.5,15.1-16.9
								c1.1-13.3,7-18.1-8.3-19.4s-22.1-2.2-27.7,6.4C-76,92.7-80,124.1-70.3,124.4L-70.3,124.4z"/>
							<path class="st0" d="M57.5,31.5c5.6-8.6,12.4-7.6,27.7-6.4c1.3,0.1,2.5,0.2,3.5,0.4v28.7c-2.4,1.2-5.8,2.2-10.3,7
								C68.9,71.4,66,72,57.5,71.7C47.9,71.6,51.9,40.1,57.5,31.5z"/>
							<g id="Group-149_4_" transform="translate(203.000000, -0.000000)">
								<g id="Clip-148_4_">
								</g>
							</g>
							<path id="Fill-150_1_" class="st0" d="M-402.4,176.3c8.6,0.3,11.5-0.3,20.9-10.5c9.5-10.2,14-3.5,15.1-16.9
								c1.1-13.3,7-18.1-8.3-19.4c-15.3-1.3-22.1-2.2-27.7,6.4C-408.1,144.6-412.1,176-402.4,176.3L-402.4,176.3z"/>
							<path id="Fill-158_2_" class="st0" d="M-233.9,221.4c8.6,0.3,11.5-0.3,20.9-10.5s14-3.5,15.1-16.9c1.1-13.3,7-18.1-8.3-19.4
								c-15.3-1.3-22.1-2.2-27.7,6.4C-239.5,189.6-243.6,221.1-233.9,221.4L-233.9,221.4z"/>
							<path class="st0" d="M77.3,138.6c1.7-0.6,2.8-13.9,4.1-28.7c0.5-5.1,3.3-8.5,7.2-10.9v66.2c-2.5,0.3-4.6-0.6-6.2-2
								c-3.9-3.4,1.8-18.5-3.3-18.5C74.1,144.7,75.7,139.1,77.3,138.6z"/>
							<path id="Fill-174_2_" class="st0" d="M-179.4,181c5.1-4.3,22.8-11.1,33-0.7c10.2,10.4,10.9,29.1,5.6,37.9
								c-5.3,8.7-15.8,15-24.8,15.9s-25.1-9.4-25.7-21.7C-191.8,200.1-188.5,188.8-179.4,181L-179.4,181z"/>
							<path id="Fill-182_2_" class="st0" d="M-252.6,200.4c-4.4,0.4-19.6-1.9-27.4-10c-7.8-8.2-7.3-17.2-2.4-19.7s14-2.2,21.5,0.2
								s20.3,12.3,20,18.3C-241.3,195.2-244.6,199.6-252.6,200.4L-252.6,200.4z"/>
							<g id="Group-190_4_" transform="translate(163.000000, 905.000000)">
								<g id="Clip-189_4_">
								</g>
							</g>
							<path id="Fill-191_2_" class="st0" d="M-401.6,119.2c-0.4,5.3-4.9,22.7-13,30.5c-8.1,7.8-15.6,5.6-16.7-0.6
								c-1.2-6.2,0.6-16.8,3.9-25.2c3.3-8.4,13.7-21.8,18.7-20.4C-404,105-400.9,109.7-401.6,119.2L-401.6,119.2z"/>
							<path id="Fill-199_2_" class="st0" d="M-135.5,90.1c6,12.8,16.4,9.3,16.7,31.8c0.4,22.6,4.9,37.7-14,34.2
								c-19-3.5-28.5-30.3-30.1-37.8c-1.5-7.4,4.1-27.4,12.2-30.6C-142.5,84.6-135.5,90.1-135.5,90.1L-135.5,90.1z"/>
							<path id="Fill-207_2_" class="st0" d="M-377.5,186.5c6,12.8,16.4,9.3,16.7,31.8c0.4,22.6,4.9,37.7-14,34.2
								c-19-3.5-28.5-30.3-30.1-37.8c-1.5-7.4,4.1-27.4,12.2-30.6C-384.5,181-377.5,186.5-377.5,186.5L-377.5,186.5z"/>
							<path id="Fill-215_2_" class="st0" d="M-92.7,211.7c-0.1-6,12.9,0.2,15.6-4.4s3.2-13.5-9.9-22.9c-13-9.4-15.6-14.2-23.5-16.3
								c-7.8-2-30.2-6.9-28,4.2c2.2,11.1,3.6,36.5,16.2,37.8c12.5,1.2,23.9,2.2,24.4,4.1C-97.3,216.1-92.5,217.9-92.7,211.7
								L-92.7,211.7z"/>
							<path id="Fill-223_2_" class="st0" d="M-394.8,103.6c6.6-0.9,0.9,15.1,6.2,17.8c5.3,2.7,15,2.2,24.1-14.1
								c9.2-16.2,14.2-19.8,15.7-29.2s4.9-36.1-6.9-32.3c-11.9,3.8-39.4,8.3-39.7,23.1c-0.2,14.8-0.3,28.2-2.4,29
								C-400,98.7-401.5,104.5-394.8,103.6L-394.8,103.6z"/>
							<path id="Fill-225_2_" class="st0" d="M-178,64.2c0,0-0.3,21.3,13.5,19.3s28.5-28.1,29.7-35.4s1.9-27.2-7.2-27.4
								c-9.1-0.2-18.6-4.9-27.6,14.1C-178.6,53.9-178,64.2-178,64.2L-178,64.2z"/>
							<path id="Fill-239_2_" class="st0" d="M-65.7,155.7c0,0-21.1,20.8-1.4,36.6c19.8,15.8,46.3,49.4,55.7,38
								c9.4-11.4,24.8-22.6,7.9-38.2s-41.6-20.4-43.1-28.4C-48.1,155.6-60.5,149-65.7,155.7L-65.7,155.7z"/>
							<path id="Fill-247_2_" class="st0" d="M-52.1,44.8c0,0-12.9-29-30.2-9.3s-50.9,43.6-43.4,56.9s13.5,33.6,30.1,17.2
								s25.8-44.1,32.8-44.2C-55.8,65.4-47.6,52.3-52.1,44.8L-52.1,44.8z"/>
							<path id="Fill-255_2_" class="st0" d="M-423.8,231.8c0,0,15.7,2.2,15-14.6c-0.7-16.9,3.5-44.8-4.4-44.9
								c-7.8-0.1-17.7-3.4-18,11.9s6.4,30.1,3.8,34.3C-430.1,222.7-428.3,231.9-423.8,231.8L-423.8,231.8z"/>
						</g>
					</g>
				</g>
			</g>
		</g>
		<g id="_x30_.0---Homepage_3_">
			<g id="PhoenixZoo-Homepage_V3.0_3_" transform="translate(-77.000000, -1459.000000)">
				<g id="Critters_3_" transform="translate(73.000000, 1459.000000)">
					<g id="stone-pattern_3_">
						
							<g id="Group-261_3_" transform="translate(479.500000, 221.500000) rotate(-90.000000) translate(-479.500000, -221.500000) translate(258.000000, -258.000000)">
							<g id="Group-3_3_" transform="translate(0.000000, 175.000000)">
								<g id="Clip-2_3_">
								</g>
							</g>
							<path class="st0" d="M-472.4,90.6V63.9c3-0.4,5.5-0.4,6.7-0.2c3.5,0.6,11.1,7.9,10.9,13.5c-0.2,5.5-4.1,8.6-4.1,8.6
								C-464.7,86.7-465.9,91.9-472.4,90.6z"/>
							<g id="Group-84_3_" transform="translate(276.500000, 53.500000)">
								<g id="Clip-83_3_">
								</g>
							</g>
							<path class="st0" d="M-472.4,254v-79.1c16.2,2.3,29,9.2,30.6,10.8c9.4,9.1-2.9,29.2-10.5,39s-5.3,8.3-19.9,29.2
								C-472.3,253.9-472.3,253.9-472.4,254z"/>
							<path class="st0" d="M-472.4,54.4V25.6c10.8,1.7,5.7,6.8,4.8,19C-468.1,51.6-469.7,53-472.4,54.4z"/>
							<g id="Group-149_3_" transform="translate(203.000000, -0.000000)">
								<g id="Clip-148_3_">
								</g>
							</g>
							<path class="st0" d="M-472.4,165.2V99c7.5-4.7,19-5.6,25.2-7.1c9.4-2.3,4.7,24,2.8,33.1c-1.9,9.2-6.1,12.2-14.4,27.3
								C-463.8,161.4-468.6,164.7-472.4,165.2z"/>
							<g id="Group-190_3_" transform="translate(163.000000, 905.000000)">
								<g id="Clip-189_3_">
								</g>
							</g>
							<path id="Fill-231_1_" class="st0" d="M-430.1,76.5c1.7-5.7,11.9,5.7,15.9,2.6c4-3.2,7.1-11.2-2-25.5
								c-9.2-14.3-10.1-20-16.7-25.2c-6.6-5.3-25.9-19.3-27.3-8.2c-1.4,11.2-8,35.5,3.3,42c11.2,6.6,21.5,12.3,21.4,14.3
								C-435.8,78.6-431.9,82.3-430.1,76.5L-430.1,76.5z"/>
						</g>
					</g>
				</g>
			</g>
		</g>
	</g>
	<g>
		<g id="_x30_.0---Homepage_6_">
			<g id="PhoenixZoo-Homepage_V3.0_6_" transform="translate(-77.000000, -1459.000000)">
				<g id="Critters_6_" transform="translate(73.000000, 1459.000000)">
					<g id="stone-pattern_6_">
						
							<g id="Group-261_6_" transform="translate(479.500000, 221.500000) rotate(-90.000000) translate(-479.500000, -221.500000) translate(258.000000, -258.000000)">
							<g id="Group-3_6_" transform="translate(0.000000, 175.000000)">
								<g id="Clip-2_6_">
								</g>
							</g>
							<path id="Fill-4_3_" class="st0" d="M-513.4,27.8c0,0-8-28.3-33.2-23.2s-42,42.6-41.2,52.5s7.5,36.5,24.7,35.2
								c17.2-1.4,36.8,3.1,45.9-23.9C-508.1,41.4-513.4,27.8-513.4,27.8L-513.4,27.8z"/>
							<path id="Fill-12_3_" class="st0" d="M-539.3,124.6c-3.2,11.9-8.1,37.8-27.7,41.2c-19.7,3.4-28,3.1-34.4-7.8
								c-6.4-10.9-5.5-40.9,8.1-47.7c13.6-6.8,29.2-12.5,42.9-10.9C-536.4,101-539.3,124.6-539.3,124.6L-539.3,124.6z"/>
							<path id="Fill-20_3_" class="st0" d="M-752.5,172.4c-12-5.1-38.1-13.3-40.6-41.4s-1.9-40,9.6-48.6
								c11.4-8.5,41.8-5.9,48.1,13.7s11.4,42.1,9.1,61.7C-728.7,177.6-752.5,172.4-752.5,172.4L-752.5,172.4z"/>
							<path id="Fill-28_3_" class="st0" d="M-493.5,129.6c-4.4,4.6-20.7,13.3-31.5,5s-13.3-25.6-9.1-34.4c4.2-8.8,13.6-16,22.1-18
								c8.5-2,25,5.3,26.7,16.7C-483.6,110.2-485.6,121.2-493.5,129.6L-493.5,129.6z"/>
							<path id="Fill-36_3_" class="st0" d="M-492.2,164.9c-6.8,1.1-7.4,7.9-17.3,3.6c-9.9-4.3-17.4-4.6-12.1-15.2
								c5.4-10.6,19-11,22.6-10.4c3.5,0.6,11.1,7.9,10.9,13.4C-488.5,161.8-492.2,164.9-492.2,164.9L-492.2,164.9z"/>
							<path class="st0" d="M-488.2,74.2c3.5-6.9,10.4-9.5,15.8-10.3v26.7c-1.1-0.2-2.3-0.6-3.8-1.2
								C-486.1,85.1-493.6,84.8-488.2,74.2z"/>
							<g id="Group-84_6_" transform="translate(276.500000, 53.500000)">
								<g id="Clip-83_6_">
								</g>
							</g>
							<path class="st0" d="M-519.1,185.7c2.9-14.6,15.2-11.5,36.1-11.5c3.6,0,7.2,0.3,10.6,0.7v79.2c-14.6,20.6-33.6,8.1-37.9-0.2
								c-4.4-8.3-2-22.3-7-33.1C-522.3,210.1-522,200.3-519.1,185.7z"/>
							<path id="Fill-93_3_" class="st0" d="M-624.3,137.6c-1-1.2-11-8.9-23.5-12.2c-12.5-3.3-19.5-6.9-22.7-0.1
								c-3.2,6.7-4.2,11.6-2.3,17.7c2,6.1-0.7,12.7,1.1,17.5c1.9,4.8,12,14.1,22.7,6.1s9.2-7.7,14.6-11.3
								C-628.9,151.6-619.7,143.5-624.3,137.6L-624.3,137.6z"/>
							<path id="Fill-119_3_" class="st0" d="M-526.4,197.3c1-11,3.6-17.7,0-24.7c-3.6-7-16.1-7.5-21.4-2.6
								c-5.4,4.9-10.5,8.4-7.1,21.8c3.4,13.3,7.3,22.4,5.9,28.2c-1.4,5.8,11.2,14.5,15.4,6.7C-529.5,218.8-527.7,212.1-526.4,197.3
								L-526.4,197.3z"/>
							<path id="Fill-133_3_" class="st0" d="M-631.4,124.4c8.6,0.3,11.5-0.3,20.9-10.5c9.5-10.2,14-3.5,15.1-16.9
								c1.1-13.3,7-18.1-8.3-19.4s-22.1-2.2-27.7,6.4C-637.1,92.7-641.1,124.1-631.4,124.4L-631.4,124.4z"/>
							<path class="st0" d="M-503.6,31.5c5.6-8.6,12.4-7.6,27.7-6.4c1.3,0.1,2.5,0.2,3.5,0.4v28.7c-2.4,1.2-5.8,2.2-10.3,7
								c-9.5,10.2-12.4,10.8-20.9,10.5C-513.2,71.6-509.2,40.1-503.6,31.5z"/>
							<g id="Group-149_6_" transform="translate(203.000000, -0.000000)">
								<g id="Clip-148_6_">
								</g>
							</g>
							<path id="Fill-158_3_" class="st0" d="M-795,221.4c8.6,0.3,11.5-0.3,20.9-10.5c9.4-10.2,14-3.5,15.1-16.9
								c1.1-13.3,7-18.1-8.3-19.4c-15.3-1.3-22.1-2.2-27.7,6.4C-800.6,189.6-804.7,221.1-795,221.4L-795,221.4z"/>
							<path class="st0" d="M-483.8,138.6c1.7-0.6,2.8-13.9,4.1-28.7c0.5-5.1,3.3-8.5,7.2-10.9v66.2c-2.5,0.3-4.6-0.6-6.2-2
								c-3.9-3.4,1.8-18.5-3.3-18.5C-487,144.7-485.4,139.1-483.8,138.6z"/>
							<path id="Fill-174_3_" class="st0" d="M-740.5,181c5.1-4.3,22.8-11.1,33-0.7c10.2,10.4,10.9,29.1,5.6,37.9
								c-5.3,8.7-15.8,15-24.8,15.9s-25.1-9.4-25.7-21.7C-752.9,200.1-749.6,188.8-740.5,181L-740.5,181z"/>
							<g id="Group-190_6_" transform="translate(163.000000, 905.000000)">
								<g id="Clip-189_6_">
								</g>
							</g>
							<path id="Fill-199_3_" class="st0" d="M-696.6,90.1c6,12.8,16.4,9.3,16.7,31.8c0.4,22.6,4.9,37.7-14,34.2
								c-19-3.5-28.5-30.3-30.1-37.8c-1.5-7.4,4.1-27.4,12.2-30.6C-703.6,84.6-696.6,90.1-696.6,90.1L-696.6,90.1z"/>
							<path id="Fill-215_3_" class="st0" d="M-653.8,211.7c-0.1-6,12.9,0.2,15.6-4.4s3.2-13.5-9.9-22.9
								c-13-9.4-15.6-14.2-23.5-16.3c-7.8-2-30.2-6.9-28,4.2c2.2,11.1,3.6,36.5,16.2,37.8c12.5,1.2,23.9,2.2,24.4,4.1
								C-658.4,216.1-653.6,217.9-653.8,211.7L-653.8,211.7z"/>
							<path id="Fill-225_3_" class="st0" d="M-739.1,64.2c0,0-0.3,21.3,13.5,19.3c13.8-2,28.5-28.1,29.7-35.4s1.9-27.2-7.2-27.4
								c-9.1-0.2-18.6-4.9-27.6,14.1C-739.7,53.9-739.1,64.2-739.1,64.2L-739.1,64.2z"/>
							<path id="Fill-239_3_" class="st0" d="M-626.8,155.7c0,0-21.1,20.8-1.4,36.6c19.8,15.8,46.3,49.4,55.7,38s24.8-22.6,7.9-38.2
								c-16.9-15.6-41.6-20.4-43.1-28.4C-609.2,155.6-621.6,149-626.8,155.7L-626.8,155.7z"/>
							<path id="Fill-247_3_" class="st0" d="M-613.2,44.8c0,0-12.9-29-30.2-9.3c-17.3,19.7-50.9,43.6-43.4,56.9
								s13.5,33.6,30.1,17.2c16.6-16.4,25.8-44.1,32.8-44.2C-616.9,65.4-608.7,52.3-613.2,44.8L-613.2,44.8z"/>
						</g>
					</g>
				</g>
			</g>
		</g>
	</g>
	<g>
		<g id="_x30_.0---Homepage_2_">
			<g id="PhoenixZoo-Homepage_V3.0_2_" transform="translate(-77.000000, -1459.000000)">
				<g id="Critters_2_" transform="translate(73.000000, 1459.000000)">
					<g id="stone-pattern_2_">
						
							<g id="Group-261_2_" transform="translate(479.500000, 221.500000) rotate(-90.000000) translate(-479.500000, -221.500000) translate(258.000000, -258.000000)">
							<g id="Group-3_2_" transform="translate(0.000000, 175.000000)">
								<g id="Clip-2_2_">
								</g>
							</g>
							<path id="Fill-20_1_" class="st0" d="M369.7,172.4c-12-5.1-38.1-13.3-40.6-41.4s-1.9-40,9.6-48.6
								c11.4-8.5,41.8-5.9,48.1,13.7c6.3,19.6,11.4,42.1,9.1,61.7C393.5,177.6,369.7,172.4,369.7,172.4L369.7,172.4z"/>
							<path id="Fill-60_1_" class="st0" d="M306.1,63.6c0,0-20.5-17.5-38.4,4c-18,21.5-13.2,63.7-7.6,71.2
								c5.6,7.5,24.1,24.6,37.4,11.7c13.3-12.9,31.5-22.9,25.6-51.1C317.1,71,306.1,63.6,306.1,63.6L306.1,63.6z"/>
							<path id="Fill-68_1_" class="st0" d="M333,171.1c-6.8,1.1-7.4,7.9-17.3,3.6c-9.9-4.3-17.4-4.6-12.1-15.2
								c5.4-10.6,19-11,22.6-10.4c3.5,0.6,11.1,7.9,10.9,13.4C336.8,168,333,171.1,333,171.1L333,171.1z"/>
							<g id="Group-84_2_" transform="translate(276.500000, 53.500000)">
								<g id="Clip-83_2_">
								</g>
							</g>
							<path id="Fill-103_1_" class="st0" d="M212.4,257.8c0.8,1.1,9.1,8.2,19.8,11.8c10.7,3.6,16.7,7,19.7,1.4s4.1-9.6,2.7-14.9
								c-1.4-5.3,1.2-10.7-0.2-14.9c-1.4-4.2-9.8-12.7-19.5-6.5c-9.6,6.2-8.3,6-13.2,8.7C216.9,246.2,208.6,252.5,212.4,257.8
								L212.4,257.8z"/>
							<path id="Fill-109_1_" class="st0" d="M265.7,54.2c-1-1.2-11-8.9-23.5-12.2s-19.5-6.9-22.7-0.1c-3.2,6.7-4.2,11.6-2.3,17.7
								c2,6.1-0.7,12.7,1.1,17.5c1.9,4.8,12,14.1,22.7,6.1s9.2-7.7,14.6-11.3C261.2,68.1,270.4,60.1,265.7,54.2L265.7,54.2z"/>
							<path id="Fill-125_1_" class="st0" d="M202.3,167.6c2.3,24.2-0.7,40.2,9.9,53.1c10.6,13,37.7,7.2,47.3-6.5
								c9.6-13.7,19.3-24.1,6.6-50.9c-12.7-26.8-24.7-44-24-57.3c0.8-13.3-30.2-24.9-36-5.6C200.4,119.6,199.1,135.2,202.3,167.6
								L202.3,167.6z"/>
							<g id="Group-149_2_" transform="translate(203.000000, -0.000000)">
								<g id="Clip-148_2_">
								</g>
							</g>
							<path id="Fill-150_2_" class="st0" d="M158.7,176.3c8.6,0.3,11.5-0.3,20.9-10.5c9.5-10.2,14-3.5,15.1-16.9
								c1.1-13.3,7-18.1-8.3-19.4c-15.3-1.3-22.1-2.2-27.7,6.4C153,144.6,149,176,158.7,176.3L158.7,176.3z"/>
							<path id="Fill-158_1_" class="st0" d="M327.2,221.4c8.6,0.3,11.5-0.3,20.9-10.5c9.4-10.2,14-3.5,15.1-16.9
								c1.1-13.3,7-18.1-8.3-19.4c-15.3-1.3-22.1-2.2-27.7,6.4C321.6,189.6,317.5,221.1,327.2,221.4L327.2,221.4z"/>
							<path id="Fill-174_1_" class="st0" d="M381.7,181c5.1-4.3,22.8-11.1,33-0.7c10.2,10.4,10.9,29.1,5.6,37.9
								c-5.3,8.7-15.8,15-24.8,15.9s-25.1-9.4-25.7-21.7C369.3,200.1,372.6,188.8,381.7,181L381.7,181z"/>
							<path id="Fill-182_1_" class="st0" d="M308.5,200.4c-4.4,0.4-19.6-1.9-27.4-10c-7.8-8.2-7.3-17.2-2.4-19.7s14-2.2,21.5,0.2
								s20.3,12.3,20,18.3C319.8,195.2,316.5,199.6,308.5,200.4L308.5,200.4z"/>
							<g id="Group-190_2_" transform="translate(163.000000, 905.000000)">
								<g id="Clip-189_2_">
								</g>
							</g>
							<path id="Fill-191_1_" class="st0" d="M159.5,119.2c-0.4,5.3-4.9,22.7-13,30.5c-8.1,7.8-15.6,5.6-16.7-0.6
								c-1.2-6.2,0.6-16.8,3.9-25.2c3.3-8.4,13.7-21.8,18.7-20.4C157.1,105,160.2,109.7,159.5,119.2L159.5,119.2z"/>
							<path id="Fill-199_1_" class="st0" d="M425.6,90.1c6,12.8,16.4,9.3,16.7,31.8c0.4,22.6,4.9,37.7-14,34.2
								c-19-3.5-28.5-30.3-30.1-37.8c-1.5-7.4,4.1-27.4,12.2-30.6C418.6,84.6,425.6,90.1,425.6,90.1L425.6,90.1z"/>
							<path id="Fill-207_1_" class="st0" d="M183.6,186.5c6,12.8,16.4,9.3,16.7,31.8c0.4,22.6,4.9,37.7-14,34.2
								c-19-3.5-28.5-30.3-30.1-37.8c-1.5-7.4,4.1-27.4,12.2-30.6C176.6,181,183.6,186.5,183.6,186.5L183.6,186.5z"/>
							<path id="Fill-223_1_" class="st0" d="M166.3,103.6c6.6-0.9,0.9,15.1,6.2,17.8s15,2.2,24.1-14.1
								c9.2-16.2,14.2-19.8,15.7-29.2s4.9-36.1-6.9-32.3c-11.9,3.8-39.4,8.3-39.7,23.1c-0.2,14.8-0.3,28.2-2.4,29
								C161.1,98.7,159.6,104.5,166.3,103.6L166.3,103.6z"/>
							<path id="Fill-225_1_" class="st0" d="M383.1,64.2c0,0-0.3,21.3,13.5,19.3c13.8-2,28.5-28.1,29.7-35.4
								c1.2-7.3,1.9-27.2-7.2-27.4c-9.1-0.2-18.6-4.9-27.6,14.1C382.5,53.9,383.1,64.2,383.1,64.2L383.1,64.2z"/>
							<path id="Fill-255_1_" class="st0" d="M137.3,231.8c0,0,15.7,2.2,15-14.6c-0.7-16.9,3.5-44.8-4.4-44.9
								c-7.8-0.1-17.7-3.4-18,11.9c-0.3,15.3,6.4,30.1,3.8,34.3C131,222.7,132.8,231.9,137.3,231.8L137.3,231.8z"/>
						</g>
					</g>
				</g>
			</g>
		</g>
		<g id="_x30_.0---Homepage_1_">
			<g id="PhoenixZoo-Homepage_V3.0_1_" transform="translate(-77.000000, -1459.000000)">
				<g id="Critters_1_" transform="translate(73.000000, 1459.000000)">
					<g id="stone-pattern_1_">
						
							<g id="Group-261_1_" transform="translate(479.500000, 221.500000) rotate(-90.000000) translate(-479.500000, -221.500000) translate(258.000000, -258.000000)">
							<g id="Group-3_1_" transform="translate(0.000000, 175.000000)">
								<g id="Clip-2_1_">
								</g>
							</g>
							<path class="st0" d="M88.7,90.6V63.9c3-0.4,5.5-0.4,6.7-0.2c3.5,0.6,11.1,7.9,10.9,13.5c-0.2,5.5-4.1,8.6-4.1,8.6
								C96.4,86.7,95.2,91.9,88.7,90.6z"/>
							<g id="Group-84_1_" transform="translate(276.500000, 53.500000)">
								<g id="Clip-83_1_">
								</g>
							</g>
							<path class="st0" d="M88.7,254v-79.1c16.2,2.3,29,9.2,30.6,10.8c9.4,9.1-2.9,29.2-10.5,39s-5.3,8.3-19.9,29.2
								C88.8,253.9,88.8,253.9,88.7,254z"/>
							<path class="st0" d="M88.7,54.4V25.6c10.8,1.7,5.7,6.8,4.8,19C93,51.6,91.4,53,88.7,54.4z"/>
							<g id="Group-149_1_" transform="translate(203.000000, -0.000000)">
								<g id="Clip-148_1_">
								</g>
							</g>
							<path class="st0" d="M88.7,165.2V99c7.5-4.7,19-5.6,25.2-7.1c9.4-2.3,4.7,24,2.8,33.1c-1.9,9.2-6.1,12.2-14.4,27.3
								C97.3,161.4,92.5,164.7,88.7,165.2z"/>
							<g id="Group-190_1_" transform="translate(163.000000, 905.000000)">
								<g id="Clip-189_1_">
								</g>
							</g>
							<path id="Fill-231_2_" class="st0" d="M131,76.5c1.7-5.7,11.9,5.7,15.9,2.6c4-3.2,7.1-11.2-2-25.5
								c-9.2-14.3-10.1-20-16.7-25.2c-6.6-5.3-25.9-19.3-27.3-8.2c-1.4,11.2-8,35.5,3.3,42c11.2,6.6,21.5,12.3,21.4,14.3
								C125.3,78.6,129.2,82.3,131,76.5L131,76.5z"/>
						</g>
					</g>
				</g>
			</g>
		</g>
	</g>
</g>
</svg>
