<?xml version="1.0" encoding="utf-8"?>
<!-- Generator: Adobe Illustrator 21.0.2, SVG Export Plug-In . SVG Version: 6.00 Build 0)  -->
<svg version="1.1" id="Layer_1" xmlns="http://www.w3.org/2000/svg" xmlns:xlink="http://www.w3.org/1999/xlink" x="0px" y="0px"
	 width="5448.6px" height="436.9px" viewBox="0 0 5448.6 436.9" style="enable-background:new 0 0 5448.6 436.9;"
	 xml:space="preserve">
<style type="text/css">
	.st0{fill:#EBEAEB;}
</style>
<title>Group 261</title>
<desc>Created with Sketch.</desc>
<title>Group 261</title>
<desc>Created with Sketch.</desc>
<g>
	<g id="_x30_.0---Homepage_4_">
		<g id="PhoenixZoo-Homepage_V3.0_4_" transform="translate(-77.000000, -1459.000000)">
			<g id="Critters_4_" transform="translate(73.000000, 1459.000000)">
				<g id="stone-pattern_4_">
					
						<g id="Group-261_4_" transform="translate(479.500000, 221.500000) rotate(-90.000000) translate(-479.500000, -221.500000) translate(258.000000, -258.000000)">
						<g id="Group-3_4_" transform="translate(0.000000, 175.000000)">
							<g id="Clip-2_4_">
							</g>
						</g>
						<path id="Fill-4_2_" class="st0" d="M44.6,70.3c0,0-45.8,13-37.6,53.8s69,68,85,66.7s59.1-12.1,56.9-39.9
							c-2.2-27.8,5-59.5-38.7-74.3C66.6,61.8,44.6,70.3,44.6,70.3L44.6,70.3z"/>
						<path id="Fill-12_2_" class="st0" d="M201.2,112.3c19.3,5.1,61.2,13.1,66.7,44.8c5.5,31.8,5,45.3-12.7,55.6
							c-17.6,10.3-66.2,8.9-77.2-13.1s-20.2-47.2-17.6-69.5C163,107.6,201.2,112.3,201.2,112.3L201.2,112.3z"/>
						<path id="Fill-20_2_" class="st0" d="M278.5,457.4c-8.2,19.4-21.5,61.6-67,65.7s-64.8,3-78.6-15.5
							c-13.8-18.4-9.6-67.7,22.2-77.9s68.1-18.4,99.9-14.7C286.9,418.9,278.5,457.4,278.5,457.4L278.5,457.4z"/>
						<path id="Fill-28_2_" class="st0" d="M209.2,38.2c7.5,7.1,21.6,33.5,8.1,51s-41.4,21.5-55.7,14.7c-14.3-6.8-25.9-22-29.2-35.8
							c-3.2-13.8,8.6-40.4,27-43.2C177.9,22.2,195.7,25.4,209.2,38.2L209.2,38.2z"/>
						<path id="Fill-36_2_" class="st0" d="M266.4,36.1c1.7,11,12.8,11.9,5.8,28c-7,16-7.4,28.2-24.6,19.6
							c-17.2-8.7-17.8-30.8-16.9-36.5c0.9-5.7,12.8-18,21.7-17.6C261.4,30,266.4,36.1,266.4,36.1L266.4,36.1z"/>
						<path class="st0" d="M119.6,29.6C108.5,24,104.3,12.8,103,4h43.2c-0.3,1.8-1,3.8-2,6.1C137.3,26.1,136.8,38.3,119.6,29.6z"/>
						<path id="Fill-60_2_" class="st0" d="M102.4,560.3c0,0-28.4,33.2,6.4,62.2c34.8,29.1,103.1,21.3,115.2,12.3s39.8-39,18.9-60.5
							s-37-50.9-82.7-41.4C114.5,542.5,102.4,560.3,102.4,560.3L102.4,560.3z"/>
						<path id="Fill-68_2_" class="st0" d="M276.4,516.7c1.7,11,12.8,11.9,5.8,28c-7,16-7.4,28.2-24.6,19.6
							c-17.2-8.7-17.8-30.8-16.9-36.5s12.8-18,21.7-17.6C271.4,510.7,276.4,516.7,276.4,516.7L276.4,516.7z"/>
						<g id="Group-84_4_" transform="translate(276.500000, 53.500000)">
							<g id="Clip-83_4_">
							</g>
						</g>
						<path class="st0" d="M300,79.5c-23.7-4.7-18.6-24.6-18.6-58.4c0-5.9,0.5-11.6,1.2-17.1h128.1c33.3,23.7,13.1,54.3-0.3,61.3
							c-13.5,7.1-36.1,3.3-53.5,11.4C339.5,84.7,323.7,84.2,300,79.5z"/>
						<path id="Fill-93_2_" class="st0" d="M222.2,249.9c-2,1.6-14.4,17.8-19.8,38c-5.4,20.2-11.1,31.6-0.1,36.7
							c10.9,5.1,18.7,6.8,28.6,3.7c9.9-3.2,20.5,1.2,28.3-1.7c7.8-3,22.8-19.4,9.8-36.7c-12.9-17.3-12.4-14.9-18.3-23.7
							C244.8,257.2,231.8,242.3,222.2,249.9L222.2,249.9z"/>
						<path id="Fill-103_2_" class="st0" d="M416.8,711.9c1.8-1.3,13.3-14.8,19.1-32.1c5.8-17.3,11.3-27,2.3-31.8
							c-9-4.9-15.5-6.7-24.1-4.4s-17.3-2-24.1,0.3c-6.8,2.2-20.5,15.9-10.5,31.5s9.7,13.4,14.1,21.4
							C398,704.6,408.2,718.1,416.8,711.9L416.8,711.9z"/>
						<path id="Fill-109_2_" class="st0" d="M87.2,625.7c-2,1.6-14.4,17.8-19.8,38s-11.1,31.6-0.1,36.7c10.9,5.1,18.7,6.8,28.6,3.7
							c9.9-3.2,20.5,1.2,28.3-1.7c7.8-3,22.8-19.4,9.8-36.7c-12.9-17.3-12.4-14.9-18.3-23.7C109.8,632.9,96.8,618.1,87.2,625.7
							L87.2,625.7z"/>
						<path id="Fill-119_2_" class="st0" d="M318.9,91.4c-17.8-1.6-28.7-5.9-40,0s-12.2,26-4.2,34.7s13.6,17,35.3,11.5
							c21.6-5.5,36.2-11.8,45.6-9.5s23.5-18.2,10.8-25C353.7,96.4,342.8,93.5,318.9,91.4L318.9,91.4z"/>
						<path id="Fill-125_2_" class="st0" d="M270.8,728.3c39.2-3.8,65,1.1,86-16.1s11.6-61-10.5-76.6s-39-31.3-82.4-10.6
							s-71.2,40-92.8,38.8c-21.5-1.3-40.3,48.8-9.1,58.2C193.1,731.4,218.3,733.4,270.8,728.3L270.8,728.3z"/>
						<path id="Fill-133_2_" class="st0" d="M200.9,261.3c0.5-13.9-0.5-18.6-17-33.9s-5.7-22.6-27.3-24.4
							c-21.6-1.7-29.3-11.3-31.4,13.5s-3.6,35.7,10.3,44.8C149.5,270.5,200.4,277,200.9,261.3L200.9,261.3z"/>
						<path class="st0" d="M50.6,54.5c-13.9-9.1-12.3-20-10.3-44.8c0.2-2.1,0.4-4,0.7-5.7h46.5c1.9,3.9,3.6,9.4,11.4,16.7
							c16.5,15.3,17.4,20,17,33.9C115.4,70.1,64.5,63.6,50.6,54.5z"/>
						<g id="Group-149_4_" transform="translate(203.000000, -0.000000)">
							<g id="Clip-148_4_">
							</g>
						</g>
						<path id="Fill-150_1_" class="st0" d="M284.9,798.9c0.5-13.9-0.5-18.6-17-33.9c-16.5-15.3-5.7-22.6-27.3-24.4
							c-21.6-1.7-29.3-11.3-31.4,13.5c-2.1,24.8-3.6,35.7,10.3,44.8C233.5,808.1,284.4,814.6,284.9,798.9L284.9,798.9z"/>
						<path id="Fill-158_2_" class="st0" d="M357.9,526.1c0.5-13.9-0.5-18.6-17-33.9s-5.7-22.6-27.3-24.4
							c-21.6-1.7-29.3-11.3-31.4,13.5s-3.6,35.7,10.3,44.8C306.4,535.2,357.4,541.8,357.9,526.1L357.9,526.1z"/>
						<path class="st0" d="M223.8,22.4c-0.9-2.7-22.5-4.5-46.4-6.7c-8.2-0.8-13.7-5.4-17.6-11.7h107.1c0.5,4-1,7.5-3.2,10
							c-5.5,6.3-30-2.9-30,5.4C233.7,27.7,224.7,25,223.8,22.4z"/>
						<path id="Fill-174_2_" class="st0" d="M292.5,438c-6.9-8.2-18-36.9-1.1-53.4s47.1-17.6,61.3-9.1c14.1,8.5,24.3,25.5,25.7,40.1
							c1.4,14.6-15.2,40.7-35.1,41.6C323.4,458,305,452.7,292.5,438L292.5,438z"/>
						<path id="Fill-182_2_" class="st0" d="M323.9,556.5c0.7,7.2-3,31.7-16.2,44.4s-27.9,11.8-31.9,3.9c-4-7.9-3.5-22.6,0.4-34.8
							s19.9-32.9,29.6-32.4S322.6,543.5,323.9,556.5L323.9,556.5z"/>
						<g id="Group-190_4_" transform="translate(163.000000, 905.000000)">
							<g id="Clip-189_4_">
							</g>
						</g>
						<path id="Fill-191_2_" class="st0" d="M192.5,797.6c8.6,0.6,36.7,7.9,49.4,21.1c12.7,13.1,9.1,25.2-0.9,27.1
							c-10,2-27.2-1-40.8-6.3s-35.2-22.2-33-30.2C169.4,801.4,177,796.4,192.5,797.6L192.5,797.6z"/>
						<path id="Fill-199_2_" class="st0" d="M145.3,366.9c20.7-9.7,15-26.5,51.5-27c36.5-0.6,61-8,55.3,22.7
							c-5.6,30.7-49.1,46.2-61.1,48.7c-11.9,2.5-44.4-6.6-49.5-19.8C136.5,378.3,145.3,366.9,145.3,366.9L145.3,366.9z"/>
						<path id="Fill-207_2_" class="st0" d="M301.3,758.6c20.7-9.7,15-26.5,51.5-27c36.5-0.6,61-8,55.3,22.7
							C402.5,785,359,800.5,347,803c-11.9,2.5-44.4-6.6-49.5-19.8C292.5,769.9,301.3,758.6,301.3,758.6L301.3,758.6z"/>
						<path id="Fill-215_2_" class="st0" d="M342.1,297.5c-9.7,0.2,0.4-20.8-7.2-25.3s-21.9-5.1-37,16c-15.2,21.1-23,25.3-26.3,38
							s-11.1,48.8,6.8,45.3c17.9-3.6,59.1-5.9,61.1-26.2s3.5-38.7,6.6-39.5S352.1,297.3,342.1,297.5L342.1,297.5z"/>
						<path id="Fill-223_2_" class="st0" d="M167.2,786.5c-1.4-10.6,24.4-1.4,28.8-10s3.5-24.3-22.8-39
							c-26.3-14.8-32.1-22.9-47.3-25.4c-15.2-2.5-58.4-7.9-52.2,11.2c6.2,19.2,13.5,63.8,37.4,64.2c24,0.4,45.6,0.5,46.9,3.9
							C159.2,794.9,168.6,797.4,167.2,786.5L167.2,786.5z"/>
						<path id="Fill-225_2_" class="st0" d="M103.5,435.7c0,0,34.4,0.5,31.3-21.9c-3.1-22.4-45.5-46.2-57.3-48s-44-3.1-44.4,11.6
							s-8,30.1,22.8,44.6C86.7,436.6,103.5,435.7,103.5,435.7L103.5,435.7z"/>
						<path id="Fill-239_2_" class="st0" d="M251.5,253.9c0,0,33.7,34.2,59.3,2.2c25.5-32,80-75,61.5-90.2s-36.5-40.2-61.8-12.8
							s-33,67.3-46,69.8C251.3,225.4,240.6,245.5,251.5,253.9L251.5,253.9z"/>
						<path id="Fill-247_2_" class="st0" d="M72.1,231.9c0,0-46.9,20.8-15,48.9c31.9,28,70.5,82.4,92.1,70.2s54.4-21.9,27.9-48.7
							c-26.5-26.9-71.4-41.7-71.6-53.1C105.4,237.8,84.2,224.6,72.1,231.9L72.1,231.9z"/>
						<path id="Fill-255_2_" class="st0" d="M374.7,833.5c0,0,3.6-25.4-23.7-24.3c-27.3,1.1-72.5-5.6-72.6,7.1
							c-0.1,12.7-5.5,28.6,19.3,29.1s48.7-10.4,55.5-6.1C360,843.6,374.9,840.8,374.7,833.5L374.7,833.5z"/>
					</g>
				</g>
			</g>
		</g>
	</g>
	<g id="_x30_.0---Homepage_3_">
		<g id="PhoenixZoo-Homepage_V3.0_3_" transform="translate(-77.000000, -1459.000000)">
			<g id="Critters_3_" transform="translate(73.000000, 1459.000000)">
				<g id="stone-pattern_3_">
					
						<g id="Group-261_3_" transform="translate(479.500000, 221.500000) rotate(-90.000000) translate(-479.500000, -221.500000) translate(258.000000, -258.000000)">
						<g id="Group-3_3_" transform="translate(0.000000, 175.000000)">
							<g id="Clip-2_3_">
							</g>
						</g>
						<path class="st0" d="M146.2,912.1H103c-0.7-4.8-0.6-8.9-0.3-10.9c0.9-5.7,12.8-18,21.8-17.6c8.9,0.4,13.9,6.6,13.9,6.6
							C139.8,899.6,148.2,901.6,146.2,912.1z"/>
						<g id="Group-84_3_" transform="translate(276.500000, 53.500000)">
							<g id="Clip-83_3_">
							</g>
						</g>
						<path class="st0" d="M410.6,912.1h-128c3.8-26.2,14.9-46.9,17.4-49.5c14.7-15.2,47.3,4.7,63.1,17
							c15.8,12.3,13.5,8.5,47.3,32.2C410.5,911.9,410.5,912,410.6,912.1z"/>
						<path class="st0" d="M87.5,912.1H41c2.8-17.4,11-9.3,30.7-7.7C83,905.2,85.3,907.7,87.5,912.1z"/>
						<g id="Group-149_3_" transform="translate(203.000000, -0.000000)">
							<g id="Clip-148_3_">
							</g>
						</g>
						<path class="st0" d="M266.9,912.1H159.8c-7.6-12.2-9-30.8-11.5-40.8c-3.7-15.2,38.8-7.6,53.6-4.5c14.9,3.1,19.7,9.9,44.1,23.3
							C260.7,898.2,266.1,905.9,266.9,912.1z"/>
						<g id="Group-190_3_" transform="translate(163.000000, 905.000000)">
							<g id="Clip-189_3_">
							</g>
						</g>
						<path id="Fill-231_1_" class="st0" d="M123.4,843.7c-9.2-2.8,9.3-19.2,4.2-25.7s-18.1-11.5-41.3,3.3
							c-23.2,14.9-32.3,16.4-40.8,27.1s-31.3,41.9-13.2,44.1c18.2,2.2,57.5,12.9,68-5.3c10.6-18.2,19.9-34.8,23.2-34.6
							C126.8,852.9,132.8,846.6,123.4,843.7L123.4,843.7z"/>
					</g>
				</g>
			</g>
		</g>
	</g>
</g>
<g>
	<g id="_x30_.0---Homepage_2_">
		<g id="PhoenixZoo-Homepage_V3.0_2_" transform="translate(-77.000000, -1459.000000)">
			<g id="Critters_2_" transform="translate(73.000000, 1459.000000)">
				<g id="stone-pattern_2_">
					
						<g id="Group-261_2_" transform="translate(479.500000, 221.500000) rotate(-90.000000) translate(-479.500000, -221.500000) translate(258.000000, -258.000000)">
						<g id="Group-3_2_" transform="translate(0.000000, 175.000000)">
							<g id="Clip-2_2_">
							</g>
						</g>
						<path id="Fill-4_1_" class="st0" d="M44.6,978.4c0,0-45.8,13-37.6,53.8c8.2,40.8,69,68,85,66.7c16-1.3,59.1-12.1,56.9-39.9
							c-2.2-27.8,5-59.5-38.7-74.3C66.6,969.9,44.6,978.4,44.6,978.4L44.6,978.4z"/>
						<path id="Fill-12_1_" class="st0" d="M201.2,1020.4c19.3,5.1,61.2,13.1,66.7,44.8c5.5,31.8,5,45.3-12.7,55.6
							c-17.6,10.3-66.2,8.9-77.2-13.1s-20.2-47.2-17.6-69.5C163,1015.7,201.2,1020.4,201.2,1020.4L201.2,1020.4z"/>
						<path id="Fill-20_1_" class="st0" d="M278.5,1365.5c-8.2,19.4-21.5,61.6-67,65.7s-64.8,3-78.6-15.5
							c-13.8-18.4-9.6-67.7,22.2-77.9c31.8-10.2,68.1-18.4,99.9-14.7C286.9,1327,278.5,1365.5,278.5,1365.5L278.5,1365.5z"/>
						<path id="Fill-28_1_" class="st0" d="M209.2,946.3c7.5,7.1,21.6,33.5,8.1,51s-41.4,21.5-55.7,14.7
							c-14.3-6.8-25.9-22-29.2-35.8c-3.2-13.8,8.6-40.4,27-43.2C177.9,930.3,195.7,933.5,209.2,946.3L209.2,946.3z"/>
						<path id="Fill-36_1_" class="st0" d="M266.4,944.2c1.7,11,12.8,11.9,5.8,28c-7,16-7.4,28.2-24.6,19.6
							c-17.2-8.7-17.8-30.8-16.9-36.5c0.9-5.7,12.8-18,21.7-17.6C261.4,938.1,266.4,944.2,266.4,944.2L266.4,944.2z"/>
						<path class="st0" d="M119.6,937.7c-11.1-5.6-15.3-16.8-16.6-25.6h43.2c-0.3,1.8-1,3.8-2,6.1
							C137.3,934.2,136.8,946.4,119.6,937.7z"/>
						<path id="Fill-60_1_" class="st0" d="M102.4,1468.4c0,0-28.4,33.2,6.4,62.2c34.8,29.1,103.1,21.3,115.2,12.3
							s39.8-39,18.9-60.5s-37-50.9-82.7-41.4C114.5,1450.6,102.4,1468.4,102.4,1468.4L102.4,1468.4z"/>
						<path id="Fill-68_1_" class="st0" d="M276.4,1424.8c1.7,11,12.8,11.9,5.8,28c-7,16-7.4,28.2-24.6,19.6
							c-17.2-8.7-17.8-30.8-16.9-36.5c0.9-5.7,12.8-18,21.7-17.6C271.4,1418.8,276.4,1424.8,276.4,1424.8L276.4,1424.8z"/>
						<g id="Group-84_2_" transform="translate(276.500000, 53.500000)">
							<g id="Clip-83_2_">
							</g>
						</g>
						<path class="st0" d="M300,987.6c-23.7-4.7-18.6-24.6-18.6-58.4c0-5.9,0.5-11.6,1.2-17.1h128.1c33.3,23.7,13.1,54.3-0.3,61.3
							c-13.5,7.1-36.1,3.3-53.5,11.4C339.5,992.8,323.7,992.3,300,987.6z"/>
						<path id="Fill-93_1_" class="st0" d="M222.2,1158c-2,1.6-14.4,17.8-19.8,38c-5.4,20.2-11.1,31.6-0.1,36.7
							c10.9,5.1,18.7,6.8,28.6,3.7c9.9-3.2,20.5,1.2,28.3-1.7c7.8-3,22.8-19.4,9.8-36.7c-12.9-17.3-12.4-14.9-18.3-23.7
							C244.8,1165.3,231.8,1150.4,222.2,1158L222.2,1158z"/>
						<path id="Fill-103_1_" class="st0" d="M416.8,1620c1.8-1.3,13.3-14.8,19.1-32.1c5.8-17.3,11.3-27,2.3-31.8
							c-9-4.9-15.5-6.7-24.1-4.4c-8.6,2.3-17.3-2-24.1,0.3c-6.8,2.2-20.5,15.9-10.5,31.5s9.7,13.4,14.1,21.4
							C398,1612.7,408.2,1626.2,416.8,1620L416.8,1620z"/>
						<path id="Fill-109_1_" class="st0" d="M87.2,1533.8c-2,1.6-14.4,17.8-19.8,38c-5.4,20.2-11.1,31.6-0.1,36.7
							c10.9,5.1,18.7,6.8,28.6,3.7c9.9-3.2,20.5,1.2,28.3-1.7c7.8-3,22.8-19.4,9.8-36.7c-12.9-17.3-12.4-14.9-18.3-23.7
							C109.8,1541,96.8,1526.2,87.2,1533.8L87.2,1533.8z"/>
						<path id="Fill-119_1_" class="st0" d="M318.9,999.5c-17.8-1.6-28.7-5.9-40,0c-11.3,5.9-12.2,26-4.2,34.7
							c8,8.7,13.6,17,35.3,11.5c21.6-5.5,36.2-11.8,45.6-9.5c9.4,2.3,23.5-18.2,10.8-25C353.7,1004.5,342.8,1001.6,318.9,999.5
							L318.9,999.5z"/>
						<path id="Fill-125_1_" class="st0" d="M270.8,1636.4c39.2-3.8,65,1.1,86-16.1s11.6-61-10.5-76.6s-39-31.3-82.4-10.6
							c-43.4,20.7-71.2,40-92.8,38.8c-21.5-1.3-40.3,48.8-9.1,58.2C193.1,1639.5,218.3,1641.5,270.8,1636.4L270.8,1636.4z"/>
						<path id="Fill-133_1_" class="st0" d="M200.9,1169.4c0.5-13.9-0.5-18.6-17-33.9c-16.5-15.3-5.7-22.6-27.3-24.4
							c-21.6-1.7-29.3-11.3-31.4,13.5s-3.6,35.7,10.3,44.8C149.5,1178.6,200.4,1185.1,200.9,1169.4L200.9,1169.4z"/>
						<path class="st0" d="M50.6,962.6c-13.9-9.1-12.3-20-10.3-44.8c0.2-2.1,0.4-4,0.7-5.7h46.5c1.9,3.9,3.6,9.4,11.4,16.7
							c16.5,15.3,17.4,20,17,33.9C115.4,978.2,64.5,971.7,50.6,962.6z"/>
						<g id="Group-149_2_" transform="translate(203.000000, -0.000000)">
							<g id="Clip-148_2_">
							</g>
						</g>
						<path id="Fill-150_2_" class="st0" d="M284.9,1707c0.5-13.9-0.5-18.6-17-33.9c-16.5-15.3-5.7-22.6-27.3-24.4
							c-21.6-1.7-29.3-11.3-31.4,13.5c-2.1,24.8-3.6,35.7,10.3,44.8C233.5,1716.2,284.4,1722.7,284.9,1707L284.9,1707z"/>
						<path id="Fill-158_1_" class="st0" d="M357.9,1434.2c0.5-13.9-0.5-18.6-17-33.9c-16.5-15.3-5.7-22.6-27.3-24.4
							c-21.6-1.7-29.3-11.3-31.4,13.5c-2.1,24.8-3.6,35.7,10.3,44.8C306.4,1443.3,357.4,1449.9,357.9,1434.2L357.9,1434.2z"/>
						<path class="st0" d="M223.8,930.5c-0.9-2.7-22.5-4.5-46.4-6.7c-8.2-0.8-13.7-5.4-17.6-11.7h107.1c0.5,4-1,7.5-3.2,10
							c-5.5,6.3-30-2.9-30,5.4C233.7,935.8,224.7,933.1,223.8,930.5z"/>
						<path id="Fill-174_1_" class="st0" d="M292.5,1346.1c-6.9-8.2-18-36.9-1.1-53.4s47.1-17.6,61.3-9.1
							c14.1,8.5,24.3,25.5,25.7,40.1c1.4,14.6-15.2,40.7-35.1,41.6C323.4,1366.1,305,1360.8,292.5,1346.1L292.5,1346.1z"/>
						<path id="Fill-182_1_" class="st0" d="M323.9,1464.6c0.7,7.2-3,31.7-16.2,44.4c-13.2,12.7-27.9,11.8-31.9,3.9
							s-3.5-22.6,0.4-34.8c3.9-12.2,19.9-32.9,29.6-32.4S322.6,1451.6,323.9,1464.6L323.9,1464.6z"/>
						<g id="Group-190_2_" transform="translate(163.000000, 905.000000)">
							<g id="Clip-189_2_">
							</g>
						</g>
						<path id="Fill-191_1_" class="st0" d="M192.5,1705.7c8.6,0.6,36.7,7.9,49.4,21.1c12.7,13.1,9.1,25.2-0.9,27.1
							c-10,2-27.2-1-40.8-6.3c-13.6-5.3-35.2-22.2-33-30.2C169.4,1709.5,177,1704.5,192.5,1705.7L192.5,1705.7z"/>
						<path id="Fill-199_1_" class="st0" d="M145.3,1275c20.7-9.7,15-26.5,51.5-27c36.5-0.6,61-8,55.3,22.7
							c-5.6,30.7-49.1,46.2-61.1,48.7c-11.9,2.5-44.4-6.6-49.5-19.8C136.5,1286.4,145.3,1275,145.3,1275L145.3,1275z"/>
						<path id="Fill-207_1_" class="st0" d="M301.3,1666.7c20.7-9.7,15-26.5,51.5-27c36.5-0.6,61-8,55.3,22.7
							c-5.6,30.7-49.1,46.2-61.1,48.7c-11.9,2.5-44.4-6.6-49.5-19.8C292.5,1678,301.3,1666.7,301.3,1666.7L301.3,1666.7z"/>
						<path id="Fill-215_1_" class="st0" d="M342.1,1205.6c-9.7,0.2,0.4-20.8-7.2-25.3s-21.9-5.1-37,16c-15.2,21.1-23,25.3-26.3,38
							c-3.3,12.7-11.1,48.8,6.8,45.3c17.9-3.6,59.1-5.9,61.1-26.2c2-20.3,3.5-38.7,6.6-39.5C349.2,1213.1,352.1,1205.4,342.1,1205.6
							L342.1,1205.6z"/>
						<path id="Fill-223_1_" class="st0" d="M167.2,1694.6c-1.4-10.6,24.4-1.4,28.8-10s3.5-24.3-22.8-39
							c-26.3-14.8-32.1-22.9-47.3-25.4c-15.2-2.5-58.4-7.9-52.2,11.2c6.2,19.2,13.5,63.8,37.4,64.2c24,0.4,45.6,0.5,46.9,3.9
							C159.2,1703,168.6,1705.5,167.2,1694.6L167.2,1694.6z"/>
						<path id="Fill-225_1_" class="st0" d="M103.5,1343.8c0,0,34.4,0.5,31.3-21.9c-3.1-22.4-45.5-46.2-57.3-48
							c-11.8-1.8-44-3.1-44.4,11.6c-0.4,14.7-8,30.1,22.8,44.6C86.7,1344.7,103.5,1343.8,103.5,1343.8L103.5,1343.8z"/>
						<path id="Fill-239_1_" class="st0" d="M251.5,1162c0,0,33.7,34.2,59.3,2.2c25.5-32,80-75,61.5-90.2s-36.5-40.2-61.8-12.8
							c-25.3,27.4-33,67.3-46,69.8C251.3,1133.5,240.6,1153.6,251.5,1162L251.5,1162z"/>
						<path id="Fill-247_1_" class="st0" d="M72.1,1140c0,0-46.9,20.8-15,48.9c31.9,28,70.5,82.4,92.1,70.2s54.4-21.9,27.9-48.7
							c-26.5-26.9-71.4-41.7-71.6-53.1C105.4,1145.9,84.2,1132.7,72.1,1140L72.1,1140z"/>
						<path id="Fill-255_1_" class="st0" d="M374.7,1741.6c0,0,3.6-25.4-23.7-24.3c-27.3,1.1-72.5-5.6-72.6,7.1s-5.5,28.6,19.3,29.1
							s48.7-10.4,55.5-6.1C360,1751.7,374.9,1748.9,374.7,1741.6L374.7,1741.6z"/>
					</g>
				</g>
			</g>
		</g>
	</g>
	<g id="_x30_.0---Homepage_1_">
		<g id="PhoenixZoo-Homepage_V3.0_1_" transform="translate(-77.000000, -1459.000000)">
			<g id="Critters_1_" transform="translate(73.000000, 1459.000000)">
				<g id="stone-pattern_1_">
					
						<g id="Group-261_1_" transform="translate(479.500000, 221.500000) rotate(-90.000000) translate(-479.500000, -221.500000) translate(258.000000, -258.000000)">
						<g id="Group-3_1_" transform="translate(0.000000, 175.000000)">
							<g id="Clip-2_1_">
							</g>
						</g>
						<path class="st0" d="M146.2,1820.2H103c-0.7-4.8-0.6-8.9-0.3-10.9c0.9-5.7,12.8-18,21.8-17.6c8.9,0.4,13.9,6.6,13.9,6.6
							C139.8,1807.7,148.2,1809.7,146.2,1820.2z"/>
						<g id="Group-84_1_" transform="translate(276.500000, 53.500000)">
							<g id="Clip-83_1_">
							</g>
						</g>
						<path class="st0" d="M410.6,1820.2h-128c3.8-26.2,14.9-46.9,17.4-49.5c14.7-15.2,47.3,4.7,63.1,17
							c15.8,12.3,13.5,8.5,47.3,32.2C410.5,1820,410.5,1820.1,410.6,1820.2z"/>
						<path class="st0" d="M87.5,1820.2H41c2.8-17.4,11-9.3,30.7-7.7C83,1813.3,85.3,1815.8,87.5,1820.2z"/>
						<g id="Group-149_1_" transform="translate(203.000000, -0.000000)">
							<g id="Clip-148_1_">
							</g>
						</g>
						<path class="st0" d="M266.9,1820.2H159.8c-7.6-12.2-9-30.8-11.5-40.8c-3.7-15.2,38.8-7.6,53.6-4.5
							c14.9,3.1,19.7,9.9,44.1,23.3C260.7,1806.3,266.1,1814,266.9,1820.2z"/>
						<g id="Group-190_1_" transform="translate(163.000000, 905.000000)">
							<g id="Clip-189_1_">
							</g>
						</g>
						<path id="Fill-231_2_" class="st0" d="M123.4,1751.8c-9.2-2.8,9.3-19.2,4.2-25.7s-18.1-11.5-41.3,3.3
							c-23.2,14.9-32.3,16.4-40.8,27.1s-31.3,41.9-13.2,44.1c18.2,2.2,57.5,12.9,68-5.3c10.6-18.2,19.9-34.8,23.2-34.6
							C126.8,1761,132.8,1754.7,123.4,1751.8L123.4,1751.8z"/>
					</g>
				</g>
			</g>
		</g>
	</g>
</g>
<g>
	<g id="_x30_.0---Homepage_6_">
		<g id="PhoenixZoo-Homepage_V3.0_6_" transform="translate(-77.000000, -1459.000000)">
			<g id="Critters_6_" transform="translate(73.000000, 1459.000000)">
				<g id="stone-pattern_6_">
					
						<g id="Group-261_6_" transform="translate(479.500000, 221.500000) rotate(-90.000000) translate(-479.500000, -221.500000) translate(258.000000, -258.000000)">
						<g id="Group-3_6_" transform="translate(0.000000, 175.000000)">
							<g id="Clip-2_6_">
							</g>
						</g>
						<path id="Fill-4_3_" class="st0" d="M44.6,1886.5c0,0-45.8,13-37.6,53.8c8.2,40.8,69,68,85,66.7c16-1.3,59.1-12.1,56.9-39.9
							c-2.2-27.8,5-59.5-38.7-74.3C66.6,1878,44.6,1886.5,44.6,1886.5L44.6,1886.5z"/>
						<path id="Fill-12_3_" class="st0" d="M201.2,1928.5c19.3,5.1,61.2,13.1,66.7,44.8c5.5,31.8,5,45.3-12.7,55.6
							c-17.6,10.3-66.2,8.9-77.2-13.1s-20.2-47.2-17.6-69.5C163,1923.8,201.2,1928.5,201.2,1928.5L201.2,1928.5z"/>
						<path id="Fill-20_3_" class="st0" d="M278.5,2273.6c-8.2,19.4-21.5,61.6-67,65.7c-45.5,4.1-64.8,3-78.6-15.5
							c-13.8-18.4-9.6-67.7,22.2-77.9s68.1-18.4,99.9-14.7C286.9,2235.1,278.5,2273.6,278.5,2273.6L278.5,2273.6z"/>
						<path id="Fill-28_3_" class="st0" d="M209.2,1854.4c7.5,7.1,21.6,33.5,8.1,51s-41.4,21.5-55.7,14.7
							c-14.3-6.8-25.9-22-29.2-35.8c-3.2-13.8,8.6-40.4,27-43.2C177.9,1838.4,195.7,1841.6,209.2,1854.4L209.2,1854.4z"/>
						<path id="Fill-36_3_" class="st0" d="M266.4,1852.3c1.7,11,12.8,11.9,5.8,28c-7,16-7.4,28.2-24.6,19.6
							c-17.2-8.7-17.8-30.8-16.9-36.5c0.9-5.7,12.8-18,21.7-17.6C261.4,1846.2,266.4,1852.3,266.4,1852.3L266.4,1852.3z"/>
						<path class="st0" d="M119.6,1845.8c-11.1-5.6-15.3-16.8-16.6-25.6h43.2c-0.3,1.8-1,3.8-2,6.1
							C137.3,1842.3,136.8,1854.5,119.6,1845.8z"/>
						<path id="Fill-60_3_" class="st0" d="M102.4,2376.5c0,0-28.4,33.2,6.4,62.2c34.8,29.1,103.1,21.3,115.2,12.3
							s39.8-39,18.9-60.5s-37-50.9-82.7-41.4C114.5,2358.7,102.4,2376.5,102.4,2376.5L102.4,2376.5z"/>
						<path id="Fill-68_3_" class="st0" d="M276.4,2332.9c1.7,11,12.8,11.9,5.8,28c-7,16-7.4,28.2-24.6,19.6
							c-17.2-8.7-17.8-30.8-16.9-36.5s12.8-18,21.7-17.6C271.4,2326.9,276.4,2332.9,276.4,2332.9L276.4,2332.9z"/>
						<g id="Group-84_6_" transform="translate(276.500000, 53.500000)">
							<g id="Clip-83_6_">
							</g>
						</g>
						<path class="st0" d="M300,1895.7c-23.7-4.7-18.6-24.6-18.6-58.4c0-5.9,0.5-11.6,1.2-17.1h128.1c33.3,23.7,13.1,54.3-0.3,61.3
							c-13.5,7.1-36.1,3.3-53.5,11.4C339.5,1900.9,323.7,1900.4,300,1895.7z"/>
						<path id="Fill-93_3_" class="st0" d="M222.2,2066.1c-2,1.6-14.4,17.8-19.8,38c-5.4,20.2-11.1,31.6-0.1,36.7
							c10.9,5.1,18.7,6.8,28.6,3.7c9.9-3.2,20.5,1.2,28.3-1.7c7.8-3,22.8-19.4,9.8-36.7c-12.9-17.3-12.4-14.9-18.3-23.7
							C244.8,2073.4,231.8,2058.5,222.2,2066.1L222.2,2066.1z"/>
						<path id="Fill-103_3_" class="st0" d="M416.8,2528.1c1.8-1.3,13.3-14.8,19.1-32.1c5.8-17.3,11.3-27,2.3-31.8
							c-9-4.9-15.5-6.7-24.1-4.4s-17.3-2-24.1,0.3c-6.8,2.2-20.5,15.9-10.5,31.5c10,15.6,9.7,13.4,14.1,21.4
							C398,2520.8,408.2,2534.3,416.8,2528.1L416.8,2528.1z"/>
						<path id="Fill-109_3_" class="st0" d="M87.2,2441.9c-2,1.6-14.4,17.8-19.8,38c-5.4,20.2-11.1,31.6-0.1,36.7
							c10.9,5.1,18.7,6.8,28.6,3.7c9.9-3.2,20.5,1.2,28.3-1.7c7.8-3,22.8-19.4,9.8-36.7c-12.9-17.3-12.4-14.9-18.3-23.7
							C109.8,2449.1,96.8,2434.3,87.2,2441.9L87.2,2441.9z"/>
						<path id="Fill-119_3_" class="st0" d="M318.9,1907.6c-17.8-1.6-28.7-5.9-40,0s-12.2,26-4.2,34.7c8,8.7,13.6,17,35.3,11.5
							c21.6-5.5,36.2-11.8,45.6-9.5c9.4,2.3,23.5-18.2,10.8-25C353.7,1912.6,342.8,1909.7,318.9,1907.6L318.9,1907.6z"/>
						<path id="Fill-125_3_" class="st0" d="M270.8,2544.5c39.2-3.8,65,1.1,86-16.1s11.6-61-10.5-76.6c-22.1-15.6-39-31.3-82.4-10.6
							c-43.4,20.7-71.2,40-92.8,38.8c-21.5-1.3-40.3,48.8-9.1,58.2C193.1,2547.6,218.3,2549.6,270.8,2544.5L270.8,2544.5z"/>
						<path id="Fill-133_3_" class="st0" d="M200.9,2077.5c0.5-13.9-0.5-18.6-17-33.9c-16.5-15.3-5.7-22.6-27.3-24.4
							c-21.6-1.7-29.3-11.3-31.4,13.5s-3.6,35.7,10.3,44.8C149.5,2086.7,200.4,2093.2,200.9,2077.5L200.9,2077.5z"/>
						<path class="st0" d="M50.6,1870.7c-13.9-9.1-12.3-20-10.3-44.8c0.2-2.1,0.4-4,0.7-5.7h46.5c1.9,3.9,3.6,9.4,11.4,16.7
							c16.5,15.3,17.4,20,17,33.9C115.4,1886.3,64.5,1879.8,50.6,1870.7z"/>
						<g id="Group-149_6_" transform="translate(203.000000, -0.000000)">
							<g id="Clip-148_6_">
							</g>
						</g>
						<path id="Fill-150_3_" class="st0" d="M284.9,2615.1c0.5-13.9-0.5-18.6-17-33.9s-5.7-22.6-27.3-24.4
							c-21.6-1.7-29.3-11.3-31.4,13.5c-2.1,24.8-3.6,35.7,10.3,44.8C233.5,2624.3,284.4,2630.8,284.9,2615.1L284.9,2615.1z"/>
						<path id="Fill-158_3_" class="st0" d="M357.9,2342.3c0.5-13.9-0.5-18.6-17-33.9s-5.7-22.6-27.3-24.4
							c-21.6-1.7-29.3-11.3-31.4,13.5s-3.6,35.7,10.3,44.8C306.4,2351.4,357.4,2358,357.9,2342.3L357.9,2342.3z"/>
						<path class="st0" d="M223.8,1838.6c-0.9-2.7-22.5-4.5-46.4-6.7c-8.2-0.8-13.7-5.4-17.6-11.7h107.1c0.5,4-1,7.5-3.2,10
							c-5.5,6.3-30-2.9-30,5.4C233.7,1843.9,224.7,1841.2,223.8,1838.6z"/>
						<path id="Fill-174_3_" class="st0" d="M292.5,2254.2c-6.9-8.2-18-36.9-1.1-53.4s47.1-17.6,61.3-9.1
							c14.1,8.5,24.3,25.5,25.7,40.1c1.4,14.6-15.2,40.7-35.1,41.6C323.4,2274.2,305,2268.9,292.5,2254.2L292.5,2254.2z"/>
						<path id="Fill-182_3_" class="st0" d="M323.9,2372.7c0.7,7.2-3,31.7-16.2,44.4c-13.2,12.7-27.9,11.8-31.9,3.9
							s-3.5-22.6,0.4-34.8c3.9-12.2,19.9-32.9,29.6-32.4S322.6,2359.7,323.9,2372.7L323.9,2372.7z"/>
						<g id="Group-190_6_" transform="translate(163.000000, 905.000000)">
							<g id="Clip-189_6_">
							</g>
						</g>
						<path id="Fill-191_3_" class="st0" d="M192.5,2613.8c8.6,0.6,36.7,7.9,49.4,21.1c12.7,13.1,9.1,25.2-0.9,27.1
							c-10,2-27.2-1-40.8-6.3s-35.2-22.2-33-30.2C169.4,2617.6,177,2612.6,192.5,2613.8L192.5,2613.8z"/>
						<path id="Fill-199_3_" class="st0" d="M145.3,2183.1c20.7-9.7,15-26.5,51.5-27c36.5-0.6,61-8,55.3,22.7
							c-5.6,30.7-49.1,46.2-61.1,48.7c-11.9,2.5-44.4-6.6-49.5-19.8C136.5,2194.5,145.3,2183.1,145.3,2183.1L145.3,2183.1z"/>
						<path id="Fill-207_3_" class="st0" d="M301.3,2574.8c20.7-9.7,15-26.5,51.5-27c36.5-0.6,61-8,55.3,22.7
							c-5.6,30.7-49.1,46.2-61.1,48.7c-11.9,2.5-44.4-6.6-49.5-19.8C292.5,2586.1,301.3,2574.8,301.3,2574.8L301.3,2574.8z"/>
						<path id="Fill-215_3_" class="st0" d="M342.1,2113.7c-9.7,0.2,0.4-20.8-7.2-25.3s-21.9-5.1-37,16c-15.2,21.1-23,25.3-26.3,38
							c-3.3,12.7-11.1,48.8,6.8,45.3c17.9-3.6,59.1-5.9,61.1-26.2s3.5-38.7,6.6-39.5S352.1,2113.5,342.1,2113.7L342.1,2113.7z"/>
						<path id="Fill-223_3_" class="st0" d="M167.2,2602.7c-1.4-10.6,24.4-1.4,28.8-10c4.4-8.6,3.5-24.3-22.8-39
							c-26.3-14.8-32.1-22.9-47.3-25.4c-15.2-2.5-58.4-7.9-52.2,11.2c6.2,19.2,13.5,63.8,37.4,64.2c24,0.4,45.6,0.5,46.9,3.9
							C159.2,2611.1,168.6,2613.6,167.2,2602.7L167.2,2602.7z"/>
						<path id="Fill-225_3_" class="st0" d="M103.5,2251.9c0,0,34.4,0.5,31.3-21.9c-3.1-22.4-45.5-46.2-57.3-48s-44-3.1-44.4,11.6
							c-0.4,14.7-8,30.1,22.8,44.6C86.7,2252.8,103.5,2251.9,103.5,2251.9L103.5,2251.9z"/>
						<path id="Fill-239_3_" class="st0" d="M251.5,2070.1c0,0,33.7,34.2,59.3,2.2c25.5-32,80-75,61.5-90.2s-36.5-40.2-61.8-12.8
							c-25.3,27.4-33,67.3-46,69.8C251.3,2041.6,240.6,2061.7,251.5,2070.1L251.5,2070.1z"/>
						<path id="Fill-247_3_" class="st0" d="M72.1,2048.1c0,0-46.9,20.8-15,48.9c31.9,28,70.5,82.4,92.1,70.2s54.4-21.9,27.9-48.7
							c-26.5-26.9-71.4-41.7-71.6-53.1C105.4,2054,84.2,2040.8,72.1,2048.1L72.1,2048.1z"/>
						<path id="Fill-255_3_" class="st0" d="M374.7,2649.7c0,0,3.6-25.4-23.7-24.3c-27.3,1.1-72.5-5.6-72.6,7.1s-5.5,28.6,19.3,29.1
							s48.7-10.4,55.5-6.1C360,2659.8,374.9,2657,374.7,2649.7L374.7,2649.7z"/>
					</g>
				</g>
			</g>
		</g>
	</g>
	<g id="_x30_.0---Homepage_5_">
		<g id="PhoenixZoo-Homepage_V3.0_5_" transform="translate(-77.000000, -1459.000000)">
			<g id="Critters_5_" transform="translate(73.000000, 1459.000000)">
				<g id="stone-pattern_5_">
					
						<g id="Group-261_5_" transform="translate(479.500000, 221.500000) rotate(-90.000000) translate(-479.500000, -221.500000) translate(258.000000, -258.000000)">
						<g id="Group-3_5_" transform="translate(0.000000, 175.000000)">
							<g id="Clip-2_5_">
							</g>
						</g>
						<path class="st0" d="M146.2,2728.3H103c-0.7-4.8-0.6-8.9-0.3-10.9c0.9-5.7,12.8-18,21.8-17.6c8.9,0.4,13.9,6.6,13.9,6.6
							C139.8,2715.8,148.2,2717.8,146.2,2728.3z"/>
						<g id="Group-84_5_" transform="translate(276.500000, 53.500000)">
							<g id="Clip-83_5_">
							</g>
						</g>
						<path class="st0" d="M410.6,2728.3h-128c3.8-26.2,14.9-46.9,17.4-49.5c14.7-15.2,47.3,4.7,63.1,17
							c15.8,12.3,13.5,8.5,47.3,32.2C410.5,2728.1,410.5,2728.2,410.6,2728.3z"/>
						<path class="st0" d="M87.5,2728.3H41c2.8-17.4,11-9.3,30.7-7.7C83,2721.4,85.3,2723.9,87.5,2728.3z"/>
						<g id="Group-149_5_" transform="translate(203.000000, -0.000000)">
							<g id="Clip-148_5_">
							</g>
						</g>
						<path class="st0" d="M266.9,2728.3H159.8c-7.6-12.2-9-30.8-11.5-40.8c-3.7-15.2,38.8-7.6,53.6-4.5
							c14.9,3.1,19.7,9.9,44.1,23.3C260.7,2714.4,266.1,2722.1,266.9,2728.3z"/>
						<g id="Group-190_5_" transform="translate(163.000000, 905.000000)">
							<g id="Clip-189_5_">
							</g>
						</g>
						<path id="Fill-231_3_" class="st0" d="M123.4,2659.9c-9.2-2.8,9.3-19.2,4.2-25.7s-18.1-11.5-41.3,3.3
							c-23.2,14.9-32.3,16.4-40.8,27.1s-31.3,41.9-13.2,44.1c18.2,2.2,57.5,12.9,68-5.3c10.6-18.2,19.9-34.8,23.2-34.6
							C126.8,2669.1,132.8,2662.8,123.4,2659.9L123.4,2659.9z"/>
					</g>
				</g>
			</g>
		</g>
	</g>
</g>
<g>
	<g id="_x30_.0---Homepage_8_">
		<g id="PhoenixZoo-Homepage_V3.0_8_" transform="translate(-77.000000, -1459.000000)">
			<g id="Critters_8_" transform="translate(73.000000, 1459.000000)">
				<g id="stone-pattern_8_">
					
						<g id="Group-261_8_" transform="translate(479.500000, 221.500000) rotate(-90.000000) translate(-479.500000, -221.500000) translate(258.000000, -258.000000)">
						<g id="Group-3_8_" transform="translate(0.000000, 175.000000)">
							<g id="Clip-2_8_">
							</g>
						</g>
						<path id="Fill-4_4_" class="st0" d="M44.6,2794.6c0,0-45.8,13-37.6,53.8s69,68,85,66.7c16-1.3,59.1-12.1,56.9-39.9
							c-2.2-27.8,5-59.5-38.7-74.3C66.6,2786.1,44.6,2794.6,44.6,2794.6L44.6,2794.6z"/>
						<path id="Fill-12_4_" class="st0" d="M201.2,2836.6c19.3,5.1,61.2,13.1,66.7,44.8c5.5,31.8,5,45.3-12.7,55.6
							c-17.6,10.3-66.2,8.9-77.2-13.1s-20.2-47.2-17.6-69.5C163,2831.9,201.2,2836.6,201.2,2836.6L201.2,2836.6z"/>
						<path id="Fill-20_4_" class="st0" d="M278.5,3181.7c-8.2,19.4-21.5,61.6-67,65.7c-45.5,4.1-64.8,3-78.6-15.5
							c-13.8-18.4-9.6-67.7,22.2-77.9s68.1-18.4,99.9-14.7C286.9,3143.2,278.5,3181.7,278.5,3181.7L278.5,3181.7z"/>
						<path id="Fill-28_4_" class="st0" d="M209.2,2762.5c7.5,7.1,21.6,33.5,8.1,51s-41.4,21.5-55.7,14.7
							c-14.3-6.8-25.9-22-29.2-35.8c-3.2-13.8,8.6-40.4,27-43.2C177.9,2746.5,195.7,2749.7,209.2,2762.5L209.2,2762.5z"/>
						<path id="Fill-36_4_" class="st0" d="M266.4,2760.4c1.7,11,12.8,11.9,5.8,28c-7,16-7.4,28.2-24.6,19.6
							c-17.2-8.7-17.8-30.8-16.9-36.5c0.9-5.7,12.8-18,21.7-17.6C261.4,2754.3,266.4,2760.4,266.4,2760.4L266.4,2760.4z"/>
						<path class="st0" d="M119.6,2753.9c-11.1-5.6-15.3-16.8-16.6-25.6h43.2c-0.3,1.8-1,3.8-2,6.1
							C137.3,2750.4,136.8,2762.6,119.6,2753.9z"/>
						<path id="Fill-60_4_" class="st0" d="M102.4,3284.6c0,0-28.4,33.2,6.4,62.2c34.8,29.1,103.1,21.3,115.2,12.3
							s39.8-39,18.9-60.5s-37-50.9-82.7-41.4C114.5,3266.8,102.4,3284.6,102.4,3284.6L102.4,3284.6z"/>
						<path id="Fill-68_4_" class="st0" d="M276.4,3241c1.7,11,12.8,11.9,5.8,28c-7,16-7.4,28.2-24.6,19.6
							c-17.2-8.7-17.8-30.8-16.9-36.5c0.9-5.7,12.8-18,21.7-17.6C271.4,3235,276.4,3241,276.4,3241L276.4,3241z"/>
						<g id="Group-84_8_" transform="translate(276.500000, 53.500000)">
							<g id="Clip-83_8_">
							</g>
						</g>
						<path class="st0" d="M300,2803.8c-23.7-4.7-18.6-24.6-18.6-58.4c0-5.9,0.5-11.6,1.2-17.1h128.1c33.3,23.7,13.1,54.3-0.3,61.3
							c-13.5,7.1-36.1,3.3-53.5,11.4C339.5,2809,323.7,2808.5,300,2803.8z"/>
						<path id="Fill-93_4_" class="st0" d="M222.2,2974.2c-2,1.6-14.4,17.8-19.8,38c-5.4,20.2-11.1,31.6-0.1,36.7
							c10.9,5.1,18.7,6.8,28.6,3.7c9.9-3.2,20.5,1.2,28.3-1.7c7.8-3,22.8-19.4,9.8-36.7c-12.9-17.3-12.4-14.9-18.3-23.7
							C244.8,2981.5,231.8,2966.6,222.2,2974.2L222.2,2974.2z"/>
						<path id="Fill-103_4_" class="st0" d="M416.8,3436.2c1.8-1.3,13.3-14.8,19.1-32.1c5.8-17.3,11.3-27,2.3-31.8
							c-9-4.9-15.5-6.7-24.1-4.4c-8.6,2.3-17.3-2-24.1,0.3c-6.8,2.2-20.5,15.9-10.5,31.5c10,15.6,9.7,13.4,14.1,21.4
							C398,3428.9,408.2,3442.4,416.8,3436.2L416.8,3436.2z"/>
						<path id="Fill-109_4_" class="st0" d="M87.2,3350c-2,1.6-14.4,17.8-19.8,38s-11.1,31.6-0.1,36.7c10.9,5.1,18.7,6.8,28.6,3.7
							c9.9-3.2,20.5,1.2,28.3-1.7c7.8-3,22.8-19.4,9.8-36.7c-12.9-17.3-12.4-14.9-18.3-23.7C109.8,3357.2,96.8,3342.4,87.2,3350
							L87.2,3350z"/>
						<path id="Fill-119_4_" class="st0" d="M318.9,2815.7c-17.8-1.6-28.7-5.9-40,0s-12.2,26-4.2,34.7s13.6,17,35.3,11.5
							c21.6-5.5,36.2-11.8,45.6-9.5s23.5-18.2,10.8-25C353.7,2820.7,342.8,2817.8,318.9,2815.7L318.9,2815.7z"/>
						<path id="Fill-125_4_" class="st0" d="M270.8,3452.6c39.2-3.8,65,1.1,86-16.1s11.6-61-10.5-76.6c-22.1-15.6-39-31.3-82.4-10.6
							s-71.2,40-92.8,38.8c-21.5-1.3-40.3,48.8-9.1,58.2C193.1,3455.7,218.3,3457.7,270.8,3452.6L270.8,3452.6z"/>
						<path id="Fill-133_4_" class="st0" d="M200.9,2985.6c0.5-13.9-0.5-18.6-17-33.9s-5.7-22.6-27.3-24.4
							c-21.6-1.7-29.3-11.3-31.4,13.5c-2.1,24.8-3.6,35.7,10.3,44.8C149.5,2994.8,200.4,3001.3,200.9,2985.6L200.9,2985.6z"/>
						<path class="st0" d="M50.6,2778.8c-13.9-9.1-12.3-20-10.3-44.8c0.2-2.1,0.4-4,0.7-5.7h46.5c1.9,3.9,3.6,9.4,11.4,16.7
							c16.5,15.3,17.4,20,17,33.9C115.4,2794.4,64.5,2787.9,50.6,2778.8z"/>
						<g id="Group-149_8_" transform="translate(203.000000, -0.000000)">
							<g id="Clip-148_8_">
							</g>
						</g>
						<path id="Fill-150_4_" class="st0" d="M284.9,3523.2c0.5-13.9-0.5-18.6-17-33.9s-5.7-22.6-27.3-24.4
							c-21.6-1.7-29.3-11.3-31.4,13.5c-2.1,24.8-3.6,35.7,10.3,44.8C233.5,3532.4,284.4,3538.9,284.9,3523.2L284.9,3523.2z"/>
						<path id="Fill-158_4_" class="st0" d="M357.9,3250.4c0.5-13.9-0.5-18.6-17-33.9c-16.5-15.3-5.7-22.6-27.3-24.4
							c-21.6-1.7-29.3-11.3-31.4,13.5c-2.1,24.8-3.6,35.7,10.3,44.8C306.4,3259.5,357.4,3266.1,357.9,3250.4L357.9,3250.4z"/>
						<path class="st0" d="M223.8,2746.7c-0.9-2.7-22.5-4.5-46.4-6.7c-8.2-0.8-13.7-5.4-17.6-11.7h107.1c0.5,4-1,7.5-3.2,10
							c-5.5,6.3-30-2.9-30,5.4C233.7,2752,224.7,2749.3,223.8,2746.7z"/>
						<path id="Fill-174_4_" class="st0" d="M292.5,3162.3c-6.9-8.2-18-36.9-1.1-53.4s47.1-17.6,61.3-9.1
							c14.1,8.5,24.3,25.5,25.7,40.1c1.4,14.6-15.2,40.7-35.1,41.6C323.4,3182.3,305,3177,292.5,3162.3L292.5,3162.3z"/>
						<path id="Fill-182_4_" class="st0" d="M323.9,3280.8c0.7,7.2-3,31.7-16.2,44.4s-27.9,11.8-31.9,3.9c-4-7.9-3.5-22.6,0.4-34.8
							s19.9-32.9,29.6-32.4S322.6,3267.8,323.9,3280.8L323.9,3280.8z"/>
						<g id="Group-190_8_" transform="translate(163.000000, 905.000000)">
							<g id="Clip-189_8_">
							</g>
						</g>
						<path id="Fill-191_4_" class="st0" d="M192.5,3521.9c8.6,0.6,36.7,7.9,49.4,21.1c12.7,13.1,9.1,25.2-0.9,27.1
							c-10,2-27.2-1-40.8-6.3c-13.6-5.3-35.2-22.2-33-30.2C169.4,3525.7,177,3520.7,192.5,3521.9L192.5,3521.9z"/>
						<path id="Fill-199_4_" class="st0" d="M145.3,3091.2c20.7-9.7,15-26.5,51.5-27c36.5-0.6,61-8,55.3,22.7
							c-5.6,30.7-49.1,46.2-61.1,48.7c-11.9,2.5-44.4-6.6-49.5-19.8C136.5,3102.6,145.3,3091.2,145.3,3091.2L145.3,3091.2z"/>
						<path id="Fill-207_4_" class="st0" d="M301.3,3482.9c20.7-9.7,15-26.5,51.5-27c36.5-0.6,61-8,55.3,22.7
							c-5.6,30.7-49.1,46.2-61.1,48.7c-11.9,2.5-44.4-6.6-49.5-19.8C292.5,3494.2,301.3,3482.9,301.3,3482.9L301.3,3482.9z"/>
						<path id="Fill-215_4_" class="st0" d="M342.1,3021.8c-9.7,0.2,0.4-20.8-7.2-25.3s-21.9-5.1-37,16c-15.2,21.1-23,25.3-26.3,38
							s-11.1,48.8,6.8,45.3c17.9-3.6,59.1-5.9,61.1-26.2s3.5-38.7,6.6-39.5C349.2,3029.3,352.1,3021.6,342.1,3021.8L342.1,3021.8z"
							/>
						<path id="Fill-223_4_" class="st0" d="M167.2,3510.8c-1.4-10.6,24.4-1.4,28.8-10c4.4-8.6,3.5-24.3-22.8-39
							c-26.3-14.8-32.1-22.9-47.3-25.4c-15.2-2.5-58.4-7.9-52.2,11.2c6.2,19.2,13.5,63.8,37.4,64.2c24,0.4,45.6,0.5,46.9,3.9
							C159.2,3519.2,168.6,3521.7,167.2,3510.8L167.2,3510.8z"/>
						<path id="Fill-225_4_" class="st0" d="M103.5,3160c0,0,34.4,0.5,31.3-21.9c-3.1-22.4-45.5-46.2-57.3-48
							c-11.8-1.8-44-3.1-44.4,11.6s-8,30.1,22.8,44.6C86.7,3160.9,103.5,3160,103.5,3160L103.5,3160z"/>
						<path id="Fill-239_4_" class="st0" d="M251.5,2978.2c0,0,33.7,34.2,59.3,2.2c25.5-32,80-75,61.5-90.2s-36.5-40.2-61.8-12.8
							c-25.3,27.4-33,67.3-46,69.8C251.3,2949.7,240.6,2969.8,251.5,2978.2L251.5,2978.2z"/>
						<path id="Fill-247_4_" class="st0" d="M72.1,2956.2c0,0-46.9,20.8-15,48.9c31.9,28,70.5,82.4,92.1,70.2
							c21.6-12.2,54.4-21.9,27.9-48.7c-26.5-26.9-71.4-41.7-71.6-53.1C105.4,2962.1,84.2,2948.9,72.1,2956.2L72.1,2956.2z"/>
						<path id="Fill-255_4_" class="st0" d="M374.7,3557.8c0,0,3.6-25.4-23.7-24.3c-27.3,1.1-72.5-5.6-72.6,7.1
							c-0.1,12.7-5.5,28.6,19.3,29.1s48.7-10.4,55.5-6.1C360,3567.9,374.9,3565.1,374.7,3557.8L374.7,3557.8z"/>
					</g>
				</g>
			</g>
		</g>
	</g>
	<g id="_x30_.0---Homepage_7_">
		<g id="PhoenixZoo-Homepage_V3.0_7_" transform="translate(-77.000000, -1459.000000)">
			<g id="Critters_7_" transform="translate(73.000000, 1459.000000)">
				<g id="stone-pattern_7_">
					
						<g id="Group-261_7_" transform="translate(479.500000, 221.500000) rotate(-90.000000) translate(-479.500000, -221.500000) translate(258.000000, -258.000000)">
						<g id="Group-3_7_" transform="translate(0.000000, 175.000000)">
							<g id="Clip-2_7_">
							</g>
						</g>
						<path class="st0" d="M146.2,3636.4H103c-0.7-4.8-0.6-8.9-0.3-10.9c0.9-5.7,12.8-18,21.8-17.6c8.9,0.4,13.9,6.6,13.9,6.6
							C139.8,3623.9,148.2,3625.9,146.2,3636.4z"/>
						<g id="Group-84_7_" transform="translate(276.500000, 53.500000)">
							<g id="Clip-83_7_">
							</g>
						</g>
						<path class="st0" d="M410.6,3636.4h-128c3.8-26.2,14.9-46.9,17.4-49.5c14.7-15.2,47.3,4.7,63.1,17
							c15.8,12.3,13.5,8.5,47.3,32.2C410.5,3636.2,410.5,3636.3,410.6,3636.4z"/>
						<path class="st0" d="M87.5,3636.4H41c2.8-17.4,11-9.3,30.7-7.7C83,3629.5,85.3,3632,87.5,3636.4z"/>
						<g id="Group-149_7_" transform="translate(203.000000, -0.000000)">
							<g id="Clip-148_7_">
							</g>
						</g>
						<path class="st0" d="M266.9,3636.4H159.8c-7.6-12.2-9-30.8-11.5-40.8c-3.7-15.2,38.8-7.6,53.6-4.5
							c14.9,3.1,19.7,9.9,44.1,23.3C260.7,3622.5,266.1,3630.2,266.9,3636.4z"/>
						<g id="Group-190_7_" transform="translate(163.000000, 905.000000)">
							<g id="Clip-189_7_">
							</g>
						</g>
						<path id="Fill-231_4_" class="st0" d="M123.4,3568c-9.2-2.8,9.3-19.2,4.2-25.7s-18.1-11.5-41.3,3.3
							c-23.2,14.9-32.3,16.4-40.8,27.1s-31.3,41.9-13.2,44.1c18.2,2.2,57.5,12.9,68-5.3c10.6-18.2,19.9-34.8,23.2-34.6
							C126.8,3577.2,132.8,3570.9,123.4,3568L123.4,3568z"/>
					</g>
				</g>
			</g>
		</g>
	</g>
</g>
<g>
	<g id="_x30_.0---Homepage_10_">
		<g id="PhoenixZoo-Homepage_V3.0_10_" transform="translate(-77.000000, -1459.000000)">
			<g id="Critters_10_" transform="translate(73.000000, 1459.000000)">
				<g id="stone-pattern_10_">
					
						<g id="Group-261_10_" transform="translate(479.500000, 221.500000) rotate(-90.000000) translate(-479.500000, -221.500000) translate(258.000000, -258.000000)">
						<g id="Group-3_10_" transform="translate(0.000000, 175.000000)">
							<g id="Clip-2_10_">
							</g>
						</g>
						<path id="Fill-4_5_" class="st0" d="M44.6,3702.7c0,0-45.8,13-37.6,53.8c8.2,40.8,69,68,85,66.7s59.1-12.1,56.9-39.9
							c-2.2-27.8,5-59.5-38.7-74.3C66.6,3694.2,44.6,3702.7,44.6,3702.7L44.6,3702.7z"/>
						<path id="Fill-12_5_" class="st0" d="M201.2,3744.7c19.3,5.1,61.2,13.1,66.7,44.8c5.5,31.8,5,45.3-12.7,55.6
							c-17.6,10.3-66.2,8.9-77.2-13.1s-20.2-47.2-17.6-69.5C163,3740,201.2,3744.7,201.2,3744.7L201.2,3744.7z"/>
						<path id="Fill-20_5_" class="st0" d="M278.5,4089.8c-8.2,19.4-21.5,61.6-67,65.7s-64.8,3-78.6-15.5
							c-13.8-18.4-9.6-67.7,22.2-77.9s68.1-18.4,99.9-14.7C286.9,4051.3,278.5,4089.8,278.5,4089.8L278.5,4089.8z"/>
						<path id="Fill-28_5_" class="st0" d="M209.2,3670.6c7.5,7.1,21.6,33.5,8.1,51s-41.4,21.5-55.7,14.7
							c-14.3-6.8-25.9-22-29.2-35.8c-3.2-13.8,8.6-40.4,27-43.2C177.9,3654.6,195.7,3657.8,209.2,3670.6L209.2,3670.6z"/>
						<path id="Fill-36_5_" class="st0" d="M266.4,3668.5c1.7,11,12.8,11.9,5.8,28c-7,16-7.4,28.2-24.6,19.6
							c-17.2-8.7-17.8-30.8-16.9-36.5c0.9-5.7,12.8-18,21.7-17.6C261.4,3662.4,266.4,3668.5,266.4,3668.5L266.4,3668.5z"/>
						<path class="st0" d="M119.6,3662c-11.1-5.6-15.3-16.8-16.6-25.6h43.2c-0.3,1.8-1,3.8-2,6.1
							C137.3,3658.5,136.8,3670.7,119.6,3662z"/>
						<path id="Fill-60_5_" class="st0" d="M102.4,4192.7c0,0-28.4,33.2,6.4,62.2c34.8,29.1,103.1,21.3,115.2,12.3
							s39.8-39,18.9-60.5s-37-50.9-82.7-41.4C114.5,4174.9,102.4,4192.7,102.4,4192.7L102.4,4192.7z"/>
						<path id="Fill-68_5_" class="st0" d="M276.4,4149.1c1.7,11,12.8,11.9,5.8,28c-7,16-7.4,28.2-24.6,19.6
							c-17.2-8.7-17.8-30.8-16.9-36.5c0.9-5.7,12.8-18,21.7-17.6C271.4,4143.1,276.4,4149.1,276.4,4149.1L276.4,4149.1z"/>
						<g id="Group-84_10_" transform="translate(276.500000, 53.500000)">
							<g id="Clip-83_10_">
							</g>
						</g>
						<path class="st0" d="M300,3711.9c-23.7-4.7-18.6-24.6-18.6-58.4c0-5.9,0.5-11.6,1.2-17.1h128.1c33.3,23.7,13.1,54.3-0.3,61.3
							c-13.5,7.1-36.1,3.3-53.5,11.4C339.5,3717.1,323.7,3716.6,300,3711.9z"/>
						<path id="Fill-93_5_" class="st0" d="M222.2,3882.3c-2,1.6-14.4,17.8-19.8,38c-5.4,20.2-11.1,31.6-0.1,36.7
							c10.9,5.1,18.7,6.8,28.6,3.7c9.9-3.2,20.5,1.2,28.3-1.7c7.8-3,22.8-19.4,9.8-36.7c-12.9-17.3-12.4-14.9-18.3-23.7
							C244.8,3889.6,231.8,3874.7,222.2,3882.3L222.2,3882.3z"/>
						<path id="Fill-103_5_" class="st0" d="M416.8,4344.3c1.8-1.3,13.3-14.8,19.1-32.1c5.8-17.3,11.3-27,2.3-31.8
							c-9-4.9-15.5-6.7-24.1-4.4s-17.3-2-24.1,0.3c-6.8,2.2-20.5,15.9-10.5,31.5c10,15.6,9.7,13.4,14.1,21.4
							C398,4337,408.2,4350.5,416.8,4344.3L416.8,4344.3z"/>
						<path id="Fill-109_5_" class="st0" d="M87.2,4258.1c-2,1.6-14.4,17.8-19.8,38c-5.4,20.2-11.1,31.6-0.1,36.7
							c10.9,5.1,18.7,6.8,28.6,3.7c9.9-3.2,20.5,1.2,28.3-1.7c7.8-3,22.8-19.4,9.8-36.7c-12.9-17.3-12.4-14.9-18.3-23.7
							C109.8,4265.3,96.8,4250.5,87.2,4258.1L87.2,4258.1z"/>
						<path id="Fill-119_5_" class="st0" d="M318.9,3723.8c-17.8-1.6-28.7-5.9-40,0c-11.3,5.9-12.2,26-4.2,34.7
							c8,8.7,13.6,17,35.3,11.5c21.6-5.5,36.2-11.8,45.6-9.5c9.4,2.3,23.5-18.2,10.8-25C353.7,3728.8,342.8,3725.9,318.9,3723.8
							L318.9,3723.8z"/>
						<path id="Fill-125_5_" class="st0" d="M270.8,4360.7c39.2-3.8,65,1.1,86-16.1c21-17.2,11.6-61-10.5-76.6s-39-31.3-82.4-10.6
							c-43.4,20.7-71.2,40-92.8,38.8c-21.5-1.3-40.3,48.8-9.1,58.2C193.1,4363.8,218.3,4365.8,270.8,4360.7L270.8,4360.7z"/>
						<path id="Fill-133_5_" class="st0" d="M200.9,3893.7c0.5-13.9-0.5-18.6-17-33.9c-16.5-15.3-5.7-22.6-27.3-24.4
							c-21.6-1.7-29.3-11.3-31.4,13.5s-3.6,35.7,10.3,44.8C149.5,3902.9,200.4,3909.4,200.9,3893.7L200.9,3893.7z"/>
						<path class="st0" d="M50.6,3686.9c-13.9-9.1-12.3-20-10.3-44.8c0.2-2.1,0.4-4,0.7-5.7h46.5c1.9,3.9,3.6,9.4,11.4,16.7
							c16.5,15.3,17.4,20,17,33.9C115.4,3702.5,64.5,3696,50.6,3686.9z"/>
						<g id="Group-149_10_" transform="translate(203.000000, -0.000000)">
							<g id="Clip-148_10_">
							</g>
						</g>
						<path id="Fill-150_5_" class="st0" d="M284.9,4431.3c0.5-13.9-0.5-18.6-17-33.9c-16.5-15.3-5.7-22.6-27.3-24.4
							c-21.6-1.7-29.3-11.3-31.4,13.5c-2.1,24.8-3.6,35.7,10.3,44.8C233.5,4440.5,284.4,4447,284.9,4431.3L284.9,4431.3z"/>
						<path id="Fill-158_5_" class="st0" d="M357.9,4158.5c0.5-13.9-0.5-18.6-17-33.9c-16.5-15.3-5.7-22.6-27.3-24.4
							c-21.6-1.7-29.3-11.3-31.4,13.5c-2.1,24.8-3.6,35.7,10.3,44.8S357.4,4174.2,357.9,4158.5L357.9,4158.5z"/>
						<path class="st0" d="M223.8,3654.8c-0.9-2.7-22.5-4.5-46.4-6.7c-8.2-0.8-13.7-5.4-17.6-11.7h107.1c0.5,4-1,7.5-3.2,10
							c-5.5,6.3-30-2.9-30,5.4C233.7,3660.1,224.7,3657.4,223.8,3654.8z"/>
						<path id="Fill-174_5_" class="st0" d="M292.5,4070.4c-6.9-8.2-18-36.9-1.1-53.4s47.1-17.6,61.3-9.1
							c14.1,8.5,24.3,25.5,25.7,40.1c1.4,14.6-15.2,40.7-35.1,41.6C323.4,4090.4,305,4085.1,292.5,4070.4L292.5,4070.4z"/>
						<path id="Fill-182_5_" class="st0" d="M323.9,4188.9c0.7,7.2-3,31.7-16.2,44.4c-13.2,12.7-27.9,11.8-31.9,3.9
							c-4-7.9-3.5-22.6,0.4-34.8c3.9-12.2,19.9-32.9,29.6-32.4S322.6,4175.9,323.9,4188.9L323.9,4188.9z"/>
						<g id="Group-190_10_" transform="translate(163.000000, 905.000000)">
							<g id="Clip-189_10_">
							</g>
						</g>
						<path id="Fill-191_5_" class="st0" d="M192.5,4430c8.6,0.6,36.7,7.9,49.4,21.1c12.7,13.1,9.1,25.2-0.9,27.1
							c-10,2-27.2-1-40.8-6.3s-35.2-22.2-33-30.2C169.4,4433.8,177,4428.8,192.5,4430L192.5,4430z"/>
						<path id="Fill-199_5_" class="st0" d="M145.3,3999.3c20.7-9.7,15-26.5,51.5-27c36.5-0.6,61-8,55.3,22.7
							c-5.6,30.7-49.1,46.2-61.1,48.7c-11.9,2.5-44.4-6.6-49.5-19.8C136.5,4010.7,145.3,3999.3,145.3,3999.3L145.3,3999.3z"/>
						<path id="Fill-207_5_" class="st0" d="M301.3,4391c20.7-9.7,15-26.5,51.5-27c36.5-0.6,61-8,55.3,22.7
							c-5.6,30.7-49.1,46.2-61.1,48.7c-11.9,2.5-44.4-6.6-49.5-19.8C292.5,4402.3,301.3,4391,301.3,4391L301.3,4391z"/>
						<path id="Fill-215_5_" class="st0" d="M342.1,3929.9c-9.7,0.2,0.4-20.8-7.2-25.3s-21.9-5.1-37,16c-15.2,21.1-23,25.3-26.3,38
							c-3.3,12.7-11.1,48.8,6.8,45.3c17.9-3.6,59.1-5.9,61.1-26.2s3.5-38.7,6.6-39.5S352.1,3929.7,342.1,3929.9L342.1,3929.9z"/>
						<path id="Fill-223_5_" class="st0" d="M167.2,4418.9c-1.4-10.6,24.4-1.4,28.8-10s3.5-24.3-22.8-39
							c-26.3-14.8-32.1-22.9-47.3-25.4c-15.2-2.5-58.4-7.9-52.2,11.2c6.2,19.2,13.5,63.8,37.4,64.2c24,0.4,45.6,0.5,46.9,3.9
							C159.2,4427.3,168.6,4429.8,167.2,4418.9L167.2,4418.9z"/>
						<path id="Fill-225_5_" class="st0" d="M103.5,4068.1c0,0,34.4,0.5,31.3-21.9c-3.1-22.4-45.5-46.2-57.3-48s-44-3.1-44.4,11.6
							c-0.4,14.7-8,30.1,22.8,44.6C86.7,4069,103.5,4068.1,103.5,4068.1L103.5,4068.1z"/>
						<path id="Fill-239_5_" class="st0" d="M251.5,3886.3c0,0,33.7,34.2,59.3,2.2c25.5-32,80-75,61.5-90.2
							c-18.5-15.2-36.5-40.2-61.8-12.8c-25.3,27.4-33,67.3-46,69.8C251.3,3857.8,240.6,3877.9,251.5,3886.3L251.5,3886.3z"/>
						<path id="Fill-247_5_" class="st0" d="M72.1,3864.3c0,0-46.9,20.8-15,48.9c31.9,28,70.5,82.4,92.1,70.2s54.4-21.9,27.9-48.7
							c-26.5-26.9-71.4-41.7-71.6-53.1C105.4,3870.2,84.2,3857,72.1,3864.3L72.1,3864.3z"/>
						<path id="Fill-255_5_" class="st0" d="M374.7,4465.9c0,0,3.6-25.4-23.7-24.3c-27.3,1.1-72.5-5.6-72.6,7.1
							c-0.1,12.7-5.5,28.6,19.3,29.1s48.7-10.4,55.5-6.1C360,4476,374.9,4473.2,374.7,4465.9L374.7,4465.9z"/>
					</g>
				</g>
			</g>
		</g>
	</g>
	<g id="_x30_.0---Homepage_9_">
		<g id="PhoenixZoo-Homepage_V3.0_9_" transform="translate(-77.000000, -1459.000000)">
			<g id="Critters_9_" transform="translate(73.000000, 1459.000000)">
				<g id="stone-pattern_9_">
					
						<g id="Group-261_9_" transform="translate(479.500000, 221.500000) rotate(-90.000000) translate(-479.500000, -221.500000) translate(258.000000, -258.000000)">
						<g id="Group-3_9_" transform="translate(0.000000, 175.000000)">
							<g id="Clip-2_9_">
							</g>
						</g>
						<path class="st0" d="M146.2,4544.5H103c-0.7-4.8-0.6-8.9-0.3-10.9c0.9-5.7,12.8-18,21.8-17.6c8.9,0.4,13.9,6.6,13.9,6.6
							C139.8,4532,148.2,4534,146.2,4544.5z"/>
						<g id="Group-84_9_" transform="translate(276.500000, 53.500000)">
							<g id="Clip-83_9_">
							</g>
						</g>
						<path class="st0" d="M410.6,4544.5h-128c3.8-26.2,14.9-46.9,17.4-49.5c14.7-15.2,47.3,4.7,63.1,17
							c15.8,12.3,13.5,8.5,47.3,32.2C410.5,4544.3,410.5,4544.4,410.6,4544.5z"/>
						<path class="st0" d="M87.5,4544.5H41c2.8-17.4,11-9.3,30.7-7.7C83,4537.6,85.3,4540.1,87.5,4544.5z"/>
						<g id="Group-149_9_" transform="translate(203.000000, -0.000000)">
							<g id="Clip-148_9_">
							</g>
						</g>
						<path class="st0" d="M266.9,4544.5H159.8c-7.6-12.2-9-30.8-11.5-40.8c-3.7-15.2,38.8-7.6,53.6-4.5
							c14.9,3.1,19.7,9.9,44.1,23.3C260.7,4530.6,266.1,4538.3,266.9,4544.5z"/>
						<g id="Group-190_9_" transform="translate(163.000000, 905.000000)">
							<g id="Clip-189_9_">
							</g>
						</g>
						<path id="Fill-231_5_" class="st0" d="M123.4,4476.1c-9.2-2.8,9.3-19.2,4.2-25.7s-18.1-11.5-41.3,3.3
							c-23.2,14.9-32.3,16.4-40.8,27.1c-8.5,10.7-31.3,41.9-13.2,44.1c18.2,2.2,57.5,12.9,68-5.3c10.6-18.2,19.9-34.8,23.2-34.6
							C126.8,4485.3,132.8,4479,123.4,4476.1L123.4,4476.1z"/>
					</g>
				</g>
			</g>
		</g>
	</g>
</g>
<g>
	<g id="_x30_.0---Homepage_12_">
		<g id="PhoenixZoo-Homepage_V3.0_12_" transform="translate(-77.000000, -1459.000000)">
			<g id="Critters_12_" transform="translate(73.000000, 1459.000000)">
				<g id="stone-pattern_12_">
					
						<g id="Group-261_12_" transform="translate(479.500000, 221.500000) rotate(-90.000000) translate(-479.500000, -221.500000) translate(258.000000, -258.000000)">
						<g id="Group-3_12_" transform="translate(0.000000, 175.000000)">
							<g id="Clip-2_12_">
							</g>
						</g>
						<path id="Fill-4_6_" class="st0" d="M44.6,4610.8c0,0-45.8,13-37.6,53.8c8.2,40.8,69,68,85,66.7c16-1.3,59.1-12.1,56.9-39.9
							c-2.2-27.8,5-59.5-38.7-74.3C66.6,4602.3,44.6,4610.8,44.6,4610.8L44.6,4610.8z"/>
						<path id="Fill-12_6_" class="st0" d="M201.2,4652.8c19.3,5.1,61.2,13.1,66.7,44.8c5.5,31.8,5,45.3-12.7,55.6
							c-17.6,10.3-66.2,8.9-77.2-13.1s-20.2-47.2-17.6-69.5C163,4648.1,201.2,4652.8,201.2,4652.8L201.2,4652.8z"/>
						<path id="Fill-20_6_" class="st0" d="M278.5,4997.9c-8.2,19.4-21.5,61.6-67,65.7c-45.5,4.1-64.8,3-78.6-15.5
							c-13.8-18.4-9.6-67.7,22.2-77.9c31.8-10.2,68.1-18.4,99.9-14.7C286.9,4959.4,278.5,4997.9,278.5,4997.9L278.5,4997.9z"/>
						<path id="Fill-28_6_" class="st0" d="M209.2,4578.7c7.5,7.1,21.6,33.5,8.1,51s-41.4,21.5-55.7,14.7
							c-14.3-6.8-25.9-22-29.2-35.8c-3.2-13.8,8.6-40.4,27-43.2C177.9,4562.7,195.7,4565.9,209.2,4578.7L209.2,4578.7z"/>
						<path id="Fill-36_6_" class="st0" d="M266.4,4576.6c1.7,11,12.8,11.9,5.8,28c-7,16-7.4,28.2-24.6,19.6
							c-17.2-8.7-17.8-30.8-16.9-36.5c0.9-5.7,12.8-18,21.7-17.6C261.4,4570.5,266.4,4576.6,266.4,4576.6L266.4,4576.6z"/>
						<path class="st0" d="M119.6,4570.1c-11.1-5.6-15.3-16.8-16.6-25.6h43.2c-0.3,1.8-1,3.8-2,6.1
							C137.3,4566.6,136.8,4578.8,119.6,4570.1z"/>
						<path id="Fill-60_6_" class="st0" d="M102.4,5100.8c0,0-28.4,33.2,6.4,62.2c34.8,29.1,103.1,21.3,115.2,12.3
							s39.8-39,18.9-60.5s-37-50.9-82.7-41.4C114.5,5083,102.4,5100.8,102.4,5100.8L102.4,5100.8z"/>
						<path id="Fill-68_6_" class="st0" d="M276.4,5057.2c1.7,11,12.8,11.9,5.8,28c-7,16-7.4,28.2-24.6,19.6
							c-17.2-8.7-17.8-30.8-16.9-36.5c0.9-5.7,12.8-18,21.7-17.6C271.4,5051.2,276.4,5057.2,276.4,5057.2L276.4,5057.2z"/>
						<g id="Group-84_12_" transform="translate(276.500000, 53.500000)">
							<g id="Clip-83_12_">
							</g>
						</g>
						<path class="st0" d="M300,4620c-23.7-4.7-18.6-24.6-18.6-58.4c0-5.9,0.5-11.6,1.2-17.1h128.1c33.3,23.7,13.1,54.3-0.3,61.3
							c-13.5,7.1-36.1,3.3-53.5,11.4C339.5,4625.2,323.7,4624.7,300,4620z"/>
						<path id="Fill-93_6_" class="st0" d="M222.2,4790.4c-2,1.6-14.4,17.8-19.8,38c-5.4,20.2-11.1,31.6-0.1,36.7
							c10.9,5.1,18.7,6.8,28.6,3.7c9.9-3.2,20.5,1.2,28.3-1.7c7.8-3,22.8-19.4,9.8-36.7c-12.9-17.3-12.4-14.9-18.3-23.7
							C244.8,4797.7,231.8,4782.8,222.2,4790.4L222.2,4790.4z"/>
						<path id="Fill-103_6_" class="st0" d="M416.8,5252.4c1.8-1.3,13.3-14.8,19.1-32.1c5.8-17.3,11.3-27,2.3-31.8
							c-9-4.9-15.5-6.7-24.1-4.4c-8.6,2.3-17.3-2-24.1,0.3c-6.8,2.2-20.5,15.9-10.5,31.5s9.7,13.4,14.1,21.4
							C398,5245.1,408.2,5258.6,416.8,5252.4L416.8,5252.4z"/>
						<path id="Fill-109_6_" class="st0" d="M87.2,5166.2c-2,1.6-14.4,17.8-19.8,38c-5.4,20.2-11.1,31.6-0.1,36.7
							c10.9,5.1,18.7,6.8,28.6,3.7c9.9-3.2,20.5,1.2,28.3-1.7c7.8-3,22.8-19.4,9.8-36.7c-12.9-17.3-12.4-14.9-18.3-23.7
							C109.8,5173.4,96.8,5158.6,87.2,5166.2L87.2,5166.2z"/>
						<path id="Fill-119_6_" class="st0" d="M318.9,4631.9c-17.8-1.6-28.7-5.9-40,0s-12.2,26-4.2,34.7c8,8.7,13.6,17,35.3,11.5
							c21.6-5.5,36.2-11.8,45.6-9.5c9.4,2.3,23.5-18.2,10.8-25C353.7,4636.9,342.8,4634,318.9,4631.9L318.9,4631.9z"/>
						<path id="Fill-125_6_" class="st0" d="M270.8,5268.8c39.2-3.8,65,1.1,86-16.1c21-17.2,11.6-61-10.5-76.6
							c-22.1-15.6-39-31.3-82.4-10.6s-71.2,40-92.8,38.8c-21.5-1.3-40.3,48.8-9.1,58.2C193.1,5271.9,218.3,5273.9,270.8,5268.8
							L270.8,5268.8z"/>
						<path id="Fill-133_6_" class="st0" d="M200.9,4801.8c0.5-13.9-0.5-18.6-17-33.9s-5.7-22.6-27.3-24.4
							c-21.6-1.7-29.3-11.3-31.4,13.5c-2.1,24.8-3.6,35.7,10.3,44.8C149.5,4811,200.4,4817.5,200.9,4801.8L200.9,4801.8z"/>
						<path class="st0" d="M50.6,4595c-13.9-9.1-12.3-20-10.3-44.8c0.2-2.1,0.4-4,0.7-5.7h46.5c1.9,3.9,3.6,9.4,11.4,16.7
							c16.5,15.3,17.4,20,17,33.9C115.4,4610.6,64.5,4604.1,50.6,4595z"/>
						<g id="Group-149_12_" transform="translate(203.000000, -0.000000)">
							<g id="Clip-148_12_">
							</g>
						</g>
						<path id="Fill-150_6_" class="st0" d="M284.9,5339.4c0.5-13.9-0.5-18.6-17-33.9c-16.5-15.3-5.7-22.6-27.3-24.4
							c-21.6-1.7-29.3-11.3-31.4,13.5c-2.1,24.8-3.6,35.7,10.3,44.8C233.5,5348.6,284.4,5355.1,284.9,5339.4L284.9,5339.4z"/>
						<path id="Fill-158_6_" class="st0" d="M357.9,5066.6c0.5-13.9-0.5-18.6-17-33.9c-16.5-15.3-5.7-22.6-27.3-24.4
							c-21.6-1.7-29.3-11.3-31.4,13.5c-2.1,24.8-3.6,35.7,10.3,44.8C306.4,5075.7,357.4,5082.3,357.9,5066.6L357.9,5066.6z"/>
						<path class="st0" d="M223.8,4562.9c-0.9-2.7-22.5-4.5-46.4-6.7c-8.2-0.8-13.7-5.4-17.6-11.7h107.1c0.5,4-1,7.5-3.2,10
							c-5.5,6.3-30-2.9-30,5.4C233.7,4568.2,224.7,4565.5,223.8,4562.9z"/>
						<path id="Fill-174_6_" class="st0" d="M292.5,4978.5c-6.9-8.2-18-36.9-1.1-53.4s47.1-17.6,61.3-9.1
							c14.1,8.5,24.3,25.5,25.7,40.1c1.4,14.6-15.2,40.7-35.1,41.6C323.4,4998.5,305,4993.2,292.5,4978.5L292.5,4978.5z"/>
						<path id="Fill-182_6_" class="st0" d="M323.9,5097c0.7,7.2-3,31.7-16.2,44.4s-27.9,11.8-31.9,3.9s-3.5-22.6,0.4-34.8
							s19.9-32.9,29.6-32.4S322.6,5084,323.9,5097L323.9,5097z"/>
						<g id="Group-190_12_" transform="translate(163.000000, 905.000000)">
							<g id="Clip-189_12_">
							</g>
						</g>
						<path id="Fill-191_6_" class="st0" d="M192.5,5338.1c8.6,0.6,36.7,7.9,49.4,21.1c12.7,13.1,9.1,25.2-0.9,27.1
							c-10,2-27.2-1-40.8-6.3c-13.6-5.3-35.2-22.2-33-30.2C169.4,5341.9,177,5336.9,192.5,5338.1L192.5,5338.1z"/>
						<path id="Fill-199_6_" class="st0" d="M145.3,4907.4c20.7-9.7,15-26.5,51.5-27c36.5-0.6,61-8,55.3,22.7
							c-5.6,30.7-49.1,46.2-61.1,48.7c-11.9,2.5-44.4-6.6-49.5-19.8C136.5,4918.8,145.3,4907.4,145.3,4907.4L145.3,4907.4z"/>
						<path id="Fill-207_6_" class="st0" d="M301.3,5299.1c20.7-9.7,15-26.5,51.5-27c36.5-0.6,61-8,55.3,22.7
							c-5.6,30.7-49.1,46.2-61.1,48.7c-11.9,2.5-44.4-6.6-49.5-19.8C292.5,5310.4,301.3,5299.1,301.3,5299.1L301.3,5299.1z"/>
						<path id="Fill-215_6_" class="st0" d="M342.1,4838c-9.7,0.2,0.4-20.8-7.2-25.3s-21.9-5.1-37,16c-15.2,21.1-23,25.3-26.3,38
							c-3.3,12.7-11.1,48.8,6.8,45.3c17.9-3.6,59.1-5.9,61.1-26.2c2-20.3,3.5-38.7,6.6-39.5C349.2,4845.5,352.1,4837.8,342.1,4838
							L342.1,4838z"/>
						<path id="Fill-223_6_" class="st0" d="M167.2,5327c-1.4-10.6,24.4-1.4,28.8-10s3.5-24.3-22.8-39
							c-26.3-14.8-32.1-22.9-47.3-25.4c-15.2-2.5-58.4-7.9-52.2,11.2c6.2,19.2,13.5,63.8,37.4,64.2c24,0.4,45.6,0.5,46.9,3.9
							C159.2,5335.4,168.6,5337.9,167.2,5327L167.2,5327z"/>
						<path id="Fill-225_6_" class="st0" d="M103.5,4976.2c0,0,34.4,0.5,31.3-21.9c-3.1-22.4-45.5-46.2-57.3-48
							c-11.8-1.8-44-3.1-44.4,11.6s-8,30.1,22.8,44.6C86.7,4977.1,103.5,4976.2,103.5,4976.2L103.5,4976.2z"/>
						<path id="Fill-239_6_" class="st0" d="M251.5,4794.4c0,0,33.7,34.2,59.3,2.2c25.5-32,80-75,61.5-90.2s-36.5-40.2-61.8-12.8
							c-25.3,27.4-33,67.3-46,69.8C251.3,4765.9,240.6,4786,251.5,4794.4L251.5,4794.4z"/>
						<path id="Fill-247_6_" class="st0" d="M72.1,4772.4c0,0-46.9,20.8-15,48.9c31.9,28,70.5,82.4,92.1,70.2
							c21.6-12.2,54.4-21.9,27.9-48.7c-26.5-26.9-71.4-41.7-71.6-53.1C105.4,4778.3,84.2,4765.1,72.1,4772.4L72.1,4772.4z"/>
						<path id="Fill-255_6_" class="st0" d="M374.7,5374c0,0,3.6-25.4-23.7-24.3c-27.3,1.1-72.5-5.6-72.6,7.1
							c-0.1,12.7-5.5,28.6,19.3,29.1s48.7-10.4,55.5-6.1C360,5384.1,374.9,5381.3,374.7,5374L374.7,5374z"/>
					</g>
				</g>
			</g>
		</g>
	</g>
	<g id="_x30_.0---Homepage_11_">
		<g id="PhoenixZoo-Homepage_V3.0_11_" transform="translate(-77.000000, -1459.000000)">
			<g id="Critters_11_" transform="translate(73.000000, 1459.000000)">
				<g id="stone-pattern_11_">
					
						<g id="Group-261_11_" transform="translate(479.500000, 221.500000) rotate(-90.000000) translate(-479.500000, -221.500000) translate(258.000000, -258.000000)">
						<g id="Group-3_11_" transform="translate(0.000000, 175.000000)">
							<g id="Clip-2_11_">
							</g>
						</g>
						<path class="st0" d="M146.2,5452.6H103c-0.7-4.8-0.6-8.9-0.3-10.9c0.9-5.7,12.8-18,21.8-17.6c8.9,0.4,13.9,6.6,13.9,6.6
							C139.8,5440.1,148.2,5442.1,146.2,5452.6z"/>
						<g id="Group-84_11_" transform="translate(276.500000, 53.500000)">
							<g id="Clip-83_11_">
							</g>
						</g>
						<path class="st0" d="M410.6,5452.6h-128c3.8-26.2,14.9-46.9,17.4-49.5c14.7-15.2,47.3,4.7,63.1,17
							c15.8,12.3,13.5,8.5,47.3,32.2C410.5,5452.4,410.5,5452.5,410.6,5452.6z"/>
						<path class="st0" d="M87.5,5452.6H41c2.8-17.4,11-9.3,30.7-7.7C83,5445.7,85.3,5448.2,87.5,5452.6z"/>
						<g id="Group-149_11_" transform="translate(203.000000, -0.000000)">
							<g id="Clip-148_11_">
							</g>
						</g>
						<path class="st0" d="M266.9,5452.6H159.8c-7.6-12.2-9-30.8-11.5-40.8c-3.7-15.2,38.8-7.6,53.6-4.5
							c14.9,3.1,19.7,9.9,44.1,23.3C260.7,5438.7,266.1,5446.4,266.9,5452.6z"/>
						<g id="Group-190_11_" transform="translate(163.000000, 905.000000)">
							<g id="Clip-189_11_">
							</g>
						</g>
						<path id="Fill-231_6_" class="st0" d="M123.4,5384.2c-9.2-2.8,9.3-19.2,4.2-25.7s-18.1-11.5-41.3,3.3
							c-23.2,14.9-32.3,16.4-40.8,27.1c-8.5,10.7-31.3,41.9-13.2,44.1c18.2,2.2,57.5,12.9,68-5.3c10.6-18.2,19.9-34.8,23.2-34.6
							C126.8,5393.4,132.8,5387.1,123.4,5384.2L123.4,5384.2z"/>
					</g>
				</g>
			</g>
		</g>
	</g>
</g>
</svg>
