<?xml version="1.0" encoding="utf-8"?>
<!-- Generator: Adobe Illustrator 21.0.2, SVG Export Plug-In . SVG Version: 6.00 Build 0)  -->
<svg version="1.1" id="Layer_1" xmlns="http://www.w3.org/2000/svg" xmlns:xlink="http://www.w3.org/1999/xlink" x="0px" y="0px"
	 width="270px" height="561.1px" viewBox="0 0 270 561.1" style="enable-background:new 0 0 270 561.1;" xml:space="preserve">
<style type="text/css">
	.st0{fill:#EBEAEB;}
</style>
<title>Group 261</title>
<desc>Created with Sketch.</desc>
<title>Group 261</title>
<desc>Created with Sketch.</desc>
<g>
	<g id="_x30_.0---Homepage_4_">
		<g id="PhoenixZoo-Homepage_V3.0_4_" transform="translate(-77.000000, -1459.000000)">
			<g id="Critters_4_" transform="translate(73.000000, 1459.000000)">
				<g id="stone-pattern_4_">
					
						<g id="Group-261_4_" transform="translate(479.500000, 221.500000) rotate(-90.000000) translate(-479.500000, -221.500000) translate(258.000000, -258.000000)">
						<g id="Group-3_4_" transform="translate(0.000000, 175.000000)">
							<g id="Clip-2_4_">
							</g>
						</g>
						<path id="Fill-4_2_" class="st0" d="M402,27.8c0,0-8-28.3-33.2-23.2c-25.2,5.1-42,42.6-41.2,52.5s7.5,36.5,24.7,35.2
							c17.2-1.4,36.8,3.1,45.9-23.9C407.3,41.4,402,27.8,402,27.8L402,27.8z"/>
						<path id="Fill-12_2_" class="st0" d="M376.1,124.6c-3.2,11.9-8.1,37.8-27.7,41.2c-19.7,3.4-28,3.1-34.4-7.8
							c-6.4-10.9-5.5-40.9,8.1-47.7c13.6-6.8,29.2-12.5,42.9-10.9C379,101,376.1,124.6,376.1,124.6L376.1,124.6z"/>
						<path id="Fill-20_2_" class="st0" d="M162.9,172.4c-12-5.1-38.1-13.3-40.6-41.4c-2.5-28.1-1.9-40,9.6-48.6
							c11.4-8.5,41.8-5.9,48.1,13.7s11.4,42.1,9.1,61.7C186.7,177.6,162.9,172.4,162.9,172.4L162.9,172.4z"/>
						<path id="Fill-28_2_" class="st0" d="M421.9,129.6c-4.4,4.6-20.7,13.3-31.5,5c-10.8-8.3-13.3-25.6-9.1-34.4
							c4.2-8.8,13.6-16,22.1-18c8.5-2,25,5.3,26.7,16.7C431.8,110.2,429.8,121.2,421.9,129.6L421.9,129.6z"/>
						<path id="Fill-36_2_" class="st0" d="M423.2,164.9c-6.8,1.1-7.4,7.9-17.3,3.6c-9.9-4.3-17.4-4.6-12.1-15.2
							c5.4-10.6,19-11,22.6-10.4c3.5,0.6,11.1,7.9,10.9,13.4C426.9,161.8,423.2,164.9,423.2,164.9L423.2,164.9z"/>
						<path class="st0" d="M427.2,74.2c3.5-6.9,10.4-9.5,15.8-10.3v26.7c-1.1-0.2-2.3-0.6-3.8-1.2C429.3,85.1,421.8,84.8,427.2,74.2
							z"/>
						<path id="Fill-60_2_" class="st0" d="M99.3,63.6c0,0-20.5-17.5-38.4,4c-18,21.5-13.2,63.7-7.6,71.2s24.1,24.6,37.4,11.7
							c13.3-12.9,31.5-22.9,25.6-51.1C110.3,71,99.3,63.6,99.3,63.6L99.3,63.6z"/>
						<path id="Fill-68_2_" class="st0" d="M126.2,171.1c-6.8,1.1-7.4,7.9-17.3,3.6c-9.9-4.3-17.4-4.6-12.1-15.2
							c5.4-10.6,19-11,22.6-10.4c3.5,0.6,11.1,7.9,10.9,13.4C130,168,126.2,171.1,126.2,171.1L126.2,171.1z"/>
						<g id="Group-84_4_" transform="translate(276.500000, 53.500000)">
							<g id="Clip-83_4_">
							</g>
						</g>
						<path class="st0" d="M396.3,185.7c2.9-14.6,15.2-11.5,36.1-11.5c3.6,0,7.2,0.3,10.6,0.7v79.2c-14.6,20.6-33.6,8.1-37.9-0.2
							c-4.4-8.3-2-22.3-7-33.1C393.1,210.1,393.4,200.3,396.3,185.7z"/>
						<path id="Fill-93_2_" class="st0" d="M291.1,137.6c-1-1.2-11-8.9-23.5-12.2c-12.5-3.3-19.5-6.9-22.7-0.1
							c-3.2,6.7-4.2,11.6-2.3,17.7c2,6.1-0.7,12.7,1.1,17.5c1.9,4.8,12,14.1,22.7,6.1c10.7-8,9.2-7.7,14.6-11.3
							C286.5,151.6,295.7,143.5,291.1,137.6L291.1,137.6z"/>
						<path id="Fill-103_2_" class="st0" d="M5.6,257.8c0.8,1.1,9.1,8.2,19.8,11.8c10.7,3.6,16.7,7,19.7,1.4c3-5.6,4.1-9.6,2.7-14.9
							c-1.4-5.3,1.2-10.7-0.2-14.9c-1.4-4.2-9.8-12.7-19.5-6.5c-9.6,6.2-8.3,6-13.2,8.7C10.1,246.2,1.8,252.5,5.6,257.8L5.6,257.8z"
							/>
						<path id="Fill-109_2_" class="st0" d="M58.9,54.2c-1-1.2-11-8.9-23.5-12.2s-19.5-6.9-22.7-0.1c-3.2,6.7-4.2,11.6-2.3,17.7
							c2,6.1-0.7,12.7,1.1,17.5c1.9,4.8,12,14.1,22.7,6.1c10.7-8,9.2-7.7,14.6-11.3C54.4,68.1,63.6,60.1,58.9,54.2L58.9,54.2z"/>
						<path id="Fill-119_2_" class="st0" d="M389,197.3c1-11,3.6-17.7,0-24.7s-16.1-7.5-21.4-2.6c-5.4,4.9-10.5,8.4-7.1,21.8
							c3.4,13.3,7.3,22.4,5.9,28.2s11.2,14.5,15.4,6.7C385.9,218.8,387.7,212.1,389,197.3L389,197.3z"/>
						<path id="Fill-125_2_" class="st0" d="M-4.5,167.6c2.3,24.2-0.7,40.2,9.9,53.1c10.6,13,37.7,7.2,47.3-6.5
							c9.6-13.7,19.3-24.1,6.6-50.9s-24.7-44-24-57.3c0.8-13.3-30.2-24.9-36-5.6C-6.4,119.6-7.7,135.2-4.5,167.6L-4.5,167.6z"/>
						<path id="Fill-133_2_" class="st0" d="M284,124.4c8.6,0.3,11.5-0.3,20.9-10.5c9.5-10.2,14-3.5,15.1-16.9
							c1.1-13.3,7-18.1-8.3-19.4c-15.3-1.3-22.1-2.2-27.7,6.4C278.3,92.7,274.3,124.1,284,124.4L284,124.4z"/>
						<path class="st0" d="M411.8,31.5c5.6-8.6,12.4-7.6,27.7-6.4c1.3,0.1,2.5,0.2,3.5,0.4v28.7c-2.4,1.2-5.8,2.2-10.3,7
							c-9.5,10.2-12.4,10.8-20.9,10.5C402.2,71.6,406.2,40.1,411.8,31.5z"/>
						<g id="Group-149_4_" transform="translate(203.000000, -0.000000)">
							<g id="Clip-148_4_">
							</g>
						</g>
						<path id="Fill-150_1_" class="st0" d="M-48.1,176.3c8.6,0.3,11.5-0.3,20.9-10.5c9.5-10.2,14-3.5,15.1-16.9
							c1.1-13.3,7-18.1-8.3-19.4c-15.3-1.3-22.1-2.2-27.7,6.4C-53.8,144.6-57.8,176-48.1,176.3L-48.1,176.3z"/>
						<path id="Fill-158_2_" class="st0" d="M120.4,221.4c8.6,0.3,11.5-0.3,20.9-10.5s14-3.5,15.1-16.9c1.1-13.3,7-18.1-8.3-19.4
							c-15.3-1.3-22.1-2.2-27.7,6.4C114.8,189.6,110.7,221.1,120.4,221.4L120.4,221.4z"/>
						<path class="st0" d="M431.6,138.6c1.7-0.6,2.8-13.9,4.1-28.7c0.5-5.1,3.3-8.5,7.2-10.9v66.2c-2.5,0.3-4.6-0.6-6.2-2
							c-3.9-3.4,1.8-18.5-3.3-18.5C428.4,144.7,430,139.1,431.6,138.6z"/>
						<path id="Fill-174_2_" class="st0" d="M174.9,181c5.1-4.3,22.8-11.1,33-0.7c10.2,10.4,10.9,29.1,5.6,37.9
							c-5.3,8.7-15.8,15-24.8,15.9s-25.1-9.4-25.7-21.7C162.5,200.1,165.8,188.8,174.9,181L174.9,181z"/>
						<path id="Fill-182_2_" class="st0" d="M101.7,200.4c-4.4,0.4-19.6-1.9-27.4-10c-7.8-8.2-7.3-17.2-2.4-19.7
							c4.9-2.5,14-2.2,21.5,0.2s20.3,12.3,20,18.3C113,195.2,109.7,199.6,101.7,200.4L101.7,200.4z"/>
						<g id="Group-190_4_" transform="translate(163.000000, 905.000000)">
							<g id="Clip-189_4_">
							</g>
						</g>
						<path id="Fill-191_2_" class="st0" d="M-47.3,119.2c-0.4,5.3-4.9,22.7-13,30.5c-8.1,7.8-15.6,5.6-16.7-0.6
							c-1.2-6.2,0.6-16.8,3.9-25.2c3.3-8.4,13.7-21.8,18.7-20.4C-49.7,105-46.6,109.7-47.3,119.2L-47.3,119.2z"/>
						<path id="Fill-199_2_" class="st0" d="M218.8,90.1c6,12.8,16.4,9.3,16.7,31.8c0.4,22.6,4.9,37.7-14,34.2
							c-19-3.5-28.5-30.3-30.1-37.8c-1.5-7.4,4.1-27.4,12.2-30.6C211.8,84.6,218.8,90.1,218.8,90.1L218.8,90.1z"/>
						<path id="Fill-207_2_" class="st0" d="M-23.2,186.5c6,12.8,16.4,9.3,16.7,31.8c0.4,22.6,4.9,37.7-14,34.2
							c-19-3.5-28.5-30.3-30.1-37.8c-1.5-7.4,4.1-27.4,12.2-30.6C-30.2,181-23.2,186.5-23.2,186.5L-23.2,186.5z"/>
						<path id="Fill-215_2_" class="st0" d="M261.6,211.7c-0.1-6,12.9,0.2,15.6-4.4s3.2-13.5-9.9-22.9c-13-9.4-15.6-14.2-23.5-16.3
							c-7.8-2-30.2-6.9-28,4.2c2.2,11.1,3.6,36.5,16.2,37.8c12.5,1.2,23.9,2.2,24.4,4.1C257,216.1,261.8,217.9,261.6,211.7
							L261.6,211.7z"/>
						<path id="Fill-223_2_" class="st0" d="M-40.5,103.6c6.6-0.9,0.9,15.1,6.2,17.8c5.3,2.7,15,2.2,24.1-14.1
							C-1,91.1,4,87.5,5.5,78.1S10.4,42-1.4,45.8c-11.9,3.8-39.4,8.3-39.7,23.1c-0.2,14.8-0.3,28.2-2.4,29
							C-45.7,98.7-47.2,104.5-40.5,103.6L-40.5,103.6z"/>
						<path id="Fill-225_2_" class="st0" d="M176.3,64.2c0,0-0.3,21.3,13.5,19.3s28.5-28.1,29.7-35.4s1.9-27.2-7.2-27.4
							c-9.1-0.2-18.6-4.9-27.6,14.1C175.7,53.9,176.3,64.2,176.3,64.2L176.3,64.2z"/>
						<path id="Fill-239_2_" class="st0" d="M288.6,155.7c0,0-21.1,20.8-1.4,36.6c19.8,15.8,46.3,49.4,55.7,38
							c9.4-11.4,24.8-22.6,7.9-38.2c-16.9-15.6-41.6-20.4-43.1-28.4C306.2,155.6,293.8,149,288.6,155.7L288.6,155.7z"/>
						<path id="Fill-247_2_" class="st0" d="M302.2,44.8c0,0-12.9-29-30.2-9.3c-17.3,19.7-50.9,43.6-43.4,56.9
							c7.5,13.3,13.5,33.6,30.1,17.2c16.6-16.4,25.8-44.1,32.8-44.2C298.5,65.4,306.7,52.3,302.2,44.8L302.2,44.8z"/>
						<path id="Fill-255_2_" class="st0" d="M-69.5,231.8c0,0,15.7,2.2,15-14.6c-0.7-16.9,3.5-44.8-4.4-44.9
							c-7.8-0.1-17.7-3.4-18,11.9s6.4,30.1,3.8,34.3C-75.8,222.7-74,231.9-69.5,231.8L-69.5,231.8z"/>
					</g>
				</g>
			</g>
		</g>
	</g>
	<g id="_x30_.0---Homepage_3_">
		<g id="PhoenixZoo-Homepage_V3.0_3_" transform="translate(-77.000000, -1459.000000)">
			<g id="Critters_3_" transform="translate(73.000000, 1459.000000)">
				<g id="stone-pattern_3_">
					
						<g id="Group-261_3_" transform="translate(479.500000, 221.500000) rotate(-90.000000) translate(-479.500000, -221.500000) translate(258.000000, -258.000000)">
						<g id="Group-3_3_" transform="translate(0.000000, 175.000000)">
							<g id="Clip-2_3_">
							</g>
						</g>
						<path class="st0" d="M-118.1,90.6V63.9c3-0.4,5.5-0.4,6.7-0.2c3.5,0.6,11.1,7.9,10.9,13.5c-0.2,5.5-4.1,8.6-4.1,8.6
							C-110.4,86.7-111.6,91.9-118.1,90.6z"/>
						<g id="Group-84_3_" transform="translate(276.500000, 53.500000)">
							<g id="Clip-83_3_">
							</g>
						</g>
						<path class="st0" d="M-118.1,254v-79.1c16.2,2.3,29,9.2,30.6,10.8c9.4,9.1-2.9,29.2-10.5,39c-7.6,9.8-5.3,8.3-19.9,29.2
							C-118,253.9-118,253.9-118.1,254z"/>
						<path class="st0" d="M-118.1,54.4V25.6c10.8,1.7,5.7,6.8,4.8,19C-113.8,51.6-115.4,53-118.1,54.4z"/>
						<g id="Group-149_3_" transform="translate(203.000000, -0.000000)">
							<g id="Clip-148_3_">
							</g>
						</g>
						<path class="st0" d="M-118.1,165.2V99c7.5-4.7,19-5.6,25.2-7.1c9.4-2.3,4.7,24,2.8,33.1c-1.9,9.2-6.1,12.2-14.4,27.3
							C-109.5,161.4-114.3,164.7-118.1,165.2z"/>
						<g id="Group-190_3_" transform="translate(163.000000, 905.000000)">
							<g id="Clip-189_3_">
							</g>
						</g>
						<path id="Fill-231_1_" class="st0" d="M-75.8,76.5c1.7-5.7,11.9,5.7,15.9,2.6c4-3.2,7.1-11.2-2-25.5
							c-9.2-14.3-10.1-20-16.7-25.2c-6.6-5.3-25.9-19.3-27.3-8.2c-1.4,11.2-8,35.5,3.3,42c11.2,6.6,21.5,12.3,21.4,14.3
							C-81.5,78.6-77.6,82.3-75.8,76.5L-75.8,76.5z"/>
					</g>
				</g>
			</g>
		</g>
	</g>
</g>
</svg>
