<?xml version="1.0" encoding="utf-8"?>
<!-- Generator: Adobe Illustrator 21.0.2, SVG Export Plug-In . SVG Version: 6.00 Build 0)  -->
<svg version="1.1" id="Layer_1" xmlns="http://www.w3.org/2000/svg" xmlns:xlink="http://www.w3.org/1999/xlink" x="0px" y="0px"
	 width="90.1px" height="89.8px" viewBox="0 0 90.1 89.8" style="enable-background:new 0 0 90.1 89.8;" xml:space="preserve">
<style type="text/css">
	.st0{fill:#FBFBFB;}
</style>
<title>noun_Tiger_1519101</title>
<desc>Created with Sketch.</desc>
<g id="_x30_.0---Homepage">
	<g id="PhoenixZoo-Homepage_V3.0" transform="translate(-660.000000, -2268.000000)">
		
			<g id="noun_Tiger_1519101" transform="translate(705.000000, 2311.000000) scale(1, -1) rotate(-47.000000) translate(-705.000000, -2311.000000) translate(658.000000, 2264.000000)">
			<path id="Path" class="st0" d="M52.2,40.6c-0.5-0.5-0.8-0.7-1.2-1c-1.6-1.3-3.5-2-5.7-2.3c-0.9-0.1-1.9-0.2-2.9-0.2
				c-1.1,0-2.2,0.1-3.5,0.3c-1.3,0.2-2.5,0.3-5.4,0.9c-3.9,0.7-5.8,0.9-7.9,1.1c-1.5,0.1-2.9,0.1-4.5,0c-3.5-0.2-6.7,0.1-9.7,1.1
				c-2.6,0.8-4.8,2.1-6.6,3.7c-0.3,0.3-1.1,1.1-1.4,1.4c-1.8,2.1-3,4.5-3.4,7.1c-0.3,2.1-0.1,4.5,0.6,6.3c1,2.7,2.9,4.8,6.2,7
				c1,0.7,2.3,1.5,4.5,2.7c3.1,1.8,4.7,2.8,6.1,3.9c2,1.6,3.8,3.7,5.6,6.5c0.6,0.9,1,1.7,2.1,3.6c1.3,2.2,1.8,3.1,2.4,4.1
				c0.5,0.7,1.1,1.4,1.5,1.9c0.1,0.1,0.2,0.3,0.3,0.3c0,0,0.4,0.4,0.8,0.8c0.8,0.8,1,0.9,1.6,1.4c1.9,1.4,4.3,2.2,6.9,2.4
				c0.4,0,1.5,0,1.9,0c2.4-0.2,4.6-1,6.6-2.4c0.7-0.5,1.1-0.9,1.8-1.5c0.5-0.5,0.7-0.8,1.1-1.3c2.1-2.7,3.5-6.1,4.1-10
				c0.3-1.9,0.3-3.9,0.2-6c-0.1-2.1-0.1-3.8,0.2-5.8c0.2-1.9,0.5-3.5,1.2-6.8c0.6-2.8,0.8-3.8,1-4.9c0.5-3.2,0.4-5.6-0.3-7.9
				C55.5,44.7,54.1,42.5,52.2,40.6z"/>
			<path id="Path_1_" class="st0" d="M18.4,29c0.2,0.3,0.9,0.9,1.2,1.1c0.5,0.3,0.7,0.6,1.2,0.8c3.4,1.7,7.6,0.8,11.1-2.4
				c2.1-2,3.7-4.7,4.6-7.6c1.2-4.2,0.6-8.5-1.5-11.3c-0.6-0.7-1.2-1.4-1.9-1.9c0,0,0,0-0.1,0c-0.5-0.3-1.6-0.8-2.1-1
				c-0.8-0.3-1.8-0.4-2.7-0.3c-1.1,0-2.2,0.3-3.3,0.7c-0.8,0.3-1.9,0.9-2.7,1.5c-0.6,0.5-0.8,0.6-1.5,1.4c-0.8,0.8-0.9,1-1.4,1.6
				c-2.4,3.2-3.7,7.4-3.4,11.1C16.2,25.2,17,27.4,18.4,29z"/>
			<path id="Path_2_" class="st0" d="M33.5,6.9c1.7-2.7,3.3-4.4,2.8-4.7c-0.5-0.3-2.9,1-4.8,3.7C32.1,6.2,33,6.6,33.5,6.9L33.5,6.9z
				"/>
			<path id="Path_3_" class="st0" d="M67,15c0.1-2-0.3-3.9-1.1-5.5c-0.5-0.9-1-1.8-1.8-2.4c-0.4-0.4-1.4-1.1-1.9-1.4c0,0,0,0,0,0
				c-0.9-0.5-1.9-0.7-3-0.9c-0.3,0-1.5,0-1.9,0c-2.5,0.2-5.1,1.3-7.4,3.1c-0.7,0.5-0.8,0.7-1.7,1.5c-0.9,0.9-1.1,1.1-1.7,1.8
				c-3.2,4.1-4.6,9.2-3.7,13.4c0.4,1.7,1.1,3.2,2.1,4.4c0.2,0.2,0.7,0.7,1,0.9c0.9,0.7,1.9,1.3,2.9,1.6c0.3,0.1,1,0.2,1.4,0.3
				c3.2,0.4,6.8-0.9,9.9-3.4c1.1-0.9,2.3-2.1,3.2-3.3C65.5,22.1,66.9,18.5,67,15z"/>
			<path id="Path_4_" class="st0" d="M86.1,61.9C86.1,61.9,86.1,61.9,86.1,61.9c-0.5-0.8-1.2-1.4-1.9-2c-2.8-2.1-7.2-2.6-11.3-1.4
				c-2.9,0.8-5.6,2.5-7.6,4.6c-3.2,3.5-4.1,7.7-2.3,11.1c0.2,0.5,0.5,0.8,0.8,1.2c0.2,0.3,0.8,1,1.1,1.2c1.7,1.4,3.8,2.2,6.3,2.4
				c3.8,0.3,7.9-1,11.1-3.4c0.7-0.5,0.8-0.7,1.6-1.4c0.8-0.8,0.9-0.9,1.4-1.5c0.6-0.8,1.2-1.9,1.5-2.7c0.4-1.1,0.6-2.2,0.7-3.3
				c0-0.9,0-1.9-0.4-2.7C86.9,63.5,86.4,62.4,86.1,61.9z"/>
			<path id="Path_5_" class="st0" d="M64.6,50.2c1.2,1,2.7,1.8,4.4,2.1c4.3,0.9,9.3-0.6,13.4-3.8c0.7-0.6,1-0.8,1.8-1.7
				c0.8-0.8,1-1,1.5-1.7c1.8-2.3,2.9-4.9,3.1-7.4c0-0.4,0-1.5,0-1.9c-0.1-1.1-0.4-2.1-0.9-3c0,0,0,0,0,0c-0.3-0.5-1-1.4-1.4-1.9
				c-0.6-0.8-1.5-1.3-2.4-1.8c-1.6-0.8-3.5-1.2-5.5-1.1c-3.5,0.1-7.1,1.5-10.2,3.8c-1.2,0.9-2.3,2.1-3.3,3.2
				c-2.5,3.1-3.7,6.7-3.3,9.9c0,0.4,0.2,1,0.3,1.4c0.3,1.1,0.9,2.1,1.6,2.9C63.9,49.5,64.4,50,64.6,50.2z"/>
			<path id="Path_6_" class="st0" d="M67.6,1c-0.5-0.3-3,1-4.9,3.8c0.5,0.3,1.4,0.9,1.9,1.3C66.4,3.2,68.1,1.3,67.6,1z"/>
			<path id="Path_7_" class="st0" d="M87,61.4L87,61.4c0.3,0.5,0.7,1.4,1,2c2.7-2,3.9-4.4,3.7-4.9C91.4,58.1,89.7,59.7,87,61.4z"/>
			<path id="Path_8_" class="st0" d="M92.6,27.2c-0.3-0.5-2.1,1.3-5.1,3.1c0.4,0.5,1,1.3,1.3,1.8C91.6,30.2,92.9,27.7,92.6,27.2z"/>
		</g>
	</g>
</g>
</svg>
