<?xml version="1.0" encoding="utf-8"?>
<!-- Generator: Adobe Illustrator 21.0.2, SVG Export Plug-In . SVG Version: 6.00 Build 0)  -->
<svg version="1.1" id="Layer_1" xmlns="http://www.w3.org/2000/svg" xmlns:xlink="http://www.w3.org/1999/xlink" x="0px" y="0px"
	 width="280px" height="62.9px" viewBox="0 0 280 62.9" style="enable-background:new 0 0 280 62.9;" xml:space="preserve">
<style type="text/css">
	.st0{fill:#FFFFFF;}
	.st1{fill:#7AB642;}
</style>
<title>Phoenix Zoo Logo PMS Lizard</title>
<desc>Created with Sketch.</desc>
<g id="Symbols">
	<g id="Header-Copy" transform="translate(-113.000000, -42.000000)">
		<g id="nav-bar">
			<g id="Phoenix-Zoo-Logo-PMS-Lizard" transform="translate(113.000000, 42.000000)">
				<g id="Group-3" transform="translate(0.000000, 12.000000)">
					<g id="Clip-2">
					</g>
					<path id="Fill-1" class="st0" d="M0,41.4v-38c3.8-1.9,7.6-2.9,12-2.9c1.1,0,2.1,0.1,3.2,0.3c1,0.2,2.2,0.6,3.4,1.3
						s2.3,1.6,3.1,2.6c0.9,1.1,1.6,2.6,2.2,4.6c0.6,1.9,0.9,4.2,0.9,6.8c0,2.9-0.4,5.4-1.2,7.5c-0.8,2-1.9,3.6-3.2,4.6
						c-1.4,1-2.8,1.7-4.2,2.1s-3,0.6-4.7,0.6c-2.4,0-4.8-0.4-7.2-1.1v11.6H0z M12,4.4c-2.5,0-5.1,0.7-7.8,1.5v19.5
						c2.2,1,4.6,1.5,7.2,1.5c3.2,0,5.5-0.9,7-2.6c1.4-1.7,2.2-4.5,2.2-8.3c0-2.5-0.3-4.5-0.8-6.2c-0.5-1.6-1.3-2.8-2.2-3.6
						c-0.9-0.7-1.8-1.2-2.7-1.5C14.1,4.5,13.1,4.4,12,4.4L12,4.4z"/>
				</g>
				<path id="Fill-4" class="st0" d="M29,42.8v-41h4.4v12.7c3-1.3,6.1-1.9,9.1-1.9c3.7,0,6.5,1.1,8.6,3.3c2,2.2,3,5.3,3,9.3v17.6
					h-4.4V25.2c0-5.6-2.6-8.3-7.7-8.3c-2.8,0-5.7,0.6-8.6,1.8v24.1L29,42.8"/>
				<path id="Fill-5" class="st0" d="M63.6,19.3c-1.5,1.8-2.3,4.6-2.3,8.5s0.8,6.7,2.3,8.5s4,2.7,7.4,2.7s5.8-0.9,7.4-2.6
					c1.5-1.8,2.3-4.6,2.3-8.5s-0.8-6.8-2.3-8.5c-1.5-1.8-4-2.6-7.4-2.6C67.6,16.7,65.1,17.6,63.6,19.3 M58.3,35.4
					c-0.8-2.1-1.3-4.6-1.3-7.5c0-3,0.4-5.5,1.3-7.5c0.8-2.1,2-3.6,3.4-4.6s2.9-1.7,4.4-2.2c1.5-0.4,3.1-0.6,4.9-0.6s3.4,0.2,5,0.6
					c1.5,0.4,3,1.2,4.4,2.2s2.6,2.6,3.4,4.6c0.8,2.1,1.3,4.6,1.3,7.5c0,3-0.4,5.5-1.3,7.5c-0.8,2.1-2,3.6-3.4,4.6s-2.9,1.7-4.4,2.2
					c-1.5,0.4-3.2,0.6-5,0.6s-3.4-0.2-4.9-0.6c-1.5-0.4-2.9-1.1-4.4-2.2C60.2,39,59.1,37.4,58.3,35.4"/>
				<path id="Fill-6" class="st0" d="M93.3,26.6h17.4c0-0.7-0.1-1.4-0.2-2.2c-0.2-0.8-0.5-1.9-1-3.1c-0.5-1.3-1.4-2.3-2.7-3.2
					c-1.3-0.9-2.9-1.3-4.8-1.3c-3,0-5.1,0.7-6.4,2.2S93.5,23.1,93.3,26.6 M89,28.2v-0.4c0-10,4.3-15,13-15c1.8,0,3.4,0.3,4.9,0.8
					c1.5,0.6,2.6,1.2,3.5,2s1.6,1.7,2.3,3c0.7,1.2,1.1,2.3,1.4,3.1c0.3,0.9,0.5,1.9,0.7,3.1s0.2,1.9,0.2,2.2v1.2l-0.1,2H93.3
					c0.3,2.9,1.2,5,2.7,6.3c1.6,1.3,3.9,2,6.9,2c4.3,0,7.7-0.7,10.2-2.2v4.3c-2.9,1.3-6.3,2-10.4,2h-0.2c-1.7,0-3.3-0.2-4.8-0.6
					c-1.4-0.4-2.9-1.1-4.3-2.1s-2.5-2.5-3.3-4.5S89,31.1,89,28.2"/>
				<path id="Fill-7" class="st0" d="M119,41.8V14.7c3.8-1.9,8-2.9,12.4-2.9c3.7,0,6.5,0.9,8.6,2.8c2,1.9,3,4.5,3,8v19.2h-4.2V22.6
					c0-0.8-0.1-1.6-0.3-2.2s-0.5-1.3-1-2.1c-0.5-0.7-1.3-1.3-2.4-1.7c-1.1-0.4-2.5-0.6-4.2-0.6c-2.5,0-5,0.4-7.7,1.2v24.6H119"/>
				<polyline id="Fill-8" class="st0" points="164,42.8 174.5,27.6 164.3,12.8 169.3,12.8 177,24 184.7,12.8 189.9,12.8 179.6,27.6 
					179.6,27.7 190,42.8 184.9,42.8 177.1,31.4 169.2,42.8 164,42.8 				"/>
				<polyline id="Fill-9" class="st0" points="193,42.8 193,34.5 205.5,20.9 193.3,20.9 193.3,12.8 217,12.8 217,21.3 205.8,34.4 
					217,34.4 217,42.8 193,42.8 				"/>
				<path id="Fill-10" class="st0" d="M235,20.1c-2.6,0-4,2.6-4,7.7c0,5.2,1.3,7.7,4,7.7s4-2.6,4-7.7S237.6,20.1,235,20.1 M224.6,39
					c-2.4-2.6-3.6-6.3-3.6-11.1s1.2-8.6,3.6-11.1c2.4-2.6,5.9-3.9,10.4-3.9s7.9,1.3,10.4,3.9c2.4,2.6,3.6,6.3,3.6,11.1
					s-1.2,8.6-3.6,11.1c-2.4,2.6-5.9,3.9-10.4,3.9C230.5,42.8,227.1,41.5,224.6,39"/>
				<path id="Fill-11" class="st0" d="M266,20.1c-2.6,0-4,2.6-4,7.7c0,5.2,1.3,7.7,4,7.7c2.6,0,4-2.6,4-7.7S268.6,20.1,266,20.1
					 M255.6,39c-2.4-2.6-3.6-6.3-3.6-11.1s1.2-8.6,3.6-11.1c2.4-2.6,5.9-3.9,10.4-3.9s7.9,1.3,10.4,3.9c2.4,2.6,3.6,6.3,3.6,11.1
					s-1.2,8.6-3.6,11.1c-2.4,2.6-5.9,3.9-10.4,3.9C261.5,42.8,258.1,41.5,255.6,39"/>
				<path id="Fill-12" class="st1" d="M23.5,56.4L23.5,56.4l-0.6,3.3h1.3L23.5,56.4z M23,53.8h1l2,9h-1.3l-0.4-1.9h-1.7l-0.4,1.9H21
					L23,53.8L23,53.8z"/>
				<path id="Fill-13" class="st1" d="M30.4,57.9h0.8c0.2,0,0.4,0,0.6-0.1c0.1-0.1,0.3-0.2,0.3-0.3c0.1-0.1,0.1-0.3,0.2-0.4
					c0-0.2,0-0.4,0-0.6c0-0.2,0-0.4,0-0.6c0-0.2-0.1-0.3-0.2-0.4c-0.1-0.1-0.2-0.2-0.4-0.3c-0.2-0.1-0.4-0.1-0.6-0.1h-0.7
					C30.4,55.1,30.4,57.9,30.4,57.9z M29,53.8h2.2c1.6,0,2.5,0.9,2.5,2.6c0,0.5-0.1,1-0.3,1.3c-0.2,0.4-0.5,0.7-0.9,0.9l1.5,4.1
					h-1.5L31.2,59h-0.8v3.8H29V53.8L29,53.8z"/>
				<polygon id="Fill-14" class="st1" points="37,62.8 38,62.8 38,53.8 37,53.8 				"/>
				<polyline id="Fill-15" class="st1" points="41,61.7 43.5,55 41.1,55 41.1,53.8 45,53.8 45,54.9 42.4,61.6 45,61.6 45,62.8 
					41,62.8 41,61.7 				"/>
				<path id="Fill-16" class="st1" d="M48.2,60.7c0,0.3,0.1,0.5,0.2,0.7c0.2,0.1,0.3,0.2,0.6,0.2c0.2,0,0.4-0.1,0.6-0.2
					c0.2-0.1,0.2-0.4,0.2-0.7V56c0-0.3-0.1-0.5-0.2-0.7c-0.2-0.1-0.3-0.2-0.6-0.2c-0.2,0-0.4,0.1-0.6,0.2c-0.2,0.1-0.2,0.4-0.2,0.7
					V60.7z M47,56c0-0.4,0.1-0.7,0.2-0.9c0.1-0.3,0.3-0.5,0.5-0.7s0.4-0.3,0.6-0.4c0.2-0.1,0.5-0.1,0.7-0.1s0.5,0,0.7,0.1
					s0.5,0.2,0.6,0.4c0.2,0.2,0.3,0.4,0.5,0.7c0.1,0.3,0.2,0.6,0.2,0.9v4.7c0,0.4-0.1,0.7-0.2,1c-0.1,0.3-0.3,0.5-0.5,0.7
					s-0.4,0.3-0.6,0.4c-0.2,0.1-0.5,0.1-0.7,0.1s-0.5,0-0.7-0.1s-0.5-0.2-0.6-0.4c-0.2-0.2-0.3-0.4-0.5-0.7c-0.1-0.3-0.2-0.6-0.2-1
					V56L47,56z"/>
				<polyline id="Fill-17" class="st1" points="54,53.8 55.4,53.8 57.5,59.3 57.6,59.3 57.6,53.8 59,53.8 59,62.8 57.7,62.8 
					55.5,57.4 55.4,57.4 55.4,62.8 54,62.8 54,53.8 				"/>
				<path id="Fill-18" class="st1" d="M64.5,56.4L64.5,56.4l-0.6,3.3h1.3L64.5,56.4z M64,53.8h1l2,9h-1.3l-0.4-1.9h-1.7l-0.4,1.9H62
					L64,53.8L64,53.8z"/>
				<path id="Fill-19" class="st1" d="M78,60.8c0,0.3,0,0.5-0.1,0.8c-0.1,0.2-0.2,0.5-0.4,0.7c-0.2,0.2-0.4,0.3-0.6,0.4
					c-0.2,0.1-0.5,0.2-0.8,0.2c-0.2,0-0.5,0-0.7-0.1s-0.5-0.2-0.7-0.3c-0.2-0.2-0.4-0.4-0.5-0.6c-0.1-0.3-0.2-0.6-0.2-1V56
					c0-0.3,0.1-0.6,0.1-0.8c0.1-0.2,0.2-0.5,0.4-0.6c0.2-0.2,0.4-0.3,0.6-0.4c0.2-0.1,0.5-0.2,0.8-0.2s0.5,0.1,0.8,0.2
					c0.2,0.1,0.5,0.2,0.6,0.4c0.2,0.2,0.3,0.4,0.4,0.7s0.1,0.5,0.1,0.9v0.5h-1.2V56c0-0.2-0.1-0.5-0.2-0.6c-0.1-0.2-0.3-0.3-0.6-0.3
					c-0.3,0-0.5,0.1-0.6,0.3S75,55.8,75,56.1v4.5c0,0.3,0.1,0.5,0.2,0.6c0.1,0.2,0.3,0.3,0.6,0.3c0.1,0,0.2,0,0.3,0
					c0.1,0,0.2-0.1,0.3-0.1c0.1-0.1,0.1-0.2,0.2-0.3c0-0.1,0.1-0.3,0.1-0.4v-0.4H78V60.8"/>
				<polyline id="Fill-20" class="st1" points="81,53.8 85,53.8 85,55 82.3,55 82.3,57.7 84.7,57.7 84.7,58.9 82.3,58.9 82.3,61.5 
					85,61.5 85,62.8 81,62.8 81,53.8 				"/>
				<polyline id="Fill-21" class="st1" points="87,53.8 88.4,53.8 90.5,59.3 90.6,59.3 90.6,53.8 92,53.8 92,62.8 90.6,62.8 
					88.5,57.4 88.4,57.4 88.4,62.8 87,62.8 87,53.8 				"/>
				<polyline id="Fill-22" class="st1" points="96.4,55 95,55 95,53.8 99,53.8 99,55 97.6,55 97.6,62.8 96.4,62.8 96.4,55 				"/>
				<polyline id="Fill-23" class="st1" points="101,53.8 105,53.8 105,55 102.3,55 102.3,57.7 104.7,57.7 104.7,58.9 102.3,58.9 
					102.3,61.5 105,61.5 105,62.8 101,62.8 101,53.8 				"/>
				<path id="Fill-24" class="st1" d="M109.4,57.9h0.8c0.2,0,0.4,0,0.6-0.1c0.1-0.1,0.3-0.2,0.3-0.3c0.1-0.1,0.1-0.3,0.2-0.4
					c0-0.2,0-0.4,0-0.6c0-0.2,0-0.4,0-0.6c0-0.2-0.1-0.3-0.2-0.4c-0.1-0.1-0.2-0.2-0.4-0.3c-0.2-0.1-0.4-0.1-0.6-0.1h-0.7
					C109.4,55.1,109.4,57.9,109.4,57.9z M108,53.8h2.2c1.6,0,2.5,0.9,2.5,2.6c0,0.5-0.1,1-0.3,1.3c-0.2,0.4-0.5,0.7-0.9,0.9l1.5,4.1
					h-1.5l-1.3-3.8h-0.8v3.8H108V53.8L108,53.8z"/>
				<path id="Fill-25" class="st1" d="M117.9,55.8l0.1-0.4h0.8l0.2-1.2c0.3-1.5,1.2-2.3,1.9-2.3c0.8,0,1.1,0.5,1,0.9
					c0,0.2-0.2,0.3-0.4,0.3c-0.5,0-0.1-0.9-0.8-0.9c-0.4,0-0.9,0.5-1.2,1.9l-0.2,1.2h1l-0.1,0.4h-1l-0.9,5c-0.3,1.5-0.9,2-1.6,2
					s-1-0.5-0.9-0.9c0-0.2,0.2-0.3,0.4-0.3c0.5,0,0,0.9,0.7,0.9c0.4,0,0.6-0.4,0.8-1.6l0.9-5L117.9,55.8"/>
				<path id="Fill-26" class="st1" d="M123.4,56.3c-0.8,0-1.3,0.9-1.5,2.1c-0.2,1.1,0,2.1,0.8,2.1s1.3-0.9,1.5-2.1
					C124.3,57.2,124.1,56.3,123.4,56.3 M122.6,60.8c-1.1,0-1.8-1.1-1.6-2.5c0.2-1.4,1.3-2.5,2.4-2.5s1.8,1.1,1.5,2.5
					C124.7,59.7,123.7,60.8,122.6,60.8"/>
				<path id="Fill-27" class="st1" d="M128.4,54.8c0.5,0,0.7,0.5,0.6,0.9c0,0.2-0.2,0.5-0.5,0.5c-0.2,0-0.4-0.2-0.3-0.5
					c0-0.2,0-0.3-0.1-0.3c-0.3,0-0.9,1-1.2,3l-0.2,1.4H126l0.6-3.8c0-0.3,0-0.6-0.1-0.6s-0.4,0.2-0.5,0.3v-0.3
					c0.2-0.3,0.5-0.5,0.8-0.5c0.4,0,0.5,0.4,0.5,1l-0.1,0.4C127.5,55.3,127.9,54.8,128.4,54.8"/>
				<polyline id="Fill-28" class="st1" points="132,53.8 133.4,53.8 135.5,59.3 135.6,59.3 135.6,53.8 137,53.8 137,62.8 
					135.7,62.8 133.5,57.4 133.4,57.4 133.4,62.8 132,62.8 132,53.8 				"/>
				<path id="Fill-29" class="st1" d="M141.5,56.4L141.5,56.4l-0.6,3.3h1.3L141.5,56.4z M141,53.8h1.1l2,9h-1.3l-0.4-1.9h-1.7
					l-0.4,1.9H139L141,53.8L141,53.8z"/>
				<polyline id="Fill-30" class="st1" points="147.4,55 146,55 146,53.8 150,53.8 150,55 148.6,55 148.6,62.8 147.4,62.8 147.4,55 
									"/>
				<path id="Fill-31" class="st1" d="M157,60.8c0,0.3-0.1,0.6-0.2,0.8c-0.1,0.3-0.3,0.5-0.4,0.7c-0.2,0.2-0.4,0.3-0.6,0.4
					c-0.2,0.1-0.5,0.2-0.8,0.2s-0.5-0.1-0.8-0.2c-0.2-0.1-0.5-0.3-0.6-0.4c-0.2-0.2-0.3-0.4-0.4-0.7c-0.1-0.3-0.2-0.5-0.2-0.8v-6.9
					h1.2v6.8c0,0.3,0.1,0.6,0.2,0.7c0.2,0.2,0.3,0.2,0.6,0.2c0.2,0,0.4-0.1,0.5-0.2c0.1-0.2,0.2-0.4,0.2-0.7v-6.8h1.2v6.9"/>
				<path id="Fill-32" class="st1" d="M161.4,57.9h0.8c0.2,0,0.4,0,0.6-0.1c0.1-0.1,0.3-0.2,0.3-0.3c0.1-0.1,0.1-0.3,0.2-0.4
					c0-0.2,0-0.4,0-0.6c0-0.2,0-0.4,0-0.6c0-0.2-0.1-0.3-0.2-0.4c-0.1-0.1-0.2-0.2-0.4-0.3s-0.4-0.1-0.6-0.1h-0.7L161.4,57.9
					L161.4,57.9z M160,53.8h2.2c1.6,0,2.5,0.9,2.5,2.6c0,0.5-0.1,1-0.3,1.3c-0.2,0.4-0.5,0.7-0.9,0.9l1.5,4.1h-1.5l-1.3-3.8h-0.8
					v3.8H160V53.8L160,53.8z"/>
				<polyline id="Fill-33" class="st1" points="167,53.8 171,53.8 171,55 168.3,55 168.3,57.7 170.7,57.7 170.7,58.9 168.3,58.9 
					168.3,61.5 171,61.5 171,62.8 167,62.8 167,53.8 				"/>
				<path id="Fill-34" class="st1" d="M182,60.8c0,0.3-0.1,0.5-0.2,0.8c-0.1,0.2-0.2,0.5-0.4,0.7s-0.4,0.3-0.6,0.4
					c-0.2,0.1-0.5,0.2-0.8,0.2c-0.2,0-0.5,0-0.7-0.1s-0.5-0.2-0.7-0.3c-0.2-0.2-0.4-0.4-0.5-0.6c-0.1-0.3-0.2-0.6-0.2-1V56
					c0-0.3,0-0.6,0.1-0.8s0.2-0.5,0.4-0.6c0.2-0.2,0.4-0.3,0.6-0.4c0.2-0.1,0.5-0.2,0.8-0.2s0.5,0.1,0.8,0.2
					c0.2,0.1,0.5,0.2,0.6,0.4c0.2,0.2,0.3,0.4,0.4,0.7c0.1,0.3,0.2,0.5,0.2,0.9v0.5h-1.2V56c0-0.2-0.1-0.5-0.2-0.6
					c-0.1-0.2-0.3-0.3-0.6-0.3s-0.5,0.1-0.6,0.3s-0.2,0.4-0.2,0.7v4.5c0,0.3,0.1,0.5,0.2,0.6c0.1,0.2,0.3,0.3,0.6,0.3
					c0.1,0,0.2,0,0.3,0s0.2-0.1,0.3-0.1c0.1-0.1,0.1-0.2,0.2-0.3c0.1-0.1,0.1-0.3,0.1-0.4v-0.4h1.2L182,60.8"/>
				<path id="Fill-35" class="st1" d="M187.2,60.7c0,0.3,0.1,0.5,0.2,0.7c0.2,0.1,0.3,0.2,0.6,0.2c0.2,0,0.4-0.1,0.6-0.2
					c0.2-0.1,0.2-0.4,0.2-0.7V56c0-0.3-0.1-0.5-0.2-0.7c-0.2-0.1-0.3-0.2-0.6-0.2c-0.2,0-0.4,0.1-0.6,0.2c-0.2,0.1-0.2,0.4-0.2,0.7
					V60.7z M186,56c0-0.4,0.1-0.7,0.2-0.9c0.1-0.3,0.3-0.5,0.5-0.7s0.4-0.3,0.6-0.4c0.2-0.1,0.5-0.1,0.7-0.1s0.5,0,0.7,0.1
					s0.4,0.2,0.6,0.4c0.2,0.2,0.3,0.4,0.5,0.7c0.1,0.3,0.2,0.6,0.2,0.9v4.7c0,0.4-0.1,0.7-0.2,1c-0.1,0.3-0.3,0.5-0.5,0.7
					s-0.4,0.3-0.6,0.4c-0.2,0.1-0.5,0.1-0.7,0.1s-0.5,0-0.7-0.1s-0.5-0.2-0.6-0.4c-0.2-0.2-0.3-0.4-0.5-0.7c-0.1-0.3-0.2-0.6-0.2-1
					V56L186,56z"/>
				<polyline id="Fill-36" class="st1" points="193,53.8 194.4,53.8 196.5,59.3 196.6,59.3 196.6,53.8 198,53.8 198,62.8 
					196.7,62.8 194.5,57.4 194.4,57.4 194.4,62.8 193,62.8 193,53.8 				"/>
				<path id="Fill-37" class="st1" d="M205,56.5h-1.5v-0.3c0-0.3-0.1-0.5-0.2-0.8c-0.2-0.2-0.4-0.3-0.8-0.3c-0.2,0-0.4,0-0.5,0.1
					s-0.2,0.2-0.3,0.3s-0.1,0.2-0.2,0.4c0,0.1,0,0.3,0,0.4c0,0.2,0,0.3,0,0.4c0,0.1,0.1,0.2,0.1,0.3c0.1,0.1,0.1,0.2,0.3,0.2
					c0.1,0.1,0.3,0.1,0.5,0.2l1.1,0.4c0.3,0.1,0.6,0.2,0.8,0.4c0.2,0.1,0.4,0.3,0.5,0.5s0.2,0.4,0.2,0.7s0.1,0.5,0.1,0.9
					s0,0.7-0.1,1s-0.2,0.6-0.4,0.8s-0.5,0.4-0.8,0.5s-0.7,0.2-1.2,0.2c-0.4,0-0.7-0.1-1-0.2c-0.3-0.1-0.6-0.3-0.8-0.4
					c-0.2-0.2-0.4-0.4-0.5-0.7s-0.2-0.5-0.2-0.8v-0.5h1.5v0.4c0,0.2,0.1,0.4,0.2,0.6c0.2,0.2,0.4,0.3,0.8,0.3c0.2,0,0.4,0,0.6-0.1
					c0.1-0.1,0.2-0.1,0.3-0.3c0.1-0.1,0.1-0.3,0.1-0.4c0-0.2,0-0.3,0-0.5s0-0.4,0-0.6c0-0.1-0.1-0.3-0.1-0.4
					c-0.1-0.1-0.1-0.2-0.3-0.2c-0.1-0.1-0.3-0.1-0.4-0.2l-1-0.4c-0.6-0.2-1.1-0.5-1.3-0.9s-0.3-0.8-0.3-1.4c0-0.3,0.1-0.6,0.2-0.9
					c0.1-0.3,0.3-0.6,0.5-0.8s0.5-0.4,0.8-0.5s0.7-0.2,1.1-0.2c0.4,0,0.7,0.1,1,0.2c0.3,0.1,0.6,0.3,0.8,0.5s0.4,0.4,0.5,0.6
					c0.1,0.2,0.2,0.5,0.2,0.7v0.8"/>
				<polyline id="Fill-38" class="st1" points="208,53.8 212,53.8 212,55 209.3,55 209.3,57.7 211.7,57.7 211.7,58.9 209.3,58.9 
					209.3,61.5 212,61.5 212,62.8 208,62.8 208,53.8 				"/>
				<path id="Fill-39" class="st1" d="M215.4,57.9h0.8c0.2,0,0.4,0,0.6-0.1c0.1-0.1,0.3-0.2,0.3-0.3c0.1-0.1,0.1-0.3,0.2-0.4
					c0-0.2,0-0.4,0-0.6c0-0.2,0-0.4,0-0.6c0-0.2-0.1-0.3-0.2-0.4c-0.1-0.1-0.2-0.2-0.4-0.3s-0.4-0.1-0.6-0.1h-0.7L215.4,57.9
					L215.4,57.9z M214,53.8h2.2c1.6,0,2.5,0.9,2.5,2.6c0,0.5-0.1,1-0.3,1.3c-0.2,0.4-0.5,0.7-0.9,0.9l1.5,4.1h-1.5l-1.3-3.8h-0.8
					v3.8H214V53.8L214,53.8z"/>
				<polyline id="Fill-40" class="st1" points="224.1,62.8 222.9,62.8 221,53.8 222.4,53.8 223.5,60.1 223.5,60.1 224.6,53.8 
					226,53.8 224.1,62.8 				"/>
				<path id="Fill-41" class="st1" d="M230.5,56.4L230.5,56.4l-0.6,3.3h1.3L230.5,56.4z M230,53.8h1.1l2,9h-1.3l-0.4-1.9h-1.7
					l-0.4,1.9H228L230,53.8L230,53.8z"/>
				<polyline id="Fill-42" class="st1" points="235.4,55 234,55 234,53.8 238,53.8 238,55 236.6,55 236.6,62.8 235.4,62.8 235.4,55 
									"/>
				<polygon id="Fill-43" class="st1" points="241,62.8 242,62.8 242,53.8 241,53.8 				"/>
				<path id="Fill-44" class="st1" d="M247.2,60.7c0,0.3,0.1,0.5,0.2,0.7c0.2,0.1,0.3,0.2,0.6,0.2c0.2,0,0.4-0.1,0.6-0.2
					c0.2-0.1,0.2-0.4,0.2-0.7V56c0-0.3-0.1-0.5-0.2-0.7c-0.2-0.1-0.3-0.2-0.6-0.2c-0.2,0-0.4,0.1-0.6,0.2c-0.2,0.1-0.2,0.4-0.2,0.7
					V60.7z M246,56c0-0.4,0.1-0.7,0.2-0.9c0.1-0.3,0.3-0.5,0.5-0.7s0.4-0.3,0.6-0.4c0.2-0.1,0.5-0.1,0.7-0.1s0.5,0,0.7,0.1
					s0.5,0.2,0.6,0.4c0.2,0.2,0.3,0.4,0.5,0.7c0.1,0.3,0.2,0.6,0.2,0.9v4.7c0,0.4-0.1,0.7-0.2,1c-0.1,0.3-0.3,0.5-0.5,0.7
					s-0.4,0.3-0.6,0.4c-0.2,0.1-0.5,0.1-0.7,0.1s-0.5,0-0.7-0.1s-0.5-0.2-0.6-0.4c-0.2-0.2-0.3-0.4-0.5-0.7c-0.1-0.3-0.2-0.6-0.2-1
					V56L246,56z"/>
				<g id="Group-48" transform="translate(145.000000, 0.000000)">
					<polyline id="Fill-45" class="st1" points="107.6,53.1 108.9,53.1 110.9,58.6 110.9,58.6 110.9,53.1 112.2,53.1 112.2,62.3 
						111,62.3 109,56.8 108.9,56.8 108.9,62.3 107.6,62.3 107.6,53.1 					"/>
					<path id="Fill-47" class="st1" d="M9,9.3L8.8,9.2C8.3,8.9,8.1,8.8,8.1,8.3c-0.1-0.5,0.1-1,0-1.6C8,6.5,8,6.4,7.9,6.2
						C8,6.1,8.1,6,8.2,5.8c0.1-0.1,0.2-0.3,0.3-0.4s0.2-0.2,0.3-0.3C8.8,5.7,9,6.3,9,6.9C9.1,7.7,8.9,8.5,9,9.3 M16.9,28.1
						c-0.4,0.1-0.7,0.2-1.1,0.2c-0.1-0.1-0.1-0.2-0.2-0.4c0-0.2,0-0.3,0-0.4c0.1-0.1,0.2-0.2,0.3-0.3c0.4-0.3,0.7-0.7,1-1.1
						c0.2-0.3-0.3-0.5-0.4-0.3c-0.3,0.4-0.6,0.7-0.9,1c-0.1,0.2-0.3,0.3-0.5,0.4c-0.1,0-0.1,0-0.1,0c0-0.7,0.1-1.5,0.3-2.1
						c0.1-0.3-0.4-0.5-0.5-0.1c-0.2,0.7-0.2,1.4-0.3,2.1c-0.2-0.6-0.4-1.2-0.8-1.7c-0.2-0.3-0.6,0-0.4,0.3c0.3,0.5,0.5,1,0.7,1.6
						l-0.1,0.1c-0.2-0.4-0.5-0.9-0.8-1.2c-0.2-0.2-0.6,0.1-0.4,0.4c0.4,0.3,0.7,0.9,0.8,1.4c-0.1,0.2-0.3,0.4-0.4,0.6
						c-0.6,0.6-1.5,1.2-2.2,1.6c0-0.3,0.4-0.7,0.5-1c0.2-0.5,0.3-1,0.4-1.6c0.3-1.6,0.3-3.2,0.5-4.8c0.1-1.2,0.2-2.4,0.2-3.6
						c0.1-0.6-0.2-2.1,0.4-2.4c0.5,0.7,0.6,1.4,0.6,2.3c0,0.4,0,0.6,0,0.8c-0.2,0.5-0.4,1.1-0.8,1.6c-0.2,0.3,0.3,0.5,0.4,0.3
						c0.1-0.2,0.2-0.4,0.3-0.6c0,0.3,0,0.6,0,0.9s0.5,0.3,0.5,0c0-0.4,0-0.8,0-1.2c0.1,0.5,0.3,1.1,0.5,1.5c0.1,0.3,0.6,0.2,0.5-0.1
						c-0.1-0.3-0.2-0.7-0.3-1c-0.1-0.2-0.2-0.5-0.2-0.7l0,0c0.2,0.6,0.6,1.1,0.9,1.5c0.2,0.3,0.6,0,0.4-0.3
						c-0.3-0.4-0.8-0.9-0.9-1.5c0.1,0.1,0.2,0.1,0.3,0.1c0.1,0.1,0.3-0.1,0.3-0.2s0-0.3-0.2-0.3c0,0,0,0-0.1,0l0,0l0,0l0,0L15,19.8
						l0,0c0,0,0,0,0-0.1l-0.1-0.1c0.1-0.5,0.2-1.1,0.3-1.6c0.2-0.7,0.2-1.3-0.1-2c-0.2-0.6-0.7-0.9-1.2-1.4c-0.6-0.4-1-0.8-1.1-1.6
						c0-0.7,0.3-1.2,0.6-1.9c0.7-1.4,1.4-3,1.5-4.6C15,4.8,14.7,3.1,14,1.6C13.7,0.9,13.2,0,12.4,0c-0.7,0-1.2,0.1-1.4,0.8
						c-0.3,0.7-0.6,1.3-1.1,1.9c-0.4,0.5-0.8,1.1-1,1.8c0,0-0.1,0-0.1,0.1C8.6,4.7,8.4,4.9,8.2,5.1V5c0.2-0.6,0.4-1.2,0.5-1.8
						c0.1-0.3-0.4-0.5-0.5-0.1C8.1,3.6,7.9,4.2,7.8,4.7c0,0.1,0,0.1-0.1,0.2c0,0,0,0-0.1-0.1c0-0.2,0.1-0.4,0.1-0.6
						c0-0.5,0-1.1,0-1.7c0-0.3-0.5-0.3-0.5,0c0,0.5,0,1,0,1.5c0,0.2,0,0.3,0,0.5c-0.1,0-0.1,0-0.2,0C6.8,4.4,6.8,4.2,6.7,4.1
						C6.6,3.7,6.4,3.2,6.2,2.8c0-0.3-0.5-0.2-0.5,0.1C5.9,3.3,6,3.7,6.2,4.1c0.1,0.3,0.1,0.4,0.3,0.8c0,0,0,0,0,0.1v0.2
						C6,4.8,5.4,4.5,5.1,4C4.8,3.8,4.5,4.1,4.7,4.4c0.4,0.5,1.1,0.8,1.6,1.3C6.3,6.1,6.1,6.6,6,7c-0.2,1.2,0,2.4,0.8,3.3
						c0.2,0.3,1,0.8,1.1,1.2c0,0.2-0.3,0.6-0.4,0.7c-0.4,0.6-0.6,1.3-0.9,2c-0.7,1.8-0.9,3.7-1.4,5.5c-0.4,2-0.5,4-0.4,6.1
						c0,1.6,0.2,3.4,0.8,4.9c0.5,1.1,1,3.2-0.3,4c-0.7,0.5-1.6,0.5-2.1,1.3C3,36.3,3,36.8,3,37.2c0-0.1-0.1-0.3-0.1-0.4
						c0-0.3-0.5-0.3-0.5,0c0,0.4,0.1,0.7,0.3,1.1c0,0.1,0.1,0.5,0.1,0.4c0.1,0.1-0.2,0.2-0.1,0.4C2.4,38.1,2.2,37.5,2,37
						c-0.1-0.3-0.6-0.2-0.5,0.1c0.3,0.7,0.4,1.4,0.8,2.1l-0.1-0.1c-0.3-0.2-0.7-0.5-0.9-0.9c-0.1-0.3-0.6,0-0.4,0.3
						c0.2,0.4,0.5,0.7,0.9,0.9c0.3,0.3,0.7,0.5,1,0.8c-0.3,0.2-0.7,0.4-1.2,0.4c-0.3,0-0.3,0.5,0,0.5c0.4,0,0.8-0.1,1.2-0.3
						c0.2-0.1,0.4-0.3,0.6-0.5c0.1,0,0.3-0.1,0.5-0.2c0.9-0.5,1-1.4,1.1-2.4c0-0.5,0-1.1,0.6-1.3c0.2-0.1,0.4-0.1,0.6-0.2
						c0.1,0,0.5-0.2,0.7-0.2c0.5,0.1,0.7,1.1,0.7,1.5c0.2,0.9,0.1,0.8,0.2,2c0.1,1,0,1.8-0.1,2.7c-0.2,1.2-0.3,1.7-0.6,2.9
						c-0.2,0.9-0.5,2.5-2,5.2c-0.6,1.1-1.5,1.5-0.9,1.9c0.5,0.4,2-0.6,2.4-1c1.2-1.1,4.4-4.6,5.1-8.2c0.4-2.1,0.6-3.4-0.1-5.7
						c-0.4-1.3-1.2-1.8-0.7-2.8c0.3-0.5,0.6-0.9,0.8-1.5c0.1-0.4,0.1-0.8,0.2-1.1c0.2-0.8,1.1-1.3,1.8-1.5c0.7-0.4,1.4-0.6,1.9-1.2
						c0.1-0.1,0.2-0.3,0.3-0.4c0.5,0,0.9-0.2,1.3-0.3C17.4,28.5,17.2,28,16.9,28.1"/>
				</g>
			</g>
		</g>
	</g>
</g>
</svg>
