<?xml version="1.0" encoding="UTF-8"?>
<svg width="268px" height="59px" viewBox="0 0 268 59" version="1.1" xmlns="http://www.w3.org/2000/svg" xmlns:xlink="http://www.w3.org/1999/xlink">
    <!-- Generator: Sketch 57.1 (83088) - https://sketch.com -->
    <title>Phoenix Zoo Logo PMS Crane</title>
    <desc>Created with Sketch.</desc>
    <defs>
        <polygon id="path-1" points="0.048 0.0183061224 23.8424 0.0183061224 23.8424 38.7484898 0.048 38.7484898"></polygon>
    </defs>
    <g id="0.0---Homepage" stroke="none" stroke-width="1" fill="none" fill-rule="evenodd">
        <g id="PhoenixZoo-Homepage_V3.0" transform="translate(-111.000000, -4224.000000)">
            <g id="Phoenix-Zoo-Logo-PMS-Crane" transform="translate(111.000000, 4224.000000)">
                <g id="Group-3" transform="translate(0.000000, 11.000000)">
                    <mask id="mask-2" fill="white">
                        <use xlink:href="#path-1"></use>
                    </mask>
                    <g id="Clip-2"></g>
                    <path d="M0,38.7484898 L0,2.74830612 C3.68,0.928836735 7.308,0.0183061224 11.5376,0.0183061224 C12.5816,0.0183061224 13.6,0.10744898 14.6016,0.292102041 C15.5968,0.471979592 16.6784,0.881877551 17.8408,1.51702041 C19.0032,2.15295918 20.0064,2.98867347 20.8488,4.02336735 C21.6888,5.05885714 22.4,6.49867347 22.9784,8.34122449 C23.5512,10.1853673 23.8424,12.3311633 23.8424,14.7849796 C23.8424,17.5539796 23.4656,19.9122857 22.716,21.8543265 C21.964,23.7955714 20.9248,25.2489184 19.5984,26.217551 C18.272,27.183 16.92,27.8611224 15.5488,28.2527143 C14.1752,28.645898 12.664,28.8432857 11.0168,28.8432857 C8.7344,28.8432857 6.4144,28.4827347 4.0608,27.7616327 L4.0608,38.7484898 L0,38.7484898 Z M11.5608,3.70818367 C9.2048,3.70818367 6.6168,4.40302041 4.0608,5.14879592 L4.0608,23.6586735 C6.1984,24.5843265 8.5144,25.0491429 11.0168,25.0491429 C14.084,25.0491429 16.3128,24.2404898 17.6984,22.6239796 C19.0872,21.0098571 19.7816,18.3793469 19.7816,14.7268776 C19.7816,12.3884694 19.5296,10.4360816 19.028,8.8744898 C18.5248,7.31369388 17.8232,6.18110204 16.9184,5.47193878 C16.0144,4.76516327 15.1512,4.29238776 14.3312,4.056 C13.5096,3.81961224 12.5784,3.70340816 11.5376,3.70340816 L11.5608,3.70818367 Z" id="Fill-1" fill="#FFFFFF" mask="url(#mask-2)"></path>
                </g>
                <path d="M27,39 L27,1 L31.0066552,1 L31.0066552,12.7415995 C33.7966381,11.5754495 36.5787307,10.9911965 39.3513551,10.9911965 C42.746518,10.9911965 45.3708062,12.0097128 47.2234305,14.0475305 C49.0744768,16.0853482 50,18.9626369 50,22.6793966 L50,39 L45.9957118,39 L45.9957118,22.6793966 C45.9957118,17.5271337 43.6373242,14.9498243 38.9181818,14.9498243 C36.3459691,14.9498243 33.7066895,15.505807 31.0066552,16.6193428 L31.0066552,39 L27,39" id="Fill-4" fill="#FFFFFF"></path>
                <path d="M60.1412664,17.2884716 C58.7157984,19.0093331 58.0042477,21.7471766 58.0042477,25.5012012 C58.0042477,29.2528234 58.7157984,31.9906669 60.1412664,33.7131299 C61.5659456,35.4331907 63.8457477,36.2916195 66.9869838,36.2916195 C70.1250645,36.2916195 72.4103887,35.4427999 73.8445341,33.7395554 C75.2778907,32.0379125 75.9949634,29.2904598 75.9949634,25.5012012 C75.9949634,21.7095402 75.2778907,18.9644899 73.8445341,17.2620461 C72.4103887,15.5580008 70.1250645,14.7059782 66.9869838,14.7059782 C63.8457477,14.7059782 61.5659456,15.5684109 60.1412664,17.2884716 M55.162778,32.7898385 C54.3881186,30.7847025 54,28.3567582 54,25.5012012 C54,22.6440425 54.3881186,20.2128952 55.162778,18.20856 C55.9382263,16.203424 56.9921418,14.7059782 58.3308353,13.7194257 C59.6632179,12.7312716 61.0208441,12.0289935 62.3997694,11.6173961 C63.7802725,11.2049979 65.3043478,11 66.9719955,11 C68.6396432,11 70.1731849,11.2049979 71.570254,11.6173961 C72.9681119,12.0289935 74.3352043,12.7312716 75.6699536,13.7194257 C77.0047028,14.7059782 78.0586183,16.203424 78.8364331,18.20856 C79.608726,20.2128952 80,22.6440425 80,25.5012012 C80,28.3567582 79.608726,30.7847025 78.8364331,32.7898385 C78.0586183,34.7933729 77.0047028,36.2916195 75.6699536,37.2821759 C74.3352043,38.2719315 72.9681119,38.9710065 71.570254,39.3826039 C70.1731849,39.7934005 68.6396432,40 66.9719955,40 C65.3043478,40 63.7802725,39.7934005 62.3997694,39.3826039 C61.0208441,38.9710065 59.6632179,38.2719315 58.3308353,37.2821759 C56.9921418,36.2916195 55.9382263,34.7933729 55.162778,32.7898385" id="Fill-5" fill="#FFFFFF"></path>
                <path d="M87.9688549,24.319693 L104.029581,24.319693 C104.029581,23.6782914 103.95452,22.9640214 103.800489,22.1768831 C103.648021,21.3897449 103.345431,20.3767948 102.888809,19.1412359 C102.430624,17.9064778 101.609643,16.8751104 100.418049,16.0535399 C99.2280176,15.2287663 97.75338,14.8171803 96.0011728,14.8171803 C93.277081,14.8171803 91.302818,15.5402584 90.0776022,16.9856141 C88.8500407,18.4317705 88.1486887,20.8772642 87.9688549,24.319693 M84,25.8835598 L84,25.471173 C84,15.8237243 87.9977847,11 96.0011728,11 C97.6705001,11 99.1857957,11.2714546 100.546278,11.8095593 C101.90676,12.3500663 102.984981,12.9858626 103.785633,13.7193506 C104.583939,14.4496355 105.287636,15.406533 105.889689,16.5892423 C106.495651,17.7671471 106.92647,18.7712889 107.184493,19.5960625 C107.442515,20.4184338 107.642678,21.4185719 107.785763,22.5892699 C107.926503,23.7247349 108,24.4382041 108,24.731279 L108,25.9388116 L107.892882,27.9166667 L87.9688549,27.9166667 C88.2174947,30.7353104 89.0603681,32.7804285 90.492002,34.0520212 C91.9251995,35.3252154 94.0464571,35.963414 96.8589021,35.963414 C100.831666,35.963414 103.956084,35.2675613 106.237628,33.875856 L106.237628,38.0485697 C103.598762,39.3497901 100.403975,40 96.6446653,40 L96.481251,40 C94.879166,40 93.4068741,39.8014137 92.0721942,39.4074442 C90.7343867,39.0166777 89.4223815,38.3344378 88.1307053,37.3647283 C86.8390292,36.3934173 85.8264864,34.9312459 85.0946408,32.9806163 C84.3635771,31.032389 84,28.6677712 84,25.8835598" id="Fill-6" fill="#FFFFFF"></path>
                <path d="M111,39 L111,13.6926851 C114.68128,11.8988701 118.637056,11 122.869729,11 C126.398956,11 129.131106,11.8784591 131.082185,13.6385174 C133.027662,15.3985757 134,17.8738049 134,21.0697003 L134,39 L129.937787,39 L129.937787,21.0697003 C129.937787,20.2987916 129.856959,19.6110971 129.690501,19.0089719 C129.525644,18.4092018 129.207133,17.7662545 128.732568,17.0832702 C128.256402,16.4018561 127.489736,15.8766647 126.430167,15.5084812 C125.372199,15.1410828 124.037335,14.9573836 122.430376,14.9573836 C120.073556,14.9573836 117.619102,15.324782 115.060612,16.061149 L115.060612,39 L111,39" id="Fill-7" fill="#FFFFFF"></path>
                <polyline id="Fill-8" fill="#FFFFFF" points="158 39 168.071612 24.8070811 158.301738 11 163.106212 11 170.498391 21.3832701 177.893788 11 182.859189 11 173.037818 24.8070811 172.983103 24.9173205 183 39 178.116672 39 170.553911 28.3419303 162.995977 39 158 39"></polyline>
                <polyline id="Fill-9" fill="#FFFFFF" points="186 39 186 31.2426452 197.446286 18.5069632 186.270286 18.5069632 186.270286 11 208 11 208 18.8650073 197.715 31.1365876 208 31.1365876 208 39 186 39"></polyline>
                <path d="M224.5,17.7871011 C221.946465,17.7871011 220.668897,20.1902341 220.668897,24.9996111 C220.668897,29.8097659 221.946465,32.2144544 224.5,32.2144544 C227.053535,32.2144544 228.331103,29.8097659 228.331103,24.9996111 C228.331103,20.1902341 227.053535,17.7871011 224.5,17.7871011 M214.516907,35.3921895 C212.171237,32.9906119 211,29.5243452 211,24.9996111 C211,20.4772102 212.171237,17.012499 214.516907,14.606255 C216.86018,12.2023442 220.188411,11 224.5,11 C228.812389,11 232.13982,12.2023442 234.482293,14.606255 C236.828763,17.012499 238,20.4772102 238,24.9996111 C238,29.5243452 236.828763,32.9906119 234.482293,35.3921895 C232.13982,37.796878 228.812389,39 224.5,39 C220.188411,39 216.86018,37.796878 214.516907,35.3921895" id="Fill-10" fill="#FFFFFF"></path>
                <path d="M254.5004,17.7871011 C251.945989,17.7871011 250.667585,20.1902341 250.667585,24.9996111 C250.667585,29.8097659 251.945989,32.2144544 254.5004,32.2144544 C257.054011,32.2144544 258.331616,29.8097659 258.331616,24.9996111 C258.331616,20.1902341 257.054011,17.7871011 254.5004,17.7871011 M244.516212,35.3921895 C242.171271,32.9906119 241,29.5243452 241,24.9996111 C241,20.4772102 242.171271,17.012499 244.516212,14.606255 C246.858755,12.2023442 250.187883,11 254.5004,11 C258.812117,11 262.138047,12.2023442 264.483788,14.606255 C266.829528,17.012499 268,20.4772102 268,24.9996111 C268,29.5243452 266.829528,32.9906119 264.483788,35.3921895 C262.138047,37.796878 258.812117,39 254.5004,39 C250.187883,39 246.858755,37.796878 244.516212,35.3921895" id="Fill-11" fill="#FFFFFF"></path>
                <path d="M23.5052717,51.5899697 L23.4801298,51.5899697 L22.8613139,54.8545054 L24.1248986,54.8545054 L23.5052717,51.5899697 Z M22.974047,49 L24.026764,49 L26,58 L24.7347932,58 L24.3617194,56.0672362 L22.6399027,56.0672362 L22.2668289,58 L21,58 L22.974047,49 L22.974047,49 Z" id="Fill-12" fill="#0092C6"></path>
                <path d="M30.1165118,53.0166314 L30.7483917,53.0166314 C30.9471051,53.0166314 31.1022159,52.9876872 31.2194425,52.921529 C31.3352395,52.8619866 31.424589,52.771019 31.4874911,52.6502803 C31.5496783,52.5336764 31.5918513,52.3873013 31.6125804,52.2144629 C31.6340243,52.0432785 31.6468906,51.8423229 31.6468906,51.614904 C31.6468906,51.3858311 31.6340243,51.1865294 31.6125804,51.0145181 C31.5918513,50.8408527 31.5446748,50.6944776 31.4767691,50.5729119 C31.4081487,50.4521731 31.3102216,50.3578976 31.1865618,50.3016631 C31.0643317,50.2437747 30.8984989,50.2131765 30.6954968,50.2131765 L30.1165118,50.2131765 L30.1165118,53.0166314 Z M29,49 L30.7941387,49 C32.1057898,49 32.7591137,49.8782505 32.7591137,51.6405403 C32.7591137,52.1607094 32.6869192,52.6130663 32.5468192,52.9876872 C32.4045747,53.3623082 32.1565404,53.6633281 31.7962831,53.890747 L33,58 L31.8213009,58 L30.7841315,54.1586879 L30.1165118,54.1586879 L30.1165118,58 L29,58 L29,49 L29,49 Z" id="Fill-13" fill="#0092C6"></path>
                <polygon id="Fill-14" fill="#0092C6" points="36 58 37 58 37 49 36 49"></polygon>
                <polyline id="Fill-15" fill="#0092C6" points="40 56.8616699 42.5342259 50.2160375 40.1312891 50.2160375 40.1312891 49 44 49 44 50.0234224 41.412222 56.7856159 44 56.7856159 44 58 40 58 40 56.8616699"></polyline>
                <path d="M47.1925798,55.8366167 C47.1925798,56.1432315 47.2706062,56.3693295 47.4327787,56.5149105 C47.5888315,56.6613049 47.7816026,56.7312489 48.0026774,56.7312489 C48.2191624,56.7312489 48.4065787,56.6613049 48.5656913,56.5149105 C48.7255689,56.3693295 48.8058902,56.1432315 48.8058902,55.8366167 L48.8058902,51.1617567 C48.8058902,50.8535153 48.7255689,50.6282306 48.5656913,50.4834629 C48.4065787,50.3395084 48.2191624,50.2679378 48.0026774,50.2679378 C47.7816026,50.2679378 47.5888315,50.3395084 47.4327787,50.4834629 C47.2706062,50.6282306 47.1925798,50.8535153 47.1925798,51.1617567 L47.1925798,55.8366167 Z M46,51.1617567 C46,50.8047172 46.0581373,50.4899693 46.1767068,50.2150732 C46.2922165,49.9401771 46.4436795,49.7181457 46.6364506,49.5384059 C46.8261618,49.3619194 47.0403519,49.2269113 47.2805508,49.1366347 C47.5184548,49.043105 47.7586537,49 48.0026774,49 C48.2413463,49 48.4823102,49.043105 48.7186843,49.1366347 C48.9558233,49.2269113 49.1715433,49.3619194 49.3589596,49.5384059 C49.5517307,49.7181457 49.7077835,49.9401771 49.8225282,50.2150732 C49.9410977,50.4899693 50,50.8047172 50,51.1617567 L50,55.8366167 C50,56.2026026 49.9410977,56.5181637 49.8225282,56.78818 C49.7077835,57.0581963 49.5517307,57.2842942 49.3589596,57.4583409 C49.1715433,57.636454 48.9558233,57.7730887 48.7186843,57.862552 C48.4823102,57.9560817 48.2413463,58 48.0026774,58 C47.7586537,58 47.5184548,57.9560817 47.2805508,57.862552 C47.0403519,57.7730887 46.8261618,57.636454 46.6364506,57.4583409 C46.4436795,57.2842942 46.2922165,57.0581963 46.1767068,56.78818 C46.0581373,56.5181637 46,56.2026026 46,55.8366167 L46,51.1617567 L46,51.1617567 Z" id="Fill-16" fill="#0092C6"></path>
                <polyline id="Fill-17" fill="#0092C6" points="53 49 54.1004591 49 55.8312213 54.4233208 55.8525253 54.4233208 55.8525253 49 57 49 57 58 55.9215794 58 54.1665748 52.5890839 54.1460055 52.5890839 54.1460055 58 53 58 53 49"></polyline>
                <path d="M61.5097339,51.5899697 L61.4829656,51.5899697 L60.8640493,54.8545054 L62.1294614,54.8545054 L61.5097339,51.5899697 Z M60.9768008,49 L62.0313108,49 L64,58 L62.7370214,58 L62.3646982,56.0672362 L60.6401687,56.0672362 L60.2678456,58 L59,58 L60.9768008,49 L60.9768008,49 Z" id="Fill-18" fill="#0092C6"></path>
                <path d="M75,55.9496656 C75,56.2213085 74.9500496,56.4831918 74.8501487,56.7312489 C74.7494549,56.9809326 74.6114965,57.1980842 74.4315164,57.3843304 C74.2555005,57.5697632 74.0461843,57.7210374 73.8083251,57.8324598 C73.5720515,57.9446955 73.3135778,58 73.0344896,58 C72.8029732,58 72.5674926,57.9682812 72.3209118,57.8999639 C72.0782953,57.8332731 71.864222,57.7210374 71.6675917,57.5600036 C71.4765114,57.3981565 71.3163528,57.1842581 71.1887017,56.9199349 C71.0626363,56.6531719 71,56.3180915 71,55.9114404 L71,51.0365082 C71,50.7485993 71.052329,50.4769564 71.1474727,50.228086 C71.2457879,49.9800289 71.379782,49.7612507 71.560555,49.5831375 C71.7389495,49.4017712 71.9490585,49.2570034 72.1956392,49.1529008 C72.4445986,49.051238 72.7157582,49 73.0122894,49 C73.2961348,49 73.5617443,49.051238 73.8011893,49.1529008 C74.0430129,49.2570034 74.2555005,49.4017712 74.4315164,49.5880174 C74.6114965,49.7750768 74.7494549,49.9979216 74.8501487,50.2598048 C74.9500496,50.5200614 75,50.8047172 75,51.111332 L75,51.6098861 L73.7647175,51.6098861 L73.7647175,51.1861558 C73.7647175,50.9380987 73.6997027,50.723387 73.5617443,50.5412073 C73.4222002,50.359841 73.2358771,50.2679378 73.0019822,50.2679378 C72.6943508,50.2679378 72.4897919,50.3647208 72.3906838,50.5582866 C72.2876115,50.7534791 72.2376611,50.998283 72.2376611,51.2983915 L72.2376611,55.8244171 C72.2376611,56.079794 72.2947473,56.2961323 72.4017839,56.4693656 C72.5104063,56.6450389 72.7070367,56.7312489 72.9900892,56.7312489 C73.0685828,56.7312489 73.1557978,56.7166094 73.2509415,56.6865173 C73.3429138,56.6613049 73.4301288,56.6125068 73.5046581,56.5466293 C73.5823588,56.4783119 73.6442022,56.3880354 73.6957384,56.2717332 C73.7433102,56.1546177 73.7647175,56.0114766 73.7647175,55.8366167 L73.7647175,55.4015001 L75,55.4015001 L75,55.9496656" id="Fill-19" fill="#0092C6"></path>
                <polyline id="Fill-20" fill="#0092C6" points="77 49 81 49 81 50.2131765 78.3422241 50.2131765 78.3422241 52.8537168 80.660142 52.8537168 80.660142 54.0685473 78.3422241 54.0685473 78.3422241 56.7107415 81 56.7107415 81 58 77 58 77 49"></polyline>
                <polyline id="Fill-21" fill="#0092C6" points="84 49 85.1004591 49 86.8319559 54.4233208 86.8525253 54.4233208 86.8525253 49 88 49 88 58 86.9193756 58 85.1680441 52.5890839 85.1452709 52.5890839 85.1452709 58 84 58 84 49"></polyline>
                <polyline id="Fill-22" fill="#0092C6" points="91.3975997 50.2160375 90 50.2160375 90 49 94 49 94 50.2160375 92.6062718 50.2160375 92.6062718 58 91.3975997 58 91.3975997 50.2160375"></polyline>
                <polyline id="Fill-23" fill="#0092C6" points="97 49 101 49 101 50.2131765 98.3439449 50.2131765 98.3439449 52.8537168 100.661002 52.8537168 100.661002 54.0685473 98.3439449 54.0685473 98.3439449 56.7107415 101 56.7107415 101 58 97 58 97 49"></polyline>
                <path d="M104.115398,53.0166314 L104.748482,53.0166314 C104.945695,53.0166314 105.102894,52.9876872 105.219364,52.921529 C105.333691,52.8619866 105.424437,52.771019 105.485888,52.6502803 C105.549482,52.5336764 105.589496,52.3873013 105.612362,52.2144629 C105.633798,52.0432785 105.64666,51.8423229 105.64666,51.614904 C105.64666,51.3858311 105.633798,51.1865294 105.612362,51.0145181 C105.589496,50.8408527 105.54448,50.6944776 105.476599,50.5729119 C105.40443,50.4521731 105.310111,50.3578976 105.18721,50.3016631 C105.064309,50.2437747 104.897821,50.2131765 104.694891,50.2131765 L104.115398,50.2131765 L104.115398,53.0166314 Z M103,49 L104.794927,49 C106.105395,49 106.757771,49.8782505 106.757771,51.6405403 C106.757771,52.1607094 106.687746,52.6130663 106.544123,52.9876872 C106.405502,53.3623082 106.154698,53.6633281 105.794569,53.890747 L107,58 L105.819578,58 L104.78278,54.1586879 L104.115398,54.1586879 L104.115398,58 L103,58 L103,49 L103,49 Z" id="Fill-24" fill="#0092C6"></path>
                <path d="M112.939779,51.9698697 L113.026322,51.534202 L113.814743,51.534202 L114.018795,50.3029316 C114.276044,48.8346906 115.206587,48 115.962455,48 C116.712765,48 117.054175,48.5472313 116.993039,48.9210098 C116.958104,49.1083062 116.82154,49.230456 116.615105,49.230456 C116.095843,49.230456 116.531737,48.3623779 115.852092,48.3623779 C115.46463,48.3623779 114.939017,48.9079805 114.699235,50.3029316 L114.492007,51.534202 L115.46463,51.534202 L115.378881,51.9698697 L114.407845,51.9698697 L113.54479,57.0065147 C113.289923,58.4796417 112.673002,59 111.959215,59 C111.240665,59 110.938159,58.4796417 111.010411,58.1172638 C111.04614,57.9161238 111.169206,57.7687296 111.410576,57.7687296 C111.933014,57.7687296 111.42328,58.6400651 112.080694,58.6400651 C112.441954,58.6400651 112.660298,58.2043974 112.868321,57.0065147 L113.728199,51.9698697 L112.939779,51.9698697" id="Fill-25" fill="#0092C6"></path>
                <path d="M117.36452,52.3393335 C116.593525,52.3393335 116.071074,53.0807343 115.880016,53.9953662 C115.687267,54.9099982 115.880016,55.6606665 116.655238,55.6606665 C117.432152,55.6606665 117.934313,54.9099982 118.127062,53.9953662 C118.323192,53.0807343 118.127062,52.3393335 117.36452,52.3393335 M116.593525,56 C115.50889,56 114.819897,55.0953484 115.041389,53.9953662 C115.285707,52.8953841 116.342444,52 117.432152,52 C118.50157,52 119.187181,52.8953841 118.954698,53.9953662 C118.723907,55.0953484 117.663788,56 116.593525,56" id="Fill-26" fill="#0092C6"></path>
                <path d="M122.39077,52 C122.926726,52 123.044356,52.4247523 122.98671,52.7201346 C122.961003,52.8689475 122.827793,53.1097401 122.509179,53.1097401 C122.298068,53.1097401 122.153173,52.939241 122.186671,52.7433165 C122.213157,52.5840344 122.199914,52.5040194 122.082284,52.5040194 C121.735626,52.5040194 121.177857,53.2675266 120.87015,54.8947467 L120.661376,56 L120.033497,56 L120.604509,52.9257805 C120.652028,52.6528323 120.6271,52.4479342 120.474415,52.4479342 C120.331078,52.4479342 120.081796,52.6176855 120,52.7081698 L120,52.4367171 C120.223575,52.2086371 120.545304,52.0478594 120.772774,52.0478594 C121.188764,52.0478594 121.320416,52.3783885 121.236283,52.8338007 L121.177857,53.1202094 C121.472322,52.403066 121.935831,52 122.39077,52" id="Fill-27" fill="#0092C6"></path>
                <polyline id="Fill-28" fill="#0092C6" points="126 49 127.100789 49 128.830916 54.4233208 128.851478 54.4233208 128.851478 49 130 49 130 58 128.920507 58 127.16835 52.5890839 127.147053 52.5890839 127.147053 58 126 58 126 49"></polyline>
                <path d="M134.50568,51.5899697 L134.480526,51.5899697 L133.859786,54.8545054 L135.124797,54.8545054 L134.50568,51.5899697 Z M133.97582,49 L135.026615,49 L137,58 L135.7358,58 L135.361733,56.0672362 L133.637455,56.0672362 L133.266634,58 L132,58 L133.97582,49 L133.97582,49 Z" id="Fill-29" fill="#0092C6"></path>
                <polyline id="Fill-30" fill="#0092C6" points="139.398374 50.2160375 138 50.2160375 138 49 142 49 142 50.2160375 140.606272 50.2160375 140.606272 58 139.398374 58 139.398374 50.2160375"></polyline>
                <path d="M149,55.9209951 C149,56.2096774 148.94691,56.4835976 148.843106,56.7353745 C148.736926,56.9846911 148.591918,57.2044833 148.409667,57.393111 C148.229794,57.5792783 148.019017,57.7293603 147.774168,57.8367961 C147.532488,57.9458721 147.273376,58 147.00317,58 C146.72504,58 146.465927,57.9458721 146.225832,57.8367961 C145.984152,57.7293603 145.769414,57.5792783 145.58954,57.393111 C145.408875,57.2044833 145.265452,56.9846911 145.159271,56.7353745 C145.055468,56.4835976 145,56.2096774 145,55.9209951 L145,49 L146.236926,49 L146.236926,55.7930563 C146.236926,56.1104429 146.310618,56.3441771 146.451664,56.4958994 C146.602219,56.6468015 146.782092,56.7222526 147.00317,56.7222526 C147.2187,56.7222526 147.401743,56.6468015 147.545959,56.4958994 C147.690967,56.3441771 147.763867,56.1104429 147.763867,55.7930563 L147.763867,49 L149,49 L149,55.9209951" id="Fill-31" fill="#0092C6"></path>
                <path d="M153.114965,53.0166314 L153.748614,53.0166314 C153.948149,53.0166314 154.103343,52.9876872 154.218487,52.921529 C154.335777,52.8619866 154.425174,52.771019 154.487395,52.6502803 C154.549616,52.5336764 154.593242,52.3873013 154.613982,52.2144629 C154.635437,52.0432785 154.646165,51.8423229 154.646165,51.614904 C154.646165,51.3858311 154.635437,51.1865294 154.613982,51.0145181 C154.593242,50.8408527 154.546755,50.6944776 154.476667,50.5729119 C154.40658,50.4521731 154.309315,50.3578976 154.187019,50.3016631 C154.063293,50.2437747 153.898802,50.2131765 153.695691,50.2131765 L153.114965,50.2131765 L153.114965,53.0166314 Z M152,49 L153.793671,49 C155.10531,49 155.760415,49.8782505 155.760415,51.6405403 C155.760415,52.1607094 155.691042,52.6130663 155.550867,52.9876872 C155.405686,53.3623082 155.155373,53.6633281 154.800644,53.890747 L156,58 L154.821384,58 L153.783658,54.1586879 L153.114965,54.1586879 L153.114965,58 L152,58 L152,49 L152,49 Z" id="Fill-32" fill="#0092C6"></path>
                <polyline id="Fill-33" fill="#0092C6" points="159 49 163 49 163 50.2131765 160.342507 50.2131765 160.342507 52.8537168 162.656848 52.8537168 162.656848 54.0685473 160.342507 54.0685473 160.342507 56.7107415 163 56.7107415 163 58 159 58 159 49"></polyline>
                <path d="M173,55.9496656 C173,56.2213085 172.948484,56.4831918 172.84783,56.7312489 C172.751932,56.9809326 172.610065,57.1980842 172.430949,57.3843304 C172.253418,57.5697632 172.048147,57.7210374 171.80959,57.8324598 C171.56707,57.9446955 171.312661,58 171.038439,58 C170.803844,58 170.566079,57.9682812 170.323559,57.8999639 C170.081038,57.8332731 169.86388,57.7210374 169.66812,57.5600036 C169.474737,57.3981565 169.31702,57.1842581 169.187834,56.9199349 C169.066574,56.6531719 169,56.3180915 169,55.9114404 L169,51.0365082 C169,50.7485993 169.049138,50.4769564 169.146622,50.228086 C169.244898,49.9800289 169.380424,49.7612507 169.560333,49.5831375 C169.738657,49.4017712 169.947097,49.2570034 170.198336,49.1529008 C170.443234,49.051238 170.716663,49 171.01704,49 C171.298395,49 171.561522,49.051238 171.803249,49.1529008 C172.044185,49.2570034 172.253418,49.4017712 172.430949,49.5880174 C172.610065,49.7750768 172.751932,49.9979216 172.84783,50.2598048 C172.948484,50.5200614 173,50.8047172 173,51.111332 L173,51.6098861 L171.766,51.6098861 L171.766,51.1861558 C171.766,50.9380987 171.693085,50.723387 171.561522,50.5412073 C171.422033,50.359841 171.234199,50.2679378 171.002774,50.2679378 C170.694472,50.2679378 170.489994,50.3647208 170.38934,50.5582866 C170.289479,50.7534791 170.236378,50.998283 170.236378,51.2983915 L170.236378,55.8244171 C170.236378,56.079794 170.294234,56.2961323 170.401228,56.4693656 C170.511393,56.6450389 170.707153,56.7312489 170.991678,56.7312489 C171.070933,56.7312489 171.156529,56.7166094 171.251635,56.6865173 C171.34357,56.6613049 171.428373,56.6125068 171.505251,56.5466293 C171.582921,56.4783119 171.641569,56.3880354 171.6915,56.2717332 C171.743016,56.1546177 171.766,56.0114766 171.766,55.8366167 L171.766,55.4015001 L173,55.4015001 L173,55.9496656" id="Fill-34" fill="#0092C6"></path>
                <path d="M177.195411,55.8366167 C177.195411,56.1432315 177.271128,56.3693295 177.434034,56.5149105 C177.589293,56.6613049 177.782792,56.7312489 178.002294,56.7312489 C178.221033,56.7312489 178.409178,56.6613049 178.565201,56.5149105 C178.725813,56.3693295 178.804589,56.1432315 178.804589,55.8366167 L178.804589,51.1617567 C178.804589,50.8535153 178.725813,50.6282306 178.565201,50.4834629 C178.409178,50.3395084 178.221033,50.2679378 178.002294,50.2679378 C177.782792,50.2679378 177.589293,50.3395084 177.434034,50.4834629 C177.271128,50.6282306 177.195411,50.8535153 177.195411,51.1617567 L177.195411,55.8366167 Z M176,51.1617567 C176,50.8047172 176.058891,50.4899693 176.178203,50.2150732 C176.292161,49.9401771 176.445889,49.7181457 176.637859,49.5384059 C176.828298,49.3619194 177.040918,49.2269113 177.281836,49.1366347 C177.521224,49.043105 177.757553,49 178.002294,49 C178.242447,49 178.480306,49.043105 178.719694,49.1366347 C178.958317,49.2269113 179.169407,49.3619194 179.361377,49.5384059 C179.553346,49.7181457 179.707075,49.9401771 179.824092,50.2150732 C179.941874,50.4899693 180,50.8047172 180,51.1617567 L180,55.8366167 C180,56.2026026 179.941874,56.5181637 179.824092,56.78818 C179.707075,57.0581963 179.553346,57.2842942 179.361377,57.4583409 C179.169407,57.636454 178.958317,57.7730887 178.719694,57.862552 C178.480306,57.9560817 178.242447,58 178.002294,58 C177.757553,58 177.521224,57.9560817 177.281836,57.862552 C177.040918,57.7730887 176.828298,57.636454 176.637859,57.4583409 C176.445889,57.2842942 176.292161,57.0581963 176.178203,56.78818 C176.058891,56.5181637 176,56.2026026 176,55.8366167 L176,51.1617567 L176,51.1617567 Z" id="Fill-35" fill="#0092C6"></path>
                <polyline id="Fill-36" fill="#0092C6" points="183 49 184.100331 49 185.831312 54.4233208 185.852628 54.4233208 185.852628 49 187 49 187 58 185.92172 58 184.167953 52.5890839 184.146637 52.5890839 184.146637 58 183 58 183 49"></polyline>
                <path d="M194,51.6196458 L192.834516,51.6196458 L192.834516,51.3366167 C192.834516,51.0446412 192.772507,50.7933309 192.644752,50.583499 C192.521479,50.3744804 192.308554,50.2679378 192.011207,50.2679378 C191.851326,50.2679378 191.722077,50.29803 191.619724,50.3647208 C191.515876,50.4297849 191.433694,50.5184348 191.378409,50.6200976 C191.322376,50.7250136 191.282779,50.8445689 191.258125,50.9812037 C191.234965,51.119465 191.224505,51.2585397 191.224505,51.4114404 C191.224505,51.5863004 191.230482,51.7302548 191.240194,51.8514368 C191.252148,51.9734321 191.282779,52.0750949 191.326858,52.1613049 C191.368696,52.2499548 191.439671,52.3264052 191.527083,52.393096 C191.615241,52.4581601 191.734778,52.5248509 191.887934,52.5915417 L192.778483,52.9762335 C193.035487,53.0844027 193.24916,53.2129044 193.407546,53.3560455 C193.564438,53.5016266 193.689951,53.6699801 193.776616,53.8651726 C193.865521,54.0595518 193.923795,54.2832098 193.952185,54.5377734 C193.985058,54.7915236 194,55.0810591 194,55.4015001 C194,55.7731791 193.96638,56.1212724 193.900635,56.4392735 C193.827419,56.7597144 193.717594,57.0313573 193.558461,57.2598952 C193.404557,57.4892463 193.195368,57.6697994 192.938364,57.8048075 C192.679118,57.9365624 192.360852,58 191.988793,58 C191.707135,58 191.444154,57.9446955 191.201345,57.8381529 C190.957041,57.7332369 190.744864,57.5827761 190.572282,57.3949033 C190.39746,57.2094705 190.258498,56.9915055 190.156145,56.7312489 C190.052297,56.4742454 190,56.1960962 190,55.8984276 L190,55.4283391 L191.168472,55.4283391 L191.168472,55.8244171 C191.168472,56.0594614 191.230482,56.2660401 191.354501,56.4498464 C191.480762,56.6393457 191.694434,56.7312489 191.988793,56.7312489 C192.185282,56.7312489 192.342174,56.6995301 192.452746,56.6393457 C192.564811,56.5759082 192.644752,56.4896982 192.705267,56.3750226 C192.762047,56.2660401 192.797161,56.1245256 192.812103,55.9626785 C192.828539,55.7959516 192.834516,55.6129586 192.834516,55.4128863 C192.834516,55.1827219 192.828539,54.9915959 192.812103,54.841135 C192.797161,54.693114 192.762047,54.5727453 192.715727,54.4800289 C192.664923,54.391379 192.596937,54.3149286 192.51102,54.2579975 C192.423609,54.2010663 192.304072,54.1368155 192.160628,54.0717513 L191.326858,53.6968191 C190.824804,53.473161 190.486365,53.1779324 190.313037,52.80788 C190.144938,52.4394542 190.059021,51.9766853 190.059021,51.4212001 C190.059021,51.0901862 190.099365,50.7762516 190.182294,50.4769564 C190.265969,50.1801012 190.390736,49.9230978 190.555846,49.7051328 C190.718715,49.4912344 190.927904,49.3196277 191.177437,49.1886861 C191.429212,49.061811 191.725065,49 192.060516,49 C192.348151,49 192.612626,49.0553045 192.852447,49.1716067 C193.092267,49.2895355 193.296974,49.4432496 193.468808,49.6335623 C193.642137,49.8230616 193.770639,50.0369601 193.864027,50.2728176 C193.952185,50.5103018 194,50.7510392 194,50.998283 L194,51.6196458" id="Fill-37" fill="#0092C6"></path>
                <polyline id="Fill-38" fill="#0092C6" points="197 49 201 49 201 50.2131765 198.343952 50.2131765 198.343952 52.8537168 200.662505 52.8537168 200.662505 54.0685473 198.343952 54.0685473 198.343952 56.7107415 201 56.7107415 201 58 197 58 197 49"></polyline>
                <path d="M204.116395,53.0166314 L204.747184,53.0166314 C204.943858,53.0166314 205.100483,52.9876872 205.219918,52.921529 C205.335062,52.8619866 205.423744,52.771019 205.485249,52.6502803 C205.54747,52.5336764 205.590381,52.3873013 205.611121,52.2144629 C205.634007,52.0432785 205.643304,51.8423229 205.643304,51.614904 C205.643304,51.3858311 205.634007,51.1865294 205.611121,51.0145181 C205.590381,50.8408527 205.545325,50.6944776 205.475237,50.5729119 C205.405149,50.4521731 205.3086,50.3578976 205.184874,50.3016631 C205.063293,50.2437747 204.897372,50.2131765 204.69283,50.2131765 L204.116395,50.2131765 L204.116395,53.0166314 Z M203,49 L204.79224,49 C206.10388,49 206.76256,49.8782505 206.76256,51.6405403 C206.76256,52.1607094 206.689612,52.6130663 206.548006,52.9876872 C206.406401,53.3623082 206.153942,53.6633281 205.797783,53.890747 L207,58 L205.818523,58 L204.782228,54.1586879 L204.116395,54.1586879 L204.116395,58 L203,58 L203,49 L203,49 Z" id="Fill-39" fill="#0092C6"></path>
                <polyline id="Fill-40" fill="#0092C6" points="212.085307 58 210.899245 58 209 49 210.417782 49 211.478544 55.2800698 211.502575 55.2800698 212.582218 49 214 49 212.085307 58"></polyline>
                <path d="M218.50771,51.5899697 L218.483363,51.5899697 L217.861711,54.8545054 L219.129362,54.8545054 L218.50771,51.5899697 Z M217.974517,49 L219.027918,49 L221,58 L219.735595,58 L219.359033,56.0672362 L217.63691,56.0672362 L217.266028,58 L216,58 L217.974517,49 L217.974517,49 Z" id="Fill-41" fill="#0092C6"></path>
                <polyline id="Fill-42" fill="#0092C6" points="223.395547 50.2160375 222 50.2160375 222 49 226 49 226 50.2160375 224.607551 50.2160375 224.607551 58 223.395547 58 223.395547 50.2160375"></polyline>
                <polygon id="Fill-43" fill="#0092C6" points="228 58 229 58 229 49 228 49"></polygon>
                <path d="M233.194875,55.8366167 C233.194875,56.1432315 233.274431,56.3693295 233.433544,56.5149105 C233.592656,56.6613049 233.783133,56.7312489 234.001912,56.7312489 C234.217632,56.7312489 234.408109,56.6613049 234.567221,56.5149105 C234.724804,56.3693295 234.81048,56.1432315 234.81048,55.8366167 L234.81048,51.1617567 C234.81048,50.8535153 234.724804,50.6282306 234.567221,50.4834629 C234.408109,50.3395084 234.217632,50.2679378 234.001912,50.2679378 C233.783133,50.2679378 233.592656,50.3395084 233.433544,50.4834629 C233.274431,50.6282306 233.194875,50.8535153 233.194875,51.1617567 L233.194875,55.8366167 Z M232,51.1617567 C232,50.8047172 232.058137,50.4899693 232.175942,50.2150732 C232.292216,49.9401771 232.448269,49.7181457 232.63798,49.5384059 C232.827692,49.3619194 233.043412,49.2269113 233.280551,49.1366347 C233.51922,49.043105 233.760949,49 234.001912,49 C234.242876,49 234.47925,49.043105 234.720979,49.1366347 C234.957353,49.2269113 235.171543,49.3619194 235.364314,49.5384059 C235.552496,49.7181457 235.709313,49.9401771 235.824823,50.2150732 C235.941863,50.4899693 236,50.8047172 236,51.1617567 L236,55.8366167 C236,56.2026026 235.941863,56.5181637 235.824823,56.78818 C235.709313,57.0581963 235.552496,57.2842942 235.364314,57.4583409 C235.171543,57.636454 234.957353,57.7730887 234.720979,57.862552 C234.47925,57.9560817 234.242876,58 234.001912,58 C233.760949,58 233.51922,57.9560817 233.280551,57.862552 C233.043412,57.7730887 232.827692,57.636454 232.63798,57.4583409 C232.448269,57.2842942 232.292216,57.0581963 232.175942,56.78818 C232.058137,56.5181637 232,56.2026026 232,55.8366167 L232,51.1617567 L232,51.1617567 Z" id="Fill-44" fill="#0092C6"></path>
                <g id="Group-50" transform="translate(136.000000, 0.000000)" fill="#0092C6">
                    <polyline id="Fill-45" points="102.953195 49.5910072 104.142544 49.5910072 106.008237 54.7807914 106.032024 54.7807914 106.032024 49.5910072 107.268947 49.5910072 107.268947 58.2034532 106.105763 58.2034532 104.215491 53.0255396 104.191704 53.0255396 104.191704 58.2034532 102.953195 58.2034532 102.953195 49.5910072"></polyline>
                    <path d="M6.50015385,45.2820144 C6.50015385,45.2820144 6.90770414,38.5506475 6.85378698,36.9425899 C6.79828402,35.3305755 7.24389349,35.3867626 7.74262722,34.2226619 C8.24373964,33.0569784 8.52046154,31.1703597 8.41104142,28.9513669 L6.57547929,30.038705 C6.57547929,30.038705 6.63098225,30.1732374 6.57468639,30.9471942 C6.51997633,31.7266906 6.57468639,32.0028777 6.57468639,32.0028777 C6.57468639,32.0028777 5.85314793,32.3352518 5.51933728,32.0590647 C5.51933728,32.0590647 4.24118343,32.6122302 3.62827219,31.8920863 C2.01710059,32.3906475 1.90609467,35.4421583 2.29540828,36.3308633 C0.849952663,35.553741 -0.817514793,28.6047482 3.46334911,24.6716547 C4.79700592,22.1266187 11.1901538,18.5757554 12.6903195,16.7453237 C14.1904852,14.9133094 16.304355,12.3611511 16.7491716,9.08884892 C17.1931953,5.81417266 17.0813964,4.92625899 16.9156805,3.48438849 C16.7491716,2.04172662 18.2493373,-1.06517986 20.6375503,0.710647482 C23.0305207,2.48647482 24.7630059,2.88928058 25.3085207,3.04122302 C25.6788047,3.14489209 25.3085207,3.37280576 25.3085207,3.37280576 L21.530355,2.93043165 C21.530355,2.93043165 19.5829941,2.76266187 19.0834675,3.92834532 C18.582355,5.09402878 17.8037278,10.5861151 17.8608166,14.6363309 C17.9147337,18.6873381 16.5826627,19.9622302 16.0252544,21.9042446 C15.4702249,23.8470504 15.0254083,25.2335252 13.0796331,26.7331655 C13.0249231,29.8946763 12.6086509,32.9319424 12.6086509,32.9319424 C12.6086509,32.9319424 12.6903195,36.7748201 12.8560355,36.8856115 C13.0249231,36.9971942 21.7531598,41.4905755 21.7531598,41.4905755 C21.7531598,41.4905755 24.1405799,42.1576978 25.3085207,44.487482 C25.3085207,44.487482 24.6749941,43.6153957 24.1183787,43.3930216 L24.5306864,44.487482 L23.7465089,43.5164748 C23.7465089,43.5164748 23.9574201,44.5428777 23.9217396,44.487482 C23.4420355,43.7269784 22.4176095,42.6554676 21.530355,41.9907194 C20.6375503,41.3251799 14.1357751,38.161295 13.4134438,38.051295 C12.6903195,37.9397122 12.1352899,37.6635252 12.1352899,36.2754676 C12.1352899,34.8874101 12.2240947,33.5856115 12.0012899,33.0308633 C11.7808639,32.4761151 10.7453373,29.9492806 10.7453373,29.9492806 C10.7453373,29.9492806 8.63384615,33.6663309 8.3000355,34.6674101 C7.96622485,35.6645324 7.9083432,36.2192806 7.74262722,37.2179856 C7.57373964,38.2182734 6.90770414,45.3184173 6.90770414,45.3184173 C6.88708876,45.6539568 8.73692308,45.9697122 8.73692308,45.9697122 L9.54805917,46.2585612 L7.81160947,46.2585612 L6.71185799,46.2490647 L6.40421302,45.5273381 L6.50015385,45.2820144" id="Fill-47"></path>
                </g>
            </g>
        </g>
    </g>
</svg>