<?xml version="1.0" encoding="utf-8"?>
<!-- Generator: Adobe Illustrator 21.0.2, SVG Export Plug-In . SVG Version: 6.00 Build 0)  -->
<svg version="1.1" id="Layer_1" xmlns="http://www.w3.org/2000/svg" xmlns:xlink="http://www.w3.org/1999/xlink" x="0px" y="0px"
	 width="512px" height="512px" viewBox="0 0 512 512" style="enable-background:new 0 0 512 512;" xml:space="preserve">
<style type="text/css">
	.st0{fill:#777;}
</style>
<g>
	<g id="Oval">
		<path class="st0" d="M256,512C115,512,0,397,0,256S115,0,256,0s256,115,256,256S397,512,256,512z M256,13.3
			c-133.7,0-242.7,109-242.7,242.7s109,242.7,242.7,242.7s242.7-109,242.7-242.7S389.7,13.3,256,13.3z"/>
	</g>
	<path id="Fill_47" class="st0" d="M128.3,416.2c-0.7-0.7-1.3-1.3-2-2c-0.7-0.7-0.7-1.3,0-2.7s2.7-2,5.3-2.7c3.3-0.7,6-2,8.6-4
		c12-6.6,23.3-15.3,32.6-25.3c0.7-0.7,0.7-0.7,1.3-1.3c1.3-1.3,2-2,2.7-2.7c4.7-4.7,8.6-9.3,12-14c4.7-5.3,8-11.3,11.3-17.3
		c0.7-1.3,1.3-2.7,2-3.3c1.3-3.3,3.3-6.6,4-10c1.3-3.3,4-10.6,0.7-12.6c-1.3-0.7-2.7-0.7-4-0.7c-0.7,0-1.3,0-2,0h-0.7
		c-1.3-0.7-2.7-0.7-4-1.3c-4-0.7-6,2-8.6,4.7c-0.7,0.7-0.7,0.7-1.3,1.3l0,0.7c-4,6-8,11.3-16,10.6c-1.3,0-2.7,0-4-0.7
		c-2,0.7-4,0.7-6,0.7c-3.3,0-6-1.3-8.6-2.7l0,0c-0.7-0.7-1.3-1.3-0.7-2.7l0,0c0.7-0.7,1.3-1.3,2.7-0.7l0,0c2.7,1.3,6,2,9.3,2
		l-0.7-1.3c-1.3-2.7-2-5.3-3.3-8s-2-6-2-9.3c0-0.7,0.7-1.3,1.3-1.3c0.7-0.7,1.3-0.7,2,0c0.7,0,0.7,0.7,0.7,1.3c0,3.3,0.7,6,2.7,9.3
		l0,0c0,0.7,0.7,0.7,0.7,1.3c0-3.3,0.7-6.6,1.3-10c0.7-2,0.7-4.7,1.3-6.6c0-0.7,0.7-1.3,0.7-1.3c0.7,0,1.3,0,2,0
		c0.7,0.7,1.3,1.3,1.3,2c0,2-0.7,4-1.3,6.6c-0.7,2-0.7,4.7-1.3,6.6c0-0.7,0.7-1.3,1.3-1.3s0.7,0,0.7-0.7l0,0c0,0,0.7-2,0.7-2.7
		c0.7-2.7,1.3-5.3,2.7-8c0-0.7,0.7-0.7,1.3-0.7c0.7,0,1.3,0,1.3,0c1.3,0.7,1.3,2,0.7,2.7c-0.7,1.3-0.7,2-1.3,3.3
		c0.7-0.7,0.7-1.3,1.3-2c1.3-2,3.3-4,5.3-5.3c4-1.3,8-1.3,11.3-0.7c2.7,0.7,4.7,0.7,7.3,0.7c12.6-0.7,16.6-18,17.3-25.3
		c2-12.6,6-24.6,12.6-35.2c6.6-14,15.3-27.3,25.3-38.6c2.7-2.7,5.3-5.3,7.3-8c6.6-8,14.6-16,22.6-23.3c4-3.3,8.6-6.6,13.3-10
		c0,0,0.7,0,0.7-0.7c2-0.7,3.3-1.3,4.7-2.7c0.7-2-0.7-5.3-1.3-8.6c-0.7-1.3-0.7-2.7-1.3-3.3c-1.3-9.3,1.3-18,8-24.6
		c0.7-0.7,1.3-1.3,2-2c2-1.3,3.3-3.3,4.7-5.3c-0.7-2.7-1.3-4.7-2.7-6.6c-1.3-2.7-2-5.3-2.7-8c0-0.7,0-1.3,0.7-2c0.7-0.7,1.3-0.7,2,0
		c0.7,0,0.7,0.7,0.7,1.3c0.7,2.7,1.3,5.3,2.7,8c0.7,1.3,1.3,2.7,2,4.7c0,0,0.7,0,0.7-0.7c0,0,0-0.7,0.7-0.7l0,0l0,0
		c0-0.7,0.7-2,0.7-2.7c0-1.3,0.7-2.7,0.7-3.3c0-3.3,0.7-6.6,1.3-9.3c0-0.7,0.7-1.3,1.3-1.3c0.7,0,1.3,0,2,0c0.7,0.7,1.3,1.3,0.7,2
		c-0.7,2.7-1.3,6-1.3,8.6v1.3c0,1.3-0.7,2.7-0.7,4l0,0h0.7c0.7,0,0.7,0,1.3,0.7c0.7-1.3,1.3-2,2-3.3c1.3-2,2-3.3,3.3-5.3
		c0.7-1.3,2-2.7,2.7-4.7c0.7-0.7,1.3-1.3,2.7-0.7l0,0c0.7,0,0.7,0.7,0.7,1.3c0,0.7,0,0.7,0,1.3c-0.7,0.7-0.7,1.3-1.3,2
		c-1.3,2.7-3.3,6-5.3,8.6c-0.7,1.3-2,2.7-2.7,4v0.7c0.7,0,0.7-0.7,1.3-0.7c0.7-0.7,1.3-1.3,2-1.3c2.7-2,5.3-4.7,7.3-7.3
		c0.7-0.7,1.3-0.7,2-0.7c0.7,0.7,0.7,0.7,1.3,1.3c0,0.7,0,1.3-0.7,1.3c-3.3,3.3-6.6,6.6-10,9.3l0,0c0,0,0,0-0.7,0c-0.7,0,0,0,0,0
		c1.3,0,2-0.7,3.3-0.7c0.7,0,2,0,2.7-0.7c0.7,0,0.7,0,1.3,0c4-3.3,8-6,13.3-8c5.3-2,10-4.7,14.6-8c3.3-3.3,8-3.3,11.3-0.7
		c0.7,0,1.3,0.7,1.3,0.7c6,4,5.3,13.3,4.7,16.6c-1.3,12-5.3,23.9-12,34.6c-7.3,10-16.6,18.6-27.3,24.6c-0.7,0-0.7,0.7-1.3,0.7
		c-4,2-7.3,5.3-9.3,9.3c-2,4.7-1.3,10,1.3,14.6c0,0.7,0.7,2,0.7,2.7c1.3,3.3,2,7.3,2,11.3c-0.7,5.3-3.3,10-7.3,13.3
		c-2,2.7-5.3,6.6-8.6,10v0.7l0,0l0,0l0,0l0,0v0.7l0,0l0,0l0,0v0.7l0,0l0,0l0,0c0.7,0.7,0.7,2,0,2.7c-0.7,0.7-1.3,0.7-2.7,0
		c0,0,0,0-0.7-0.7c-0.7-0.7-0.7-1.3-1.3-2c-0.7,3.3-0.7,7.3,0,10.6c0,0.7,0,2,0,2.7c0,0.7,0,1.3-0.7,1.3c-0.7,0.7-1.3,0.7-2,0
		c-0.7,0-0.7-0.7-1.3-1.3c0-0.7,0-1.3,0-2c-0.7-4-0.7-7.3,0-11.3l0,0c-0.7,2-1.3,3.3-1.3,5.3c0,1.3-0.7,2-0.7,3.3
		c0,1.3-0.7,3.3-0.7,4.7c0,0.7-0.7,1.3-0.7,1.3c-1.3,0.7-2.7,0-2.7-1.3c0,0,0-0.7,0-1.3c0.7-4,1.3-8,2.7-12c-1.3,2.7-3.3,5.3-5.3,8
		c-0.7,0.7-1.3,1.3-2.7,0.7l0,0c-0.7,0-0.7-0.7-0.7-1.3c0-0.7,0-0.7,0-1.3c1.3-2,2.7-4,3.3-5.3c-1.3,1.3-3.3,2-4.7,2.7
		c-0.7,0-1.3,0-2,0c-0.7-0.7-1.3-1.3-1.3-2c0-0.7,0.7-1.3,1.3-1.3c2.7-1.3,5.3-3.3,8-5.3c1.3-0.7,2-1.3,3.3-2c0-0.7,0.7-0.7,0.7-1.3
		c0.7-0.7,1.3-2,2-3.3c3.3-5.3,5.3-11.3,4.7-17.3c-4,0-7.3,5.3-10,10.6c-0.7,1.3-1.3,2.7-2,4l-1.3,2c-4.7,6.6-9.3,14-14,21.3
		c-3.3,4-6.6,8.6-9.3,13.3c-4,5.3-7.3,11.3-12,16.6c-2.7,3.3-5.3,6.6-8.6,8.6c-0.7,0.7-1.3,0.7-2.7,1.3c-2,0.7-3.3,2-4.7,3.3
		c6.6,0.7,14,0,20.6-2c2-0.7,3.3-1.3,5.3-2c1.3-4,1.3-8.6,0-12.6c0-0.7,0-1.3,0.7-2c0.7-0.7,1.3-0.7,2.7,0c0.7,0,0.7,0.7,0.7,1.3
		c1.3,3.3,1.3,7.3,0.7,10.6c0.7,0,0.7-0.7,1.3-0.7c0-0.7,0-2,0.7-2.7c0.7-3.3,0.7-6.6,0.7-10.6c0-0.7,0-1.3,0.7-1.3
		c0.7-0.7,1.3-0.7,2,0c0.7,0.7,0.7,0.7,0.7,1.3c0,3.3-0.7,6.6-0.7,10c0,1.3-0.7,2.7-0.7,4c2.7-4.7,6-8.6,10-13.3
		c0.7-0.7,1.3-0.7,2-0.7c0.7,0.7,0.7,0.7,1.3,1.3c0,0.7,0,1.3-0.7,1.3c-4,4-7.3,8.6-10,13.3l0.7,0.7h0.7c1.3,0,2.7-0.7,4-0.7
		c3.3-0.7,6.6-2,10-3.3c0.7,0,1.3,0,2,0c0.7,0.7,1.3,1.3,1.3,2s-0.7,1.3-1.3,1.3c-3.3,1.3-7.3,2.7-10.6,4c-0.7,0-2,0.7-2.7,0.7h-0.7
		c-0.7,0.7-0.7,1.3-1.3,2.7c-0.7,1.3-0.7,2-0.7,3.3c2,0.7,3.3,1.3,5.3,2c0.7,0,2,0.7,2.7,0.7c0,0,0,0,0.7,0c0.7,0.7,1.3,2,0.7,2.7
		c-0.7,0.7-1.3,1.3-2,0.7l0,0c-0.7,0-2-0.7-2.7-0.7c-2.7-0.7-4.7-1.3-7.3-2.7c-0.7,0-0.7,0-1.3,0.7c-0.7,0.7-1.3,0.7-2.7,1.3
		c-4.7,1.3-8.6,2-13.3,0.7c-1.3,0-2.7,0-4,0c-8-1.3-14,0-18,3.3c-1.3,1.3-2,2-2.7,3.3c-0.7,1.3-2,2.7-2.7,3.3c-2.7,2-5.3,3.3-8,4.7
		c-0.7,0.7-2,1.3-2.7,2c-4.7,3.3-4.7,6.6-4.7,11.3c0,3.3,0,6.6-0.7,9.3c-3.3,14.6-10,27.9-20.6,37.9c-10,10.6-21.9,18.6-35.2,23.9
		c-10,4.7-19.9,8-30.6,10.6C140.3,418.2,134.3,418.2,128.3,416.2z M340.4,125.7c-1.3,0-2.7,0-4,0s-2.7,0.7-4,0.7h-1.3
		c-1.3,0.7-2.7,0.7-4.7,0.7v0.7c0,1.3,0,2-0.7,3.3c-0.7,2-2,4.7-3.3,6c-1.3,1.3-2,3.3-2.7,4.7c-2,4-0.7,6,3.3,10.6l2,2
		c1.3-3.3,3.3-6,6-9.3c1.3-2,3.3-4,4.7-6.6c1.3-2.7,2-4.7,2.7-7.3C338.5,130.3,339.1,128.3,340.4,125.7z"/>
</g>
</svg>
