<?xml version="1.0" encoding="utf-8"?>
<!-- Generator: Adobe Illustrator 21.0.2, SVG Export Plug-In . SVG Version: 6.00 Build 0)  -->
<svg version="1.1" id="Layer_1" xmlns="http://www.w3.org/2000/svg" xmlns:xlink="http://www.w3.org/1999/xlink" x="0px" y="0px"
	 width="908px" height="437px" viewBox="0 0 908 437" style="enable-background:new 0 0 908 437;" xml:space="preserve">
<style type="text/css">
	.st0{fill:#EBEAEB;}
</style>
<title>Group 261</title>
<desc>Created with Sketch.</desc>
<title>Group 261</title>
<desc>Created with Sketch.</desc>
<g>
	<g id="_x30_.0---Homepage_4_">
		<g id="PhoenixZoo-Homepage_V3.0_4_" transform="translate(-77.000000, -1459.000000)">
			<g id="Critters_4_" transform="translate(73.000000, 1459.000000)">
				<g id="stone-pattern_4_">
					
						<g id="Group-261_4_" transform="translate(479.500000, 221.500000) rotate(-90.000000) translate(-479.500000, -221.500000) translate(258.000000, -258.000000)">
						<g id="Group-3_4_" transform="translate(0.000000, 175.000000)">
							<g id="Clip-2_4_">
							</g>
						</g>
						<path id="Fill-4_2_" class="st0" d="M44.6,70.3c0,0-45.8,13-37.6,53.8s69,68,85,66.7c16-1.3,59.1-12.1,56.9-39.9
							c-2.2-27.8,5-59.5-38.7-74.3C66.6,61.8,44.6,70.3,44.6,70.3L44.6,70.3z"/>
						<path id="Fill-12_2_" class="st0" d="M201.2,112.3c19.3,5.1,61.2,13.1,66.7,44.8c5.5,31.8,5,45.3-12.7,55.6
							c-17.6,10.3-66.2,8.9-77.2-13.1s-20.2-47.2-17.6-69.5C163,107.6,201.2,112.3,201.2,112.3L201.2,112.3z"/>
						<path id="Fill-20_2_" class="st0" d="M278.5,457.3c-8.2,19.4-21.5,61.6-67,65.7c-45.5,4.1-64.8,3-78.6-15.5
							c-13.8-18.4-9.6-67.7,22.2-77.9s68.1-18.4,99.9-14.7C286.9,418.8,278.5,457.3,278.5,457.3L278.5,457.3z"/>
						<path id="Fill-28_2_" class="st0" d="M209.2,38.2c7.5,7.1,21.6,33.5,8.1,51c-13.5,17.5-41.4,21.5-55.7,14.7
							c-14.3-6.8-25.9-22-29.2-35.8c-3.2-13.8,8.6-40.4,27-43.2C177.9,22.2,195.7,25.4,209.2,38.2L209.2,38.2z"/>
						<path id="Fill-36_2_" class="st0" d="M266.4,36.1c1.7,11,12.8,11.9,5.8,28c-7,16-7.4,28.2-24.6,19.6
							c-17.2-8.7-17.8-30.8-16.9-36.5c0.9-5.7,12.8-18,21.7-17.6C261.4,30,266.4,36.1,266.4,36.1L266.4,36.1z"/>
						<path class="st0" d="M119.6,29.6C108.5,24,104.3,12.8,103,4h43.2c-0.3,1.8-1,3.8-2,6.1C137.3,26.1,136.8,38.3,119.6,29.6z"/>
						<path id="Fill-60_2_" class="st0" d="M102.4,560.2c0,0-28.4,33.2,6.4,62.2c34.8,29.1,103.1,21.3,115.2,12.3s39.8-39,18.9-60.5
							c-20.9-21.5-37-50.9-82.7-41.4C114.5,542.4,102.4,560.2,102.4,560.2L102.4,560.2z"/>
						<path id="Fill-68_2_" class="st0" d="M276.4,516.6c1.7,11,12.8,11.9,5.8,28c-7,16-7.4,28.2-24.6,19.6
							c-17.2-8.7-17.8-30.8-16.9-36.5s12.8-18,21.7-17.6C271.4,510.6,276.4,516.6,276.4,516.6L276.4,516.6z"/>
						<g id="Group-84_4_" transform="translate(276.500000, 53.500000)">
							<g id="Clip-83_4_">
							</g>
						</g>
						<path class="st0" d="M300,79.5c-23.7-4.7-18.6-24.6-18.6-58.4c0-5.9,0.5-11.6,1.2-17.1h128.1c33.3,23.7,13.1,54.3-0.3,61.3
							c-13.5,7.1-36.1,3.3-53.5,11.4C339.5,84.7,323.7,84.2,300,79.5z"/>
						<path id="Fill-93_2_" class="st0" d="M222.2,249.9c-2,1.6-14.4,17.8-19.8,38c-5.4,20.2-11.1,31.6-0.1,36.7
							c10.9,5.1,18.7,6.8,28.6,3.7c9.9-3.2,20.5,1.2,28.3-1.7c7.8-3,22.8-19.4,9.8-36.7c-12.9-17.3-12.4-14.9-18.3-23.7
							C244.8,257.2,231.8,242.3,222.2,249.9L222.2,249.9z"/>
						<path id="Fill-103_2_" class="st0" d="M416.8,711.8c1.8-1.3,13.3-14.8,19.1-32.1c5.8-17.3,11.3-27,2.3-31.8
							c-9-4.9-15.5-6.7-24.1-4.4c-8.6,2.3-17.3-2-24.1,0.3c-6.8,2.2-20.5,15.9-10.5,31.5c10,15.6,9.7,13.4,14.1,21.4
							C398,704.5,408.2,718,416.8,711.8L416.8,711.8z"/>
						<path id="Fill-109_2_" class="st0" d="M87.2,625.6c-2,1.6-14.4,17.8-19.8,38s-11.1,31.6-0.1,36.7c10.9,5.1,18.7,6.8,28.6,3.7
							c9.9-3.2,20.5,1.2,28.3-1.7c7.8-3,22.8-19.4,9.8-36.7c-12.9-17.3-12.4-14.9-18.3-23.7C109.8,632.8,96.8,618,87.2,625.6
							L87.2,625.6z"/>
						<path id="Fill-119_2_" class="st0" d="M318.9,91.4c-17.8-1.6-28.7-5.9-40,0c-11.3,5.9-12.2,26-4.2,34.7
							c8,8.7,13.6,17,35.3,11.5c21.6-5.5,36.2-11.8,45.6-9.5s23.5-18.2,10.8-25C353.7,96.4,342.8,93.5,318.9,91.4L318.9,91.4z"/>
						<path id="Fill-125_2_" class="st0" d="M270.8,728.2c39.2-3.8,65,1.1,86-16.1c21-17.2,11.6-61-10.5-76.6
							c-22.1-15.6-39-31.3-82.4-10.6s-71.2,40-92.8,38.8c-21.5-1.3-40.3,48.8-9.1,58.2C193.1,731.3,218.3,733.3,270.8,728.2
							L270.8,728.2z"/>
						<path id="Fill-133_2_" class="st0" d="M200.9,261.3c0.5-13.9-0.5-18.6-17-33.9s-5.7-22.6-27.3-24.4
							c-21.6-1.7-29.3-11.3-31.4,13.5c-2.1,24.8-3.6,35.7,10.3,44.8C149.5,270.5,200.4,277,200.9,261.3L200.9,261.3z"/>
						<path class="st0" d="M50.6,54.5c-13.9-9.1-12.3-20-10.3-44.8c0.2-2.1,0.4-4,0.7-5.7h46.5c1.9,3.9,3.6,9.4,11.4,16.7
							c16.5,15.3,17.4,20,17,33.9C115.4,70.1,64.5,63.6,50.6,54.5z"/>
						<g id="Group-149_4_" transform="translate(203.000000, -0.000000)">
							<g id="Clip-148_4_">
							</g>
						</g>
						<path id="Fill-150_1_" class="st0" d="M284.9,798.8c0.5-13.9-0.5-18.6-17-33.9c-16.5-15.3-5.7-22.6-27.3-24.4
							c-21.6-1.7-29.3-11.3-31.4,13.5c-2.1,24.8-3.6,35.7,10.3,44.8C233.5,808,284.4,814.5,284.9,798.8L284.9,798.8z"/>
						<path id="Fill-158_2_" class="st0" d="M357.9,526c0.5-13.9-0.5-18.6-17-33.9c-16.5-15.3-5.7-22.6-27.3-24.4
							c-21.6-1.7-29.3-11.3-31.4,13.5c-2.1,24.8-3.6,35.7,10.3,44.8C306.4,535.1,357.4,541.7,357.9,526L357.9,526z"/>
						<path class="st0" d="M223.8,22.4c-0.9-2.7-22.5-4.5-46.4-6.7c-8.2-0.8-13.7-5.4-17.6-11.7h107.1c0.5,4-1,7.5-3.2,10
							c-5.5,6.3-30-2.9-30,5.4C233.7,27.7,224.7,25,223.8,22.4z"/>
						<path id="Fill-174_2_" class="st0" d="M292.5,437.9c-6.9-8.2-18-36.9-1.1-53.4c16.9-16.5,47.1-17.6,61.3-9.1
							c14.1,8.5,24.3,25.5,25.7,40.1c1.4,14.6-15.2,40.7-35.1,41.6C323.4,457.9,305,452.6,292.5,437.9L292.5,437.9z"/>
						<path id="Fill-182_2_" class="st0" d="M323.9,556.4c0.7,7.2-3,31.7-16.2,44.4c-13.2,12.7-27.9,11.8-31.9,3.9
							c-4-7.9-3.5-22.6,0.4-34.8s19.9-32.9,29.6-32.4S322.6,543.4,323.9,556.4L323.9,556.4z"/>
						<g id="Group-190_4_" transform="translate(163.000000, 905.000000)">
							<g id="Clip-189_4_">
							</g>
						</g>
						<path id="Fill-191_2_" class="st0" d="M192.5,797.5c8.6,0.6,36.7,7.9,49.4,21.1c12.7,13.1,9.1,25.2-0.9,27.1
							c-10,2-27.2-1-40.8-6.3c-13.6-5.3-35.2-22.2-33-30.2C169.4,801.3,177,796.3,192.5,797.5L192.5,797.5z"/>
						<path id="Fill-199_2_" class="st0" d="M145.3,366.9c20.7-9.7,15-26.5,51.5-27c36.5-0.6,61-8,55.3,22.7
							c-5.6,30.7-49.1,46.2-61.1,48.7c-11.9,2.5-44.4-6.6-49.5-19.8C136.5,378.2,145.3,366.9,145.3,366.9L145.3,366.9z"/>
						<path id="Fill-207_2_" class="st0" d="M301.3,758.5c20.7-9.7,15-26.5,51.5-27c36.5-0.6,61-8,55.3,22.7
							c-5.6,30.7-49.1,46.2-61.1,48.7c-11.9,2.5-44.4-6.6-49.5-19.8C292.5,769.8,301.3,758.5,301.3,758.5L301.3,758.5z"/>
						<path id="Fill-215_2_" class="st0" d="M342.1,297.5c-9.7,0.2,0.4-20.8-7.2-25.3s-21.9-5.1-37,16c-15.2,21.1-23,25.3-26.3,38
							c-3.3,12.7-11.1,48.8,6.8,45.3c17.9-3.6,59.1-5.9,61.1-26.2s3.5-38.7,6.6-39.5C349.2,305,352.1,297.3,342.1,297.5L342.1,297.5
							z"/>
						<path id="Fill-223_2_" class="st0" d="M167.2,786.4c-1.4-10.6,24.4-1.4,28.8-10c4.4-8.6,3.5-24.3-22.8-39
							c-26.3-14.8-32.1-22.9-47.3-25.4s-58.4-7.9-52.2,11.2c6.2,19.2,13.5,63.8,37.4,64.2c24,0.4,45.6,0.5,46.9,3.9
							C159.2,794.8,168.6,797.3,167.2,786.4L167.2,786.4z"/>
						<path id="Fill-225_2_" class="st0" d="M103.5,435.6c0,0,34.4,0.5,31.3-21.9s-45.5-46.2-57.3-48s-44-3.1-44.4,11.6
							s-8,30.1,22.8,44.6C86.7,436.5,103.5,435.6,103.5,435.6L103.5,435.6z"/>
						<path id="Fill-239_2_" class="st0" d="M251.5,253.9c0,0,33.7,34.2,59.3,2.2c25.5-32,80-75,61.5-90.2
							c-18.5-15.2-36.5-40.2-61.8-12.8c-25.3,27.4-33,67.3-46,69.8C251.3,225.4,240.6,245.5,251.5,253.9L251.5,253.9z"/>
						<path id="Fill-247_2_" class="st0" d="M72.1,231.9c0,0-46.9,20.8-15,48.9c31.9,28,70.5,82.4,92.1,70.2s54.4-21.9,27.9-48.7
							c-26.5-26.9-71.4-41.7-71.6-53.1C105.4,237.8,84.2,224.6,72.1,231.9L72.1,231.9z"/>
						<path id="Fill-255_2_" class="st0" d="M374.7,833.4c0,0,3.6-25.4-23.7-24.3c-27.3,1.1-72.5-5.6-72.6,7.1
							c-0.1,12.7-5.5,28.6,19.3,29.1c24.8,0.5,48.7-10.4,55.5-6.1C360,843.5,374.9,840.7,374.7,833.4L374.7,833.4z"/>
					</g>
				</g>
			</g>
		</g>
	</g>
	<g id="_x30_.0---Homepage_3_">
		<g id="PhoenixZoo-Homepage_V3.0_3_" transform="translate(-77.000000, -1459.000000)">
			<g id="Critters_3_" transform="translate(73.000000, 1459.000000)">
				<g id="stone-pattern_3_">
					
						<g id="Group-261_3_" transform="translate(479.500000, 221.500000) rotate(-90.000000) translate(-479.500000, -221.500000) translate(258.000000, -258.000000)">
						<g id="Group-3_3_" transform="translate(0.000000, 175.000000)">
							<g id="Clip-2_3_">
							</g>
						</g>
						<path class="st0" d="M146.2,912H103c-0.7-4.8-0.6-8.9-0.3-10.9c0.9-5.7,12.8-18,21.8-17.6c8.9,0.4,13.9,6.6,13.9,6.6
							C139.8,899.5,148.2,901.5,146.2,912z"/>
						<g id="Group-84_3_" transform="translate(276.500000, 53.500000)">
							<g id="Clip-83_3_">
							</g>
						</g>
						<path class="st0" d="M410.6,912H282.6c3.8-26.2,14.9-46.9,17.4-49.5c14.7-15.2,47.3,4.7,63.1,17c15.8,12.3,13.5,8.5,47.3,32.2
							C410.5,911.8,410.5,911.9,410.6,912z"/>
						<path class="st0" d="M87.5,912H41c2.8-17.4,11-9.3,30.7-7.7C83,905.1,85.3,907.6,87.5,912z"/>
						<g id="Group-149_3_" transform="translate(203.000000, -0.000000)">
							<g id="Clip-148_3_">
							</g>
						</g>
						<path class="st0" d="M266.9,912H159.8c-7.6-12.2-9-30.8-11.5-40.8c-3.7-15.2,38.8-7.6,53.6-4.5c14.9,3.1,19.7,9.9,44.1,23.3
							C260.7,898.1,266.1,905.8,266.9,912z"/>
						<g id="Group-190_3_" transform="translate(163.000000, 905.000000)">
							<g id="Clip-189_3_">
							</g>
						</g>
						<path id="Fill-231_1_" class="st0" d="M123.4,843.6c-9.2-2.8,9.3-19.2,4.2-25.7c-5.1-6.5-18.1-11.5-41.3,3.3
							c-23.2,14.9-32.3,16.4-40.8,27.1s-31.3,41.9-13.2,44.1c18.2,2.2,57.5,12.9,68-5.3c10.6-18.2,19.9-34.8,23.2-34.6
							C126.8,852.8,132.8,846.5,123.4,843.6L123.4,843.6z"/>
					</g>
				</g>
			</g>
		</g>
	</g>
</g>
</svg>
