<?xml version="1.0" encoding="utf-8"?>
<!-- Generator: Adobe Illustrator 21.0.2, SVG Export Plug-In . SVG Version: 6.00 Build 0)  -->
<svg version="1.1" id="Layer_1" xmlns="http://www.w3.org/2000/svg" xmlns:xlink="http://www.w3.org/1999/xlink" x="0px" y="0px"
	 width="29px" height="29px" viewBox="0 0 29 29" style="enable-background:new 0 0 29 29;" xml:space="preserve">
<style type="text/css">
	.st0{fill:#D7D7D7;}
</style>
<path class="st0" d="M27,0H2C0.9,0,0,0.9,0,2v25c0,1.1,0.9,2,2,2h25c1.1,0,2-0.9,2-2V2C29,0.9,28.1,0,27,0z M25.3,7.9
	C25.2,8,25.2,8,25.1,8.1c-0.6,0.6-1.1,1.2-1.7,1.7c-0.2,0.2-0.3,0.3-0.3,0.6c0,1.3-0.1,2.7-0.6,4c-1.5,4.4-4.4,7.5-9,8.6
	c-0.7,0.2-1.4,0.2-2.1,0.4H9.5c-0.1,0-0.2,0-0.3,0c-1.7-0.1-3.4-0.7-4.9-1.5c-0.2-0.1-0.5-0.3-0.7-0.4c2.3,0.1,4.5-0.5,6.4-1.9
	c-2.1-0.2-3.4-1.2-4.2-3.1h1.9v-0.1c-1-0.3-1.8-0.8-2.5-1.6c-0.6-0.8-1-1.7-0.9-2.7c0.6,0.2,1.2,0.3,1.8,0.5c0,0,0-0.1,0.1-0.1
	c-0.9-0.7-1.5-1.6-1.7-2.7C4.3,8.5,4.5,7.5,5,6.5c2.5,2.8,5.5,4.4,9.2,4.7c0-0.2,0-0.4,0-0.6c-0.2-2.1,1.1-4.1,3.2-4.7
	c0.3-0.1,0.5-0.1,0.8-0.2h1c0,0,0.1,0,0.1,0.1c0.9,0.1,1.8,0.6,2.5,1.2C21.8,7,22,7,22.2,7c0.5-0.2,1.1-0.4,1.6-0.5
	c0.3-0.1,0.6-0.3,0.9-0.4c-0.3,1-0.9,1.8-1.8,2.4c0.2,0,0.2,0,0.3,0C23.9,8.2,24.6,8,25.3,7.9L25.3,7.9z"/>
</svg>
