<?xml version="1.0" encoding="utf-8"?>
<!-- Generator: Adobe Illustrator 21.0.2, SVG Export Plug-In . SVG Version: 6.00 Build 0)  -->
<svg version="1.1" id="Layer_1" xmlns="http://www.w3.org/2000/svg" xmlns:xlink="http://www.w3.org/1999/xlink" x="0px" y="0px"
	 width="29px" height="29px" viewBox="0 0 29 29" style="enable-background:new 0 0 29 29;" xml:space="preserve">
<style type="text/css">
	.st0{fill:#D7D7D7;}
</style>
<polygon class="st0" points="12.4,11.1 17.9,14.5 12.4,17.9 "/>
<path class="st0" d="M27,0H2C0.9,0,0,0.9,0,2v25c0,1.1,0.9,2,2,2h25c1.1,0,2-0.9,2-2V2C29,0.9,28.1,0,27,0z M25,19.7
	c-0.3,0.9-1.1,1.7-2.1,2c-1.7,0.4-8.5,0.4-8.5,0.4s-6.7,0-8.5-0.4c-0.9-0.3-1.9-1-2.1-2c-0.5-1.7-0.4-5.2-0.4-5.2s0-3.5,0.4-5.2
	c0.3-0.9,1.2-1.7,2.1-2c1.7-0.5,8.5-0.4,8.5-0.4s6.9,0,8.6,0.5c1,0.3,1.7,1,2,1.9c0.5,1.7,0.5,5.2,0.5,5.2S25.5,18,25,19.7z"/>
<g>
	<g>
		<polygon class="st0" points="17.9,14.5 12.4,17.9 12.4,11.1 		"/>
	</g>
	<polygon class="st0" points="17.9,14.5 12.4,17.9 12.4,11.1 	"/>
</g>
</svg>
